<svg width="30" height="30" viewBox="0 0 30 30" fill="none" xmlns="http://www.w3.org/2000/svg">
<circle cx="15" cy="15" r="15" fill="white"/>
<path d="M12.1462 19.6467L16.7927 15.0002L12.1462 10.3537C12.0551 10.2594 12.0047 10.1331 12.0059 10.002C12.007 9.8709 12.0596 9.7455 12.1523 9.65279C12.245 9.56009 12.3704 9.50751 12.5015 9.50637C12.6326 9.50523 12.7589 9.55562 12.8532 9.6467L17.8532 14.6467C17.8996 14.6931 17.9365 14.7482 17.9616 14.8089C17.9867 14.8695 17.9997 14.9345 17.9997 15.0002C17.9997 15.0659 17.9867 15.1309 17.9616 15.1915C17.9365 15.2522 17.8996 15.3073 17.8532 15.3537L12.8532 20.3537C12.7589 20.4448 12.6326 20.4952 12.5015 20.494C12.3704 20.4929 12.245 20.4403 12.1523 20.3476C12.0596 20.2549 12.007 20.1295 12.0059 19.9984C12.0047 19.8673 12.0551 19.741 12.1462 19.6467Z" fill="#0069D1"/>
</svg>
