<svg width="24" height="24" viewBox="0 0 24 24" fill="none" xmlns="http://www.w3.org/2000/svg">
<path d="M9.1467 16.6467L13.7932 12.0002L9.1467 7.3537C9.05562 7.2594 9.00523 7.1331 9.00637 7.002C9.00751 6.8709 9.06009 6.7455 9.15279 6.65279C9.2455 6.56009 9.37091 6.50751 9.502 6.50637C9.6331 6.50523 9.7594 6.55562 9.8537 6.6467L14.8537 11.6467C14.9001 11.6931 14.937 11.7482 14.9621 11.8089C14.9872 11.8695 15.0002 11.9345 15.0002 12.0002C15.0002 12.0659 14.9872 12.1309 14.9621 12.1915C14.937 12.2522 14.9001 12.3073 14.8537 12.3537L9.8537 17.3537C9.7594 17.4448 9.6331 17.4952 9.502 17.494C9.37091 17.4929 9.2455 17.4403 9.15279 17.3476C9.06009 17.2549 9.00751 17.1295 9.00637 16.9984C9.00523 16.8673 9.05562 16.741 9.1467 16.6467Z" fill="#33E47A"/>
</svg>
