<svg width="24" height="24" viewBox="0 0 24 24" fill="none" xmlns="http://www.w3.org/2000/svg">
<path fill-rule="evenodd" clip-rule="evenodd" d="M12.1229 15.334C14.8917 12.574 17.5933 9.87639 20.2277 7.24119C20.3727 7.10326 20.5652 7.02633 20.7653 7.02633C20.9654 7.02633 21.1579 7.10326 21.3029 7.24119C21.7181 7.61439 21.6821 8.20479 21.3989 8.47359C18.6605 11.2048 15.7985 14.062 12.8129 17.0452C12.6185 17.282 12.3889 17.4004 12.1241 17.4004C11.8593 17.4004 11.6225 17.282 11.4137 17.0452L2.64649 8.06559C2.48833 7.8932 2.4035 7.666 2.41 7.43214C2.41649 7.19827 2.5138 6.97613 2.6813 6.81279C3.11209 6.38319 3.53689 6.54879 3.73849 6.74319C6.52949 9.61129 9.32469 12.4753 12.1241 15.3352" fill="white"/>
</svg>
