<svg width="11" height="18" viewBox="0 0 11 18" fill="none" xmlns="http://www.w3.org/2000/svg">
<path d="M8.53911 3.04821H10.2077V0.00185415H7.17538C6.92243 -0.00867111 3.83891 -0.0676127 3.03969 2.98014C3.02811 3.01207 2.7727 3.73691 2.7727 5.43007L0 5.43849V8.6336L2.77621 8.62553V17.0531H7.01679V8.6329H9.82356V5.42936H7.01679V4.4214C7.01679 3.79479 7.28101 3.04821 8.53911 3.04821ZM9.12184 6.1307V7.93086H6.31517V16.3511H3.47789V7.92174L0.701687 7.92981V6.13806L3.48526 6.12999L3.47789 5.77319C3.4414 3.97969 3.69717 3.22538 3.70875 3.18925C4.3985 0.564253 7.03223 0.69617 7.14525 0.70319L9.506 0.703891V2.34687H8.53911C6.8996 2.34687 6.31545 3.41835 6.31545 4.42105V6.1307H9.12184Z" fill="#0069D1"/>
</svg>
