<svg width="30" height="31" viewBox="0 0 30 31" fill="none" xmlns="http://www.w3.org/2000/svg">
<path d="M18.4882 30.5496L14.9755 29.9329L11.4629 30.5496L13.6702 19.0223L14.0974 18.6665H15.83L16.2572 19.0223L18.4645 30.5496H18.4882Z" fill="#03A8E2"/>
<path d="M12.4841 17.718L12.3892 18.2636L3.4889 25.9248L2.27847 22.5804L0 19.8527L11.0838 15.9866L11.606 16.1763L12.4604 17.6706L12.4841 17.718Z" fill="#0069D1"/>
<path d="M12.4839 12.8318L11.6294 14.3261L11.1073 14.5158L0.0234375 10.6496L2.30191 7.92199L3.51236 4.57764L12.4127 12.2388L12.5076 12.7843L12.4839 12.8318Z" fill="#0069D1"/>
<path d="M18.4879 0L16.2806 11.5273L15.8534 11.8831H14.1208L13.6936 11.5273L11.4863 0L14.999 0.61669L18.5116 0H18.4879Z" fill="#0069D1"/>
<path d="M29.976 10.6732L18.8922 14.5394L18.37 14.3497L17.5156 12.8554L17.6106 12.3098L26.5108 4.64868L27.7213 7.99302L29.9998 10.7207L29.976 10.6732Z" fill="#0069D1"/>
<path d="M29.9763 19.8766L27.6979 22.6043L26.4874 25.9486L17.5871 18.2874L17.4922 17.7419L18.3466 16.2476L18.8688 16.0579L29.9526 19.924L29.9763 19.8766Z" fill="#0069D1"/>
<path d="M15.9486 13.5911H14.0024L13.0293 15.2751L14.0024 16.9591H15.9486L16.9217 15.2751L15.9486 13.5911Z" fill="#03A8E2"/>
</svg>
