<svg width="14" height="14" viewBox="0 0 14 14" fill="none" xmlns="http://www.w3.org/2000/svg">
<path d="M7.22082 6.14795H6.34102L5.90112 6.90972L6.34102 7.67149H7.22082L7.66072 6.90972L7.22082 6.14795Z" fill="#03A8E2"/>
<path d="M8.35822 13.8194L6.7703 13.5405L5.18237 13.8194L6.18019 8.60503L6.37331 8.44409H7.15655L7.34968 8.60503L8.34749 13.8194H8.35822Z" fill="#03A8E2"/>
<path d="M5.64357 8.01468L5.60065 8.26145L1.57719 11.727L1.03 10.2142L0 8.98031L5.01054 7.23145L5.24658 7.31728L5.63284 7.99322L5.64357 8.01468Z" fill="#0069D1"/>
<path d="M5.64358 5.80457L5.25733 6.48051L5.02129 6.56634L0.0107422 4.81748L1.04074 3.58362L1.58794 2.0708L5.6114 5.53634L5.65431 5.78311L5.64358 5.80457Z" fill="#0069D1"/>
<path d="M8.35823 0L7.36042 5.2144L7.16729 5.37534H6.38406L6.19093 5.2144L5.19312 0L6.78104 0.27896L8.36897 0H8.35823Z" fill="#0069D1"/>
<path d="M13.5511 4.82824L8.54051 6.57711L8.30446 6.49127L7.91821 5.81533L7.96113 5.56856L11.9846 2.10303L12.5318 3.61584L13.5618 4.8497L13.5511 4.82824Z" fill="#0069D1"/>
<path d="M13.551 8.99108L12.521 10.2249L11.9738 11.7378L7.95039 8.27222L7.90747 8.02545L8.29373 7.3495L8.52977 7.26367L13.5403 9.01253L13.551 8.99108Z" fill="#0069D1"/>
</svg>
