<svg width="210" height="34" viewBox="0 0 210 34" fill="none" xmlns="http://www.w3.org/2000/svg">
<rect width="210" height="34" rx="17" fill="#03A8E2" fill-opacity="0.2"/>
<path d="M23.978 24.6709L22.2722 24.3712L20.5664 24.6709L21.6383 19.0694L21.8458 18.8965H22.6871L22.8946 19.0694L23.9665 24.6709H23.978Z" fill="#03A8E2"/>
<path d="M21.0625 18.4361L21.0164 18.7012L16.6943 22.424L16.1065 20.7989L15 19.4734L20.3825 17.5947L20.6361 17.6869L21.051 18.4131L21.0625 18.4361Z" fill="#0069D1"/>
<path d="M21.0627 16.0617L20.6478 16.7879L20.3942 16.8801L15.0117 15.0014L16.1182 13.6759L16.706 12.0508L21.0282 15.7736L21.0743 16.0387L21.0627 16.0617Z" fill="#0069D1"/>
<path d="M23.9782 9.82617L22.9063 15.4277L22.6989 15.6006H21.8575L21.65 15.4277L20.5781 9.82617L22.2839 10.1258L23.9898 9.82617H23.9782Z" fill="#0069D1"/>
<path d="M29.5569 15.0125L24.1744 16.8912L23.9208 16.799L23.5059 16.0729L23.552 15.8078L27.8741 12.085L28.4619 13.7101L29.5684 15.0356L29.5569 15.0125Z" fill="#0069D1"/>
<path d="M29.5567 19.4846L28.4502 20.81L27.8624 22.4351L23.5402 18.7123L23.4941 18.4472L23.9091 17.7211L24.1626 17.6289L29.5452 19.5076L29.5567 19.4846Z" fill="#0069D1"/>
<path d="M22.4177 17H21.4726L21 17.8183L21.4726 18.6367H22.4177L22.8902 17.8183L22.4177 17Z" fill="#03A8E2"/>
<path d="M47.8484 23.4224V11.9024H49.0244V22.2944H54.4964V23.4224H47.8484ZM59.5162 23.6624C58.6736 23.6624 57.9429 23.4757 57.3242 23.1024C56.7109 22.729 56.2336 22.2037 55.8922 21.5264C55.5509 20.849 55.3802 20.0544 55.3802 19.1424C55.3802 18.1984 55.5482 17.3824 55.8842 16.6944C56.2202 16.0064 56.6922 15.4757 57.3002 15.1024C57.9136 14.729 58.6362 14.5424 59.4682 14.5424C60.3216 14.5424 61.0496 14.7397 61.6522 15.1344C62.2549 15.5237 62.7109 16.0837 63.0202 16.8144C63.3296 17.545 63.4709 18.417 63.4442 19.4304H62.2442V19.0144C62.2229 17.8944 61.9802 17.049 61.5162 16.4784C61.0576 15.9077 60.3856 15.6224 59.5002 15.6224C58.5722 15.6224 57.8602 15.9237 57.3642 16.5264C56.8736 17.129 56.6282 17.9877 56.6282 19.1024C56.6282 20.1904 56.8736 21.0357 57.3642 21.6384C57.8602 22.2357 58.5616 22.5344 59.4682 22.5344C60.0869 22.5344 60.6256 22.393 61.0842 22.1104C61.5482 21.8224 61.9136 21.409 62.1802 20.8704L63.2762 21.2944C62.9349 22.0464 62.4309 22.6304 61.7642 23.0464C61.1029 23.457 60.3536 23.6624 59.5162 23.6624ZM56.2122 19.4304V18.4464H62.8122V19.4304H56.2122ZM69.0996 23.6624C68.3049 23.6624 67.6329 23.4624 67.0836 23.0624C66.5343 22.657 66.1183 22.1104 65.8356 21.4224C65.5529 20.729 65.4116 19.953 65.4116 19.0944C65.4116 18.2197 65.5529 17.441 65.8356 16.7584C66.1236 16.0704 66.5449 15.529 67.0996 15.1344C67.6543 14.7397 68.3369 14.5424 69.1476 14.5424C69.9369 14.5424 70.6143 14.7424 71.1796 15.1424C71.7449 15.5424 72.1769 16.0864 72.4756 16.7744C72.7796 17.4624 72.9316 18.2357 72.9316 19.0944C72.9316 19.9584 72.7796 20.7344 72.4756 21.4224C72.1716 22.1104 71.7343 22.657 71.1636 23.0624C70.5929 23.4624 69.9049 23.6624 69.0996 23.6624ZM65.2116 23.4224V11.9024H66.3956V16.9184H66.2676V23.4224H65.2116ZM68.9796 22.5664C69.5823 22.5664 70.0836 22.4144 70.4836 22.1104C70.8836 21.8064 71.1823 21.393 71.3796 20.8704C71.5823 20.3424 71.6836 19.7504 71.6836 19.0944C71.6836 18.4437 71.5849 17.857 71.3876 17.3344C71.1903 16.8117 70.8889 16.3984 70.4836 16.0944C70.0836 15.7904 69.5743 15.6384 68.9556 15.6384C68.3529 15.6384 67.8516 15.785 67.4516 16.0784C67.0569 16.3717 66.7609 16.7797 66.5636 17.3024C66.3663 17.8197 66.2676 18.417 66.2676 19.0944C66.2676 19.761 66.3663 20.3584 66.5636 20.8864C66.7609 21.409 67.0596 21.8197 67.4596 22.1184C67.8596 22.417 68.3663 22.5664 68.9796 22.5664ZM78.3444 23.6624C77.5017 23.6624 76.771 23.4757 76.1524 23.1024C75.539 22.729 75.0617 22.2037 74.7204 21.5264C74.379 20.849 74.2084 20.0544 74.2084 19.1424C74.2084 18.1984 74.3764 17.3824 74.7124 16.6944C75.0484 16.0064 75.5204 15.4757 76.1284 15.1024C76.7417 14.729 77.4644 14.5424 78.2964 14.5424C79.1497 14.5424 79.8777 14.7397 80.4804 15.1344C81.083 15.5237 81.539 16.0837 81.8484 16.8144C82.1577 17.545 82.299 18.417 82.2724 19.4304H81.0724V19.0144C81.051 17.8944 80.8084 17.049 80.3444 16.4784C79.8857 15.9077 79.2137 15.6224 78.3284 15.6224C77.4004 15.6224 76.6884 15.9237 76.1924 16.5264C75.7017 17.129 75.4564 17.9877 75.4564 19.1024C75.4564 20.1904 75.7017 21.0357 76.1924 21.6384C76.6884 22.2357 77.3897 22.5344 78.2964 22.5344C78.915 22.5344 79.4537 22.393 79.9124 22.1104C80.3764 21.8224 80.7417 21.409 81.0084 20.8704L82.1044 21.2944C81.763 22.0464 81.259 22.6304 80.5924 23.0464C79.931 23.457 79.1817 23.6624 78.3444 23.6624ZM75.0404 19.4304V18.4464H81.6404V19.4304H75.0404ZM90.0534 23.4224V19.0144C90.0534 18.5344 90.008 18.0944 89.9174 17.6944C89.8267 17.289 89.68 16.937 89.4774 16.6384C89.28 16.3344 89.0214 16.0997 88.7014 15.9344C88.3867 15.769 88.0027 15.6864 87.5494 15.6864C87.1334 15.6864 86.7654 15.7584 86.4454 15.9024C86.1307 16.0464 85.864 16.2544 85.6454 16.5264C85.432 16.793 85.2694 17.1184 85.1574 17.5024C85.0454 17.8864 84.9894 18.3237 84.9894 18.8144L84.1574 18.6304C84.1574 17.745 84.312 17.001 84.6214 16.3984C84.9307 15.7957 85.3574 15.3397 85.9014 15.0304C86.4454 14.721 87.0694 14.5664 87.7734 14.5664C88.2907 14.5664 88.7414 14.6464 89.1254 14.8064C89.5147 14.9664 89.8427 15.1824 90.1094 15.4544C90.3814 15.7264 90.6 16.0384 90.7654 16.3904C90.9307 16.737 91.0507 17.1077 91.1254 17.5024C91.2 17.8917 91.2374 18.281 91.2374 18.6704V23.4224H90.0534ZM83.8054 23.4224V14.7824H84.8694V16.9104H84.9894V23.4224H83.8054ZM100.22 23.6624C99.5805 23.6624 98.9858 23.5717 98.4365 23.3904C97.8925 23.2037 97.4365 22.913 97.0685 22.5184C96.7805 22.209 96.5672 21.865 96.4285 21.4864C96.2898 21.1024 96.2125 20.697 96.1965 20.2704C96.1912 19.865 96.2498 19.4624 96.3725 19.0624C96.4952 18.6624 96.6872 18.3077 96.9485 17.9984C97.1032 17.8064 97.2765 17.6464 97.4685 17.5184C97.6658 17.3904 97.8685 17.281 98.0765 17.1904C97.6765 16.7744 97.3698 16.3904 97.1565 16.0384C96.9485 15.681 96.8445 15.2437 96.8445 14.7264C96.8445 14.1344 96.9938 13.593 97.2925 13.1024C97.5965 12.6117 98.0152 12.2464 98.5485 12.0064C98.8205 11.8837 99.0978 11.7984 99.3805 11.7504C99.6685 11.697 99.9538 11.6704 100.236 11.6704C100.668 11.6704 101.092 11.7317 101.508 11.8544C101.924 11.9717 102.279 12.1584 102.572 12.4144C102.77 12.569 102.943 12.753 103.092 12.9664C103.242 13.1744 103.359 13.393 103.444 13.6224L102.308 13.9584C102.196 13.6704 102.01 13.4277 101.748 13.2304C101.546 13.0704 101.311 12.9584 101.044 12.8944C100.783 12.8304 100.519 12.7984 100.252 12.7984C99.7992 12.7984 99.3885 12.8864 99.0205 13.0624C98.7005 13.2224 98.4605 13.4437 98.3005 13.7264C98.1405 14.009 98.0605 14.3397 98.0605 14.7184C98.0605 15.0437 98.1138 15.313 98.2205 15.5264C98.3272 15.7344 98.4818 15.961 98.6845 16.2064C98.8018 16.3344 98.9325 16.465 99.0765 16.5984C99.2205 16.7264 99.3672 16.8597 99.5165 16.9984L103.164 20.3824C103.186 20.233 103.199 20.089 103.204 19.9504C103.21 19.8064 103.212 19.665 103.212 19.5264L103.204 17.8384H104.316V19.6064C104.316 20.0277 104.3 20.3717 104.268 20.6384C104.236 20.905 104.194 21.1264 104.14 21.3024L105.628 22.6704L104.852 23.4944L103.58 22.2944C103.404 22.5237 103.18 22.729 102.908 22.9104C102.642 23.0917 102.375 23.233 102.108 23.3344C101.82 23.4624 101.516 23.5477 101.196 23.5904C100.876 23.6384 100.551 23.6624 100.22 23.6624ZM100.236 22.5264C100.54 22.5264 100.815 22.5077 101.06 22.4704C101.306 22.433 101.54 22.3557 101.764 22.2384C102.047 22.089 102.258 21.9504 102.396 21.8224C102.535 21.689 102.647 21.5717 102.732 21.4704L98.9885 18.0464C98.7645 18.1157 98.5538 18.2117 98.3565 18.3344C98.1645 18.4517 97.9992 18.593 97.8605 18.7584C97.7058 18.9504 97.5912 19.1717 97.5165 19.4224C97.4418 19.673 97.4045 19.937 97.4045 20.2144C97.4152 20.5077 97.4632 20.7797 97.5485 21.0304C97.6392 21.2757 97.7725 21.4944 97.9485 21.6864C98.1992 21.9797 98.5352 22.193 98.9565 22.3264C99.3778 22.4597 99.8045 22.5264 100.236 22.5264ZM110.141 23.4224V11.9024H117.341V13.0304H111.317V17.0144H116.381V18.1424H111.317V22.2944H117.341V23.4224H110.141ZM119.426 13.1424V11.8224H120.602V13.1424H119.426ZM119.426 23.4224V14.7824H120.602V23.4224H119.426ZM129.241 23.4224V19.0144C129.241 18.5344 129.196 18.0944 129.105 17.6944C129.014 17.289 128.868 16.937 128.665 16.6384C128.468 16.3344 128.209 16.0997 127.889 15.9344C127.574 15.769 127.19 15.6864 126.737 15.6864C126.321 15.6864 125.953 15.7584 125.633 15.9024C125.318 16.0464 125.052 16.2544 124.833 16.5264C124.62 16.793 124.457 17.1184 124.345 17.5024C124.233 17.8864 124.177 18.3237 124.177 18.8144L123.345 18.6304C123.345 17.745 123.5 17.001 123.809 16.3984C124.118 15.7957 124.545 15.3397 125.089 15.0304C125.633 14.721 126.257 14.5664 126.961 14.5664C127.478 14.5664 127.929 14.6464 128.313 14.8064C128.702 14.9664 129.03 15.1824 129.297 15.4544C129.569 15.7264 129.788 16.0384 129.953 16.3904C130.118 16.737 130.238 17.1077 130.313 17.5024C130.388 17.8917 130.425 18.281 130.425 18.6704V23.4224H129.241ZM122.993 23.4224V14.7824H124.057V16.9104H124.177V23.4224H122.993ZM132.493 23.4224L132.501 11.9024H133.685V18.9424L137.541 14.7824H139.109L135.061 19.1024L139.637 23.4224H137.925L133.685 19.2624V23.4224H132.493ZM143.89 23.6624C143.031 23.6624 142.298 23.4677 141.69 23.0784C141.082 22.689 140.615 22.1504 140.29 21.4624C139.965 20.7744 139.802 19.985 139.802 19.0944C139.802 18.1877 139.967 17.393 140.298 16.7104C140.629 16.0277 141.098 15.497 141.706 15.1184C142.319 14.7344 143.047 14.5424 143.89 14.5424C144.754 14.5424 145.49 14.737 146.098 15.1264C146.711 15.5104 147.178 16.0464 147.498 16.7344C147.823 17.417 147.986 18.2037 147.986 19.0944C147.986 20.001 147.823 20.7984 147.498 21.4864C147.173 22.169 146.703 22.7024 146.09 23.0864C145.477 23.4704 144.743 23.6624 143.89 23.6624ZM143.89 22.5344C144.85 22.5344 145.565 22.217 146.034 21.5824C146.503 20.9424 146.738 20.113 146.738 19.0944C146.738 18.049 146.501 17.217 146.026 16.5984C145.557 15.9797 144.845 15.6704 143.89 15.6704C143.245 15.6704 142.711 15.817 142.29 16.1104C141.874 16.3984 141.562 16.801 141.354 17.3184C141.151 17.8304 141.05 18.4224 141.05 19.0944C141.05 20.1344 141.29 20.969 141.77 21.5984C142.25 22.2224 142.957 22.5344 143.89 22.5344ZM160.055 23.4224L160.063 17.7504C160.063 17.0837 159.876 16.561 159.503 16.1824C159.135 15.7984 158.666 15.6064 158.095 15.6064C157.77 15.6064 157.452 15.681 157.143 15.8304C156.834 15.9797 156.578 16.2197 156.375 16.5504C156.178 16.881 156.079 17.313 156.079 17.8464L155.383 17.6464C155.367 17.0277 155.487 16.4864 155.743 16.0224C156.004 15.5584 156.362 15.1984 156.815 14.9424C157.274 14.681 157.791 14.5504 158.367 14.5504C159.236 14.5504 159.932 14.8197 160.455 15.3584C160.978 15.8917 161.239 16.6144 161.239 17.5264L161.231 23.4224H160.055ZM149.743 23.4224V14.7824H150.799V16.9104H150.927V23.4224H149.743ZM154.911 23.4224L154.919 17.8304C154.919 17.1424 154.735 16.601 154.367 16.2064C154.004 15.8064 153.524 15.6064 152.927 15.6064C152.33 15.6064 151.847 15.8117 151.479 16.2224C151.111 16.6277 150.927 17.169 150.927 17.8464L150.223 17.4624C150.223 16.9077 150.354 16.4117 150.615 15.9744C150.876 15.5317 151.234 15.185 151.687 14.9344C152.14 14.6784 152.655 14.5504 153.231 14.5504C153.78 14.5504 154.268 14.6677 154.695 14.9024C155.127 15.137 155.466 15.4784 155.711 15.9264C155.956 16.3744 156.079 16.9184 156.079 17.5584L156.071 23.4224H154.911ZM173.617 23.4224L173.625 17.7504C173.625 17.0837 173.439 16.561 173.065 16.1824C172.697 15.7984 172.228 15.6064 171.657 15.6064C171.332 15.6064 171.015 15.681 170.705 15.8304C170.396 15.9797 170.14 16.2197 169.937 16.5504C169.74 16.881 169.641 17.313 169.641 17.8464L168.945 17.6464C168.929 17.0277 169.049 16.4864 169.305 16.0224C169.567 15.5584 169.924 15.1984 170.377 14.9424C170.836 14.681 171.353 14.5504 171.929 14.5504C172.799 14.5504 173.495 14.8197 174.017 15.3584C174.54 15.8917 174.801 16.6144 174.801 17.5264L174.793 23.4224H173.617ZM163.305 23.4224V14.7824H164.361V16.9104H164.489V23.4224H163.305ZM168.473 23.4224L168.481 17.8304C168.481 17.1424 168.297 16.601 167.929 16.2064C167.567 15.8064 167.087 15.6064 166.489 15.6064C165.892 15.6064 165.409 15.8117 165.041 16.2224C164.673 16.6277 164.489 17.169 164.489 17.8464L163.785 17.4624C163.785 16.9077 163.916 16.4117 164.177 15.9744C164.439 15.5317 164.796 15.185 165.249 14.9344C165.703 14.6784 166.217 14.5504 166.793 14.5504C167.343 14.5504 167.831 14.6677 168.257 14.9024C168.689 15.137 169.028 15.4784 169.273 15.9264C169.519 16.3744 169.641 16.9184 169.641 17.5584L169.633 23.4224H168.473ZM180.485 23.6624C179.642 23.6624 178.912 23.4757 178.293 23.1024C177.68 22.729 177.202 22.2037 176.861 21.5264C176.52 20.849 176.349 20.0544 176.349 19.1424C176.349 18.1984 176.517 17.3824 176.853 16.6944C177.189 16.0064 177.661 15.4757 178.269 15.1024C178.882 14.729 179.605 14.5424 180.437 14.5424C181.29 14.5424 182.018 14.7397 182.621 15.1344C183.224 15.5237 183.68 16.0837 183.989 16.8144C184.298 17.545 184.44 18.417 184.413 19.4304H183.213V19.0144C183.192 17.8944 182.949 17.049 182.485 16.4784C182.026 15.9077 181.354 15.6224 180.469 15.6224C179.541 15.6224 178.829 15.9237 178.333 16.5264C177.842 17.129 177.597 17.9877 177.597 19.1024C177.597 20.1904 177.842 21.0357 178.333 21.6384C178.829 22.2357 179.53 22.5344 180.437 22.5344C181.056 22.5344 181.594 22.393 182.053 22.1104C182.517 21.8224 182.882 21.409 183.149 20.8704L184.245 21.2944C183.904 22.0464 183.4 22.6304 182.733 23.0464C182.072 23.457 181.322 23.6624 180.485 23.6624ZM177.181 19.4304V18.4464H183.781V19.4304H177.181ZM192.194 23.4224V19.0144C192.194 18.5344 192.149 18.0944 192.058 17.6944C191.967 17.289 191.821 16.937 191.618 16.6384C191.421 16.3344 191.162 16.0997 190.842 15.9344C190.527 15.769 190.143 15.6864 189.69 15.6864C189.274 15.6864 188.906 15.7584 188.586 15.9024C188.271 16.0464 188.005 16.2544 187.786 16.5264C187.573 16.793 187.41 17.1184 187.298 17.5024C187.186 17.8864 187.13 18.3237 187.13 18.8144L186.298 18.6304C186.298 17.745 186.453 17.001 186.762 16.3984C187.071 15.7957 187.498 15.3397 188.042 15.0304C188.586 14.721 189.21 14.5664 189.914 14.5664C190.431 14.5664 190.882 14.6464 191.266 14.8064C191.655 14.9664 191.983 15.1824 192.25 15.4544C192.522 15.7264 192.741 16.0384 192.906 16.3904C193.071 16.737 193.191 17.1077 193.266 17.5024C193.341 17.8917 193.378 18.281 193.378 18.6704V23.4224H192.194ZM185.946 23.4224V14.7824H187.01V16.9104H187.13V23.4224H185.946Z" fill="#03A8E2"/>
</svg>
