<svg width="198" height="34" viewBox="0 0 198 34" fill="none" xmlns="http://www.w3.org/2000/svg">
<rect width="198" height="34" rx="17" fill="#03A8E2" fill-opacity="0.2"/>
<path d="M23.978 24.6709L22.2722 24.3712L20.5664 24.6709L21.6383 19.0694L21.8458 18.8965H22.6871L22.8946 19.0694L23.9665 24.6709H23.978Z" fill="#03A8E2"/>
<path d="M21.0625 18.4361L21.0164 18.7012L16.6943 22.424L16.1065 20.7989L15 19.4734L20.3825 17.5947L20.6361 17.6869L21.051 18.4131L21.0625 18.4361Z" fill="#0069D1"/>
<path d="M21.0627 16.0617L20.6478 16.7879L20.3942 16.8801L15.0117 15.0014L16.1182 13.6759L16.706 12.0508L21.0282 15.7736L21.0743 16.0387L21.0627 16.0617Z" fill="#0069D1"/>
<path d="M23.9782 9.82617L22.9063 15.4277L22.6989 15.6006H21.8575L21.65 15.4277L20.5781 9.82617L22.2839 10.1258L23.9898 9.82617H23.9782Z" fill="#0069D1"/>
<path d="M29.5569 15.0125L24.1744 16.8912L23.9208 16.799L23.5059 16.0729L23.552 15.8078L27.8741 12.085L28.4619 13.7101L29.5684 15.0356L29.5569 15.0125Z" fill="#0069D1"/>
<path d="M29.5567 19.4846L28.4502 20.81L27.8624 22.4351L23.5402 18.7123L23.4941 18.4472L23.9091 17.7211L24.1626 17.6289L29.5452 19.5076L29.5567 19.4846Z" fill="#0069D1"/>
<path d="M22.4177 17H21.4726L21 17.8183L21.4726 18.6367H22.4177L22.8902 17.8183L22.4177 17Z" fill="#03A8E2"/>
<path d="M47.6884 23.4224V11.9024H48.8644V17.0944H55.2324V11.9024H56.4004V23.4224H55.2324V18.2224H48.8644V23.4224H47.6884ZM61.1135 23.6624C60.4628 23.6624 59.9162 23.545 59.4735 23.3104C59.0362 23.0757 58.7082 22.7637 58.4895 22.3744C58.2708 21.985 58.1615 21.561 58.1615 21.1024C58.1615 20.633 58.2548 20.233 58.4415 19.9024C58.6335 19.5664 58.8922 19.2917 59.2175 19.0784C59.5482 18.865 59.9295 18.7024 60.3615 18.5904C60.7988 18.4837 61.2815 18.3904 61.8095 18.3104C62.3428 18.225 62.8628 18.153 63.3695 18.0944C63.8815 18.0304 64.3295 17.969 64.7135 17.9104L64.2975 18.1664C64.3135 17.313 64.1482 16.681 63.8015 16.2704C63.4548 15.8597 62.8522 15.6544 61.9935 15.6544C61.4015 15.6544 60.9002 15.7877 60.4895 16.0544C60.0842 16.321 59.7988 16.7424 59.6335 17.3184L58.4895 16.9824C58.6868 16.209 59.0842 15.609 59.6815 15.1824C60.2788 14.7557 61.0548 14.5424 62.0095 14.5424C62.7988 14.5424 63.4682 14.6917 64.0175 14.9904C64.5722 15.2837 64.9642 15.7104 65.1935 16.2704C65.3002 16.521 65.3695 16.801 65.4015 17.1104C65.4335 17.4197 65.4495 17.7344 65.4495 18.0544V23.4224H64.4015V21.2544L64.7055 21.3824C64.4122 22.1237 63.9562 22.689 63.3375 23.0784C62.7188 23.4677 61.9775 23.6624 61.1135 23.6624ZM61.2495 22.6464C61.7988 22.6464 62.2788 22.5477 62.6895 22.3504C63.1002 22.153 63.4308 21.8837 63.6815 21.5424C63.9322 21.1957 64.0948 20.8064 64.1695 20.3744C64.2335 20.097 64.2682 19.793 64.2735 19.4624C64.2788 19.1264 64.2815 18.8757 64.2815 18.7104L64.7295 18.9424C64.3295 18.9957 63.8948 19.049 63.4255 19.1024C62.9615 19.1557 62.5028 19.217 62.0495 19.2864C61.6015 19.3557 61.1962 19.4384 60.8335 19.5344C60.5882 19.6037 60.3508 19.7024 60.1215 19.8304C59.8922 19.953 59.7028 20.1184 59.5535 20.3264C59.4095 20.5344 59.3375 20.793 59.3375 21.1024C59.3375 21.353 59.3988 21.5957 59.5215 21.8304C59.6495 22.065 59.8522 22.2597 60.1295 22.4144C60.4122 22.569 60.7855 22.6464 61.2495 22.6464ZM70.8361 23.6384C70.3188 23.6384 69.8654 23.5584 69.4761 23.3984C69.0921 23.2384 68.7641 23.0224 68.4921 22.7504C68.2254 22.4784 68.0094 22.169 67.8441 21.8224C67.6788 21.4704 67.5588 21.0997 67.4841 20.7104C67.4094 20.3157 67.3721 19.9237 67.3721 19.5344V14.7824H68.5561V19.1904C68.5561 19.665 68.6014 20.105 68.6921 20.5104C68.7828 20.9157 68.9268 21.2704 69.1241 21.5744C69.3268 21.873 69.5854 22.105 69.9001 22.2704C70.2201 22.4357 70.6068 22.5184 71.0601 22.5184C71.4761 22.5184 71.8414 22.4464 72.1561 22.3024C72.4761 22.1584 72.7428 21.953 72.9561 21.6864C73.1748 21.4144 73.3401 21.0864 73.4521 20.7024C73.5641 20.313 73.6201 19.8757 73.6201 19.3904L74.4521 19.5744C74.4521 20.4597 74.2974 21.2037 73.9881 21.8064C73.6788 22.409 73.2521 22.865 72.7081 23.1744C72.1641 23.4837 71.5401 23.6384 70.8361 23.6384ZM73.7401 23.4224V21.2944H73.6201V14.7824H74.7961V23.4224H73.7401ZM80.2561 23.6544C79.2428 23.6544 78.4081 23.4357 77.7521 22.9984C77.1014 22.561 76.7014 21.953 76.5521 21.1744L77.7521 20.9744C77.8801 21.465 78.1708 21.857 78.6241 22.1504C79.0828 22.4384 79.6481 22.5824 80.3201 22.5824C80.9761 22.5824 81.4934 22.4464 81.8721 22.1744C82.2508 21.897 82.4401 21.521 82.4401 21.0464C82.4401 20.7797 82.3788 20.5637 82.2561 20.3984C82.1388 20.2277 81.8961 20.0704 81.5281 19.9264C81.1601 19.7824 80.6108 19.6117 79.8801 19.4144C79.0961 19.201 78.4828 18.9877 78.0401 18.7744C77.5974 18.561 77.2828 18.3157 77.0961 18.0384C76.9094 17.7557 76.8161 17.4117 76.8161 17.0064C76.8161 16.5157 76.9548 16.0864 77.2321 15.7184C77.5094 15.345 77.8934 15.057 78.3841 14.8544C78.8748 14.6464 79.4454 14.5424 80.0961 14.5424C80.7468 14.5424 81.3281 14.649 81.8401 14.8624C82.3574 15.0704 82.7734 15.3637 83.0881 15.7424C83.4028 16.121 83.5894 16.561 83.6481 17.0624L82.4481 17.2784C82.3681 16.7717 82.1148 16.3717 81.6881 16.0784C81.2668 15.7797 80.7308 15.625 80.0801 15.6144C79.4668 15.5984 78.9681 15.7157 78.5841 15.9664C78.2001 16.2117 78.0081 16.5397 78.0081 16.9504C78.0081 17.1797 78.0774 17.377 78.2161 17.5424C78.3548 17.7024 78.6054 17.8544 78.9681 17.9984C79.3361 18.1424 79.8588 18.2997 80.5361 18.4704C81.3308 18.673 81.9548 18.8864 82.4081 19.1104C82.8614 19.3344 83.1841 19.5984 83.3761 19.9024C83.5681 20.2064 83.6641 20.5824 83.6641 21.0304C83.6641 21.8464 83.3601 22.489 82.7521 22.9584C82.1494 23.4224 81.3174 23.6544 80.2561 23.6544ZM91.6784 23.4224V19.0144C91.6784 18.5344 91.633 18.0944 91.5424 17.6944C91.4517 17.289 91.305 16.937 91.1024 16.6384C90.905 16.3344 90.6464 16.0997 90.3264 15.9344C90.0117 15.769 89.6277 15.6864 89.1744 15.6864C88.7584 15.6864 88.3904 15.7584 88.0704 15.9024C87.7557 16.0464 87.489 16.2544 87.2704 16.5264C87.057 16.793 86.8944 17.1184 86.7824 17.5024C86.6704 17.8864 86.6144 18.3237 86.6144 18.8144L85.7824 18.6304C85.7824 17.745 85.937 17.001 86.2464 16.3984C86.5557 15.7957 86.9824 15.3397 87.5264 15.0304C88.0704 14.721 88.6944 14.5664 89.3984 14.5664C89.9157 14.5664 90.3664 14.6464 90.7504 14.8064C91.1397 14.9664 91.4677 15.1824 91.7344 15.4544C92.0064 15.7264 92.225 16.0384 92.3904 16.3904C92.5557 16.737 92.6757 17.1077 92.7504 17.5024C92.825 17.8917 92.8624 18.281 92.8624 18.6704V23.4224H91.6784ZM85.4304 23.4224V11.9024H86.4944V18.4064H86.6144V23.4224H85.4304ZM97.4104 23.6624C96.7597 23.6624 96.213 23.545 95.7704 23.3104C95.333 23.0757 95.005 22.7637 94.7864 22.3744C94.5677 21.985 94.4584 21.561 94.4584 21.1024C94.4584 20.633 94.5517 20.233 94.7384 19.9024C94.9304 19.5664 95.189 19.2917 95.5144 19.0784C95.845 18.865 96.2264 18.7024 96.6584 18.5904C97.0957 18.4837 97.5784 18.3904 98.1064 18.3104C98.6397 18.225 99.1597 18.153 99.6664 18.0944C100.178 18.0304 100.626 17.969 101.01 17.9104L100.594 18.1664C100.61 17.313 100.445 16.681 100.098 16.2704C99.7517 15.8597 99.149 15.6544 98.2904 15.6544C97.6984 15.6544 97.197 15.7877 96.7864 16.0544C96.381 16.321 96.0957 16.7424 95.9304 17.3184L94.7864 16.9824C94.9837 16.209 95.381 15.609 95.9784 15.1824C96.5757 14.7557 97.3517 14.5424 98.3064 14.5424C99.0957 14.5424 99.765 14.6917 100.314 14.9904C100.869 15.2837 101.261 15.7104 101.49 16.2704C101.597 16.521 101.666 16.801 101.698 17.1104C101.73 17.4197 101.746 17.7344 101.746 18.0544V23.4224H100.698V21.2544L101.002 21.3824C100.709 22.1237 100.253 22.689 99.6344 23.0784C99.0157 23.4677 98.2744 23.6624 97.4104 23.6624ZM97.5464 22.6464C98.0957 22.6464 98.5757 22.5477 98.9864 22.3504C99.397 22.153 99.7277 21.8837 99.9784 21.5424C100.229 21.1957 100.392 20.8064 100.466 20.3744C100.53 20.097 100.565 19.793 100.57 19.4624C100.576 19.1264 100.578 18.8757 100.578 18.7104L101.026 18.9424C100.626 18.9957 100.192 19.049 99.7224 19.1024C99.2584 19.1557 98.7997 19.217 98.3464 19.2864C97.8984 19.3557 97.493 19.4384 97.1304 19.5344C96.885 19.6037 96.6477 19.7024 96.4184 19.8304C96.189 19.953 95.9997 20.1184 95.8504 20.3264C95.7064 20.5344 95.6344 20.793 95.6344 21.1024C95.6344 21.353 95.6957 21.5957 95.8184 21.8304C95.9464 22.065 96.149 22.2597 96.4264 22.4144C96.709 22.569 97.0824 22.6464 97.5464 22.6464ZM103.989 23.4224V11.6624H105.165V23.4224H103.989ZM112.267 23.4224C111.782 23.5237 111.302 23.5637 110.827 23.5424C110.358 23.521 109.937 23.4197 109.563 23.2384C109.195 23.057 108.915 22.7744 108.723 22.3904C108.569 22.0704 108.483 21.7477 108.467 21.4224C108.457 21.0917 108.451 20.7157 108.451 20.2944V12.3824H109.619V20.2464C109.619 20.609 109.622 20.913 109.627 21.1584C109.638 21.3984 109.694 21.6117 109.795 21.7984C109.987 22.1557 110.291 22.369 110.707 22.4384C111.129 22.5077 111.649 22.4917 112.267 22.3904V23.4224ZM106.603 15.7904V14.7824H112.267V15.7904H106.603ZM120.877 23.6624C120.237 23.6624 119.642 23.5717 119.093 23.3904C118.549 23.2037 118.093 22.913 117.725 22.5184C117.437 22.209 117.223 21.865 117.085 21.4864C116.946 21.1024 116.869 20.697 116.853 20.2704C116.847 19.865 116.906 19.4624 117.029 19.0624C117.151 18.6624 117.343 18.3077 117.605 17.9984C117.759 17.8064 117.933 17.6464 118.125 17.5184C118.322 17.3904 118.525 17.281 118.733 17.1904C118.333 16.7744 118.026 16.3904 117.813 16.0384C117.605 15.681 117.501 15.2437 117.501 14.7264C117.501 14.1344 117.65 13.593 117.949 13.1024C118.253 12.6117 118.671 12.2464 119.205 12.0064C119.477 11.8837 119.754 11.7984 120.037 11.7504C120.325 11.697 120.61 11.6704 120.893 11.6704C121.325 11.6704 121.749 11.7317 122.165 11.8544C122.581 11.9717 122.935 12.1584 123.229 12.4144C123.426 12.569 123.599 12.753 123.749 12.9664C123.898 13.1744 124.015 13.393 124.101 13.6224L122.965 13.9584C122.853 13.6704 122.666 13.4277 122.405 13.2304C122.202 13.0704 121.967 12.9584 121.701 12.8944C121.439 12.8304 121.175 12.7984 120.909 12.7984C120.455 12.7984 120.045 12.8864 119.677 13.0624C119.357 13.2224 119.117 13.4437 118.957 13.7264C118.797 14.009 118.717 14.3397 118.717 14.7184C118.717 15.0437 118.77 15.313 118.877 15.5264C118.983 15.7344 119.138 15.961 119.341 16.2064C119.458 16.3344 119.589 16.465 119.733 16.5984C119.877 16.7264 120.023 16.8597 120.173 16.9984L123.821 20.3824C123.842 20.233 123.855 20.089 123.861 19.9504C123.866 19.8064 123.869 19.665 123.869 19.5264L123.861 17.8384H124.973V19.6064C124.973 20.0277 124.957 20.3717 124.925 20.6384C124.893 20.905 124.85 21.1264 124.797 21.3024L126.285 22.6704L125.509 23.4944L124.237 22.2944C124.061 22.5237 123.837 22.729 123.565 22.9104C123.298 23.0917 123.031 23.233 122.765 23.3344C122.477 23.4624 122.173 23.5477 121.853 23.5904C121.533 23.6384 121.207 23.6624 120.877 23.6624ZM120.893 22.5264C121.197 22.5264 121.471 22.5077 121.717 22.4704C121.962 22.433 122.197 22.3557 122.421 22.2384C122.703 22.089 122.914 21.9504 123.053 21.8224C123.191 21.689 123.303 21.5717 123.389 21.4704L119.645 18.0464C119.421 18.1157 119.21 18.2117 119.013 18.3344C118.821 18.4517 118.655 18.593 118.517 18.7584C118.362 18.9504 118.247 19.1717 118.173 19.4224C118.098 19.673 118.061 19.937 118.061 20.2144C118.071 20.5077 118.119 20.7797 118.205 21.0304C118.295 21.2757 118.429 21.4944 118.605 21.6864C118.855 21.9797 119.191 22.193 119.613 22.3264C120.034 22.4597 120.461 22.5264 120.893 22.5264ZM130.798 23.4224V11.9024H137.414V13.0784H131.974V17.0784H136.454V18.2464H131.974V23.4224H130.798ZM141.02 23.6624C140.369 23.6624 139.822 23.545 139.38 23.3104C138.942 23.0757 138.614 22.7637 138.396 22.3744C138.177 21.985 138.068 21.561 138.068 21.1024C138.068 20.633 138.161 20.233 138.348 19.9024C138.54 19.5664 138.798 19.2917 139.124 19.0784C139.454 18.865 139.836 18.7024 140.268 18.5904C140.705 18.4837 141.188 18.3904 141.716 18.3104C142.249 18.225 142.769 18.153 143.276 18.0944C143.788 18.0304 144.236 17.969 144.62 17.9104L144.204 18.1664C144.22 17.313 144.054 16.681 143.708 16.2704C143.361 15.8597 142.758 15.6544 141.9 15.6544C141.308 15.6544 140.806 15.7877 140.396 16.0544C139.99 16.321 139.705 16.7424 139.54 17.3184L138.396 16.9824C138.593 16.209 138.99 15.609 139.588 15.1824C140.185 14.7557 140.961 14.5424 141.916 14.5424C142.705 14.5424 143.374 14.6917 143.924 14.9904C144.478 15.2837 144.87 15.7104 145.1 16.2704C145.206 16.521 145.276 16.801 145.308 17.1104C145.34 17.4197 145.356 17.7344 145.356 18.0544V23.4224H144.308V21.2544L144.612 21.3824C144.318 22.1237 143.862 22.689 143.244 23.0784C142.625 23.4677 141.884 23.6624 141.02 23.6624ZM141.156 22.6464C141.705 22.6464 142.185 22.5477 142.596 22.3504C143.006 22.153 143.337 21.8837 143.588 21.5424C143.838 21.1957 144.001 20.8064 144.076 20.3744C144.14 20.097 144.174 19.793 144.18 19.4624C144.185 19.1264 144.188 18.8757 144.188 18.7104L144.636 18.9424C144.236 18.9957 143.801 19.049 143.332 19.1024C142.868 19.1557 142.409 19.217 141.956 19.2864C141.508 19.3557 141.102 19.4384 140.74 19.5344C140.494 19.6037 140.257 19.7024 140.028 19.8304C139.798 19.953 139.609 20.1184 139.46 20.3264C139.316 20.5344 139.244 20.793 139.244 21.1024C139.244 21.353 139.305 21.5957 139.428 21.8304C139.556 22.065 139.758 22.2597 140.036 22.4144C140.318 22.569 140.692 22.6464 141.156 22.6464ZM157.742 23.4224L157.75 17.7504C157.75 17.0837 157.564 16.561 157.19 16.1824C156.822 15.7984 156.353 15.6064 155.782 15.6064C155.457 15.6064 155.14 15.681 154.83 15.8304C154.521 15.9797 154.265 16.2197 154.062 16.5504C153.865 16.881 153.766 17.313 153.766 17.8464L153.07 17.6464C153.054 17.0277 153.174 16.4864 153.43 16.0224C153.692 15.5584 154.049 15.1984 154.502 14.9424C154.961 14.681 155.478 14.5504 156.054 14.5504C156.924 14.5504 157.62 14.8197 158.142 15.3584C158.665 15.8917 158.926 16.6144 158.926 17.5264L158.918 23.4224H157.742ZM147.43 23.4224V14.7824H148.486V16.9104H148.614V23.4224H147.43ZM152.598 23.4224L152.606 17.8304C152.606 17.1424 152.422 16.601 152.054 16.2064C151.692 15.8064 151.212 15.6064 150.614 15.6064C150.017 15.6064 149.534 15.8117 149.166 16.2224C148.798 16.6277 148.614 17.169 148.614 17.8464L147.91 17.4624C147.91 16.9077 148.041 16.4117 148.302 15.9744C148.564 15.5317 148.921 15.185 149.374 14.9344C149.828 14.6784 150.342 14.5504 150.918 14.5504C151.468 14.5504 151.956 14.6677 152.382 14.9024C152.814 15.137 153.153 15.4784 153.398 15.9264C153.644 16.3744 153.766 16.9184 153.766 17.5584L153.758 23.4224H152.598ZM161.161 13.1424V11.8224H162.337V13.1424H161.161ZM161.161 23.4224V14.7824H162.337V23.4224H161.161ZM164.895 23.4224V11.6624H166.071V23.4224H164.895ZM168.63 13.1424V11.8224H169.806V13.1424H168.63ZM168.63 23.4224V14.7824H169.806V23.4224H168.63ZM175.86 23.6624C175.017 23.6624 174.287 23.4757 173.668 23.1024C173.055 22.729 172.577 22.2037 172.236 21.5264C171.895 20.849 171.724 20.0544 171.724 19.1424C171.724 18.1984 171.892 17.3824 172.228 16.6944C172.564 16.0064 173.036 15.4757 173.644 15.1024C174.257 14.729 174.98 14.5424 175.812 14.5424C176.665 14.5424 177.393 14.7397 177.996 15.1344C178.599 15.5237 179.055 16.0837 179.364 16.8144C179.673 17.545 179.815 18.417 179.788 19.4304H178.588V19.0144C178.567 17.8944 178.324 17.049 177.86 16.4784C177.401 15.9077 176.729 15.6224 175.844 15.6224C174.916 15.6224 174.204 15.9237 173.708 16.5264C173.217 17.129 172.972 17.9877 172.972 19.1024C172.972 20.1904 173.217 21.0357 173.708 21.6384C174.204 22.2357 174.905 22.5344 175.812 22.5344C176.431 22.5344 176.969 22.393 177.428 22.1104C177.892 21.8224 178.257 21.409 178.524 20.8704L179.62 21.2944C179.279 22.0464 178.775 22.6304 178.108 23.0464C177.447 23.457 176.697 23.6624 175.86 23.6624ZM172.556 19.4304V18.4464H179.156V19.4304H172.556Z" fill="#0069D1"/>
</svg>
