<svg width="203" height="34" viewBox="0 0 203 34" fill="none" xmlns="http://www.w3.org/2000/svg">
<rect width="203" height="34" rx="17" fill="#03A8E2" fill-opacity="0.2"/>
<path d="M23.978 24.6709L22.2722 24.3712L20.5664 24.6709L21.6383 19.0694L21.8458 18.8965H22.6871L22.8946 19.0694L23.9665 24.6709H23.978Z" fill="#03A8E2"/>
<path d="M21.0625 18.4361L21.0164 18.7012L16.6943 22.424L16.1065 20.7989L15 19.4734L20.3825 17.5947L20.6361 17.6869L21.051 18.4131L21.0625 18.4361Z" fill="#0069D1"/>
<path d="M21.0627 16.0617L20.6478 16.7879L20.3942 16.8801L15.0117 15.0014L16.1182 13.6759L16.706 12.0508L21.0282 15.7736L21.0743 16.0387L21.0627 16.0617Z" fill="#0069D1"/>
<path d="M23.9782 9.82617L22.9063 15.4277L22.6989 15.6006H21.8575L21.65 15.4277L20.5781 9.82617L22.2839 10.1258L23.9898 9.82617H23.9782Z" fill="#0069D1"/>
<path d="M29.5569 15.0125L24.1744 16.8912L23.9208 16.799L23.5059 16.0729L23.552 15.8078L27.8741 12.085L28.4619 13.7101L29.5684 15.0356L29.5569 15.0125Z" fill="#0069D1"/>
<path d="M29.5567 19.4846L28.4502 20.81L27.8624 22.4351L23.5402 18.7123L23.4941 18.4472L23.9091 17.7211L24.1626 17.6289L29.5452 19.5076L29.5567 19.4846Z" fill="#0069D1"/>
<path d="M22.4177 17H21.4726L21 17.8183L21.4726 18.6367H22.4177L22.8902 17.8183L22.4177 17Z" fill="#03A8E2"/>
<path d="M50.6164 23.4224L46.6484 11.9024H47.8724L51.3844 22.0864L54.9204 11.9024H56.1444L52.1764 23.4224H50.6164ZM59.9995 23.6624C59.1408 23.6624 58.4075 23.4677 57.7995 23.0784C57.1915 22.689 56.7248 22.1504 56.3995 21.4624C56.0742 20.7744 55.9115 19.985 55.9115 19.0944C55.9115 18.1877 56.0768 17.393 56.4075 16.7104C56.7382 16.0277 57.2075 15.497 57.8155 15.1184C58.4288 14.7344 59.1568 14.5424 59.9995 14.5424C60.8635 14.5424 61.5995 14.737 62.2075 15.1264C62.8208 15.5104 63.2875 16.0464 63.6075 16.7344C63.9328 17.417 64.0955 18.2037 64.0955 19.0944C64.0955 20.001 63.9328 20.7984 63.6075 21.4864C63.2822 22.169 62.8128 22.7024 62.1995 23.0864C61.5862 23.4704 60.8528 23.6624 59.9995 23.6624ZM59.9995 22.5344C60.9595 22.5344 61.6742 22.217 62.1435 21.5824C62.6128 20.9424 62.8475 20.113 62.8475 19.0944C62.8475 18.049 62.6102 17.217 62.1355 16.5984C61.6662 15.9797 60.9542 15.6704 59.9995 15.6704C59.3542 15.6704 58.8208 15.817 58.3995 16.1104C57.9835 16.3984 57.6715 16.801 57.4635 17.3184C57.2608 17.8304 57.1595 18.4224 57.1595 19.0944C57.1595 20.1344 57.3995 20.969 57.8795 21.5984C58.3595 22.2224 59.0662 22.5344 59.9995 22.5344ZM65.8602 23.4224V14.7824H66.9162V16.8624L66.7082 16.5904C66.8042 16.3344 66.9296 16.0997 67.0842 15.8864C67.2389 15.6677 67.4069 15.489 67.5882 15.3504C67.8122 15.153 68.0736 15.0037 68.3722 14.9024C68.6709 14.7957 68.9722 14.7344 69.2762 14.7184C69.5802 14.697 69.8576 14.7184 70.1082 14.7824V15.8864C69.7936 15.8064 69.4496 15.7877 69.0762 15.8304C68.7029 15.873 68.3589 16.0224 68.0442 16.2784C67.7562 16.5024 67.5402 16.7717 67.3962 17.0864C67.2522 17.3957 67.1562 17.7264 67.1082 18.0784C67.0602 18.425 67.0362 18.769 67.0362 19.1104V23.4224H65.8602ZM74.5374 23.6544C73.524 23.6544 72.6894 23.4357 72.0334 22.9984C71.3827 22.561 70.9827 21.953 70.8334 21.1744L72.0334 20.9744C72.1614 21.465 72.452 21.857 72.9054 22.1504C73.364 22.4384 73.9294 22.5824 74.6014 22.5824C75.2574 22.5824 75.7747 22.4464 76.1534 22.1744C76.532 21.897 76.7214 21.521 76.7214 21.0464C76.7214 20.7797 76.66 20.5637 76.5374 20.3984C76.42 20.2277 76.1774 20.0704 75.8094 19.9264C75.4414 19.7824 74.892 19.6117 74.1614 19.4144C73.3774 19.201 72.764 18.9877 72.3214 18.7744C71.8787 18.561 71.564 18.3157 71.3774 18.0384C71.1907 17.7557 71.0974 17.4117 71.0974 17.0064C71.0974 16.5157 71.236 16.0864 71.5134 15.7184C71.7907 15.345 72.1747 15.057 72.6654 14.8544C73.156 14.6464 73.7267 14.5424 74.3774 14.5424C75.028 14.5424 75.6094 14.649 76.1214 14.8624C76.6387 15.0704 77.0547 15.3637 77.3694 15.7424C77.684 16.121 77.8707 16.561 77.9294 17.0624L76.7294 17.2784C76.6494 16.7717 76.396 16.3717 75.9694 16.0784C75.548 15.7797 75.012 15.625 74.3614 15.6144C73.748 15.5984 73.2494 15.7157 72.8654 15.9664C72.4814 16.2117 72.2894 16.5397 72.2894 16.9504C72.2894 17.1797 72.3587 17.377 72.4974 17.5424C72.636 17.7024 72.8867 17.8544 73.2494 17.9984C73.6174 18.1424 74.14 18.2997 74.8174 18.4704C75.612 18.673 76.236 18.8864 76.6894 19.1104C77.1427 19.3344 77.4654 19.5984 77.6574 19.9024C77.8494 20.2064 77.9454 20.5824 77.9454 21.0304C77.9454 21.8464 77.6414 22.489 77.0334 22.9584C76.4307 23.4224 75.5987 23.6544 74.5374 23.6544ZM83.3276 23.6624C82.4689 23.6624 81.7356 23.4677 81.1276 23.0784C80.5196 22.689 80.0529 22.1504 79.7276 21.4624C79.4023 20.7744 79.2396 19.985 79.2396 19.0944C79.2396 18.1877 79.4049 17.393 79.7356 16.7104C80.0663 16.0277 80.5356 15.497 81.1436 15.1184C81.7569 14.7344 82.4849 14.5424 83.3276 14.5424C84.1916 14.5424 84.9276 14.737 85.5356 15.1264C86.1489 15.5104 86.6156 16.0464 86.9356 16.7344C87.2609 17.417 87.4236 18.2037 87.4236 19.0944C87.4236 20.001 87.2609 20.7984 86.9356 21.4864C86.6103 22.169 86.1409 22.7024 85.5276 23.0864C84.9143 23.4704 84.1809 23.6624 83.3276 23.6624ZM83.3276 22.5344C84.2876 22.5344 85.0023 22.217 85.4716 21.5824C85.9409 20.9424 86.1756 20.113 86.1756 19.0944C86.1756 18.049 85.9383 17.217 85.4636 16.5984C84.9943 15.9797 84.2823 15.6704 83.3276 15.6704C82.6823 15.6704 82.1489 15.817 81.7276 16.1104C81.3116 16.3984 80.9996 16.801 80.7916 17.3184C80.5889 17.8304 80.4876 18.4224 80.4876 19.0944C80.4876 20.1344 80.7276 20.969 81.2076 21.5984C81.6876 22.2224 82.3943 22.5344 83.3276 22.5344ZM89.1884 23.4224V14.7824H90.2444V16.8624L90.0364 16.5904C90.1324 16.3344 90.2577 16.0997 90.4124 15.8864C90.567 15.6677 90.735 15.489 90.9164 15.3504C91.1404 15.153 91.4017 15.0037 91.7004 14.9024C91.999 14.7957 92.3004 14.7344 92.6044 14.7184C92.9084 14.697 93.1857 14.7184 93.4364 14.7824V15.8864C93.1217 15.8064 92.7777 15.7877 92.4044 15.8304C92.031 15.873 91.687 16.0224 91.3724 16.2784C91.0844 16.5024 90.8684 16.7717 90.7244 17.0864C90.5804 17.3957 90.4844 17.7264 90.4364 18.0784C90.3884 18.425 90.3644 18.769 90.3644 19.1104V23.4224H89.1884ZM98.0735 27.5024C97.6308 27.5024 97.1935 27.4357 96.7615 27.3024C96.3348 27.1744 95.9402 26.969 95.5775 26.6864C95.2148 26.409 94.9108 26.0464 94.6655 25.5984L95.7295 25.0064C95.9695 25.4864 96.3055 25.8304 96.7375 26.0384C97.1748 26.2517 97.6202 26.3584 98.0735 26.3584C98.6975 26.3584 99.2015 26.241 99.5855 26.0064C99.9748 25.777 100.257 25.4357 100.433 24.9824C100.609 24.529 100.695 23.9637 100.689 23.2864V20.9824H100.825V14.7824H101.873V23.3024C101.873 23.5477 101.865 23.7824 101.849 24.0064C101.839 24.2357 101.815 24.4597 101.777 24.6784C101.676 25.3237 101.465 25.8544 101.145 26.2704C100.831 26.6864 100.415 26.9957 99.8975 27.1984C99.3855 27.401 98.7775 27.5024 98.0735 27.5024ZM97.9935 23.6624C97.1882 23.6624 96.5002 23.4624 95.9295 23.0624C95.3588 22.657 94.9215 22.1104 94.6175 21.4224C94.3135 20.7344 94.1615 19.9584 94.1615 19.0944C94.1615 18.2357 94.3108 17.4624 94.6095 16.7744C94.9135 16.0864 95.3482 15.5424 95.9135 15.1424C96.4788 14.7424 97.1562 14.5424 97.9455 14.5424C98.7562 14.5424 99.4388 14.7397 99.9935 15.1344C100.548 15.529 100.967 16.0704 101.249 16.7584C101.537 17.441 101.681 18.2197 101.681 19.0944C101.681 19.953 101.54 20.729 101.257 21.4224C100.975 22.1104 100.559 22.657 100.009 23.0624C99.4602 23.4624 98.7882 23.6624 97.9935 23.6624ZM98.1135 22.5664C98.7268 22.5664 99.2335 22.417 99.6335 22.1184C100.033 21.8197 100.332 21.409 100.529 20.8864C100.727 20.3584 100.825 19.761 100.825 19.0944C100.825 18.417 100.727 17.8197 100.529 17.3024C100.332 16.7797 100.033 16.3717 99.6335 16.0784C99.2388 15.785 98.7402 15.6384 98.1375 15.6384C97.5188 15.6384 97.0068 15.7904 96.6015 16.0944C96.1962 16.3984 95.8948 16.8117 95.6975 17.3344C95.5055 17.857 95.4095 18.4437 95.4095 19.0944C95.4095 19.7504 95.5082 20.3424 95.7055 20.8704C95.9082 21.393 96.2095 21.8064 96.6095 22.1104C97.0095 22.4144 97.5108 22.5664 98.1135 22.5664ZM107.766 23.6624C106.924 23.6624 106.193 23.4757 105.574 23.1024C104.961 22.729 104.484 22.2037 104.142 21.5264C103.801 20.849 103.63 20.0544 103.63 19.1424C103.63 18.1984 103.798 17.3824 104.134 16.6944C104.47 16.0064 104.942 15.4757 105.55 15.1024C106.164 14.729 106.886 14.5424 107.718 14.5424C108.572 14.5424 109.3 14.7397 109.902 15.1344C110.505 15.5237 110.961 16.0837 111.27 16.8144C111.58 17.545 111.721 18.417 111.694 19.4304H110.494V19.0144C110.473 17.8944 110.23 17.049 109.766 16.4784C109.308 15.9077 108.636 15.6224 107.75 15.6224C106.822 15.6224 106.11 15.9237 105.614 16.5264C105.124 17.129 104.878 17.9877 104.878 19.1024C104.878 20.1904 105.124 21.0357 105.614 21.6384C106.11 22.2357 106.812 22.5344 107.718 22.5344C108.337 22.5344 108.876 22.393 109.334 22.1104C109.798 21.8224 110.164 21.409 110.43 20.8704L111.526 21.2944C111.185 22.0464 110.681 22.6304 110.014 23.0464C109.353 23.457 108.604 23.6624 107.766 23.6624ZM104.462 19.4304V18.4464H111.062V19.4304H104.462ZM120.377 23.6624C119.737 23.6624 119.142 23.5717 118.593 23.3904C118.049 23.2037 117.593 22.913 117.225 22.5184C116.937 22.209 116.723 21.865 116.585 21.4864C116.446 21.1024 116.369 20.697 116.353 20.2704C116.347 19.865 116.406 19.4624 116.529 19.0624C116.651 18.6624 116.843 18.3077 117.105 17.9984C117.259 17.8064 117.433 17.6464 117.625 17.5184C117.822 17.3904 118.025 17.281 118.233 17.1904C117.833 16.7744 117.526 16.3904 117.313 16.0384C117.105 15.681 117.001 15.2437 117.001 14.7264C117.001 14.1344 117.15 13.593 117.449 13.1024C117.753 12.6117 118.171 12.2464 118.705 12.0064C118.977 11.8837 119.254 11.7984 119.537 11.7504C119.825 11.697 120.11 11.6704 120.393 11.6704C120.825 11.6704 121.249 11.7317 121.665 11.8544C122.081 11.9717 122.435 12.1584 122.729 12.4144C122.926 12.569 123.099 12.753 123.249 12.9664C123.398 13.1744 123.515 13.393 123.601 13.6224L122.465 13.9584C122.353 13.6704 122.166 13.4277 121.905 13.2304C121.702 13.0704 121.467 12.9584 121.201 12.8944C120.939 12.8304 120.675 12.7984 120.409 12.7984C119.955 12.7984 119.545 12.8864 119.177 13.0624C118.857 13.2224 118.617 13.4437 118.457 13.7264C118.297 14.009 118.217 14.3397 118.217 14.7184C118.217 15.0437 118.27 15.313 118.377 15.5264C118.483 15.7344 118.638 15.961 118.841 16.2064C118.958 16.3344 119.089 16.465 119.233 16.5984C119.377 16.7264 119.523 16.8597 119.673 16.9984L123.321 20.3824C123.342 20.233 123.355 20.089 123.361 19.9504C123.366 19.8064 123.369 19.665 123.369 19.5264L123.361 17.8384H124.473V19.6064C124.473 20.0277 124.457 20.3717 124.425 20.6384C124.393 20.905 124.35 21.1264 124.297 21.3024L125.785 22.6704L125.009 23.4944L123.737 22.2944C123.561 22.5237 123.337 22.729 123.065 22.9104C122.798 23.0917 122.531 23.233 122.265 23.3344C121.977 23.4624 121.673 23.5477 121.353 23.5904C121.033 23.6384 120.707 23.6624 120.377 23.6624ZM120.393 22.5264C120.697 22.5264 120.971 22.5077 121.217 22.4704C121.462 22.433 121.697 22.3557 121.921 22.2384C122.203 22.089 122.414 21.9504 122.553 21.8224C122.691 21.689 122.803 21.5717 122.889 21.4704L119.145 18.0464C118.921 18.1157 118.71 18.2117 118.513 18.3344C118.321 18.4517 118.155 18.593 118.017 18.7584C117.862 18.9504 117.747 19.1717 117.673 19.4224C117.598 19.673 117.561 19.937 117.561 20.2144C117.571 20.5077 117.619 20.7797 117.705 21.0304C117.795 21.2757 117.929 21.4944 118.105 21.6864C118.355 21.9797 118.691 22.193 119.113 22.3264C119.534 22.4597 119.961 22.5264 120.393 22.5264ZM129.978 23.4224V23.1744L136.274 13.0304H130.138V11.9024H138.202V12.1744L131.938 22.3024H138.146V23.4224H129.978ZM143.43 23.6384C142.913 23.6384 142.459 23.5584 142.07 23.3984C141.686 23.2384 141.358 23.0224 141.086 22.7504C140.819 22.4784 140.603 22.169 140.438 21.8224C140.273 21.4704 140.153 21.0997 140.078 20.7104C140.003 20.3157 139.966 19.9237 139.966 19.5344V14.7824H141.15V19.1904C141.15 19.665 141.195 20.105 141.286 20.5104C141.377 20.9157 141.521 21.2704 141.718 21.5744C141.921 21.873 142.179 22.105 142.494 22.2704C142.814 22.4357 143.201 22.5184 143.654 22.5184C144.07 22.5184 144.435 22.4464 144.75 22.3024C145.07 22.1584 145.337 21.953 145.55 21.6864C145.769 21.4144 145.934 21.0864 146.046 20.7024C146.158 20.313 146.214 19.8757 146.214 19.3904L147.046 19.5744C147.046 20.4597 146.891 21.2037 146.582 21.8064C146.273 22.409 145.846 22.865 145.302 23.1744C144.758 23.4837 144.134 23.6384 143.43 23.6384ZM146.334 23.4224V21.2944H146.214V14.7824H147.39V23.4224H146.334ZM149.618 23.4224L149.626 11.9024H150.81V18.9424L154.666 14.7824H156.234L152.186 19.1024L156.762 23.4224H155.05L150.81 19.2624V23.4224H149.618ZM160.867 23.6384C160.35 23.6384 159.897 23.5584 159.507 23.3984C159.123 23.2384 158.795 23.0224 158.523 22.7504C158.257 22.4784 158.041 22.169 157.875 21.8224C157.71 21.4704 157.59 21.0997 157.515 20.7104C157.441 20.3157 157.403 19.9237 157.403 19.5344V14.7824H158.587V19.1904C158.587 19.665 158.633 20.105 158.723 20.5104C158.814 20.9157 158.958 21.2704 159.155 21.5744C159.358 21.873 159.617 22.105 159.931 22.2704C160.251 22.4357 160.638 22.5184 161.091 22.5184C161.507 22.5184 161.873 22.4464 162.187 22.3024C162.507 22.1584 162.774 21.953 162.987 21.6864C163.206 21.4144 163.371 21.0864 163.483 20.7024C163.595 20.313 163.651 19.8757 163.651 19.3904L164.483 19.5744C164.483 20.4597 164.329 21.2037 164.019 21.8064C163.71 22.409 163.283 22.865 162.739 23.1744C162.195 23.4837 161.571 23.6384 160.867 23.6384ZM163.771 23.4224V21.2944H163.651V14.7824H164.827V23.4224H163.771ZM173.303 23.4224V19.0144C173.303 18.5344 173.258 18.0944 173.167 17.6944C173.077 17.289 172.93 16.937 172.727 16.6384C172.53 16.3344 172.271 16.0997 171.951 15.9344C171.637 15.769 171.253 15.6864 170.799 15.6864C170.383 15.6864 170.015 15.7584 169.695 15.9024C169.381 16.0464 169.114 16.2544 168.895 16.5264C168.682 16.793 168.519 17.1184 168.407 17.5024C168.295 17.8864 168.239 18.3237 168.239 18.8144L167.407 18.6304C167.407 17.745 167.562 17.001 167.871 16.3984C168.181 15.7957 168.607 15.3397 169.151 15.0304C169.695 14.721 170.319 14.5664 171.023 14.5664C171.541 14.5664 171.991 14.6464 172.375 14.8064C172.765 14.9664 173.093 15.1824 173.359 15.4544C173.631 15.7264 173.85 16.0384 174.015 16.3904C174.181 16.737 174.301 17.1077 174.375 17.5024C174.45 17.8917 174.487 18.281 174.487 18.6704V23.4224H173.303ZM167.055 23.4224V14.7824H168.119V16.9104H168.239V23.4224H167.055ZM177.419 23.4224V14.1424C177.419 13.9184 177.43 13.697 177.451 13.4784C177.478 13.2597 177.529 13.0517 177.603 12.8544C177.678 12.6517 177.795 12.465 177.955 12.2944C178.131 12.1024 178.323 11.9637 178.531 11.8784C178.739 11.7877 178.955 11.729 179.179 11.7024C179.409 11.6757 179.633 11.6624 179.851 11.6624H180.955V12.6544H179.931C179.483 12.6544 179.147 12.7637 178.923 12.9824C178.705 13.201 178.595 13.545 178.595 14.0144V23.4224H177.419ZM175.923 15.7904V14.7824H180.955V15.7904H175.923ZM186.939 23.4224C186.454 23.5237 185.974 23.5637 185.499 23.5424C185.03 23.521 184.609 23.4197 184.235 23.2384C183.867 23.057 183.587 22.7744 183.395 22.3904C183.241 22.0704 183.155 21.7477 183.139 21.4224C183.129 21.0917 183.123 20.7157 183.123 20.2944V12.3824H184.291V20.2464C184.291 20.609 184.294 20.913 184.299 21.1584C184.31 21.3984 184.366 21.6117 184.467 21.7984C184.659 22.1557 184.963 22.369 185.379 22.4384C185.801 22.5077 186.321 22.4917 186.939 22.3904V23.4224ZM181.275 15.7904V14.7824H186.939V15.7904H181.275Z" fill="#0069D1"/>
</svg>
