<svg width="253" height="34" viewBox="0 0 253 34" fill="none" xmlns="http://www.w3.org/2000/svg">
<rect width="253" height="34" rx="17" fill="#03A8E2" fill-opacity="0.2"/>
<path d="M22.2208 16.1479H21.341L20.9011 16.9097L21.341 17.6715H22.2208L22.6607 16.9097L22.2208 16.1479Z" fill="#03A8E2"/>
<path d="M23.3582 23.8194L21.7703 23.5405L20.1824 23.8194L21.1802 18.605L21.3733 18.4441H22.1565L22.3497 18.605L23.3475 23.8194H23.3582Z" fill="#03A8E2"/>
<path d="M20.6436 18.0147L20.6006 18.2614L16.5772 21.727L16.03 20.2142L15 18.9803L20.0105 17.2314L20.2466 17.3173L20.6328 17.9932L20.6436 18.0147Z" fill="#0069D1"/>
<path d="M20.6436 15.8046L20.2573 16.4805L20.0213 16.5663L15.0107 14.8175L16.0407 13.5836L16.5879 12.0708L20.6114 15.5363L20.6543 15.7831L20.6436 15.8046Z" fill="#0069D1"/>
<path d="M23.3582 10L22.3604 15.2144L22.1673 15.3753H21.3841L21.1909 15.2144L20.1931 10L21.781 10.279L23.369 10H23.3582Z" fill="#0069D1"/>
<path d="M28.5511 14.8282L23.5405 16.5771L23.3045 16.4913L22.9182 15.8153L22.9611 15.5686L26.9846 12.103L27.5318 13.6158L28.5618 14.8497L28.5511 14.8282Z" fill="#0069D1"/>
<path d="M28.551 18.9911L27.521 20.2249L26.9738 21.7378L22.9504 18.2722L22.9075 18.0255L23.2937 17.3495L23.5298 17.2637L28.5403 19.0125L28.551 18.9911Z" fill="#0069D1"/>
<path d="M49.1538 22.9097L45.8258 11.3897H47.0498L49.7458 20.9017L52.4258 11.3977L53.6578 11.3897L56.3538 20.9017L59.0338 11.3897H60.2658L56.9458 22.9097H55.7618L53.0418 13.4617L50.3378 22.9097H49.1538ZM61.498 12.6297V11.3097H62.674V12.6297H61.498ZM61.498 22.9097V14.2697H62.674V22.9097H61.498ZM65.2324 22.9097V11.1497H66.4084V22.9097H65.2324ZM68.9668 22.9097V11.1497H70.1428V22.9097H68.9668ZM72.5331 22.9097L72.5411 11.3897H73.7251V18.4297L77.5811 14.2697H79.1491L75.1011 18.5897L79.6771 22.9097H77.9651L73.7251 18.7497V22.9097H72.5331ZM83.9304 23.1497C83.0717 23.1497 82.3384 22.955 81.7304 22.5657C81.1224 22.1763 80.6557 21.6377 80.3304 20.9497C80.0051 20.2617 79.8424 19.4723 79.8424 18.5817C79.8424 17.675 80.0077 16.8803 80.3384 16.1977C80.6691 15.515 81.1384 14.9843 81.7464 14.6057C82.3597 14.2217 83.0877 14.0297 83.9304 14.0297C84.7944 14.0297 85.5304 14.2243 86.1384 14.6137C86.7517 14.9977 87.2184 15.5337 87.5384 16.2217C87.8637 16.9043 88.0264 17.691 88.0264 18.5817C88.0264 19.4883 87.8637 20.2857 87.5384 20.9737C87.2131 21.6563 86.7437 22.1897 86.1304 22.5737C85.5171 22.9577 84.7837 23.1497 83.9304 23.1497ZM83.9304 22.0217C84.8904 22.0217 85.6051 21.7043 86.0744 21.0697C86.5437 20.4297 86.7784 19.6003 86.7784 18.5817C86.7784 17.5363 86.5411 16.7043 86.0664 16.0857C85.5971 15.467 84.8851 15.1577 83.9304 15.1577C83.2851 15.1577 82.7517 15.3043 82.3304 15.5977C81.9144 15.8857 81.6024 16.2883 81.3944 16.8057C81.1917 17.3177 81.0904 17.9097 81.0904 18.5817C81.0904 19.6217 81.3304 20.4563 81.8104 21.0857C82.2904 21.7097 82.9971 22.0217 83.9304 22.0217ZM100.095 22.9097L100.103 17.2377C100.103 16.571 99.9165 16.0483 99.5431 15.6697C99.1751 15.2857 98.7058 15.0937 98.1351 15.0937C97.8098 15.0937 97.4925 15.1683 97.1831 15.3177C96.8738 15.467 96.6178 15.707 96.4151 16.0377C96.2178 16.3683 96.1191 16.8003 96.1191 17.3337L95.4231 17.1337C95.4071 16.515 95.5271 15.9737 95.7831 15.5097C96.0445 15.0457 96.4018 14.6857 96.8551 14.4297C97.3138 14.1683 97.8311 14.0377 98.4071 14.0377C99.2765 14.0377 99.9725 14.307 100.495 14.8457C101.018 15.379 101.279 16.1017 101.279 17.0137L101.271 22.9097H100.095ZM89.7831 22.9097V14.2697H90.8391V16.3977H90.9671V22.9097H89.7831ZM94.9511 22.9097L94.9591 17.3177C94.9591 16.6297 94.7751 16.0883 94.4071 15.6937C94.0445 15.2937 93.5645 15.0937 92.9671 15.0937C92.3698 15.0937 91.8871 15.299 91.5191 15.7097C91.1511 16.115 90.9671 16.6563 90.9671 17.3337L90.2631 16.9497C90.2631 16.395 90.3938 15.899 90.6551 15.4617C90.9165 15.019 91.2738 14.6723 91.7271 14.4217C92.1805 14.1657 92.6951 14.0377 93.2711 14.0377C93.8205 14.0377 94.3085 14.155 94.7351 14.3897C95.1671 14.6243 95.5058 14.9657 95.7511 15.4137C95.9965 15.8617 96.1191 16.4057 96.1191 17.0457L96.1111 22.9097H94.9511ZM113.658 22.9097L113.666 17.2377C113.666 16.571 113.479 16.0483 113.106 15.6697C112.738 15.2857 112.268 15.0937 111.698 15.0937C111.372 15.0937 111.055 15.1683 110.746 15.3177C110.436 15.467 110.18 15.707 109.978 16.0377C109.78 16.3683 109.682 16.8003 109.682 17.3337L108.986 17.1337C108.97 16.515 109.09 15.9737 109.346 15.5097C109.607 15.0457 109.964 14.6857 110.418 14.4297C110.876 14.1683 111.394 14.0377 111.97 14.0377C112.839 14.0377 113.535 14.307 114.058 14.8457C114.58 15.379 114.842 16.1017 114.842 17.0137L114.834 22.9097H113.658ZM103.346 22.9097V14.2697H104.402V16.3977H104.53V22.9097H103.346ZM108.514 22.9097L108.522 17.3177C108.522 16.6297 108.338 16.0883 107.97 15.6937C107.607 15.2937 107.127 15.0937 106.53 15.0937C105.932 15.0937 105.45 15.299 105.082 15.7097C104.714 16.115 104.53 16.6563 104.53 17.3337L103.826 16.9497C103.826 16.395 103.956 15.899 104.218 15.4617C104.479 15.019 104.836 14.6723 105.29 14.4217C105.743 14.1657 106.258 14.0377 106.834 14.0377C107.383 14.0377 107.871 14.155 108.298 14.3897C108.73 14.6243 109.068 14.9657 109.314 15.4137C109.559 15.8617 109.682 16.4057 109.682 17.0457L109.674 22.9097H108.514ZM120.525 23.1497C119.683 23.1497 118.952 22.963 118.333 22.5897C117.72 22.2163 117.243 21.691 116.901 21.0137C116.56 20.3363 116.389 19.5417 116.389 18.6297C116.389 17.6857 116.557 16.8697 116.893 16.1817C117.229 15.4937 117.701 14.963 118.309 14.5897C118.923 14.2163 119.645 14.0297 120.477 14.0297C121.331 14.0297 122.059 14.227 122.661 14.6217C123.264 15.011 123.72 15.571 124.029 16.3017C124.339 17.0323 124.48 17.9043 124.453 18.9177H123.253V18.5017C123.232 17.3817 122.989 16.5363 122.525 15.9657C122.067 15.395 121.395 15.1097 120.509 15.1097C119.581 15.1097 118.869 15.411 118.373 16.0137C117.883 16.6163 117.637 17.475 117.637 18.5897C117.637 19.6777 117.883 20.523 118.373 21.1257C118.869 21.723 119.571 22.0217 120.477 22.0217C121.096 22.0217 121.635 21.8803 122.093 21.5977C122.557 21.3097 122.923 20.8963 123.189 20.3577L124.285 20.7817C123.944 21.5337 123.44 22.1177 122.773 22.5337C122.112 22.9443 121.363 23.1497 120.525 23.1497ZM117.221 18.9177V17.9337H123.821V18.9177H117.221ZM132.234 22.9097V18.5017C132.234 18.0217 132.189 17.5817 132.098 17.1817C132.008 16.7763 131.861 16.4243 131.658 16.1257C131.461 15.8217 131.202 15.587 130.882 15.4217C130.568 15.2563 130.184 15.1737 129.73 15.1737C129.314 15.1737 128.946 15.2457 128.626 15.3897C128.312 15.5337 128.045 15.7417 127.826 16.0137C127.613 16.2803 127.45 16.6057 127.338 16.9897C127.226 17.3737 127.17 17.811 127.17 18.3017L126.338 18.1177C126.338 17.2323 126.493 16.4883 126.802 15.8857C127.112 15.283 127.538 14.827 128.082 14.5177C128.626 14.2083 129.25 14.0537 129.954 14.0537C130.472 14.0537 130.922 14.1337 131.306 14.2937C131.696 14.4537 132.024 14.6697 132.29 14.9417C132.562 15.2137 132.781 15.5257 132.946 15.8777C133.112 16.2243 133.232 16.595 133.306 16.9897C133.381 17.379 133.418 17.7683 133.418 18.1577V22.9097H132.234ZM125.986 22.9097V14.2697H127.05V16.3977H127.17V22.9097H125.986ZM142.577 23.1497C141.783 23.1497 141.111 22.9497 140.561 22.5497C140.012 22.1443 139.596 21.5977 139.313 20.9097C139.031 20.2163 138.889 19.4403 138.889 18.5817C138.889 17.707 139.031 16.9283 139.313 16.2457C139.601 15.5577 140.023 15.0163 140.577 14.6217C141.132 14.227 141.815 14.0297 142.625 14.0297C143.415 14.0297 144.092 14.2297 144.657 14.6297C145.223 15.0297 145.655 15.5737 145.953 16.2617C146.257 16.9497 146.409 17.723 146.409 18.5817C146.409 19.4457 146.257 20.2217 145.953 20.9097C145.649 21.5977 145.212 22.1443 144.641 22.5497C144.071 22.9497 143.383 23.1497 142.577 23.1497ZM138.689 22.9097V11.3897H139.873V16.4057H139.745V22.9097H138.689ZM142.457 22.0537C143.06 22.0537 143.561 21.9017 143.961 21.5977C144.361 21.2937 144.66 20.8803 144.857 20.3577C145.06 19.8297 145.161 19.2377 145.161 18.5817C145.161 17.931 145.063 17.3443 144.865 16.8217C144.668 16.299 144.367 15.8857 143.961 15.5817C143.561 15.2777 143.052 15.1257 142.433 15.1257C141.831 15.1257 141.329 15.2723 140.929 15.5657C140.535 15.859 140.239 16.267 140.041 16.7897C139.844 17.307 139.745 17.9043 139.745 18.5817C139.745 19.2483 139.844 19.8457 140.041 20.3737C140.239 20.8963 140.537 21.307 140.937 21.6057C141.337 21.9043 141.844 22.0537 142.457 22.0537ZM151.822 23.1497C150.979 23.1497 150.249 22.963 149.63 22.5897C149.017 22.2163 148.539 21.691 148.198 21.0137C147.857 20.3363 147.686 19.5417 147.686 18.6297C147.686 17.6857 147.854 16.8697 148.19 16.1817C148.526 15.4937 148.998 14.963 149.606 14.5897C150.219 14.2163 150.942 14.0297 151.774 14.0297C152.627 14.0297 153.355 14.227 153.958 14.6217C154.561 15.011 155.017 15.571 155.326 16.3017C155.635 17.0323 155.777 17.9043 155.75 18.9177H154.55V18.5017C154.529 17.3817 154.286 16.5363 153.822 15.9657C153.363 15.395 152.691 15.1097 151.806 15.1097C150.878 15.1097 150.166 15.411 149.67 16.0137C149.179 16.6163 148.934 17.475 148.934 18.5897C148.934 19.6777 149.179 20.523 149.67 21.1257C150.166 21.723 150.867 22.0217 151.774 22.0217C152.393 22.0217 152.931 21.8803 153.39 21.5977C153.854 21.3097 154.219 20.8963 154.486 20.3577L155.582 20.7817C155.241 21.5337 154.737 22.1177 154.07 22.5337C153.409 22.9443 152.659 23.1497 151.822 23.1497ZM148.518 18.9177V17.9337H155.118V18.9177H148.518ZM157.686 12.6297V11.3097H158.862V12.6297H157.686ZM157.686 22.9097V14.2697H158.862V22.9097H157.686ZM164.623 22.9097V11.3897H165.799V22.9097H164.623ZM174.437 22.9097V18.5017C174.437 18.0217 174.392 17.5817 174.301 17.1817C174.211 16.7763 174.064 16.4243 173.861 16.1257C173.664 15.8217 173.405 15.587 173.085 15.4217C172.771 15.2563 172.387 15.1737 171.933 15.1737C171.517 15.1737 171.149 15.2457 170.829 15.3897C170.515 15.5337 170.248 15.7417 170.029 16.0137C169.816 16.2803 169.653 16.6057 169.541 16.9897C169.429 17.3737 169.373 17.811 169.373 18.3017L168.541 18.1177C168.541 17.2323 168.696 16.4883 169.005 15.8857C169.315 15.283 169.741 14.827 170.285 14.5177C170.829 14.2083 171.453 14.0537 172.157 14.0537C172.675 14.0537 173.125 14.1337 173.509 14.2937C173.899 14.4537 174.227 14.6697 174.493 14.9417C174.765 15.2137 174.984 15.5257 175.149 15.8777C175.315 16.2243 175.435 16.595 175.509 16.9897C175.584 17.379 175.621 17.7683 175.621 18.1577V22.9097H174.437ZM168.189 22.9097V14.2697H169.253V16.3977H169.373V22.9097H168.189ZM180.033 22.9097L176.897 14.2697H178.089L180.641 21.3737L183.177 14.2697H184.385L181.249 22.9097H180.033ZM185.982 12.6297V11.3097H187.158V12.6297H185.982ZM185.982 22.9097V14.2697H187.158V22.9097H185.982ZM195.797 22.9097V18.5017C195.797 18.0217 195.751 17.5817 195.661 17.1817C195.57 16.7763 195.423 16.4243 195.221 16.1257C195.023 15.8217 194.765 15.587 194.445 15.4217C194.13 15.2563 193.746 15.1737 193.293 15.1737C192.877 15.1737 192.509 15.2457 192.189 15.3897C191.874 15.5337 191.607 15.7417 191.389 16.0137C191.175 16.2803 191.013 16.6057 190.901 16.9897C190.789 17.3737 190.733 17.811 190.733 18.3017L189.901 18.1177C189.901 17.2323 190.055 16.4883 190.365 15.8857C190.674 15.283 191.101 14.827 191.645 14.5177C192.189 14.2083 192.813 14.0537 193.517 14.0537C194.034 14.0537 194.485 14.1337 194.869 14.2937C195.258 14.4537 195.586 14.6697 195.853 14.9417C196.125 15.2137 196.343 15.5257 196.509 15.8777C196.674 16.2243 196.794 16.595 196.869 16.9897C196.943 17.379 196.981 17.7683 196.981 18.1577V22.9097H195.797ZM189.549 22.9097V14.2697H190.613V16.3977H190.733V22.9097H189.549ZM199.217 12.6297V11.3097H200.393V12.6297H199.217ZM199.217 22.9097V14.2697H200.393V22.9097H199.217ZM206.375 23.1497C205.506 23.1497 204.77 22.955 204.167 22.5657C203.564 22.1763 203.106 21.6403 202.791 20.9577C202.482 20.2697 202.322 19.4803 202.311 18.5897C202.322 17.683 202.487 16.8883 202.807 16.2057C203.127 15.5177 203.588 14.9843 204.191 14.6057C204.794 14.2217 205.524 14.0297 206.383 14.0297C207.258 14.0297 208.018 14.243 208.663 14.6697C209.314 15.0963 209.759 15.6803 209.999 16.4217L208.847 16.7897C208.644 16.2723 208.322 15.8723 207.879 15.5897C207.442 15.3017 206.94 15.1577 206.375 15.1577C205.74 15.1577 205.215 15.3043 204.799 15.5977C204.383 15.8857 204.074 16.2883 203.871 16.8057C203.668 17.323 203.564 17.9177 203.559 18.5897C203.57 19.6243 203.81 20.4563 204.279 21.0857C204.748 21.7097 205.447 22.0217 206.375 22.0217C206.962 22.0217 207.46 21.8883 207.871 21.6217C208.287 21.3497 208.602 20.955 208.815 20.4377L209.999 20.7897C209.679 21.5577 209.21 22.1443 208.591 22.5497C207.972 22.9497 207.234 23.1497 206.375 23.1497ZM214.955 23.1257C214.437 23.1257 213.984 23.0457 213.595 22.8857C213.211 22.7257 212.883 22.5097 212.611 22.2377C212.344 21.9657 212.128 21.6563 211.963 21.3097C211.797 20.9577 211.677 20.587 211.603 20.1977C211.528 19.803 211.491 19.411 211.491 19.0217V14.2697H212.675V18.6777C212.675 19.1523 212.72 19.5923 212.811 19.9977C212.901 20.403 213.045 20.7577 213.243 21.0617C213.445 21.3603 213.704 21.5923 214.019 21.7577C214.339 21.923 214.725 22.0057 215.179 22.0057C215.595 22.0057 215.96 21.9337 216.275 21.7897C216.595 21.6457 216.861 21.4403 217.075 21.1737C217.293 20.9017 217.459 20.5737 217.571 20.1897C217.683 19.8003 217.739 19.363 217.739 18.8777L218.571 19.0617C218.571 19.947 218.416 20.691 218.107 21.2937C217.797 21.8963 217.371 22.3523 216.827 22.6617C216.283 22.971 215.659 23.1257 214.955 23.1257ZM217.859 22.9097V20.7817H217.739V14.2697H218.915V22.9097H217.859ZM224.375 23.1417C223.361 23.1417 222.527 22.923 221.871 22.4857C221.22 22.0483 220.82 21.4403 220.671 20.6617L221.871 20.4617C221.999 20.9523 222.289 21.3443 222.743 21.6377C223.201 21.9257 223.767 22.0697 224.439 22.0697C225.095 22.0697 225.612 21.9337 225.991 21.6617C226.369 21.3843 226.559 21.0083 226.559 20.5337C226.559 20.267 226.497 20.051 226.375 19.8857C226.257 19.715 226.015 19.5577 225.647 19.4137C225.279 19.2697 224.729 19.099 223.999 18.9017C223.215 18.6883 222.601 18.475 222.159 18.2617C221.716 18.0483 221.401 17.803 221.215 17.5257C221.028 17.243 220.935 16.899 220.935 16.4937C220.935 16.003 221.073 15.5737 221.351 15.2057C221.628 14.8323 222.012 14.5443 222.503 14.3417C222.993 14.1337 223.564 14.0297 224.215 14.0297C224.865 14.0297 225.447 14.1363 225.959 14.3497C226.476 14.5577 226.892 14.851 227.207 15.2297C227.521 15.6083 227.708 16.0483 227.767 16.5497L226.567 16.7657C226.487 16.259 226.233 15.859 225.807 15.5657C225.385 15.267 224.849 15.1123 224.199 15.1017C223.585 15.0857 223.087 15.203 222.703 15.4537C222.319 15.699 222.127 16.027 222.127 16.4377C222.127 16.667 222.196 16.8643 222.335 17.0297C222.473 17.1897 222.724 17.3417 223.087 17.4857C223.455 17.6297 223.977 17.787 224.655 17.9577C225.449 18.1603 226.073 18.3737 226.527 18.5977C226.98 18.8217 227.303 19.0857 227.495 19.3897C227.687 19.6937 227.783 20.0697 227.783 20.5177C227.783 21.3337 227.479 21.9763 226.871 22.4457C226.268 22.9097 225.436 23.1417 224.375 23.1417Z" fill="#0069D1"/>
</svg>
