<svg width="130" height="34" viewBox="0 0 130 34" fill="none" xmlns="http://www.w3.org/2000/svg">
<rect width="130" height="34" rx="17" fill="#03A8E2" fill-opacity="0.2"/>
<path d="M23.978 24.6709L22.2722 24.3712L20.5664 24.6709L21.6383 19.0694L21.8458 18.8965H22.6871L22.8946 19.0694L23.9665 24.6709H23.978Z" fill="#03A8E2"/>
<path d="M21.0625 18.4361L21.0164 18.7012L16.6943 22.424L16.1065 20.7989L15 19.4734L20.3825 17.5947L20.6361 17.6869L21.051 18.4131L21.0625 18.4361Z" fill="#0069D1"/>
<path d="M21.0627 16.0617L20.6478 16.7879L20.3942 16.8801L15.0117 15.0014L16.1182 13.6759L16.706 12.0508L21.0282 15.7736L21.0743 16.0387L21.0627 16.0617Z" fill="#0069D1"/>
<path d="M23.9782 9.82617L22.9063 15.4277L22.6989 15.6006H21.8575L21.65 15.4277L20.5781 9.82617L22.2839 10.1258L23.9898 9.82617H23.9782Z" fill="#0069D1"/>
<path d="M29.5569 15.0125L24.1744 16.8912L23.9208 16.799L23.5059 16.0729L23.552 15.8078L27.8741 12.085L28.4619 13.7101L29.5684 15.0356L29.5569 15.0125Z" fill="#0069D1"/>
<path d="M29.5567 19.4846L28.4502 20.81L27.8624 22.4351L23.5402 18.7123L23.4941 18.4472L23.9091 17.7211L24.1626 17.6289L29.5452 19.5076L29.5567 19.4846Z" fill="#0069D1"/>
<path d="M22.4177 17H21.4726L21 17.8183L21.4726 18.6367H22.4177L22.8902 17.8183L22.4177 17Z" fill="#03A8E2"/>
<path d="M53.0724 10.2144V8.93436H54.3524V10.2144H53.0724ZM50.0164 10.2144V8.93436H51.2964V10.2144H50.0164ZM52.1844 23.6624C51.3044 23.6624 50.5257 23.481 49.8484 23.1184C49.1764 22.7557 48.6484 22.2437 48.2644 21.5824C47.8804 20.921 47.6884 20.1477 47.6884 19.2624V11.9104L48.8724 11.9024V19.1104C48.8724 19.7077 48.9737 20.225 49.1764 20.6624C49.379 21.0944 49.643 21.4517 49.9684 21.7344C50.299 22.0117 50.659 22.217 51.0484 22.3504C51.4377 22.4837 51.8164 22.5504 52.1844 22.5504C52.5577 22.5504 52.939 22.4837 53.3284 22.3504C53.7177 22.217 54.075 22.0117 54.4004 21.7344C54.7257 21.4517 54.9897 21.0944 55.1924 20.6624C55.395 20.225 55.4964 19.7077 55.4964 19.1104V11.9024H56.6804V19.2624C56.6804 20.1477 56.4884 20.921 56.1044 21.5824C55.7204 22.2384 55.1897 22.7504 54.5124 23.1184C53.8404 23.481 53.0644 23.6624 52.1844 23.6624ZM62.8027 23.6624C62.0081 23.6624 61.3361 23.4624 60.7867 23.0624C60.2374 22.657 59.8214 22.1104 59.5387 21.4224C59.2561 20.729 59.1147 19.953 59.1147 19.0944C59.1147 18.2197 59.2561 17.441 59.5387 16.7584C59.8267 16.0704 60.2481 15.529 60.8027 15.1344C61.3574 14.7397 62.0401 14.5424 62.8507 14.5424C63.6401 14.5424 64.3174 14.7424 64.8827 15.1424C65.4481 15.5424 65.8801 16.0864 66.1787 16.7744C66.4827 17.4624 66.6347 18.2357 66.6347 19.0944C66.6347 19.9584 66.4827 20.7344 66.1787 21.4224C65.8747 22.1104 65.4374 22.657 64.8667 23.0624C64.2961 23.4624 63.6081 23.6624 62.8027 23.6624ZM58.9147 23.4224V11.9024H60.0987V16.9184H59.9707V23.4224H58.9147ZM62.6827 22.5664C63.2854 22.5664 63.7867 22.4144 64.1867 22.1104C64.5867 21.8064 64.8854 21.393 65.0827 20.8704C65.2854 20.3424 65.3867 19.7504 65.3867 19.0944C65.3867 18.4437 65.2881 17.857 65.0907 17.3344C64.8934 16.8117 64.5921 16.3984 64.1867 16.0944C63.7867 15.7904 63.2774 15.6384 62.6587 15.6384C62.0561 15.6384 61.5547 15.785 61.1547 16.0784C60.7601 16.3717 60.4641 16.7797 60.2667 17.3024C60.0694 17.8197 59.9707 18.417 59.9707 19.0944C59.9707 19.761 60.0694 20.3584 60.2667 20.8864C60.4641 21.409 60.7627 21.8197 61.1627 22.1184C61.5627 22.417 62.0694 22.5664 62.6827 22.5664ZM72.0475 23.6624C71.2048 23.6624 70.4742 23.4757 69.8555 23.1024C69.2422 22.729 68.7648 22.2037 68.4235 21.5264C68.0822 20.849 67.9115 20.0544 67.9115 19.1424C67.9115 18.1984 68.0795 17.3824 68.4155 16.6944C68.7515 16.0064 69.2235 15.4757 69.8315 15.1024C70.4448 14.729 71.1675 14.5424 71.9995 14.5424C72.8528 14.5424 73.5808 14.7397 74.1835 15.1344C74.7862 15.5237 75.2422 16.0837 75.5515 16.8144C75.8608 17.545 76.0022 18.417 75.9755 19.4304H74.7755V19.0144C74.7542 17.8944 74.5115 17.049 74.0475 16.4784C73.5888 15.9077 72.9168 15.6224 72.0315 15.6224C71.1035 15.6224 70.3915 15.9237 69.8955 16.5264C69.4048 17.129 69.1595 17.9877 69.1595 19.1024C69.1595 20.1904 69.4048 21.0357 69.8955 21.6384C70.3915 22.2357 71.0928 22.5344 71.9995 22.5344C72.6182 22.5344 73.1568 22.393 73.6155 22.1104C74.0795 21.8224 74.4448 21.409 74.7115 20.8704L75.8075 21.2944C75.4662 22.0464 74.9622 22.6304 74.2955 23.0464C73.6342 23.457 72.8848 23.6624 72.0475 23.6624ZM68.7435 19.4304V18.4464H75.3435V19.4304H68.7435ZM77.7509 23.4224V14.7824H78.8069V16.8624L78.5989 16.5904C78.6949 16.3344 78.8202 16.0997 78.9749 15.8864C79.1295 15.6677 79.2975 15.489 79.4789 15.3504C79.7029 15.153 79.9642 15.0037 80.2629 14.9024C80.5615 14.7957 80.8629 14.7344 81.1669 14.7184C81.4709 14.697 81.7482 14.7184 81.9989 14.7824V15.8864C81.6842 15.8064 81.3402 15.7877 80.9669 15.8304C80.5935 15.873 80.2495 16.0224 79.9349 16.2784C79.6469 16.5024 79.4309 16.7717 79.2869 17.0864C79.1429 17.3957 79.0469 17.7264 78.9989 18.0784C78.9509 18.425 78.9269 18.769 78.9269 19.1104V23.4224H77.7509ZM90.0236 23.6384C89.5063 23.6384 89.0529 23.5584 88.6636 23.3984C88.2796 23.2384 87.9516 23.0224 87.6796 22.7504C87.4129 22.4784 87.1969 22.169 87.0316 21.8224C86.8663 21.4704 86.7463 21.0997 86.6716 20.7104C86.5969 20.3157 86.5596 19.9237 86.5596 19.5344V14.7824H87.7436V19.1904C87.7436 19.665 87.7889 20.105 87.8796 20.5104C87.9703 20.9157 88.1143 21.2704 88.3116 21.5744C88.5143 21.873 88.7729 22.105 89.0876 22.2704C89.4076 22.4357 89.7943 22.5184 90.2476 22.5184C90.6636 22.5184 91.0289 22.4464 91.3436 22.3024C91.6636 22.1584 91.9303 21.953 92.1436 21.6864C92.3623 21.4144 92.5276 21.0864 92.6396 20.7024C92.7516 20.313 92.8076 19.8757 92.8076 19.3904L93.6396 19.5744C93.6396 20.4597 93.4849 21.2037 93.1756 21.8064C92.8663 22.409 92.4396 22.865 91.8956 23.1744C91.3516 23.4837 90.7276 23.6384 90.0236 23.6384ZM92.9276 23.4224V21.2944H92.8076V14.7824H93.9836V23.4224H92.9276ZM102.46 23.4224V19.0144C102.46 18.5344 102.414 18.0944 102.324 17.6944C102.233 17.289 102.086 16.937 101.884 16.6384C101.686 16.3344 101.428 16.0997 101.108 15.9344C100.793 15.769 100.409 15.6864 99.9556 15.6864C99.5396 15.6864 99.1716 15.7584 98.8516 15.9024C98.5369 16.0464 98.2703 16.2544 98.0516 16.5264C97.8383 16.793 97.6756 17.1184 97.5636 17.5024C97.4516 17.8864 97.3956 18.3237 97.3956 18.8144L96.5636 18.6304C96.5636 17.745 96.7183 17.001 97.0276 16.3984C97.3369 15.7957 97.7636 15.3397 98.3076 15.0304C98.8516 14.721 99.4756 14.5664 100.18 14.5664C100.697 14.5664 101.148 14.6464 101.532 14.8064C101.921 14.9664 102.249 15.1824 102.516 15.4544C102.788 15.7264 103.006 16.0384 103.172 16.3904C103.337 16.737 103.457 17.1077 103.532 17.5024C103.606 17.8917 103.644 18.281 103.644 18.6704V23.4224H102.46ZM96.2116 23.4224V14.7824H97.2756V16.9104H97.3956V23.4224H96.2116ZM108.944 23.6544C107.93 23.6544 107.096 23.4357 106.44 22.9984C105.789 22.561 105.389 21.953 105.24 21.1744L106.44 20.9744C106.568 21.465 106.858 21.857 107.312 22.1504C107.77 22.4384 108.336 22.5824 109.008 22.5824C109.664 22.5824 110.181 22.4464 110.56 22.1744C110.938 21.897 111.128 21.521 111.128 21.0464C111.128 20.7797 111.066 20.5637 110.944 20.3984C110.826 20.2277 110.584 20.0704 110.216 19.9264C109.848 19.7824 109.298 19.6117 108.568 19.4144C107.784 19.201 107.17 18.9877 106.728 18.7744C106.285 18.561 105.97 18.3157 105.784 18.0384C105.597 17.7557 105.504 17.4117 105.504 17.0064C105.504 16.5157 105.642 16.0864 105.92 15.7184C106.197 15.345 106.581 15.057 107.072 14.8544C107.562 14.6464 108.133 14.5424 108.784 14.5424C109.434 14.5424 110.016 14.649 110.528 14.8624C111.045 15.0704 111.461 15.3637 111.776 15.7424C112.09 16.121 112.277 16.561 112.336 17.0624L111.136 17.2784C111.056 16.7717 110.802 16.3717 110.376 16.0784C109.954 15.7797 109.418 15.625 108.768 15.6144C108.154 15.5984 107.656 15.7157 107.272 15.9664C106.888 16.2117 106.696 16.5397 106.696 16.9504C106.696 17.1797 106.765 17.377 106.904 17.5424C107.042 17.7024 107.293 17.8544 107.656 17.9984C108.024 18.1424 108.546 18.2997 109.224 18.4704C110.018 18.673 110.642 18.8864 111.096 19.1104C111.549 19.3344 111.872 19.5984 112.064 19.9024C112.256 20.2064 112.352 20.5824 112.352 21.0304C112.352 21.8464 112.048 22.489 111.44 22.9584C110.837 23.4224 110.005 23.6544 108.944 23.6544Z" fill="#0069D1"/>
</svg>
