<svg width="129" height="34" viewBox="0 0 129 34" fill="none" xmlns="http://www.w3.org/2000/svg">
<rect width="129" height="34" rx="17" fill="#03A8E2" fill-opacity="0.2"/>
<path d="M37.9785 24.6709L36.2727 24.3712L34.5669 24.6709L35.6388 19.0694L35.8462 18.8965H36.6876L36.8951 19.0694L37.967 24.6709H37.9785Z" fill="#03A8E2"/>
<path d="M35.0625 18.4361L35.0164 18.7012L30.6943 22.424L30.1065 20.7989L29 19.4734L34.3825 17.5947L34.6361 17.6869L35.051 18.4131L35.0625 18.4361Z" fill="#0069D1"/>
<path d="M35.0627 16.0617L34.6478 16.7879L34.3942 16.8801L29.0117 15.0014L30.1182 13.6759L30.706 12.0508L35.0282 15.7736L35.0743 16.0387L35.0627 16.0617Z" fill="#0069D1"/>
<path d="M37.9787 9.82617L36.9068 15.4277L36.6994 15.6006H35.858L35.6505 15.4277L34.5786 9.82617L36.2844 10.1258L37.9902 9.82617H37.9787Z" fill="#0069D1"/>
<path d="M43.5569 15.0125L38.1744 16.8912L37.9208 16.799L37.5059 16.0729L37.552 15.8078L41.8741 12.085L42.4619 13.7101L43.5684 15.0356L43.5569 15.0125Z" fill="#0069D1"/>
<path d="M43.5572 19.4846L42.4507 20.81L41.8629 22.4351L37.5407 18.7123L37.4946 18.4472L37.9096 17.7211L38.1631 17.6289L43.5456 19.5076L43.5572 19.4846Z" fill="#0069D1"/>
<path d="M36.4177 17H35.4726L35 17.8183L35.4726 18.6367H36.4177L36.8902 17.8183L36.4177 17Z" fill="#03A8E2"/>
<path d="M65.6884 23.6624C64.883 23.6624 64.1577 23.529 63.5124 23.2624C62.8724 22.9904 62.3417 22.6064 61.9204 22.1104C61.5044 21.6144 61.2324 21.025 61.1044 20.3424L62.3044 20.1424C62.4964 20.889 62.9017 21.4757 63.5204 21.9024C64.139 22.3237 64.8777 22.5344 65.7364 22.5344C66.3017 22.5344 66.8084 22.4464 67.2564 22.2704C67.7044 22.089 68.0564 21.833 68.3124 21.5024C68.5684 21.1717 68.6964 20.7797 68.6964 20.3264C68.6964 20.0277 68.643 19.7744 68.5364 19.5664C68.4297 19.353 68.2884 19.177 68.1124 19.0384C67.9364 18.8997 67.7444 18.785 67.5364 18.6944C67.3284 18.5984 67.1257 18.521 66.9284 18.4624L64.0084 17.5904C63.6564 17.489 63.331 17.361 63.0324 17.2064C62.7337 17.0464 62.4724 16.857 62.2484 16.6384C62.0297 16.4144 61.859 16.153 61.7364 15.8544C61.6137 15.5557 61.5524 15.2144 61.5524 14.8304C61.5524 14.1797 61.723 13.617 62.0644 13.1424C62.4057 12.6677 62.8724 12.3024 63.4644 12.0464C64.0564 11.7904 64.731 11.665 65.4884 11.6704C66.2564 11.6704 66.9417 11.8064 67.5444 12.0784C68.1524 12.3504 68.6537 12.7397 69.0484 13.2464C69.443 13.7477 69.7044 14.3424 69.8324 15.0304L68.6004 15.2544C68.5204 14.753 68.3364 14.3184 68.0484 13.9504C67.7604 13.5824 67.3924 13.2997 66.9444 13.1024C66.5017 12.8997 66.0137 12.7957 65.4804 12.7904C64.963 12.7904 64.5017 12.8784 64.0964 13.0544C63.6964 13.225 63.379 13.4597 63.1444 13.7584C62.9097 14.057 62.7924 14.3984 62.7924 14.7824C62.7924 15.1717 62.899 15.4837 63.1124 15.7184C63.331 15.953 63.5977 16.137 63.9124 16.2704C64.2324 16.4037 64.5417 16.513 64.8404 16.5984L67.0964 17.2624C67.331 17.3264 67.6057 17.4197 67.9204 17.5424C68.2404 17.6597 68.5497 17.8304 68.8484 18.0544C69.1524 18.273 69.403 18.561 69.6004 18.9184C69.7977 19.2757 69.8964 19.729 69.8964 20.2784C69.8964 20.8117 69.7897 21.289 69.5764 21.7104C69.3684 22.1317 69.0724 22.4864 68.6884 22.7744C68.3097 23.0624 67.8644 23.281 67.3524 23.4304C66.8457 23.585 66.291 23.6624 65.6884 23.6624ZM76.2517 23.4224C75.7664 23.5237 75.2864 23.5637 74.8117 23.5424C74.3424 23.521 73.9211 23.4197 73.5477 23.2384C73.1797 23.057 72.8997 22.7744 72.7077 22.3904C72.5531 22.0704 72.4677 21.7477 72.4517 21.4224C72.4411 21.0917 72.4357 20.7157 72.4357 20.2944V12.3824H73.6037V20.2464C73.6037 20.609 73.6064 20.913 73.6117 21.1584C73.6224 21.3984 73.6784 21.6117 73.7797 21.7984C73.9717 22.1557 74.2757 22.369 74.6917 22.4384C75.1131 22.5077 75.6331 22.4917 76.2517 22.3904V23.4224ZM70.5877 15.7904V14.7824H76.2517V15.7904H70.5877ZM81.2495 23.6624C80.3908 23.6624 79.6575 23.4677 79.0495 23.0784C78.4415 22.689 77.9748 22.1504 77.6495 21.4624C77.3242 20.7744 77.1615 19.985 77.1615 19.0944C77.1615 18.1877 77.3268 17.393 77.6575 16.7104C77.9882 16.0277 78.4575 15.497 79.0655 15.1184C79.6788 14.7344 80.4068 14.5424 81.2495 14.5424C82.1135 14.5424 82.8495 14.737 83.4575 15.1264C84.0708 15.5104 84.5375 16.0464 84.8575 16.7344C85.1828 17.417 85.3455 18.2037 85.3455 19.0944C85.3455 20.001 85.1828 20.7984 84.8575 21.4864C84.5322 22.169 84.0628 22.7024 83.4495 23.0864C82.8362 23.4704 82.1028 23.6624 81.2495 23.6624ZM81.2495 22.5344C82.2095 22.5344 82.9242 22.217 83.3935 21.5824C83.8628 20.9424 84.0975 20.113 84.0975 19.0944C84.0975 18.049 83.8602 17.217 83.3855 16.5984C82.9162 15.9797 82.2042 15.6704 81.2495 15.6704C80.6042 15.6704 80.0708 15.817 79.6495 16.1104C79.2335 16.3984 78.9215 16.801 78.7135 17.3184C78.5108 17.8304 78.4095 18.4224 78.4095 19.0944C78.4095 20.1344 78.6495 20.969 79.1295 21.5984C79.6095 22.2224 80.3162 22.5344 81.2495 22.5344ZM87.1102 23.4224V14.7824H88.1662V16.8624L87.9582 16.5904C88.0542 16.3344 88.1796 16.0997 88.3342 15.8864C88.4889 15.6677 88.6569 15.489 88.8382 15.3504C89.0622 15.153 89.3236 15.0037 89.6222 14.9024C89.9209 14.7957 90.2222 14.7344 90.5262 14.7184C90.8302 14.697 91.1076 14.7184 91.3582 14.7824V15.8864C91.0436 15.8064 90.6996 15.7877 90.3262 15.8304C89.9529 15.873 89.6089 16.0224 89.2942 16.2784C89.0062 16.5024 88.7902 16.7717 88.6462 17.0864C88.5022 17.3957 88.4062 17.7264 88.3582 18.0784C88.3102 18.425 88.2862 18.769 88.2862 19.1104V23.4224H87.1102ZM93.9985 27.2624L95.6705 22.7264L95.6945 24.0704L91.9105 14.7824H93.1585L96.2625 22.5504H95.7505L98.6145 14.7824H99.8145L95.1745 27.2624H93.9985Z" fill="#0069D1"/>
</svg>
