<svg width="161" height="36" viewBox="0 0 161 36" fill="none" xmlns="http://www.w3.org/2000/svg">
<rect width="161" height="36" rx="18" fill="#C5E3FF" fill-opacity="0.4"/>
<path d="M40.4307 26.7373H41.8466V28.1533H40.4307V26.7373Z" fill="#6FB9FE"/>
<path d="M53.9754 15.4435C52.8846 15.0634 52.0222 14.2256 51.6102 13.1457L51.4372 12.6932H48.6827V6H33.5938V30H48.6827V27.1912L48.7025 27.1809C50.4341 26.2861 51.8849 24.9327 52.8982 23.2683C53.9117 21.6033 54.4474 19.6932 54.4474 17.7446V15.6079L53.9754 15.4435ZM53.0412 17.7446C53.0412 20.9639 51.3885 23.903 48.6827 25.5764C48.4802 25.7025 48.2713 25.8212 48.0571 25.9318L47.9796 25.9715L47.9023 25.9318C47.8546 25.9069 47.8068 25.8816 47.759 25.8563C47.5949 25.7677 47.4336 25.6743 47.2765 25.5764C46.9377 25.3674 46.6157 25.1382 46.311 24.8906C44.1833 23.1628 42.9182 20.5607 42.9182 17.7446V16.5815C44.0291 16.0715 44.9267 15.1968 45.4663 14.0995H50.4931C51.0327 15.1968 51.9303 16.0715 53.0412 16.5815V17.7446ZM44.5222 12.6932L44.3492 13.1457C43.9372 14.2256 43.0748 15.0634 41.9838 15.4435L41.512 15.6079V17.7446C41.512 19.6932 42.0477 21.6033 43.061 23.2683C43.4146 23.8491 43.8215 24.3918 44.2752 24.8906H35V10.5469H47.2765V12.6932H44.5222ZM47.2765 7.40625V9.14062H35V7.40625H47.2765ZM47.2765 28.5938H35V26.2969H45.8347C46.2828 26.6277 46.7581 26.9236 47.2569 27.1809L47.2765 27.1912V28.5938Z" fill="#6FB9FE"/>
<path d="M48.6827 18.6805L47.5775 19.7487L47.2765 19.4647L45.9384 18.2006L44.9727 19.2228L47.2765 21.3989L47.5887 21.6937L48.6827 20.636L51.506 17.9076L50.5288 16.8965L48.6827 18.6805Z" fill="#6FB9FE"/>
<path d="M71.2112 24.24C70.4059 24.24 69.6806 24.1067 69.0352 23.84C68.3952 23.568 67.8646 23.184 67.4432 22.688C67.0272 22.192 66.7552 21.6027 66.6272 20.92L67.8272 20.72C68.0192 21.4667 68.4246 22.0533 69.0432 22.48C69.6619 22.9013 70.4006 23.112 71.2592 23.112C71.8246 23.112 72.3312 23.024 72.7792 22.848C73.2272 22.6667 73.5792 22.4107 73.8352 22.08C74.0912 21.7493 74.2192 21.3573 74.2192 20.904C74.2192 20.6053 74.1659 20.352 74.0592 20.144C73.9526 19.9307 73.8112 19.7547 73.6352 19.616C73.4592 19.4773 73.2672 19.3627 73.0592 19.272C72.8512 19.176 72.6486 19.0987 72.4512 19.04L69.5312 18.168C69.1792 18.0667 68.8539 17.9387 68.5552 17.784C68.2566 17.624 67.9952 17.4347 67.7712 17.216C67.5526 16.992 67.3819 16.7307 67.2592 16.432C67.1366 16.1333 67.0752 15.792 67.0752 15.408C67.0752 14.7573 67.2459 14.1947 67.5872 13.72C67.9286 13.2453 68.3952 12.88 68.9872 12.624C69.5792 12.368 70.2539 12.2427 71.0112 12.248C71.7792 12.248 72.4646 12.384 73.0672 12.656C73.6752 12.928 74.1766 13.3173 74.5712 13.824C74.9659 14.3253 75.2273 14.92 75.3553 15.608L74.1233 15.832C74.0432 15.3307 73.8592 14.896 73.5712 14.528C73.2832 14.16 72.9152 13.8773 72.4672 13.68C72.0246 13.4773 71.5366 13.3733 71.0032 13.368C70.4859 13.368 70.0246 13.456 69.6192 13.632C69.2192 13.8027 68.9019 14.0373 68.6672 14.336C68.4326 14.6347 68.3152 14.976 68.3152 15.36C68.3152 15.7493 68.4219 16.0613 68.6352 16.296C68.8539 16.5307 69.1206 16.7147 69.4352 16.848C69.7552 16.9813 70.0646 17.0907 70.3632 17.176L72.6192 17.84C72.8539 17.904 73.1286 17.9973 73.4432 18.12C73.7632 18.2373 74.0726 18.408 74.3713 18.632C74.6752 18.8507 74.9259 19.1387 75.1233 19.496C75.3206 19.8533 75.4192 20.3067 75.4192 20.856C75.4192 21.3893 75.3126 21.8667 75.0992 22.288C74.8912 22.7093 74.5952 23.064 74.2113 23.352C73.8326 23.64 73.3872 23.8587 72.8752 24.008C72.3686 24.1627 71.8139 24.24 71.2112 24.24ZM80.8546 24.216C80.3373 24.216 79.884 24.136 79.4946 23.976C79.1106 23.816 78.7826 23.6 78.5106 23.328C78.244 23.056 78.028 22.7467 77.8626 22.4C77.6973 22.048 77.5773 21.6773 77.5026 21.288C77.428 20.8933 77.3906 20.5013 77.3906 20.112V15.36H78.5746V19.768C78.5746 20.2427 78.62 20.6827 78.7106 21.088C78.8013 21.4933 78.9453 21.848 79.1426 22.152C79.3453 22.4507 79.604 22.6827 79.9186 22.848C80.2386 23.0133 80.6253 23.096 81.0786 23.096C81.4946 23.096 81.86 23.024 82.1746 22.88C82.4946 22.736 82.7613 22.5307 82.9746 22.264C83.1933 21.992 83.3586 21.664 83.4706 21.28C83.5826 20.8907 83.6386 20.4533 83.6386 19.968L84.4706 20.152C84.4706 21.0373 84.316 21.7813 84.0066 22.384C83.6973 22.9867 83.2706 23.4427 82.7266 23.752C82.1826 24.0613 81.5586 24.216 80.8546 24.216ZM83.7586 24V21.872H83.6386V15.36H84.8146V24H83.7586ZM91.4106 24.24C90.616 24.24 89.944 24.04 89.3946 23.64C88.8453 23.2347 88.4293 22.688 88.1466 22C87.864 21.3067 87.7226 20.5307 87.7226 19.672C87.7226 18.7973 87.864 18.0187 88.1466 17.336C88.4346 16.648 88.856 16.1067 89.4106 15.712C89.9653 15.3173 90.648 15.12 91.4586 15.12C92.248 15.12 92.9253 15.32 93.4906 15.72C94.056 16.12 94.488 16.664 94.7866 17.352C95.0906 18.04 95.2426 18.8133 95.2426 19.672C95.2426 20.536 95.0906 21.312 94.7866 22C94.4826 22.688 94.0453 23.2347 93.4746 23.64C92.904 24.04 92.216 24.24 91.4106 24.24ZM87.5226 27.84V15.36H88.5786V21.864H88.7066V27.84H87.5226ZM91.2906 23.144C91.8933 23.144 92.3946 22.992 92.7946 22.688C93.1946 22.384 93.4933 21.9707 93.6906 21.448C93.8933 20.92 93.9946 20.328 93.9946 19.672C93.9946 19.0213 93.896 18.4347 93.6986 17.912C93.5013 17.3893 93.2 16.976 92.7946 16.672C92.3946 16.368 91.8853 16.216 91.2666 16.216C90.664 16.216 90.1626 16.3627 89.7626 16.656C89.368 16.9493 89.072 17.3573 88.8746 17.88C88.6773 18.3973 88.5786 18.9947 88.5786 19.672C88.5786 20.3387 88.6773 20.936 88.8746 21.464C89.072 21.9867 89.3706 22.3973 89.7706 22.696C90.1706 22.9947 90.6773 23.144 91.2906 23.144ZM101.359 24.24C100.565 24.24 99.8927 24.04 99.3434 23.64C98.794 23.2347 98.378 22.688 98.0954 22C97.8127 21.3067 97.6714 20.5307 97.6714 19.672C97.6714 18.7973 97.8127 18.0187 98.0954 17.336C98.3834 16.648 98.8047 16.1067 99.3594 15.712C99.914 15.3173 100.597 15.12 101.407 15.12C102.197 15.12 102.874 15.32 103.439 15.72C104.005 16.12 104.437 16.664 104.735 17.352C105.039 18.04 105.191 18.8133 105.191 19.672C105.191 20.536 105.039 21.312 104.735 22C104.431 22.688 103.994 23.2347 103.423 23.64C102.853 24.04 102.165 24.24 101.359 24.24ZM97.4714 27.84V15.36H98.5274V21.864H98.6554V27.84H97.4714ZM101.239 23.144C101.842 23.144 102.343 22.992 102.743 22.688C103.143 22.384 103.442 21.9707 103.639 21.448C103.842 20.92 103.943 20.328 103.943 19.672C103.943 19.0213 103.845 18.4347 103.647 17.912C103.45 17.3893 103.149 16.976 102.743 16.672C102.343 16.368 101.834 16.216 101.215 16.216C100.613 16.216 100.111 16.3627 99.7114 16.656C99.3167 16.9493 99.0207 17.3573 98.8234 17.88C98.626 18.3973 98.5274 18.9947 98.5274 19.672C98.5274 20.3387 98.626 20.936 98.8234 21.464C99.0207 21.9867 99.3194 22.3973 99.7194 22.696C100.119 22.9947 100.626 23.144 101.239 23.144ZM111.036 24.24C110.177 24.24 109.444 24.0453 108.836 23.656C108.228 23.2667 107.761 22.728 107.436 22.04C107.111 21.352 106.948 20.5627 106.948 19.672C106.948 18.7653 107.113 17.9707 107.444 17.288C107.775 16.6053 108.244 16.0747 108.852 15.696C109.465 15.312 110.193 15.12 111.036 15.12C111.9 15.12 112.636 15.3147 113.244 15.704C113.857 16.088 114.324 16.624 114.644 17.312C114.969 17.9947 115.132 18.7813 115.132 19.672C115.132 20.5787 114.969 21.376 114.644 22.064C114.319 22.7467 113.849 23.28 113.236 23.664C112.623 24.048 111.889 24.24 111.036 24.24ZM111.036 23.112C111.996 23.112 112.711 22.7947 113.18 22.16C113.649 21.52 113.884 20.6907 113.884 19.672C113.884 18.6267 113.647 17.7947 113.172 17.176C112.703 16.5573 111.991 16.248 111.036 16.248C110.391 16.248 109.857 16.3947 109.436 16.688C109.02 16.976 108.708 17.3787 108.5 17.896C108.297 18.408 108.196 19 108.196 19.672C108.196 20.712 108.436 21.5467 108.916 22.176C109.396 22.8 110.103 23.112 111.036 23.112ZM117.377 24V15.36H118.433V17.44L118.225 17.168C118.321 16.912 118.446 16.6773 118.601 16.464C118.756 16.2453 118.924 16.0667 119.105 15.928C119.329 15.7307 119.59 15.5813 119.889 15.48C120.188 15.3733 120.489 15.312 120.793 15.296C121.097 15.2747 121.374 15.296 121.625 15.36V16.464C121.31 16.384 120.966 16.3653 120.593 16.408C120.22 16.4507 119.876 16.6 119.561 16.856C119.273 17.08 119.057 17.3493 118.913 17.664C118.769 17.9733 118.673 18.304 118.625 18.656C118.577 19.0027 118.553 19.3467 118.553 19.688V24H117.377ZM128.327 24C127.841 24.1013 127.361 24.1413 126.887 24.12C126.417 24.0987 125.996 23.9973 125.623 23.816C125.255 23.6347 124.975 23.352 124.783 22.968C124.628 22.648 124.543 22.3253 124.527 22C124.516 21.6693 124.511 21.2933 124.511 20.872V12.96H125.679V20.824C125.679 21.1867 125.681 21.4907 125.687 21.736C125.697 21.976 125.753 22.1893 125.855 22.376C126.047 22.7333 126.351 22.9467 126.767 23.016C127.188 23.0853 127.708 23.0693 128.327 22.968V24ZM122.663 16.368V15.36H128.327V16.368H122.663Z" fill="#6FB9FE"/>
</svg>
