<svg width="139" height="21" viewBox="0 0 139 21" fill="none" xmlns="http://www.w3.org/2000/svg">
<path d="M0 0V20.3033H2.58703V0H0Z" fill="#121921"/>
<path d="M7.42969 6.02462H9.99298V8.3965L9.56576 10.128H10.2778C10.8474 7.54262 12.6512 5.73999 15.7604 5.73999C18.8695 5.73999 21.1243 7.63748 21.1243 11.646V20.2796H18.6085V11.978C18.6085 9.01318 17.4692 7.89839 15.0484 7.89839C12.6275 7.89839 9.99298 10.1754 9.99298 14.0178V20.2796H7.42969V6.02462Z" fill="#121921"/>
<path d="M37.4759 6.02417L32.9426 20.2792H27.6262L22.998 6.02417H25.5613L29.9284 19.5676H30.6404L34.96 6.02417H37.4759Z" fill="#121921"/>
<path d="M40.7031 6.02417V20.2792H43.0528V6.02417H40.7031Z" fill="#121921"/>
<path d="M64.4863 6.02417V20.2792H66.836V6.02417H64.4863Z" fill="#121921"/>
<path d="M47.1113 6.02462H49.6746V8.3965L49.2474 10.128H49.9594C50.529 7.54262 52.3328 5.73999 55.442 5.73999C58.5512 5.73999 60.8059 7.63748 60.8059 11.646V20.2796H58.2901V11.978C58.2901 9.01318 57.1509 7.89839 54.73 7.89839C52.3091 7.89839 49.6746 10.1754 49.6746 14.0178V20.2796H47.1113V6.02462Z" fill="#121921"/>
<path d="M77.4198 5.73999C80.2916 5.73999 83.828 7.35287 84.1603 11.4799H81.597C81.1935 8.87087 79.4609 7.92212 77.3961 7.92212C74.1682 7.92212 72.6017 10.2703 72.6017 13.1403C72.6017 16.0102 74.192 18.3821 77.3961 18.3821C80.6002 18.3821 81.1935 17.4333 81.597 14.8243H84.1603C83.8043 18.9514 80.2916 20.5642 77.4198 20.5642C72.7916 20.5642 70.0859 17.3148 70.0859 13.1403C70.0859 8.96575 72.7916 5.73999 77.4198 5.73999Z" fill="#121921"/>
<path d="M87.3184 14.6817V6.0481H89.8817V14.3497C89.8817 17.2671 90.9972 18.4293 93.4418 18.4293C95.8864 18.4293 98.4972 16.1523 98.4972 12.2861V6.0481H101.013V20.3031H98.4972V17.8838L98.9006 16.1997H98.2123C97.6427 18.7851 95.8389 20.5877 92.7298 20.5877C89.6206 20.5877 87.3421 18.6665 87.3421 14.6817H87.3184Z" fill="#121921"/>
<path d="M104.217 15.0378H106.78C106.78 17.3859 108.323 18.5718 110.981 18.5718C113.639 18.5718 114.019 17.9314 114.019 16.4846C114.019 15.0378 113.426 14.9429 111.93 14.5397L108.109 13.4249C106.495 12.9742 104.81 11.9306 104.81 9.65359C104.81 7.37659 106.875 5.73999 110.269 5.73999C113.663 5.73999 116.25 7.42403 116.25 10.5312H113.687C113.687 8.63369 112.476 7.70865 110.293 7.70865C108.109 7.70865 107.326 8.34905 107.326 9.60615C107.326 10.8632 107.967 11.1004 109.367 11.5037L112.69 12.4524C115.111 13.1403 116.559 14.3262 116.559 16.532C116.559 18.7379 114.612 20.5879 110.934 20.5879C107.255 20.5879 104.217 18.5719 104.217 15.0378Z" fill="#121921"/>
<path d="M42.7916 0.972412H40.9878L40.0859 2.51413L40.9878 4.07957H42.7916L43.6935 2.51413L42.7916 0.972412Z" fill="#121921"/>
<path d="M66.5511 0.972412H64.771L63.8691 2.51413L64.771 4.07957H66.5511L67.453 2.51413L66.5511 0.972412Z" fill="#121921"/>
<path d="M118.764 2.79861C118.764 1.28061 119.594 0.284424 121.066 0.284424C122.537 0.284424 123.012 0.972263 123.178 2.08705H122.561C122.442 1.28061 121.92 0.829953 121.09 0.829953C120.259 0.829953 119.405 1.63639 119.405 2.84605C119.405 4.05571 119.855 4.74355 121.066 4.74355C122.276 4.74355 122.68 4.1743 122.656 3.08324H120.781V2.60886H122.846C123.131 2.60886 123.273 2.75118 123.273 3.01208V5.19422H122.656V4.64867L122.775 4.00828H122.609C122.585 4.36406 122.324 5.26537 120.947 5.26537C119.571 5.26537 118.787 4.22174 118.787 2.82233L118.764 2.79861Z" fill="#121921"/>
<path d="M124.15 1.75499H124.767V2.30053L124.673 2.70374H124.839C124.981 2.08705 125.313 1.68384 126.049 1.68384C126.785 1.68384 126.975 2.11077 127.07 2.70374H127.188C127.331 2.08705 127.663 1.68384 128.399 1.68384C129.135 1.68384 129.467 2.25308 129.467 3.0358V5.14678H128.85V3.17812C128.85 2.51399 128.707 2.20565 128.161 2.20565C127.616 2.20565 127.117 2.79862 127.117 3.67621V5.14678H126.5V3.17812C126.5 2.51399 126.358 2.20565 125.812 2.20565C125.266 2.20565 124.767 2.79862 124.767 3.67621V5.14678H124.15V1.75499Z" fill="#121921"/>
<path d="M130.275 0.142373H130.893V2.22962L130.798 2.63285H130.964C131.106 2.11103 131.557 1.68409 132.34 1.68409C133.124 1.68409 133.954 2.44309 133.954 3.43928C133.954 4.43547 133.337 5.19448 132.34 5.19448C131.343 5.19448 131.106 4.76754 130.964 4.24573H130.798L130.893 4.64894V5.12331H130.275V0.118652V0.142373ZM132.127 4.69638C132.815 4.69638 133.337 4.31688 133.337 3.43928C133.337 2.56169 132.839 2.2059 132.127 2.2059C131.415 2.2059 130.893 2.58541 130.893 3.43928C130.893 4.29316 131.438 4.69638 132.127 4.69638Z" fill="#121921"/>
<path d="M135.449 0.332275V2.49069H138.202V0.332275H138.819V5.14719H138.202V3.03622H135.449V5.14719H134.832V0.332275H135.449Z" fill="#121921"/>
</svg>
