<svg width="70" height="77" viewBox="0 0 70 77" fill="none" xmlns="http://www.w3.org/2000/svg">
<path d="M55.5802 49.69L52.0186 46.6682L47.6213 48.2411L46.7856 52.8359L50.3472 55.8577L54.7445 54.2848L55.5802 49.69Z" fill="#03A8E2" fill-opacity="0.05"/>
<path d="M33.836 84.6514L28.3659 78.068L20.9794 73.7432L42.929 56.0612L44.2636 56.073L47.4343 58.7632L47.6634 60.0781L33.7926 84.6146L33.836 84.6514Z" fill="#03A8E2" fill-opacity="0.05"/>
<path d="M42.7838 51.8294L41.7625 52.6809L13.5712 52.8908L16.5522 44.887L16.6205 36.3543L42.9114 46.4844L43.5721 47.6426L42.8141 51.7056L42.7838 51.8294Z" fill="#0069D1" fill-opacity="0.05"/>
<path d="M50.3739 42.8826L46.4885 44.2923L45.2382 43.829L30.9611 19.5392L39.3688 18.082L46.7801 13.8372L51.1649 41.6862L50.491 42.8325L50.3739 42.8826Z" fill="#0069D1" fill-opacity="0.05"/>
<path d="M81.3017 28.7083L59.3521 46.3903L58.0175 46.3785L54.8468 43.6883L54.6178 42.3734L68.4885 17.8369L73.9586 24.4203L81.3452 28.7452L81.3017 28.7083Z" fill="#0069D1" fill-opacity="0.05"/>
<path d="M85.7398 66.0897L59.4489 55.9596L58.7882 54.8014L59.5462 50.7383L60.5676 49.8867L88.7588 49.6769L85.7778 57.6807L85.7096 66.2134L85.7398 66.0897Z" fill="#0069D1" fill-opacity="0.05"/>
<path d="M71.4415 82.9427L63.0337 84.3998L55.6224 88.6447L51.2377 60.7957L51.9115 59.6493L55.7969 58.2396L57.0473 58.7029L71.3243 82.9927L71.4415 82.9427Z" fill="#0069D1" fill-opacity="0.05"/>
</svg>
