<svg width="24" height="24" viewBox="0 0 24 24" fill="none" xmlns="http://www.w3.org/2000/svg">
<mask id="mask0_229_4390" style="mask-type:luminance" maskUnits="userSpaceOnUse" x="0" y="0" width="24" height="24">
<path d="M24 0H0V24H24V0Z" fill="white"/>
</mask>
<g mask="url(#mask0_229_4390)">
<path d="M23.7448 9.75273L12.3684 1.42318C12.149 1.26259 11.851 1.26259 11.6317 1.42318L0.255261 9.75273C-0.0226135 9.95621 -0.0829885 10.3464 0.120496 10.6243C0.32398 10.9021 0.714215 10.9624 0.992043 10.759L12 2.69916L23.008 10.759C23.119 10.8403 23.248 10.8795 23.3759 10.8795C23.5679 10.8795 23.7574 10.7911 23.8795 10.6242C24.083 10.3464 24.0227 9.95621 23.7448 9.75273Z" fill="#0069D1"/>
<path d="M20.7306 10.9004C20.3862 10.9004 20.107 11.1796 20.107 11.524V21.4497H15.1185V16.0316C15.1185 14.3122 13.7196 12.9135 12.0003 12.9135C10.2811 12.9135 8.88222 14.3123 8.88222 16.0316V21.4497H3.89364V11.524C3.89364 11.1796 3.61441 10.9004 3.27006 10.9004C2.92572 10.9004 2.64648 11.1796 2.64648 11.524V22.0734C2.64648 22.4178 2.92572 22.697 3.27006 22.697H9.5058C9.83373 22.697 10.1021 22.4436 10.1269 22.1219C10.1284 22.1074 10.1294 22.0914 10.1294 22.0734V16.0317C10.1294 15 10.9687 14.1607 12.0003 14.1607C13.032 14.1607 13.8713 15 13.8713 16.0317V22.0734C13.8713 22.0913 13.8723 22.107 13.8738 22.1214C13.8983 22.4433 14.1668 22.697 14.4949 22.697H20.7306C21.075 22.697 21.3542 22.4178 21.3542 22.0734V11.524C21.3542 11.1796 21.075 10.9004 20.7306 10.9004Z" fill="#0069D1"/>
</g>
</svg>
