<svg width="60" height="60" viewBox="0 0 60 60" fill="none" xmlns="http://www.w3.org/2000/svg">
<circle cx="30" cy="30" r="30" fill="#07133B"/>
<g clip-path="url(#clip0_801_295)">
<path d="M23.0058 20.0096C23.6521 21.1914 24.6634 22.1428 25.5554 22.9822C25.7089 23.1268 25.8612 23.2699 26.0095 23.4125C26.5745 23.9547 27.1439 24.4753 27.6946 24.9788C28.2363 25.4743 28.7963 25.9862 29.3433 26.5114L30.0391 27.1795L30.7346 26.5114C31.2819 25.9862 31.8419 25.4743 32.3834 24.9788C32.9343 24.4753 33.5035 23.9547 34.0685 23.4125C34.217 23.2699 34.369 23.1268 34.5226 22.9822C35.4146 22.1428 36.4258 21.1914 37.0722 20.0096C37.9537 18.3972 37.927 16.603 36.9987 15.0867C35.8464 13.2046 34.2296 12.7994 33.0763 12.7908C32.1079 12.7829 31.1485 13.0607 30.308 13.5907L30.0391 13.7592L29.7728 13.5925C28.9405 13.0675 27.9959 12.7905 27.0388 12.7905C27.0265 12.7905 27.0142 12.7905 27.0016 12.7908C25.8483 12.7992 24.2315 13.2046 23.0793 15.0867C22.1509 16.603 22.1242 18.3972 23.0058 20.0096ZM24.7929 16.1356C25.3388 15.2439 26.0662 14.8068 27.0168 14.7997C27.0241 14.7997 27.0315 14.7997 27.0388 14.7997C27.6158 14.7997 28.1903 14.9695 28.7035 15.2933L30.0391 16.1299L31.3771 15.2918C31.8945 14.9656 32.4755 14.7953 33.0611 14.7997C34.0117 14.8068 34.7392 15.2439 35.2853 16.1356C35.8354 17.0344 35.8441 18.0679 35.3094 19.0454C34.8163 19.9471 33.967 20.7462 33.1456 21.5192C32.9871 21.6683 32.8302 21.8161 32.6769 21.9631C32.1296 22.4886 31.5693 23.0008 31.0276 23.4962C30.703 23.7931 30.3718 24.0957 30.0388 24.4054C29.7058 24.0957 29.3747 23.7931 29.0501 23.4962C28.5083 23.0008 27.948 22.4886 27.4011 21.9631C27.2478 21.8161 27.0906 21.6683 26.9321 21.5192C26.1107 20.7462 25.2614 19.9471 24.7683 19.0454C24.2339 18.0679 24.2425 17.0347 24.7929 16.1356Z" fill="white"/>
<path d="M42.8897 18.7866C41.2404 18.7866 39.8985 20.1285 39.8985 21.7778V29.8765L39.4402 30.3505C39.2916 30.0406 39.0881 29.7515 38.8305 29.4978C37.6298 28.3162 35.6871 28.327 34.4998 29.5218L30.039 34.0103L25.5783 29.5218C24.391 28.327 22.4483 28.3162 21.2476 29.4978C20.9897 29.7515 20.7865 30.0406 20.6376 30.3505L20.1796 29.8765V21.7778C20.1796 20.1285 18.8377 18.7866 17.1884 18.7866C15.5392 18.7866 14.1973 20.1285 14.1973 21.7778V33.0427L19.9708 42.7272V47.0764H40.1075V42.7272L45.8808 33.0427V21.7778C45.8808 20.1285 44.5389 18.7866 42.8897 18.7866ZM29.0343 45.0675H21.9798V42.1739L16.2062 32.4892V21.7778C16.2062 21.2363 16.6467 20.7958 17.1882 20.7958C17.7299 20.7958 18.1704 21.2363 18.1704 21.7778V30.689L21.1108 33.7301C21.1372 33.76 21.1644 33.789 21.1924 33.818L24.4067 37.1472L24.4109 37.1432L24.4954 37.2306L25.9396 35.834L22.59 32.3699C22.2367 31.9511 22.2607 31.3192 22.6567 30.9297C23.0716 30.5213 23.7428 30.525 24.1532 30.938L29.0346 35.8497V45.0675H29.0343ZM43.8716 32.4892L38.0983 42.1739V45.0675H31.0435V35.8497L35.9248 30.938C36.335 30.5253 37.0062 30.5213 37.4211 30.9297C37.8171 31.3194 37.8412 31.9511 37.4878 32.3699L34.1385 35.834L35.5827 37.2306L35.6669 37.1432L35.6711 37.1472L38.8857 33.818C38.9134 33.7893 38.9406 33.76 38.967 33.7301L41.9077 30.689V21.7778C41.9077 21.2363 42.3482 20.7958 42.8897 20.7958C43.4311 20.7958 43.8716 21.2363 43.8716 21.7778V32.4892Z" fill="white"/>
</g>
<defs>
<clipPath id="clip0_801_295">
<rect width="34.2857" height="34.2857" fill="white" transform="translate(12.8574 12.8574)"/>
</clipPath>
</defs>
</svg>
