<svg width="60" height="60" viewBox="0 0 60 60" fill="none" xmlns="http://www.w3.org/2000/svg">
<rect width="60" height="60" rx="10" fill="#6FB9FE"/>
<g clip-path="url(#clip0_248_823)">
<path d="M44.8374 29.2135C44.2797 25.7233 42.4896 22.5249 39.797 20.2075C37.2972 18.056 34.1585 16.7931 30.8777 16.6013V15H29.1222V16.6013C25.8414 16.7931 22.7025 18.056 20.2029 20.2075C17.5104 22.5249 15.7203 25.7233 15.1625 29.2135L15 30.2298H17.0002L17.2504 29.7752C17.9189 28.5608 19.1936 27.8064 20.5772 27.8064C21.961 27.8064 23.2356 28.5608 23.9042 29.7752L24.1543 30.2298H26.423L26.6732 29.7752C27.3417 28.5608 28.6164 27.8064 30 27.8064C31.3836 27.8064 32.6584 28.5608 33.3268 29.7752L33.5769 30.2298H35.8458L36.096 29.7752C36.7643 28.5608 38.0392 27.8064 39.4228 27.8064C40.8064 27.8064 42.0812 28.5608 42.7496 29.7752L42.9997 30.2298H44.9999L44.8374 29.2135ZM20.5772 26.0509C19.4888 26.0509 18.4467 26.3699 17.5637 26.941C19.1762 22.5888 22.9504 19.4092 27.5276 18.5575C26.2738 20.0967 25.3658 22.1203 24.8595 24.5368C24.6142 25.7075 24.5002 26.7842 24.4491 27.626C23.427 26.6308 22.0443 26.0509 20.5772 26.0509ZM30 26.0509C28.5745 26.0509 27.2287 26.5983 26.2156 27.5425C26.3834 25.1493 27.1023 20.9033 29.9997 18.5474C32.888 20.8978 33.6108 25.1447 33.7815 27.54C32.769 26.5974 31.4241 26.0509 30 26.0509ZM39.4228 26.0509C37.9557 26.0509 36.573 26.6308 35.5508 27.626C35.4998 26.7842 35.3858 25.7075 35.1406 24.5368C34.6341 22.1203 33.7264 20.0967 32.4723 18.5575C37.0497 19.4092 40.8238 22.5888 42.4362 26.941C41.5532 26.3699 40.5111 26.0509 39.4228 26.0509Z" fill="white"/>
<path d="M32.8753 32.5933H27.1249V35.9017H23.8164V41.6519H27.1249V44.9606H32.8753V41.6519H36.1838V35.9017H32.8753V32.5933ZM34.4283 37.6573V39.8964H31.1198V43.2049H28.8804V39.8964H25.5719V37.6573H28.8804V34.3488H31.1198V37.6573H34.4283Z" fill="white"/>
</g>
<defs>
<clipPath id="clip0_248_823">
<rect width="30" height="30" fill="white" transform="translate(15 15)"/>
</clipPath>
</defs>
</svg>
