<svg width="60" height="60" viewBox="0 0 60 60" fill="none" xmlns="http://www.w3.org/2000/svg">
<circle cx="30" cy="30" r="30" fill="#33E47A"/>
<g clip-path="url(#clip0_801_289)">
<path d="M32.783 23.8184L29.3699 27.1166L27.5261 25.375L26.1465 26.8354L29.3861 29.8948L34.1791 25.2625L32.783 23.8184Z" fill="white"/>
<path d="M41.8051 19.2186H34.4327L34.254 18.7498H33.4685C33.8028 18.1673 33.9935 17.4932 33.9935 16.7746C33.9935 14.5776 32.2064 12.7905 30.0094 12.7905C27.8127 12.7905 26.0253 14.5776 26.0253 16.7746C26.0253 17.4932 26.2162 18.1673 26.5503 18.7498H25.765L25.5861 19.2186H18.2137C16.5893 19.2186 15.2676 20.5403 15.2676 22.1647C15.2676 23.7894 16.5893 25.1112 18.2137 25.1112H22.1196C22.1484 27.4139 22.7945 29.6655 23.9926 31.6342C24.1866 31.953 24.3943 32.2622 24.6146 32.5617V43.9096C24.6146 45.6556 26.0352 47.0762 27.7815 47.0762H27.8474C28.6829 47.0762 29.4431 46.7506 30.0097 46.2201C30.5762 46.7506 31.3367 47.0762 32.1721 47.0762H32.2381C33.9841 47.0762 35.4047 45.6556 35.4047 43.9096V32.5612L35.405 32.5609C35.6252 32.2617 35.8322 31.953 36.0265 31.6342C37.2243 29.6655 37.8704 27.4139 37.8994 25.1112H41.8051C43.4297 25.1112 44.7515 23.7894 44.7515 22.1647C44.7515 20.5403 43.4297 19.2186 41.8051 19.2186ZM30.0094 34.5932L29.9927 34.5845C26.3742 32.7142 24.127 29.022 24.127 24.949V23.6641C25.4127 23.0481 26.4587 22.0295 27.1082 20.7588H32.9108C33.5603 22.0295 34.6061 23.0481 35.8918 23.6641V24.949C35.8918 29.022 33.6446 32.7142 30.0261 34.5845L30.0094 34.5932ZM28.0342 16.7746C28.0342 15.6852 28.9199 14.7992 30.0094 14.7992C31.0989 14.7992 31.9848 15.6852 31.9848 16.7746C31.9848 17.8641 31.0989 18.7498 30.0094 18.7498C28.9199 18.7498 28.0342 17.8641 28.0342 16.7746ZM17.2762 22.1647C17.2762 21.6479 17.6969 21.2275 18.2137 21.2275H24.2222C23.805 21.5817 23.3221 21.8603 22.7919 22.0449L22.1183 22.2801V23.1022H18.2137C17.6969 23.1022 17.2762 22.6819 17.2762 22.1647ZM27.8474 45.0676H27.7815C27.1428 45.0676 26.6235 44.5481 26.6235 43.9096V34.7232C27.3512 35.3457 28.1493 35.8861 29.0052 36.3348V43.9096C29.0052 44.5481 28.4857 45.0676 27.8474 45.0676ZM32.2381 45.0676H32.1721C31.5336 45.0676 31.0141 44.5481 31.0141 43.9096V36.3348C31.8703 35.8861 32.6684 35.3452 33.3961 34.7226V43.9096C33.3961 44.5481 32.8766 45.0676 32.2381 45.0676ZM41.8051 23.1022H37.9007V22.2801L37.2269 22.0449C36.6967 21.8603 36.2138 21.5817 35.7968 21.2275H41.8051C42.3222 21.2275 42.7426 21.6479 42.7426 22.1647C42.7426 22.6819 42.3222 23.1022 41.8051 23.1022Z" fill="white"/>
</g>
<defs>
<clipPath id="clip0_801_289">
<rect width="34.2857" height="34.2857" fill="white" transform="translate(12.8574 12.8574)"/>
</clipPath>
</defs>
</svg>
