<svg width="60" height="60" viewBox="0 0 60 60" fill="none" xmlns="http://www.w3.org/2000/svg">
<circle cx="30" cy="30" r="30" fill="#33E47A"/>
<g clip-path="url(#clip0_801_275)">
<path d="M47.1431 33.392V26.6071H20.1631V16.0045H23.4603V17.4832H21.636V23.7109H27.2932V17.4832H25.4692V16.0045H27.2995V13.9956H15.0672V16.0045H18.1541V26.6071H12.8574V33.392H19.4411V40.0918C18.2614 40.5069 17.4133 41.6315 17.4133 42.9514C17.4133 44.6226 18.7728 45.982 20.444 45.982C22.1152 45.982 23.4749 44.6226 23.4749 42.9514C23.4749 41.6328 22.6282 40.5088 21.45 40.0928V38.1695H38.5537V40.0918C37.3739 40.5067 36.5259 41.6315 36.5259 42.9514C36.5259 44.6223 37.8856 45.982 39.5566 45.982C41.2278 45.982 42.5875 44.6223 42.5875 42.9514C42.5875 41.6328 41.7407 40.5088 40.5628 40.0928V33.392H47.1431ZM25.2843 21.702H23.6449V19.4922H25.2843V21.702ZM14.8664 28.6161H45.1342V31.383H14.8664V28.6161ZM20.444 43.9731C19.8806 43.9731 19.422 43.5148 19.422 42.9514C19.422 42.3879 19.8806 41.9297 20.444 41.9297C21.0074 41.9297 21.4657 42.3879 21.4657 42.9514C21.4657 43.5148 21.0074 43.9731 20.444 43.9731ZM39.5566 43.9731C38.9931 43.9731 38.5346 43.5148 38.5346 42.9514C38.5346 42.3879 38.9931 41.9297 39.5566 41.9297C40.12 41.9297 40.5783 42.3879 40.5783 42.9514C40.5783 43.5148 40.12 43.9731 39.5566 43.9731ZM38.5537 36.1608H21.45V33.392H38.5537V36.1608Z" fill="white"/>
<path d="M35.9709 22.8342H37.9798V20.6817H40.1321V18.6728H37.9798V16.5205H35.9709V18.6728H33.8184V20.6817H35.9709V22.8342Z" fill="white"/>
</g>
<defs>
<clipPath id="clip0_801_275">
<rect width="34.2857" height="34.2857" fill="white" transform="translate(12.8574 12.8574)"/>
</clipPath>
</defs>
</svg>
