<svg width="60" height="60" viewBox="0 0 60 60" fill="none" xmlns="http://www.w3.org/2000/svg">
<circle cx="30" cy="30" r="30" fill="#07133B"/>
<path d="M41.1782 43.7932H20.4545V26.9673H18.3965V45.8512H43.2361V26.9673H41.1782V43.7932Z" fill="white"/>
<path d="M30.8725 12.8286L24.9579 16.9404V13.0673H18.393V21.5009L13.2852 25.0529L14.4582 26.7446L30.8231 15.3681L46.3361 26.9833L47.5709 25.3369L30.8725 12.8286ZM20.4551 15.1253H22.9041V18.3687L20.4551 20.0685V15.1253Z" fill="white"/>
<path d="M24.4551 33.3346C24.4551 36.0923 25.9985 38.8006 28.2911 40.0806L30.8101 41.4841L33.329 40.0806C35.6257 38.8006 37.1651 36.0923 37.1651 33.3346V28.165L30.8101 26L24.4551 28.165V33.3346ZM29.3324 31.8323L30.5755 33.2235L32.584 30.9762L33.9217 32.1698L30.5755 35.9153L27.9948 33.0259L29.3324 31.8323Z" fill="white"/>
<path d="M33.2554 20.1963H29.0078V22.2543H33.2554V20.1963Z" fill="white"/>
</svg>
