<svg width="60" height="60" viewBox="0 0 60 60" fill="none" xmlns="http://www.w3.org/2000/svg">
<rect width="60" height="60" rx="10" fill="#6FB9FE"/>
<g clip-path="url(#clip0_248_832)">
<path d="M44.353 25.0172C43.3534 24.6693 42.5638 23.9019 42.1859 22.9122L41.9701 22.3478H35.0125L34.7974 22.9122C34.7195 23.1168 34.6236 23.3116 34.5119 23.4954L28.3429 18.75L14.9414 29.0584L18.1316 33.2048L19.964 31.7951V39.5062H18.2133V41.2608H38.4718V39.5062H36.7211V36.1494C37.0363 36.3588 37.3638 36.5511 37.7019 36.7259L38.4915 37.1342L39.2812 36.7259C40.9868 35.8445 42.4164 34.511 43.4148 32.8709C44.4138 31.2307 44.9414 29.3486 44.9414 27.4283V25.2225L44.353 25.0172ZM43.1866 27.4283C43.1866 30.6937 41.388 33.6541 38.4915 35.159C37.8436 34.8221 37.251 34.4133 36.7211 33.9441C36.0203 33.3243 35.4295 32.5994 34.9663 31.7992C34.6026 31.1723 34.3183 30.4997 34.1206 29.7949C33.9082 29.0369 33.7965 28.242 33.7965 27.4283V26.4292C34.1217 26.2701 34.4277 26.0802 34.7108 25.8618C35.178 25.5011 35.5833 25.0653 35.9086 24.5698C36.0082 24.4196 36.0992 24.2633 36.183 24.1024H40.7996C41.3267 25.1143 42.1619 25.9287 43.1866 26.4292V27.4283ZM18.4527 30.7441L17.4028 29.379L28.3429 20.964L33.2455 24.7355C33.0515 24.8476 32.8455 24.9419 32.6303 25.0172L32.0419 25.2225V25.9818L28.3429 23.1363L18.4527 30.7441ZM29.5553 39.5062H27.1298V33.6669H29.5553V39.5062ZM31.3101 39.5062V31.9123H25.375V39.5062H21.7188V30.4452L28.3429 25.35L32.0723 28.2191C32.1961 29.8622 32.7068 31.4566 33.5678 32.8709C33.9679 33.5282 34.4371 34.1361 34.9663 34.6859V39.5059H31.3101V39.5062Z" fill="white"/>
<path d="M39.7353 27.5137L38.4602 28.7462L38.101 29.093L36.6541 27.7254L35.6673 28.7707L35.4492 29.0017L36.7213 30.2031L38.1152 31.5198L41.1415 28.5952L42.038 27.7284L40.8186 26.4668L39.7353 27.5137Z" fill="white"/>
</g>
<defs>
<clipPath id="clip0_248_832">
<rect width="30" height="30" fill="white" transform="translate(15 15)"/>
</clipPath>
</defs>
</svg>
