<svg width="48" height="48" viewBox="0 0 48 48" fill="none" xmlns="http://www.w3.org/2000/svg">
<rect width="48" height="48" rx="24" fill="#294062"/>
<mask id="mask0_525_453" style="mask-type:luminance" maskUnits="userSpaceOnUse" x="14" y="14" width="19" height="18">
<path d="M14.9737 14.8809H32.0264V31.9335H14.9737V14.8809Z" fill="white"/>
</mask>
<g mask="url(#mask0_525_453)">
<path d="M19.5896 14.8809H27.4103C29.9556 14.8809 32.0262 16.9515 32.0262 19.4968V27.3176C32.0262 29.8628 29.9556 31.9335 27.4103 31.9335H19.5895C17.0443 31.9335 14.9736 29.8628 14.9736 27.3176V19.4968C14.9736 16.9515 17.0443 14.8809 19.5896 14.8809ZM15.9733 27.3176C15.9733 29.3115 17.5956 30.9338 19.5896 30.9338H27.4103C29.4043 30.9338 31.0266 29.3115 31.0266 27.3176V19.4968C31.0266 17.5028 29.4043 15.8806 27.4103 15.8806H19.5895C17.5956 15.8806 15.9733 17.5028 15.9733 19.4968V27.3176Z" fill="white"/>
<path d="M23.4998 18.7441C26.0709 18.7441 28.1626 20.8358 28.1626 23.4068C28.1626 25.9779 26.0709 28.0695 23.4998 28.0695C20.9288 28.0695 18.8372 25.9779 18.8372 23.4068C18.8372 20.8358 20.9288 18.7441 23.4998 18.7441ZM23.4998 27.0698C25.5195 27.0698 27.1628 25.4266 27.1628 23.4068C27.1628 21.3871 25.5195 19.7438 23.4998 19.7438C21.48 19.7438 19.8368 21.3871 19.8368 23.4068C19.8368 25.4266 21.48 27.0698 23.4998 27.0698Z" fill="white"/>
<path d="M18.7258 17.0879C19.4856 17.0879 20.1036 17.706 20.1036 18.4657C20.1036 19.2254 19.4856 19.8436 18.7258 19.8436C17.966 19.8436 17.3479 19.2254 17.3479 18.4657C17.3479 17.7059 17.966 17.0879 18.7258 17.0879ZM18.7258 18.8437C18.9342 18.8437 19.1039 18.6741 19.1039 18.4657C19.1039 18.2571 18.9342 18.0876 18.7258 18.0876C18.5173 18.0876 18.3476 18.2571 18.3476 18.4657C18.3476 18.6741 18.5173 18.8437 18.7258 18.8437Z" fill="white"/>
</g>
</svg>
