<svg width="30" height="30" viewBox="0 0 30 30" fill="none" xmlns="http://www.w3.org/2000/svg">
<circle cx="15" cy="15" r="14.5" fill="white" stroke="#0069D1"/>
<mask id="path-2-inside-1_477_63" fill="white">
<path d="M12.1467 19.6467L16.7932 15.0002L12.1467 10.3537C12.0556 10.2594 12.0052 10.1331 12.0064 10.002C12.0075 9.8709 12.0601 9.7455 12.1528 9.65279C12.2455 9.56009 12.3709 9.50751 12.502 9.50637C12.6331 9.50523 12.7594 9.55562 12.8537 9.6467L17.8537 14.6467C17.9001 14.6931 17.937 14.7482 17.9621 14.8089C17.9872 14.8695 18.0002 14.9345 18.0002 15.0002C18.0002 15.0659 17.9872 15.1309 17.9621 15.1915C17.937 15.2522 17.9001 15.3073 17.8537 15.3537L12.8537 20.3537C12.7594 20.4448 12.6331 20.4952 12.502 20.494C12.3709 20.4929 12.2455 20.4403 12.1528 20.3476C12.0601 20.2549 12.0075 20.1295 12.0064 19.9984C12.0052 19.8673 12.0556 19.741 12.1467 19.6467Z"/>
</mask>
<path d="M12.1467 19.6467L16.7932 15.0002L12.1467 10.3537C12.0556 10.2594 12.0052 10.1331 12.0064 10.002C12.0075 9.8709 12.0601 9.7455 12.1528 9.65279C12.2455 9.56009 12.3709 9.50751 12.502 9.50637C12.6331 9.50523 12.7594 9.55562 12.8537 9.6467L17.8537 14.6467C17.9001 14.6931 17.937 14.7482 17.9621 14.8089C17.9872 14.8695 18.0002 14.9345 18.0002 15.0002C18.0002 15.0659 17.9872 15.1309 17.9621 15.1915C17.937 15.2522 17.9001 15.3073 17.8537 15.3537L12.8537 20.3537C12.7594 20.4448 12.6331 20.4952 12.502 20.494C12.3709 20.4929 12.2455 20.4403 12.1528 20.3476C12.0601 20.2549 12.0075 20.1295 12.0064 19.9984C12.0052 19.8673 12.0556 19.741 12.1467 19.6467Z" fill="white"/>
<path d="M12.1467 19.6467L11.4396 18.9396L11.4335 18.9457L11.4274 18.952L12.1467 19.6467ZM16.7932 15.0002L17.5003 15.7073L18.2074 15.0002L17.5003 14.2931L16.7932 15.0002ZM12.1467 10.3537L11.4274 11.0484L11.4335 11.0547L11.4396 11.0608L12.1467 10.3537ZM12.8537 9.6467L13.5608 8.9396L13.5547 8.93345L13.5484 8.92742L12.8537 9.6467ZM17.8537 14.6467L17.1466 15.3538L17.1467 15.3539L17.8537 14.6467ZM17.8537 15.3537L17.1467 14.6465L17.1466 14.6466L17.8537 15.3537ZM12.8537 20.3537L13.5484 21.073L13.5547 21.067L13.5608 21.0608L12.8537 20.3537ZM12.1467 19.6467L12.8538 20.3538L17.5003 15.7073L16.7932 15.0002L16.0861 14.2931L11.4396 18.9396L12.1467 19.6467ZM16.7932 15.0002L17.5003 14.2931L12.8538 9.64659L12.1467 10.3537L11.4396 11.0608L16.0861 15.7073L16.7932 15.0002ZM12.1467 10.3537L12.866 9.65899C12.9571 9.75329 13.0075 9.87959 13.0063 10.0107L12.0064 10.002L11.0064 9.99331C11.003 10.3866 11.1542 10.7655 11.4274 11.0484L12.1467 10.3537ZM12.0064 10.002L13.0063 10.0107C13.0052 10.1418 12.9526 10.2672 12.8599 10.3599L12.1528 9.65279L11.4457 8.94569C11.1676 9.2238 11.0098 9.60002 11.0064 9.99331L12.0064 10.002ZM12.1528 9.65279L12.8599 10.3599C12.7672 10.4526 12.6418 10.5052 12.5107 10.5063L12.502 9.50637L12.4933 8.5064C12.1 8.50982 11.7238 8.66757 11.4457 8.94569L12.1528 9.65279ZM12.502 9.50637L12.5107 10.5063C12.3796 10.5075 12.2533 10.4571 12.159 10.366L12.8537 9.6467L13.5484 8.92742C13.2655 8.65418 12.8866 8.50299 12.4933 8.5064L12.502 9.50637ZM12.8537 9.6467L12.1466 10.3538L17.1466 15.3538L17.8537 14.6467L18.5608 13.9396L13.5608 8.9396L12.8537 9.6467ZM17.8537 14.6467L17.1467 15.3539C17.1003 15.3075 17.0634 15.2523 17.0383 15.1917L17.9621 14.8089L18.8859 14.4261C18.8105 14.2441 18.7 14.0787 18.5607 13.9395L17.8537 14.6467ZM17.9621 14.8089L17.0383 15.1917C17.0131 15.131 17.0002 15.0659 17.0002 15.0002H18.0002H19.0002C19.0002 14.8032 18.9614 14.6081 18.8859 14.4261L17.9621 14.8089ZM18.0002 15.0002H17.0002C17.0002 14.9345 17.0131 14.8694 17.0383 14.8088L17.9621 15.1915L18.8859 15.5743C18.9614 15.3923 19.0002 15.1972 19.0002 15.0002H18.0002ZM17.9621 15.1915L17.0383 14.8088C17.0634 14.7481 17.1003 14.6929 17.1467 14.6465L17.8537 15.3537L18.5607 16.0609C18.7 15.9217 18.8105 15.7563 18.8859 15.5743L17.9621 15.1915ZM17.8537 15.3537L17.1466 14.6466L12.1466 19.6466L12.8537 20.3537L13.5608 21.0608L18.5608 16.0608L17.8537 15.3537ZM12.8537 20.3537L12.159 19.6344C12.2533 19.5433 12.3796 19.4929 12.5107 19.4941L12.502 20.494L12.4933 21.494C12.8866 21.4974 13.2655 21.3462 13.5484 21.073L12.8537 20.3537ZM12.502 20.494L12.5107 19.4941C12.6418 19.4952 12.7672 19.5478 12.8599 19.6405L12.1528 20.3476L11.4457 21.0547C11.7238 21.3328 12.1 21.4906 12.4933 21.494L12.502 20.494ZM12.1528 20.3476L12.8599 19.6405C12.9526 19.7332 13.0052 19.8586 13.0063 19.9897L12.0064 19.9984L11.0064 20.0071C11.0098 20.4004 11.1676 20.7766 11.4457 21.0547L12.1528 20.3476ZM12.0064 19.9984L13.0063 19.9897C13.0075 20.1207 12.9571 20.247 12.866 20.3414L12.1467 19.6467L11.4274 18.952C11.1541 19.2349 11.003 19.6139 11.0064 20.0071L12.0064 19.9984Z" fill="#0069D1" mask="url(#path-2-inside-1_477_63)"/>
</svg>
