<svg width="48" height="48" viewBox="0 0 48 48" fill="none" xmlns="http://www.w3.org/2000/svg">
<rect width="48" height="48" rx="24" fill="#294062"/>
<path d="M19.831 21.8037H16.3035C16.1865 21.8037 16.0744 21.8511 15.9917 21.9355C15.909 22.0198 15.8625 22.1342 15.8625 22.2536V33.0501C15.8625 33.1695 15.909 33.2839 15.9917 33.3682C16.0744 33.4526 16.1865 33.5 16.3035 33.5H19.831C19.9479 33.5 20.0601 33.4526 20.1428 33.3682C20.2254 33.2839 20.2719 33.1695 20.2719 33.0501V22.2536C20.2719 22.1342 20.2254 22.0198 20.1428 21.9355C20.0601 21.8511 19.9479 21.8037 19.831 21.8037ZM19.39 32.6003H16.7444V22.7034H19.39V32.6003ZM29.0906 21.8037C28.1338 21.8037 27.2034 22.1258 26.445 22.7205V22.2536C26.445 22.1342 26.3986 22.0198 26.3159 21.9355C26.2332 21.8511 26.121 21.8037 26.0041 21.8037H22.4766C22.3596 21.8037 22.2475 21.8511 22.1648 21.9355C22.0821 22.0198 22.0356 22.1342 22.0356 22.2536V33.0501C22.0356 33.1695 22.0821 33.2839 22.1648 33.3682C22.2475 33.4526 22.3596 33.5 22.4766 33.5H26.0041C26.121 33.5 26.2332 33.4526 26.3159 33.3682C26.3986 33.2839 26.445 33.1695 26.445 33.0501V28.1017C26.445 27.7438 26.5844 27.4005 26.8325 27.1474C27.0805 26.8943 27.417 26.7521 27.7678 26.7521C28.1187 26.7521 28.4551 26.8943 28.7032 27.1474C28.9513 27.4005 29.0906 27.7438 29.0906 28.1017V33.0501C29.0906 33.1695 29.1371 33.2839 29.2198 33.3682C29.3025 33.4526 29.4146 33.5 29.5316 33.5H33.0591C33.176 33.5 33.2882 33.4526 33.3709 33.3682C33.4535 33.2839 33.5 33.1695 33.5 33.0501V26.3023C33.4986 25.1096 33.0336 23.9662 32.207 23.1229C31.3804 22.2795 30.2596 21.8051 29.0906 21.8037ZM32.6181 32.6003H29.9725V28.1017C29.9725 27.5052 29.7402 26.933 29.3268 26.5112C28.9133 26.0894 28.3525 25.8524 27.7678 25.8524C27.1831 25.8524 26.6223 26.0894 26.2089 26.5112C25.7954 26.933 25.5631 27.5052 25.5631 28.1017V32.6003H22.9175V22.7034H25.5631V23.7858C25.5631 23.8789 25.5915 23.9698 25.6442 24.0459C25.697 24.1219 25.7716 24.1793 25.8578 24.2102C25.9439 24.2412 26.0374 24.244 26.1252 24.2184C26.213 24.1928 26.2909 24.1401 26.348 24.0674C26.8009 23.4817 27.4216 23.0549 28.1236 22.8463C28.8256 22.6377 29.5739 22.6579 30.2641 22.9039C30.9544 23.1499 31.5522 23.6096 31.9742 24.2188C32.3961 24.828 32.6213 25.5563 32.6181 26.3023V32.6003ZM18.3917 15.5075C18.2881 15.5007 18.1842 15.5001 18.0804 15.5057C17.7504 15.4828 17.4193 15.5292 17.1076 15.6422C16.7959 15.7552 16.5102 15.9322 16.2683 16.1624C16.0264 16.3926 15.8334 16.671 15.7013 16.9804C15.5691 17.2898 15.5006 17.6235 15.5001 17.961C15.4973 18.295 15.5619 18.6259 15.6897 18.9334C15.8175 19.2409 16.0059 19.5182 16.2431 19.7484C16.4803 19.9785 16.7613 20.1565 17.0687 20.2712C17.3762 20.3859 17.7034 20.435 18.0302 20.4154H18.0549C18.3707 20.438 18.6879 20.3969 18.9882 20.2944C19.2885 20.1919 19.566 20.0301 19.805 19.8182C20.044 19.6063 20.2398 19.3484 20.3811 19.0593C20.5224 18.7702 20.6065 18.4556 20.6286 18.1333C20.6507 17.811 20.6104 17.4875 20.51 17.1811C20.4095 16.8748 20.2509 16.5916 20.0432 16.3478C19.8355 16.1039 19.5828 15.9042 19.2994 15.76C19.016 15.6159 18.7076 15.5301 18.3917 15.5075ZM18.3609 19.5184C18.2592 19.528 18.1572 19.5271 18.0549 19.5157H18.0302C17.8179 19.532 17.6047 19.5029 17.4041 19.4304C17.2035 19.3579 17.0199 19.2435 16.865 19.0945C16.7102 18.9455 16.5875 18.7652 16.5048 18.5651C16.4221 18.3651 16.3812 18.1496 16.3847 17.9325C16.3882 17.7153 16.436 17.5014 16.5252 17.3042C16.6143 17.107 16.7427 16.9309 16.9023 16.7872C17.0619 16.6435 17.2491 16.5353 17.4519 16.4696C17.6548 16.4039 17.8688 16.382 18.0804 16.4054C18.4851 16.3675 18.8879 16.4951 19.2003 16.7601C19.5127 17.0252 19.7091 17.406 19.7463 17.8189C19.7835 18.2317 19.6584 18.6426 19.3986 18.9614C19.1388 19.2801 18.7655 19.4805 18.3609 19.5184Z" fill="white"/>
</svg>
