<svg width="271" height="46" viewBox="0 0 271 46" fill="none" xmlns="http://www.w3.org/2000/svg">
<path d="M27.2773 45.1006L22.0949 44.1901L16.9126 45.1006L20.1691 28.0829L20.7993 27.5576H23.3555L23.9858 28.0829L27.2423 45.1006H27.2773Z" fill="#03A8E2"/>
<path d="M18.4183 26.1567L18.2782 26.9621L5.14731 38.2722L3.36151 33.335L0 29.3082L16.3524 23.6006L17.1227 23.8807L18.3833 26.0867L18.4183 26.1567Z" fill="#0069D1"/>
<path d="M18.4185 18.9433L17.1579 21.1493L16.3876 21.4294L0.0351562 15.7219L3.39667 11.695L5.18249 6.75781L18.3134 18.0679L18.4535 18.8733L18.4185 18.9433Z" fill="#0069D1"/>
<path d="M27.2774 0L24.021 17.0177L23.3907 17.5429H20.8345L20.2042 17.0177L16.9478 0L22.1301 0.910414L27.3125 0H27.2774Z" fill="#0069D1"/>
<path d="M44.2251 15.7573L27.8727 21.4649L27.1024 21.1847L25.8418 18.9788L25.9818 18.1734L39.1128 6.86328L40.8986 11.8005L44.2601 15.8273L44.2251 15.7573Z" fill="#0069D1"/>
<path d="M44.225 29.3436L40.8634 33.3704L39.0777 38.3077L25.9467 26.9976L25.8066 26.1922L27.0672 23.9862L27.8376 23.7061L44.19 29.4136L44.225 29.3436Z" fill="#0069D1"/>
<path d="M23.5308 20.0645H20.6595L19.2239 22.5506L20.6595 25.0367H23.5308L24.9665 22.5506L23.5308 20.0645Z" fill="#03A8E2"/>
<path d="M65.6196 7.31836V37.2919H69.4364V7.31836H65.6196Z" fill="#121921"/>
<path d="M76.5796 16.2122H80.3613V19.7138L79.731 22.2699H80.7815C81.6219 18.4532 84.2831 15.792 88.8702 15.792C93.4572 15.792 96.7837 18.5932 96.7837 24.5109V37.2567H93.0721V25.0012C93.0721 20.6242 91.3913 18.9784 87.8197 18.9784C84.2481 18.9784 80.3613 22.3399 80.3613 28.0125V37.2567H76.5796V16.2122Z" fill="#121921"/>
<path d="M120.909 16.2119L114.221 37.2564H106.378L99.5498 16.2119H103.332L109.774 36.2059H110.825L117.198 16.2119H120.909Z" fill="#121921"/>
<path d="M125.672 16.2119V37.2564H129.138V16.2119H125.672Z" fill="#121921"/>
<path d="M160.758 16.2119V37.2564H164.224V16.2119H160.758Z" fill="#121921"/>
<path d="M135.126 16.2122H138.908V19.7138L138.278 22.2699H139.328C140.169 18.4532 142.83 15.792 147.417 15.792C152.004 15.792 155.33 18.5932 155.33 24.5109V37.2567H151.619V25.0012C151.619 20.6242 149.938 18.9784 146.366 18.9784C142.795 18.9784 138.908 22.3399 138.908 28.0125V37.2567H135.126V16.2122Z" fill="#121921"/>
<path d="M179.841 15.792C184.078 15.792 189.296 18.1731 189.786 24.2658H186.004C185.409 20.4141 182.853 19.0135 179.806 19.0135C175.044 19.0135 172.733 22.48 172.733 26.7169C172.733 30.9539 175.079 34.4554 179.806 34.4554C184.534 34.4554 185.409 33.0548 186.004 29.2031H189.786C189.261 35.2958 184.078 37.6769 179.841 37.6769C173.013 37.6769 169.021 32.8797 169.021 26.7169C169.021 20.5541 173.013 15.792 179.841 15.792Z" fill="#121921"/>
<path d="M194.443 28.9928V16.2471H198.224V28.5026C198.224 32.8096 199.87 34.5253 203.477 34.5253C207.083 34.5253 210.935 31.1638 210.935 25.4562V16.2471H214.647V37.2916H210.935V33.72L211.53 31.2338H210.515C209.675 35.0506 207.013 37.7118 202.426 37.7118C197.839 37.7118 194.478 34.8755 194.478 28.9928H194.443Z" fill="#121921"/>
<path d="M219.374 29.5182H223.156C223.156 32.9848 225.432 34.7355 229.354 34.7355C233.276 34.7355 233.836 33.7901 233.836 31.6542C233.836 29.5182 232.96 29.3781 230.754 28.7829L225.117 27.1371C222.736 26.4718 220.25 24.9311 220.25 21.5696C220.25 18.2081 223.296 15.792 228.303 15.792C233.311 15.792 237.127 18.2781 237.127 22.8652H233.346C233.346 20.0639 231.56 18.6983 228.338 18.6983C225.117 18.6983 223.961 19.6437 223.961 21.4996C223.961 23.3554 224.907 23.7056 226.973 24.3008L231.875 25.7015C235.447 26.7169 237.583 28.4677 237.583 31.7242C237.583 34.9807 234.711 37.7119 229.284 37.7119C223.856 37.7119 219.374 34.7356 219.374 29.5182Z" fill="#121921"/>
<path d="M128.753 8.75391H126.092L124.761 11.0299L126.092 13.341H128.753L130.084 11.0299L128.753 8.75391Z" fill="#121921"/>
<path d="M163.804 8.75391H161.178L159.847 11.0299L161.178 13.341H163.804L165.135 11.0299L163.804 8.75391Z" fill="#121921"/>
<path d="M240.839 11.45C240.839 9.20894 242.064 7.73828 244.235 7.73828C246.406 7.73828 247.107 8.75373 247.352 10.3995H246.441C246.266 9.20894 245.496 8.54364 244.27 8.54364C243.045 8.54364 241.784 9.73418 241.784 11.52C241.784 13.3058 242.45 14.3213 244.235 14.3213C246.021 14.3213 246.616 13.4809 246.581 11.8701H243.815V11.1698H246.862C247.282 11.1698 247.492 11.3799 247.492 11.7651V14.9866H246.581V14.1812L246.757 13.2358H246.511C246.476 13.761 246.091 15.0916 244.06 15.0916C242.029 15.0916 240.874 13.5509 240.874 11.485L240.839 11.45Z" fill="#121921"/>
<path d="M248.787 9.90875H249.698V10.7141L249.558 11.3094H249.803C250.013 10.399 250.503 9.80371 251.589 9.80371C252.674 9.80371 252.954 10.434 253.094 11.3094H253.269C253.479 10.399 253.97 9.80371 255.055 9.80371C256.141 9.80371 256.631 10.6441 256.631 11.7996V14.916H255.72V12.0097C255.72 11.0293 255.51 10.5741 254.705 10.5741C253.9 10.5741 253.164 11.4495 253.164 12.745V14.916H252.254V12.0097C252.254 11.0293 252.044 10.5741 251.238 10.5741C250.433 10.5741 249.698 11.4495 249.698 12.745V14.916H248.787V9.90875Z" fill="#121921"/>
<path d="M257.821 7.52818H258.732V10.6096L258.592 11.2048H258.837C259.047 10.4345 259.712 9.80421 260.868 9.80421C262.023 9.80421 263.249 10.9247 263.249 12.3954C263.249 13.866 262.338 14.9866 260.868 14.9866C259.397 14.9866 259.047 14.3563 258.837 13.5859H258.592L258.732 14.1812V14.8815H257.821V7.49316V7.52818ZM260.553 14.2512C261.568 14.2512 262.338 13.691 262.338 12.3954C262.338 11.0998 261.603 10.5746 260.553 10.5746C259.502 10.5746 258.732 11.1348 258.732 12.3954C258.732 13.656 259.537 14.2512 260.553 14.2512Z" fill="#121921"/>
<path d="M265.455 7.80859V10.995H269.517V7.80859H270.427V14.9168H269.517V11.8004H265.455V14.9168H264.545V7.80859H265.455Z" fill="#121921"/>
</svg>
