<svg width="271" height="46" viewBox="0 0 271 46" fill="none" xmlns="http://www.w3.org/2000/svg">
<path d="M27.2773 45.1003L22.0949 44.1899L16.9126 45.1003L20.1691 28.0826L20.7993 27.5574H23.3555L23.9858 28.0826L27.2423 45.1003H27.2773Z" fill="#03A8E2"/>
<path d="M18.4183 26.1567L18.2782 26.9621L5.14731 38.2722L3.36151 33.335L0 29.3082L16.3524 23.6006L17.1227 23.8807L18.3833 26.0867L18.4183 26.1567Z" fill="#0069D1"/>
<path d="M18.4185 18.9436L17.1579 21.1496L16.3876 21.4297L0.0351562 15.7221L3.39667 11.6953L5.18249 6.75806L18.3134 18.0682L18.4535 18.8735L18.4185 18.9436Z" fill="#0069D1"/>
<path d="M27.2774 0L24.021 17.0177L23.3907 17.5429H20.8345L20.2042 17.0177L16.9478 0L22.1301 0.910414L27.3125 0H27.2774Z" fill="#0069D1"/>
<path d="M44.2251 15.757L27.8727 21.4646L27.1024 21.1845L25.8418 18.9785L25.9818 18.1731L39.1128 6.86304L40.8986 11.8003L44.2601 15.8271L44.2251 15.757Z" fill="#0069D1"/>
<path d="M44.225 29.3436L40.8634 33.3704L39.0777 38.3077L25.9467 26.9976L25.8066 26.1922L27.0672 23.9862L27.8376 23.7061L44.19 29.4136L44.225 29.3436Z" fill="#0069D1"/>
<path d="M23.5306 20.0645H20.6593L19.2236 22.5506L20.6593 25.0367H23.5306L24.9662 22.5506L23.5306 20.0645Z" fill="#03A8E2"/>
<path d="M65.6196 7.31836V37.2919H69.4364V7.31836H65.6196Z" fill="#121921"/>
<path d="M76.5796 16.2124H80.3613V19.714L79.731 22.2702H80.7815C81.6219 18.4534 84.2831 15.7922 88.8702 15.7922C93.4572 15.7922 96.7837 18.5935 96.7837 24.5112V37.2569H93.0721V25.0014C93.0721 20.6244 91.3913 18.9787 87.8197 18.9787C84.2481 18.9787 80.3613 22.3402 80.3613 28.0127V37.2569H76.5796V16.2124Z" fill="#121921"/>
<path d="M120.909 16.2119L114.221 37.2564H106.378L99.5498 16.2119H103.332L109.774 36.2059H110.825L117.198 16.2119H120.909Z" fill="#121921"/>
<path d="M125.672 16.2119V37.2564H129.138V16.2119H125.672Z" fill="#121921"/>
<path d="M160.758 16.2119V37.2564H164.224V16.2119H160.758Z" fill="#121921"/>
<path d="M135.126 16.2124H138.908V19.714L138.278 22.2702H139.328C140.169 18.4534 142.83 15.7922 147.417 15.7922C152.004 15.7922 155.33 18.5935 155.33 24.5112V37.2569H151.619V25.0014C151.619 20.6244 149.938 18.9787 146.366 18.9787C142.795 18.9787 138.908 22.3402 138.908 28.0127V37.2569H135.126V16.2124Z" fill="#121921"/>
<path d="M179.841 15.7922C184.078 15.7922 189.296 18.1733 189.786 24.2661H186.004C185.409 20.4143 182.853 19.0137 179.806 19.0137C175.044 19.0137 172.733 22.4803 172.733 26.7172C172.733 30.9541 175.079 34.4557 179.806 34.4557C184.534 34.4557 185.409 33.055 186.004 29.2033H189.786C189.261 35.296 184.078 37.6771 179.841 37.6771C173.013 37.6771 169.021 32.88 169.021 26.7172C169.021 20.5544 173.013 15.7922 179.841 15.7922Z" fill="#121921"/>
<path d="M194.442 28.9928V16.2471H198.224V28.5026C198.224 32.8096 199.87 34.5253 203.476 34.5253C207.083 34.5253 210.935 31.1638 210.935 25.4562V16.2471H214.647V37.2916H210.935V33.72L211.53 31.2338H210.515C209.674 35.0506 207.013 37.7118 202.426 37.7118C197.839 37.7118 194.477 34.8755 194.477 28.9928H194.442Z" fill="#121921"/>
<path d="M219.374 29.5184H223.156C223.156 32.985 225.432 34.7358 229.354 34.7358C233.276 34.7358 233.836 33.7904 233.836 31.6544C233.836 29.5184 232.96 29.3784 230.754 28.7831L225.117 27.1374C222.736 26.4721 220.25 24.9314 220.25 21.5698C220.25 18.2083 223.296 15.7922 228.303 15.7922C233.311 15.7922 237.127 18.2784 237.127 22.8654H233.346C233.346 20.0642 231.56 18.6985 228.338 18.6985C225.117 18.6985 223.961 19.644 223.961 21.4998C223.961 23.3557 224.907 23.7058 226.973 24.3011L231.875 25.7017C235.447 26.7172 237.583 28.468 237.583 31.7244C237.583 34.9809 234.711 37.7121 229.284 37.7121C223.856 37.7121 219.374 34.7358 219.374 29.5184Z" fill="#121921"/>
<path d="M128.753 8.75391H126.092L124.761 11.0299L126.092 13.341H128.753L130.084 11.0299L128.753 8.75391Z" fill="#121921"/>
<path d="M163.804 8.75391H161.178L159.847 11.0299L161.178 13.341H163.804L165.135 11.0299L163.804 8.75391Z" fill="#121921"/>
<path d="M240.839 11.4502C240.839 9.20918 242.064 7.73853 244.235 7.73853C246.406 7.73853 247.107 8.75398 247.352 10.3997H246.441C246.266 9.20918 245.496 8.54389 244.27 8.54389C243.045 8.54389 241.784 9.73442 241.784 11.5202C241.784 13.306 242.45 14.3215 244.235 14.3215C246.021 14.3215 246.616 13.4811 246.581 11.8704H243.815V11.1701H246.862C247.282 11.1701 247.492 11.3802 247.492 11.7653V14.9868H246.581V14.1814L246.757 13.236H246.511C246.476 13.7613 246.091 15.0918 244.06 15.0918C242.029 15.0918 240.874 13.5511 240.874 11.4852L240.839 11.4502Z" fill="#121921"/>
<path d="M248.787 9.909H249.698V10.7144L249.557 11.3096H249.803C250.013 10.3992 250.503 9.80396 251.588 9.80396C252.674 9.80396 252.954 10.4342 253.094 11.3096H253.269C253.479 10.3992 253.969 9.80396 255.055 9.80396C256.14 9.80396 256.631 10.6443 256.631 11.7999V14.9163H255.72V12.0099C255.72 11.0295 255.51 10.5743 254.705 10.5743C253.899 10.5743 253.164 11.4497 253.164 12.7453V14.9163H252.254V12.0099C252.254 11.0295 252.044 10.5743 251.238 10.5743C250.433 10.5743 249.698 11.4497 249.698 12.7453V14.9163H248.787V9.909Z" fill="#121921"/>
<path d="M257.821 7.52843H258.732V10.6098L258.592 11.2051H258.837C259.047 10.4347 259.712 9.80446 260.868 9.80446C262.023 9.80446 263.249 10.925 263.249 12.3956C263.249 13.8663 262.338 14.9868 260.868 14.9868C259.397 14.9868 259.047 14.3565 258.837 13.5862H258.592L258.732 14.1814V14.8817H257.821V7.49341V7.52843ZM260.553 14.2515C261.568 14.2515 262.338 13.6912 262.338 12.3956C262.338 11.1 261.603 10.5748 260.553 10.5748C259.502 10.5748 258.732 11.1351 258.732 12.3956C258.732 13.6562 259.537 14.2515 260.553 14.2515Z" fill="#121921"/>
<path d="M265.455 7.80884V10.9953H269.517V7.80884H270.428V14.9171H269.517V11.8006H265.455V14.9171H264.545V7.80884H265.455Z" fill="#121921"/>
</svg>
