<svg width="24" height="24" viewBox="0 0 24 24" fill="none" xmlns="http://www.w3.org/2000/svg">
<path d="M19.349 9.4128L19.3865 9.3753L19.4615 9.3003C19.5365 9.2253 19.6115 9.1503 19.724 9.0753C19.799 9.0003 19.874 8.9253 19.949 8.8503L20.549 8.2878C20.699 8.1378 20.774 7.9128 20.699 7.6878C20.6615 7.6128 20.624 7.5378 20.5865 7.4628C20.399 7.2753 20.099 7.2378 19.874 7.3503C19.8365 7.3878 19.799 7.3878 19.7615 7.4253L19.274 7.8753C17.774 9.2253 16.3115 10.5378 14.8115 11.8878C14.474 12.1878 14.1365 12.4878 13.799 12.7878C13.274 13.2378 12.6365 13.4628 11.999 13.4628C11.3615 13.4628 10.7615 13.2753 10.199 12.7878C9.86145 12.4878 9.52395 12.1878 9.18645 11.8878C7.68645 10.5378 6.22395 9.2253 4.72395 7.8753L4.23645 7.4253C4.19895 7.3878 4.16145 7.3878 4.12395 7.3503C3.89895 7.2003 3.59895 7.2753 3.41145 7.4628C3.33645 7.5378 3.29895 7.6128 3.29895 7.6878C3.22395 7.8753 3.29895 8.1378 3.44895 8.2878L4.04895 8.8503L4.27395 9.0753C4.34895 9.1503 4.42395 9.2253 4.53645 9.3003L4.61145 9.3753L4.64895 9.4128C5.36145 10.0878 6.11145 10.7253 6.82395 11.3628C7.08645 11.5878 7.34895 11.8503 7.64895 12.1128C7.61145 12.1503 7.57395 12.1878 7.53645 12.2253C6.37395 13.3878 5.21145 14.5128 4.04895 15.6753C4.01145 15.7128 3.93645 15.7878 3.89895 15.8253C3.74895 16.0128 3.74895 16.2753 3.86145 16.4628C4.01145 16.6503 4.23645 16.7628 4.46145 16.6503C4.57395 16.6128 4.68645 16.5378 4.76145 16.4253C5.92395 15.3003 7.08645 14.1378 8.24895 13.0128C8.32395 12.9378 8.36145 12.9003 8.43645 12.8253C8.77395 13.1253 9.07395 13.3878 9.37395 13.6503C9.97395 14.2128 10.724 14.5503 11.549 14.6253C11.699 14.6253 11.849 14.6628 11.999 14.6628C12.149 14.6628 12.299 14.6628 12.449 14.6253C13.274 14.5503 13.9865 14.1753 14.624 13.6503C14.924 13.3878 15.224 13.0878 15.5615 12.8253C15.6365 12.9003 15.7115 12.9378 15.749 13.0128C16.9115 14.1378 18.074 15.3003 19.2365 16.4253C19.3115 16.5003 19.424 16.6128 19.5365 16.6503C19.7615 16.7253 19.9865 16.6503 20.1365 16.4628C20.2865 16.2753 20.249 16.0128 20.099 15.8253C20.0615 15.7878 19.9865 15.7128 19.949 15.6753C18.7865 14.5128 17.624 13.3878 16.4615 12.2253C16.424 12.1878 16.3865 12.1503 16.349 12.1128C16.6115 11.8503 16.874 11.6253 17.174 11.3628C17.8865 10.7253 18.6365 10.0878 19.349 9.4128Z" fill="#0069D1"/>
<path d="M20.1746 20.5502H3.82461C1.94961 20.5502 0.412109 19.0127 0.412109 17.1377V6.8627C0.412109 4.9877 1.94961 3.4502 3.82461 3.4502H20.2121C22.0871 3.4502 23.6246 4.9877 23.6246 6.8627V17.1377C23.5871 19.0127 22.0871 20.5502 20.1746 20.5502ZM3.82461 4.7252C2.62461 4.7252 1.68711 5.7002 1.68711 6.8627V17.1377C1.68711 18.3377 2.66211 19.2752 3.82461 19.2752H20.2121C21.4121 19.2752 22.3496 18.3002 22.3496 17.1377V6.8627C22.3496 5.6627 21.3746 4.7252 20.2121 4.7252H3.82461Z" fill="#0069D1"/>
</svg>
