<svg width="209" height="34" viewBox="0 0 209 34" fill="none" xmlns="http://www.w3.org/2000/svg">
<rect width="209" height="34" rx="17" fill="#03A8E2" fill-opacity="0.2"/>
<path d="M23.9785 24.6709L22.2727 24.3712L20.5669 24.6709L21.6388 19.0694L21.8462 18.8965H22.6876L22.8951 19.0694L23.967 24.6709H23.9785Z" fill="#03A8E2"/>
<path d="M21.0625 18.4361L21.0164 18.7012L16.6943 22.424L16.1065 20.7989L15 19.4734L20.3825 17.5947L20.6361 17.6869L21.051 18.4131L21.0625 18.4361Z" fill="#0069D1"/>
<path d="M21.0627 16.0617L20.6478 16.7879L20.3942 16.8801L15.0117 15.0014L16.1182 13.6759L16.706 12.0508L21.0282 15.7736L21.0743 16.0387L21.0627 16.0617Z" fill="#0069D1"/>
<path d="M23.9787 9.82617L22.9068 15.4277L22.6994 15.6006H21.858L21.6505 15.4277L20.5786 9.82617L22.2844 10.1258L23.9902 9.82617H23.9787Z" fill="#0069D1"/>
<path d="M29.5569 15.0125L24.1744 16.8912L23.9208 16.799L23.5059 16.0729L23.552 15.8078L27.8741 12.085L28.4619 13.7101L29.5684 15.0356L29.5569 15.0125Z" fill="#0069D1"/>
<path d="M29.5572 19.4846L28.4507 20.81L27.8629 22.4351L23.5407 18.7123L23.4946 18.4472L23.9096 17.7211L24.1631 17.6289L29.5456 19.5076L29.5572 19.4846Z" fill="#0069D1"/>
<path d="M22.4177 17H21.4726L21 17.8183L21.4726 18.6367H22.4177L22.8902 17.8183L22.4177 17Z" fill="#03A8E2"/>
<path d="M52.1844 23.6624C51.3044 23.6624 50.5257 23.481 49.8484 23.1184C49.1764 22.7557 48.6484 22.2437 48.2644 21.5824C47.8804 20.921 47.6884 20.1477 47.6884 19.2624V11.9104L48.8724 11.9024V19.1104C48.8724 19.7077 48.9737 20.225 49.1764 20.6624C49.379 21.0944 49.643 21.4517 49.9684 21.7344C50.299 22.0117 50.659 22.217 51.0484 22.3504C51.4377 22.4837 51.8164 22.5504 52.1844 22.5504C52.5577 22.5504 52.939 22.4837 53.3284 22.3504C53.7177 22.217 54.075 22.0117 54.4004 21.7344C54.7257 21.4517 54.9897 21.0944 55.1924 20.6624C55.395 20.225 55.4964 19.7077 55.4964 19.1104V11.9024H56.6804V19.2624C56.6804 20.1477 56.4884 20.921 56.1044 21.5824C55.7204 22.2384 55.1897 22.7504 54.5124 23.1184C53.8404 23.481 53.0644 23.6624 52.1844 23.6624ZM67.7227 23.4224V19.0144C67.7227 18.5344 67.6774 18.0944 67.5867 17.6944C67.4961 17.289 67.3494 16.937 67.1467 16.6384C66.9494 16.3344 66.6907 16.0997 66.3707 15.9344C66.0561 15.769 65.6721 15.6864 65.2187 15.6864C64.8027 15.6864 64.4347 15.7584 64.1147 15.9024C63.8001 16.0464 63.5334 16.2544 63.3147 16.5264C63.1014 16.793 62.9387 17.1184 62.8267 17.5024C62.7147 17.8864 62.6587 18.3237 62.6587 18.8144L61.8267 18.6304C61.8267 17.745 61.9814 17.001 62.2907 16.3984C62.6001 15.7957 63.0267 15.3397 63.5707 15.0304C64.1147 14.721 64.7387 14.5664 65.4427 14.5664C65.9601 14.5664 66.4107 14.6464 66.7947 14.8064C67.1841 14.9664 67.5121 15.1824 67.7787 15.4544C68.0507 15.7264 68.2694 16.0384 68.4347 16.3904C68.6001 16.737 68.7201 17.1077 68.7947 17.5024C68.8694 17.8917 68.9067 18.281 68.9067 18.6704V23.4224H67.7227ZM61.4747 23.4224V14.7824H62.5387V16.9104H62.6587V23.4224H61.4747ZM76.7667 23.6544C75.7534 23.6544 74.9187 23.4357 74.2627 22.9984C73.6121 22.561 73.2121 21.953 73.0627 21.1744L74.2627 20.9744C74.3907 21.465 74.6814 21.857 75.1347 22.1504C75.5934 22.4384 76.1587 22.5824 76.8307 22.5824C77.4867 22.5824 78.0041 22.4464 78.3827 22.1744C78.7614 21.897 78.9507 21.521 78.9507 21.0464C78.9507 20.7797 78.8894 20.5637 78.7667 20.3984C78.6494 20.2277 78.4067 20.0704 78.0387 19.9264C77.6707 19.7824 77.1214 19.6117 76.3907 19.4144C75.6067 19.201 74.9934 18.9877 74.5507 18.7744C74.1081 18.561 73.7934 18.3157 73.6067 18.0384C73.4201 17.7557 73.3267 17.4117 73.3267 17.0064C73.3267 16.5157 73.4654 16.0864 73.7427 15.7184C74.0201 15.345 74.4041 15.057 74.8947 14.8544C75.3854 14.6464 75.9561 14.5424 76.6067 14.5424C77.2574 14.5424 77.8387 14.649 78.3507 14.8624C78.8681 15.0704 79.2841 15.3637 79.5987 15.7424C79.9134 16.121 80.1001 16.561 80.1587 17.0624L78.9587 17.2784C78.8787 16.7717 78.6254 16.3717 78.1987 16.0784C77.7774 15.7797 77.2414 15.625 76.5907 15.6144C75.9774 15.5984 75.4787 15.7157 75.0947 15.9664C74.7107 16.2117 74.5187 16.5397 74.5187 16.9504C74.5187 17.1797 74.5881 17.377 74.7267 17.5424C74.8654 17.7024 75.1161 17.8544 75.4787 17.9984C75.8467 18.1424 76.3694 18.2997 77.0467 18.4704C77.8414 18.673 78.4654 18.8864 78.9187 19.1104C79.3721 19.3344 79.6947 19.5984 79.8867 19.9024C80.0787 20.2064 80.1747 20.5824 80.1747 21.0304C80.1747 21.8464 79.8707 22.489 79.2627 22.9584C78.6601 23.4224 77.8281 23.6544 76.7667 23.6544ZM88.165 23.6624C87.3223 23.6624 86.5917 23.4757 85.973 23.1024C85.3597 22.729 84.8823 22.2037 84.541 21.5264C84.1997 20.849 84.029 20.0544 84.029 19.1424C84.029 18.1984 84.197 17.3824 84.533 16.6944C84.869 16.0064 85.341 15.4757 85.949 15.1024C86.5623 14.729 87.285 14.5424 88.117 14.5424C88.9703 14.5424 89.6983 14.7397 90.301 15.1344C90.9037 15.5237 91.3597 16.0837 91.669 16.8144C91.9783 17.545 92.1197 18.417 92.093 19.4304H90.893V19.0144C90.8717 17.8944 90.629 17.049 90.165 16.4784C89.7063 15.9077 89.0343 15.6224 88.149 15.6224C87.221 15.6224 86.509 15.9237 86.013 16.5264C85.5223 17.129 85.277 17.9877 85.277 19.1024C85.277 20.1904 85.5223 21.0357 86.013 21.6384C86.509 22.2357 87.2103 22.5344 88.117 22.5344C88.7357 22.5344 89.2743 22.393 89.733 22.1104C90.197 21.8224 90.5623 21.409 90.829 20.8704L91.925 21.2944C91.5837 22.0464 91.0797 22.6304 90.413 23.0464C89.7517 23.457 89.0023 23.6624 88.165 23.6624ZM84.861 19.4304V18.4464H91.461V19.4304H84.861ZM96.4284 23.4224V14.7824H97.4844V16.8624L97.2764 16.5904C97.3724 16.3344 97.4977 16.0997 97.6524 15.8864C97.807 15.6677 97.975 15.489 98.1564 15.3504C98.3804 15.153 98.6417 15.0037 98.9404 14.9024C99.239 14.7957 99.5404 14.7344 99.8444 14.7184C100.148 14.697 100.426 14.7184 100.676 14.7824V15.8864C100.362 15.8064 100.018 15.7877 99.6444 15.8304C99.271 15.873 98.927 16.0224 98.6124 16.2784C98.3244 16.5024 98.1084 16.7717 97.9644 17.0864C97.8204 17.3957 97.7244 17.7264 97.6764 18.0784C97.6284 18.425 97.6044 18.769 97.6044 19.1104V23.4224H96.4284ZM108.254 23.6624C107.411 23.6624 106.68 23.4757 106.062 23.1024C105.448 22.729 104.971 22.2037 104.63 21.5264C104.288 20.849 104.118 20.0544 104.118 19.1424C104.118 18.1984 104.286 17.3824 104.622 16.6944C104.958 16.0064 105.43 15.4757 106.038 15.1024C106.651 14.729 107.374 14.5424 108.206 14.5424C109.059 14.5424 109.787 14.7397 110.39 15.1344C110.992 15.5237 111.448 16.0837 111.758 16.8144C112.067 17.545 112.208 18.417 112.182 19.4304H110.982V19.0144C110.96 17.8944 110.718 17.049 110.254 16.4784C109.795 15.9077 109.123 15.6224 108.238 15.6224C107.31 15.6224 106.598 15.9237 106.102 16.5264C105.611 17.129 105.366 17.9877 105.366 19.1024C105.366 20.1904 105.611 21.0357 106.102 21.6384C106.598 22.2357 107.299 22.5344 108.206 22.5344C108.824 22.5344 109.363 22.393 109.822 22.1104C110.286 21.8224 110.651 21.409 110.918 20.8704L112.014 21.2944C111.672 22.0464 111.168 22.6304 110.502 23.0464C109.84 23.457 109.091 23.6624 108.254 23.6624ZM104.95 19.4304V18.4464H111.55V19.4304H104.95ZM122.28 23.4224V11.9024H126.728C126.84 11.9024 126.966 11.9077 127.104 11.9184C127.248 11.9237 127.392 11.9397 127.536 11.9664C128.139 12.057 128.648 12.2677 129.064 12.5984C129.486 12.9237 129.803 13.3344 130.016 13.8304C130.235 14.3264 130.344 14.8757 130.344 15.4784C130.344 16.0757 130.235 16.6224 130.016 17.1184C129.798 17.6144 129.478 18.0277 129.056 18.3584C128.64 18.6837 128.134 18.8917 127.536 18.9824C127.392 19.0037 127.248 19.0197 127.104 19.0304C126.966 19.041 126.84 19.0464 126.728 19.0464H123.456V23.4224H122.28ZM123.456 17.9264H126.696C126.792 17.9264 126.904 17.921 127.032 17.9104C127.16 17.8997 127.286 17.881 127.408 17.8544C127.803 17.769 128.126 17.6064 128.376 17.3664C128.632 17.1264 128.822 16.841 128.944 16.5104C129.072 16.1797 129.136 15.8357 129.136 15.4784C129.136 15.121 129.072 14.777 128.944 14.4464C128.822 14.1104 128.632 13.8224 128.376 13.5824C128.126 13.3424 127.803 13.1797 127.408 13.0944C127.286 13.0677 127.16 13.0517 127.032 13.0464C126.904 13.0357 126.792 13.0304 126.696 13.0304H123.456V17.9264ZM136.593 23.6624C135.943 23.6624 135.396 23.545 134.953 23.3104C134.516 23.0757 134.188 22.7637 133.969 22.3744C133.751 21.985 133.641 21.561 133.641 21.1024C133.641 20.633 133.735 20.233 133.921 19.9024C134.113 19.5664 134.372 19.2917 134.697 19.0784C135.028 18.865 135.409 18.7024 135.841 18.5904C136.279 18.4837 136.761 18.3904 137.289 18.3104C137.823 18.225 138.343 18.153 138.849 18.0944C139.361 18.0304 139.809 17.969 140.193 17.9104L139.777 18.1664C139.793 17.313 139.628 16.681 139.281 16.2704C138.935 15.8597 138.332 15.6544 137.473 15.6544C136.881 15.6544 136.38 15.7877 135.969 16.0544C135.564 16.321 135.279 16.7424 135.113 17.3184L133.969 16.9824C134.167 16.209 134.564 15.609 135.161 15.1824C135.759 14.7557 136.535 14.5424 137.489 14.5424C138.279 14.5424 138.948 14.6917 139.497 14.9904C140.052 15.2837 140.444 15.7104 140.673 16.2704C140.78 16.521 140.849 16.801 140.881 17.1104C140.913 17.4197 140.929 17.7344 140.929 18.0544V23.4224H139.881V21.2544L140.185 21.3824C139.892 22.1237 139.436 22.689 138.817 23.0784C138.199 23.4677 137.457 23.6624 136.593 23.6624ZM136.729 22.6464C137.279 22.6464 137.759 22.5477 138.169 22.3504C138.58 22.153 138.911 21.8837 139.161 21.5424C139.412 21.1957 139.575 20.8064 139.649 20.3744C139.713 20.097 139.748 19.793 139.753 19.4624C139.759 19.1264 139.761 18.8757 139.761 18.7104L140.209 18.9424C139.809 18.9957 139.375 19.049 138.905 19.1024C138.441 19.1557 137.983 19.217 137.529 19.2864C137.081 19.3557 136.676 19.4384 136.313 19.5344C136.068 19.6037 135.831 19.7024 135.601 19.8304C135.372 19.953 135.183 20.1184 135.033 20.3264C134.889 20.5344 134.817 20.793 134.817 21.1024C134.817 21.353 134.879 21.5957 135.001 21.8304C135.129 22.065 135.332 22.2597 135.609 22.4144C135.892 22.569 136.265 22.6464 136.729 22.6464ZM145.572 23.4224V14.7824H146.628V16.8624L146.42 16.5904C146.516 16.3344 146.641 16.0997 146.796 15.8864C146.951 15.6677 147.119 15.489 147.3 15.3504C147.524 15.153 147.785 15.0037 148.084 14.9024C148.383 14.7957 148.684 14.7344 148.988 14.7184C149.292 14.697 149.569 14.7184 149.82 14.7824V15.8864C149.505 15.8064 149.161 15.7877 148.788 15.8304C148.415 15.873 148.071 16.0224 147.756 16.2784C147.468 16.5024 147.252 16.7717 147.108 17.0864C146.964 17.3957 146.868 17.7264 146.82 18.0784C146.772 18.425 146.748 18.769 146.748 19.1104V23.4224H145.572ZM158.602 23.4224C158.116 23.5237 157.636 23.5637 157.162 23.5424C156.692 23.521 156.271 23.4197 155.898 23.2384C155.53 23.057 155.25 22.7744 155.058 22.3904C154.903 22.0704 154.818 21.7477 154.802 21.4224C154.791 21.0917 154.786 20.7157 154.786 20.2944V12.3824H155.954V20.2464C155.954 20.609 155.956 20.913 155.962 21.1584C155.972 21.3984 156.028 21.6117 156.13 21.7984C156.322 22.1557 156.626 22.369 157.042 22.4384C157.463 22.5077 157.983 22.4917 158.602 22.3904V23.4224ZM152.938 15.7904V14.7824H158.602V15.7904H152.938ZM169.104 23.4224V19.0144C169.104 18.5344 169.059 18.0944 168.968 17.6944C168.877 17.289 168.731 16.937 168.528 16.6384C168.331 16.3344 168.072 16.0997 167.752 15.9344C167.437 15.769 167.053 15.6864 166.6 15.6864C166.184 15.6864 165.816 15.7584 165.496 15.9024C165.181 16.0464 164.915 16.2544 164.696 16.5264C164.483 16.793 164.32 17.1184 164.208 17.5024C164.096 17.8864 164.04 18.3237 164.04 18.8144L163.208 18.6304C163.208 17.745 163.363 17.001 163.672 16.3984C163.981 15.7957 164.408 15.3397 164.952 15.0304C165.496 14.721 166.12 14.5664 166.824 14.5664C167.341 14.5664 167.792 14.6464 168.176 14.8064C168.565 14.9664 168.893 15.1824 169.16 15.4544C169.432 15.7264 169.651 16.0384 169.816 16.3904C169.981 16.737 170.101 17.1077 170.176 17.5024C170.251 17.8917 170.288 18.281 170.288 18.6704V23.4224H169.104ZM162.856 23.4224V14.7824H163.92V16.9104H164.04V23.4224H162.856ZM178.533 23.6624C177.69 23.6624 176.96 23.4757 176.341 23.1024C175.728 22.729 175.25 22.2037 174.909 21.5264C174.568 20.849 174.397 20.0544 174.397 19.1424C174.397 18.1984 174.565 17.3824 174.901 16.6944C175.237 16.0064 175.709 15.4757 176.317 15.1024C176.93 14.729 177.653 14.5424 178.485 14.5424C179.338 14.5424 180.066 14.7397 180.669 15.1344C181.272 15.5237 181.728 16.0837 182.037 16.8144C182.346 17.545 182.488 18.417 182.461 19.4304H181.261V19.0144C181.24 17.8944 180.997 17.049 180.533 16.4784C180.074 15.9077 179.402 15.6224 178.517 15.6224C177.589 15.6224 176.877 15.9237 176.381 16.5264C175.89 17.129 175.645 17.9877 175.645 19.1024C175.645 20.1904 175.89 21.0357 176.381 21.6384C176.877 22.2357 177.578 22.5344 178.485 22.5344C179.104 22.5344 179.642 22.393 180.101 22.1104C180.565 21.8224 180.93 21.409 181.197 20.8704L182.293 21.2944C181.952 22.0464 181.448 22.6304 180.781 23.0464C180.12 23.457 179.37 23.6624 178.533 23.6624ZM175.229 19.4304V18.4464H181.829V19.4304H175.229ZM186.796 23.4224V14.7824H187.852V16.8624L187.644 16.5904C187.74 16.3344 187.866 16.0997 188.02 15.8864C188.175 15.6677 188.343 15.489 188.524 15.3504C188.748 15.153 189.01 15.0037 189.308 14.9024C189.607 14.7957 189.908 14.7344 190.212 14.7184C190.516 14.697 190.794 14.7184 191.044 14.7824V15.8864C190.73 15.8064 190.386 15.7877 190.012 15.8304C189.639 15.873 189.295 16.0224 188.98 16.2784C188.692 16.5024 188.476 16.7717 188.332 17.0864C188.188 17.3957 188.092 17.7264 188.044 18.0784C187.996 18.425 187.972 18.769 187.972 19.1104V23.4224H186.796Z" fill="#0069D1"/>
</svg>
