<svg width="186" height="66" viewBox="0 0 186 66" fill="none" xmlns="http://www.w3.org/2000/svg">
<path d="M21 21.5H176C181.523 21.5 186 25.9772 186 31.5V55.5C186 61.0228 181.523 65.5 176 65.5H31C25.4772 65.5 21 61.0228 21 55.5V21.5Z" fill="#33E47A"/>
<path d="M58.616 49.74C57.736 49.74 56.9573 49.5587 56.28 49.196C55.608 48.8333 55.08 48.3213 54.696 47.66C54.312 46.9987 54.12 46.2253 54.12 45.34V37.988L55.304 37.98V45.188C55.304 45.7853 55.4053 46.3027 55.608 46.74C55.8107 47.172 56.0747 47.5293 56.4 47.812C56.7307 48.0893 57.0907 48.2947 57.48 48.428C57.8693 48.5613 58.248 48.628 58.616 48.628C58.9893 48.628 59.3707 48.5613 59.76 48.428C60.1493 48.2947 60.5067 48.0893 60.832 47.812C61.1573 47.5293 61.4213 47.172 61.624 46.74C61.8267 46.3027 61.928 45.7853 61.928 45.188V37.98H63.112V45.34C63.112 46.2253 62.92 46.9987 62.536 47.66C62.152 48.316 61.6213 48.828 60.944 49.196C60.272 49.5587 59.496 49.74 58.616 49.74ZM71.5944 49.5V45.092C71.5944 44.612 71.549 44.172 71.4584 43.772C71.3677 43.3667 71.221 43.0147 71.0184 42.716C70.821 42.412 70.5624 42.1773 70.2424 42.012C69.9277 41.8467 69.5437 41.764 69.0904 41.764C68.6744 41.764 68.3064 41.836 67.9864 41.98C67.6717 42.124 67.405 42.332 67.1864 42.604C66.973 42.8707 66.8104 43.196 66.6984 43.58C66.5864 43.964 66.5304 44.4013 66.5304 44.892L65.6984 44.708C65.6984 43.8227 65.853 43.0787 66.1624 42.476C66.4717 41.8733 66.8984 41.4173 67.4424 41.108C67.9864 40.7987 68.6104 40.644 69.3144 40.644C69.8317 40.644 70.2824 40.724 70.6664 40.884C71.0557 41.044 71.3837 41.26 71.6504 41.532C71.9224 41.804 72.141 42.116 72.3064 42.468C72.4717 42.8147 72.5917 43.1853 72.6664 43.58C72.741 43.9693 72.7784 44.3587 72.7784 44.748V49.5H71.5944ZM65.3464 49.5V40.86H66.4104V42.988H66.5304V49.5H65.3464ZM78.0784 49.732C77.065 49.732 76.2304 49.5133 75.5744 49.076C74.9237 48.6387 74.5237 48.0307 74.3744 47.252L75.5744 47.052C75.7024 47.5427 75.993 47.9347 76.4464 48.228C76.905 48.516 77.4704 48.66 78.1424 48.66C78.7984 48.66 79.3157 48.524 79.6944 48.252C80.073 47.9747 80.2624 47.5987 80.2624 47.124C80.2624 46.8573 80.201 46.6413 80.0784 46.476C79.961 46.3053 79.7184 46.148 79.3504 46.004C78.9824 45.86 78.433 45.6893 77.7024 45.492C76.9184 45.2787 76.305 45.0653 75.8624 44.852C75.4197 44.6387 75.105 44.3933 74.9184 44.116C74.7317 43.8333 74.6384 43.4893 74.6384 43.084C74.6384 42.5933 74.777 42.164 75.0544 41.796C75.3317 41.4227 75.7157 41.1347 76.2064 40.932C76.697 40.724 77.2677 40.62 77.9184 40.62C78.569 40.62 79.1504 40.7267 79.6624 40.94C80.1797 41.148 80.5957 41.4413 80.9104 41.82C81.225 42.1987 81.4117 42.6387 81.4704 43.14L80.2704 43.356C80.1904 42.8493 79.937 42.4493 79.5104 42.156C79.089 41.8573 78.553 41.7027 77.9024 41.692C77.289 41.676 76.7904 41.7933 76.4064 42.044C76.0224 42.2893 75.8304 42.6173 75.8304 43.028C75.8304 43.2573 75.8997 43.4547 76.0384 43.62C76.177 43.78 76.4277 43.932 76.7904 44.076C77.1584 44.22 77.681 44.3773 78.3584 44.548C79.153 44.7507 79.777 44.964 80.2304 45.188C80.6837 45.412 81.0064 45.676 81.1984 45.98C81.3904 46.284 81.4864 46.66 81.4864 47.108C81.4864 47.924 81.1824 48.5667 80.5744 49.036C79.9717 49.5 79.1397 49.732 78.0784 49.732ZM86.9166 49.74C86.074 49.74 85.3433 49.5533 84.7246 49.18C84.1113 48.8067 83.634 48.2813 83.2926 47.604C82.9513 46.9267 82.7806 46.132 82.7806 45.22C82.7806 44.276 82.9486 43.46 83.2846 42.772C83.6206 42.084 84.0926 41.5533 84.7006 41.18C85.314 40.8067 86.0366 40.62 86.8686 40.62C87.722 40.62 88.45 40.8173 89.0526 41.212C89.6553 41.6013 90.1113 42.1613 90.4206 42.892C90.73 43.6227 90.8713 44.4947 90.8446 45.508H89.6446V45.092C89.6233 43.972 89.3806 43.1267 88.9166 42.556C88.458 41.9853 87.786 41.7 86.9006 41.7C85.9726 41.7 85.2606 42.0013 84.7646 42.604C84.274 43.2067 84.0286 44.0653 84.0286 45.18C84.0286 46.268 84.274 47.1133 84.7646 47.716C85.2606 48.3133 85.962 48.612 86.8686 48.612C87.4873 48.612 88.026 48.4707 88.4846 48.188C88.9486 47.9 89.314 47.4867 89.5806 46.948L90.6766 47.372C90.3353 48.124 89.8313 48.708 89.1646 49.124C88.5033 49.5347 87.754 49.74 86.9166 49.74ZM83.6126 45.508V44.524H90.2126V45.508H83.6126ZM92.62 49.5V40.86H93.676V42.94L93.468 42.668C93.564 42.412 93.6893 42.1773 93.844 41.964C93.9987 41.7453 94.1667 41.5667 94.348 41.428C94.572 41.2307 94.8333 41.0813 95.132 40.98C95.4307 40.8733 95.732 40.812 96.036 40.796C96.34 40.7747 96.6173 40.796 96.868 40.86V41.964C96.5533 41.884 96.2093 41.8653 95.836 41.908C95.4627 41.9507 95.1187 42.1 94.804 42.356C94.516 42.58 94.3 42.8493 94.156 43.164C94.012 43.4733 93.916 43.804 93.868 44.156C93.82 44.5027 93.796 44.8467 93.796 45.188V49.5H92.62ZM101.885 49.74C101.043 49.74 100.312 49.5533 99.6934 49.18C99.08 48.8067 98.6027 48.2813 98.2614 47.604C97.92 46.9267 97.7494 46.132 97.7494 45.22C97.7494 44.276 97.9174 43.46 98.2534 42.772C98.5894 42.084 99.0614 41.5533 99.6694 41.18C100.283 40.8067 101.005 40.62 101.837 40.62C102.691 40.62 103.419 40.8173 104.021 41.212C104.624 41.6013 105.08 42.1613 105.389 42.892C105.699 43.6227 105.84 44.4947 105.813 45.508H104.613V45.092C104.592 43.972 104.349 43.1267 103.885 42.556C103.427 41.9853 102.755 41.7 101.869 41.7C100.941 41.7 100.229 42.0013 99.7334 42.604C99.2427 43.2067 98.9974 44.0653 98.9974 45.18C98.9974 46.268 99.2427 47.1133 99.7334 47.716C100.229 48.3133 100.931 48.612 101.837 48.612C102.456 48.612 102.995 48.4707 103.453 48.188C103.917 47.9 104.283 47.4867 104.549 46.948L105.645 47.372C105.304 48.124 104.8 48.708 104.133 49.124C103.472 49.5347 102.723 49.74 101.885 49.74ZM98.5814 45.508V44.524H105.181V45.508H98.5814ZM113.72 49.5L109.752 37.98H110.976L114.488 48.164L118.024 37.98H119.248L115.28 49.5H113.72ZM120.296 39.22V37.9H121.472V39.22H120.296ZM120.296 49.5V40.86H121.472V49.5H120.296ZM127.094 49.732C126.081 49.732 125.246 49.5133 124.59 49.076C123.939 48.6387 123.539 48.0307 123.39 47.252L124.59 47.052C124.718 47.5427 125.009 47.9347 125.462 48.228C125.921 48.516 126.486 48.66 127.158 48.66C127.814 48.66 128.331 48.524 128.71 48.252C129.089 47.9747 129.278 47.5987 129.278 47.124C129.278 46.8573 129.217 46.6413 129.094 46.476C128.977 46.3053 128.734 46.148 128.366 46.004C127.998 45.86 127.449 45.6893 126.718 45.492C125.934 45.2787 125.321 45.0653 124.878 44.852C124.435 44.6387 124.121 44.3933 123.934 44.116C123.747 43.8333 123.654 43.4893 123.654 43.084C123.654 42.5933 123.793 42.164 124.07 41.796C124.347 41.4227 124.731 41.1347 125.222 40.932C125.713 40.724 126.283 40.62 126.934 40.62C127.585 40.62 128.166 40.7267 128.678 40.94C129.195 41.148 129.611 41.4413 129.926 41.82C130.241 42.1987 130.427 42.6387 130.486 43.14L129.286 43.356C129.206 42.8493 128.953 42.4493 128.526 42.156C128.105 41.8573 127.569 41.7027 126.918 41.692C126.305 41.676 125.806 41.7933 125.422 42.044C125.038 42.2893 124.846 42.6173 124.846 43.028C124.846 43.2573 124.915 43.4547 125.054 43.62C125.193 43.78 125.443 43.932 125.806 44.076C126.174 44.22 126.697 44.3773 127.374 44.548C128.169 44.7507 128.793 44.964 129.246 45.188C129.699 45.412 130.022 45.676 130.214 45.98C130.406 46.284 130.502 46.66 130.502 47.108C130.502 47.924 130.198 48.5667 129.59 49.036C128.987 49.5 128.155 49.732 127.094 49.732ZM132.436 39.22V37.9H133.612V39.22H132.436ZM132.436 49.5V40.86H133.612V49.5H132.436ZM139.619 49.74C138.76 49.74 138.027 49.5453 137.419 49.156C136.811 48.7667 136.344 48.228 136.019 47.54C135.693 46.852 135.531 46.0627 135.531 45.172C135.531 44.2653 135.696 43.4707 136.027 42.788C136.357 42.1053 136.827 41.5747 137.435 41.196C138.048 40.812 138.776 40.62 139.619 40.62C140.483 40.62 141.219 40.8147 141.827 41.204C142.44 41.588 142.907 42.124 143.227 42.812C143.552 43.4947 143.715 44.2813 143.715 45.172C143.715 46.0787 143.552 46.876 143.227 47.564C142.901 48.2467 142.432 48.78 141.819 49.164C141.205 49.548 140.472 49.74 139.619 49.74ZM139.619 48.612C140.579 48.612 141.293 48.2947 141.763 47.66C142.232 47.02 142.467 46.1907 142.467 45.172C142.467 44.1267 142.229 43.2947 141.755 42.676C141.285 42.0573 140.573 41.748 139.619 41.748C138.973 41.748 138.44 41.8947 138.019 42.188C137.603 42.476 137.291 42.8787 137.083 43.396C136.88 43.908 136.779 44.5 136.779 45.172C136.779 46.212 137.019 47.0467 137.499 47.676C137.979 48.3 138.685 48.612 139.619 48.612ZM151.719 49.5V45.092C151.719 44.612 151.674 44.172 151.583 43.772C151.493 43.3667 151.346 43.0147 151.143 42.716C150.946 42.412 150.687 42.1773 150.367 42.012C150.053 41.8467 149.669 41.764 149.215 41.764C148.799 41.764 148.431 41.836 148.111 41.98C147.797 42.124 147.53 42.332 147.311 42.604C147.098 42.8707 146.935 43.196 146.823 43.58C146.711 43.964 146.655 44.4013 146.655 44.892L145.823 44.708C145.823 43.8227 145.978 43.0787 146.287 42.476C146.597 41.8733 147.023 41.4173 147.567 41.108C148.111 40.7987 148.735 40.644 149.439 40.644C149.957 40.644 150.407 40.724 150.791 40.884C151.181 41.044 151.509 41.26 151.775 41.532C152.047 41.804 152.266 42.116 152.431 42.468C152.597 42.8147 152.717 43.1853 152.791 43.58C152.866 43.9693 152.903 44.3587 152.903 44.748V49.5H151.719ZM145.471 49.5V40.86H146.535V42.988H146.655V49.5H145.471Z" fill="#121921"/>
<circle cx="21" cy="21" r="21" fill="#121921"/>
<g clip-path="url(#clip0_229_3297)">
<path d="M32.8699 20.3708C32.4237 17.5787 30.9917 15.0199 28.8376 13.166C26.8377 11.4448 24.3268 10.4344 21.7022 10.281V9H20.2978V10.281C17.6731 10.4344 15.162 11.4448 13.1623 13.166C11.0083 15.0199 9.57623 17.5787 9.13 20.3708L9 21.1838H10.6002L10.8003 20.8202C11.3351 19.8486 12.3549 19.2451 13.4617 19.2451C14.5688 19.2451 15.5885 19.8486 16.1233 20.8202L16.3235 21.1838H18.1384L18.3385 20.8202C18.8734 19.8486 19.8931 19.2451 21 19.2451C22.1068 19.2451 23.1267 19.8486 23.6614 20.8202L23.8615 21.1838H25.6767L25.8768 20.8202C26.4115 19.8486 27.4314 19.2451 28.5382 19.2451C29.6451 19.2451 30.665 19.8486 31.1997 20.8202L31.3998 21.1838H33L32.8699 20.3708ZM13.4617 17.8407C12.5911 17.8407 11.7574 18.0959 11.051 18.5528C12.3409 15.071 15.3603 12.5273 19.0221 11.846C18.019 13.0774 17.2926 14.6962 16.8876 16.6294C16.6913 17.566 16.6001 18.4274 16.5593 19.1008C15.7416 18.3047 14.6354 17.8407 13.4617 17.8407ZM21 17.8407C19.8596 17.8407 18.7829 18.2787 17.9725 19.034C18.1067 17.1194 18.6819 13.7226 20.9998 11.8379C23.3104 13.7183 23.8886 17.1158 24.0252 19.032C23.2152 18.2779 22.1393 17.8407 21 17.8407ZM28.5382 17.8407C27.3645 17.8407 26.2584 18.3047 25.4406 19.1008C25.3998 18.4274 25.3086 17.566 25.1125 16.6294C24.7073 14.6962 23.9811 13.0774 22.9779 11.846C26.6398 12.5273 29.659 15.071 30.949 18.5528C30.2426 18.0959 29.4089 17.8407 28.5382 17.8407Z" fill="#33E47A"/>
<path d="M23.3003 23.0745H18.7V25.7212H16.0532V30.3214H18.7V32.9684H23.3003V30.3214H25.9471V25.7212H23.3003V23.0745ZM24.5427 27.1257V28.917H21.8959V31.5638H20.1044V28.917H17.4576V27.1257H20.1044V24.4789H21.8959V27.1257H24.5427Z" fill="#33E47A"/>
</g>
<defs>
<clipPath id="clip0_229_3297">
<rect width="24" height="24" fill="white" transform="translate(9 9)"/>
</clipPath>
</defs>
</svg>
