<svg width="219" height="65" viewBox="0 0 219 65" fill="none" xmlns="http://www.w3.org/2000/svg">
<path d="M0 31C0 25.4772 4.47715 21 10 21H198V55C198 60.5228 193.523 65 188 65H10C4.47715 65 0 60.5228 0 55V31Z" fill="#6FB9FE"/>
<path d="M38.2795 50L34.9515 38.48H36.1755L38.8715 47.992L41.5515 38.488L42.7835 38.48L45.4795 47.992L48.1595 38.48H49.3915L46.0715 50H44.8875L42.1675 40.552L39.4635 50H38.2795ZM50.6238 39.72V38.4H51.7998V39.72H50.6238ZM50.6238 50V41.36H51.7998V50H50.6238ZM54.1981 50V41.36H55.2541V43.44L55.0461 43.168C55.1421 42.912 55.2675 42.6773 55.4221 42.464C55.5768 42.2453 55.7448 42.0667 55.9261 41.928C56.1501 41.7307 56.4115 41.5813 56.7101 41.48C57.0088 41.3733 57.3101 41.312 57.6141 41.296C57.9181 41.2747 58.1955 41.296 58.4461 41.36V42.464C58.1315 42.384 57.7875 42.3653 57.4141 42.408C57.0408 42.4507 56.6968 42.6 56.3821 42.856C56.0941 43.08 55.8781 43.3493 55.7341 43.664C55.5901 43.9733 55.4941 44.304 55.4461 44.656C55.3981 45.0027 55.3741 45.3467 55.3741 45.688V50H54.1981ZM66.3909 50.232C65.3775 50.232 64.5429 50.0133 63.8869 49.576C63.2362 49.1387 62.8362 48.5307 62.6869 47.752L63.8869 47.552C64.0149 48.0427 64.3055 48.4347 64.7589 48.728C65.2175 49.016 65.7829 49.16 66.4549 49.16C67.1109 49.16 67.6282 49.024 68.0069 48.752C68.3855 48.4747 68.5749 48.0987 68.5749 47.624C68.5749 47.3573 68.5135 47.1413 68.3909 46.976C68.2735 46.8053 68.0309 46.648 67.6629 46.504C67.2949 46.36 66.7455 46.1893 66.0149 45.992C65.2309 45.7787 64.6175 45.5653 64.1749 45.352C63.7322 45.1387 63.4175 44.8933 63.2309 44.616C63.0442 44.3333 62.9509 43.9893 62.9509 43.584C62.9509 43.0933 63.0895 42.664 63.3669 42.296C63.6442 41.9227 64.0282 41.6347 64.5189 41.432C65.0095 41.224 65.5802 41.12 66.2309 41.12C66.8815 41.12 67.4629 41.2267 67.9749 41.44C68.4922 41.648 68.9082 41.9413 69.2229 42.32C69.5375 42.6987 69.7242 43.1387 69.7829 43.64L68.5829 43.856C68.5029 43.3493 68.2495 42.9493 67.8229 42.656C67.4015 42.3573 66.8655 42.2027 66.2149 42.192C65.6015 42.176 65.1029 42.2933 64.7189 42.544C64.3349 42.7893 64.1429 43.1173 64.1429 43.528C64.1429 43.7573 64.2122 43.9547 64.3509 44.12C64.4895 44.28 64.7402 44.432 65.1029 44.576C65.4709 44.72 65.9935 44.8773 66.6709 45.048C67.4655 45.2507 68.0895 45.464 68.5429 45.688C68.9962 45.912 69.3189 46.176 69.5109 46.48C69.7029 46.784 69.7989 47.16 69.7989 47.608C69.7989 48.424 69.4949 49.0667 68.8869 49.536C68.2842 50 67.4522 50.232 66.3909 50.232ZM71.7331 39.72V38.4H72.9091V39.72H71.7331ZM71.7331 50V41.36H72.9091V50H71.7331ZM81.5475 50V45.592C81.5475 45.112 81.5022 44.672 81.4115 44.272C81.3208 43.8667 81.1742 43.5147 80.9715 43.216C80.7742 42.912 80.5155 42.6773 80.1955 42.512C79.8808 42.3467 79.4968 42.264 79.0435 42.264C78.6275 42.264 78.2595 42.336 77.9395 42.48C77.6248 42.624 77.3582 42.832 77.1395 43.104C76.9262 43.3707 76.7635 43.696 76.6515 44.08C76.5395 44.464 76.4835 44.9013 76.4835 45.392L75.6515 45.208C75.6515 44.3227 75.8062 43.5787 76.1155 42.976C76.4248 42.3733 76.8515 41.9173 77.3955 41.608C77.9395 41.2987 78.5635 41.144 79.2675 41.144C79.7848 41.144 80.2355 41.224 80.6195 41.384C81.0088 41.544 81.3368 41.76 81.6035 42.032C81.8755 42.304 82.0942 42.616 82.2595 42.968C82.4248 43.3147 82.5448 43.6853 82.6195 44.08C82.6942 44.4693 82.7315 44.8587 82.7315 45.248V50H81.5475ZM75.2995 50V41.36H76.3635V43.488H76.4835V50H75.2995ZM88.1126 50.24C87.3073 50.24 86.6193 50.04 86.0486 49.64C85.478 49.2347 85.0406 48.688 84.7366 48C84.4326 47.312 84.2806 46.536 84.2806 45.672C84.2806 44.8133 84.43 44.04 84.7286 43.352C85.0326 42.664 85.4673 42.12 86.0326 41.72C86.598 41.32 87.2753 41.12 88.0646 41.12C88.8753 41.12 89.558 41.3173 90.1126 41.712C90.6673 42.1067 91.086 42.648 91.3686 43.336C91.6566 44.0187 91.8006 44.7973 91.8006 45.672C91.8006 46.5307 91.6593 47.3067 91.3766 48C91.094 48.688 90.678 49.2347 90.1286 49.64C89.5793 50.04 88.9073 50.24 88.1126 50.24ZM88.2326 49.144C88.846 49.144 89.3526 48.9947 89.7526 48.696C90.1526 48.3973 90.4513 47.9867 90.6486 47.464C90.846 46.936 90.9446 46.3387 90.9446 45.672C90.9446 44.9947 90.846 44.3973 90.6486 43.88C90.4513 43.3573 90.1526 42.9493 89.7526 42.656C89.358 42.3627 88.8593 42.216 88.2566 42.216C87.638 42.216 87.126 42.368 86.7206 42.672C86.3153 42.976 86.014 43.3893 85.8166 43.912C85.6246 44.4347 85.5286 45.0213 85.5286 45.672C85.5286 46.328 85.6273 46.92 85.8246 47.448C86.0273 47.9707 86.3286 48.384 86.7286 48.688C87.1286 48.992 87.63 49.144 88.2326 49.144ZM90.9446 50V43.496H90.8166V38.48H92.0006V50H90.9446ZM98.3041 50V40.72C98.3041 40.496 98.3148 40.2747 98.3361 40.056C98.3628 39.8373 98.4135 39.6293 98.4881 39.432C98.5628 39.2293 98.6801 39.0427 98.8401 38.872C99.0161 38.68 99.2081 38.5413 99.4161 38.456C99.6241 38.3653 99.8401 38.3067 100.064 38.28C100.293 38.2533 100.517 38.24 100.736 38.24H101.84V39.232H100.816C100.368 39.232 100.032 39.3413 99.8081 39.56C99.5895 39.7787 99.4801 40.1227 99.4801 40.592V50H98.3041ZM96.8081 42.368V41.36H101.84V42.368H96.8081ZM107.552 39.672V38.392H108.832V39.672H107.552ZM104.504 39.672V38.392H105.784V39.672H104.504ZM106.424 50.216C105.907 50.216 105.453 50.136 105.064 49.976C104.68 49.816 104.352 49.6 104.08 49.328C103.813 49.056 103.597 48.7467 103.432 48.4C103.267 48.048 103.147 47.6773 103.072 47.288C102.997 46.8933 102.96 46.5013 102.96 46.112V41.36H104.144V45.768C104.144 46.2427 104.189 46.6827 104.28 47.088C104.371 47.4933 104.515 47.848 104.712 48.152C104.915 48.4507 105.173 48.6827 105.488 48.848C105.808 49.0133 106.195 49.096 106.648 49.096C107.064 49.096 107.429 49.024 107.744 48.88C108.064 48.736 108.331 48.5307 108.544 48.264C108.763 47.992 108.928 47.664 109.04 47.28C109.152 46.8907 109.208 46.4533 109.208 45.968L110.04 46.152C110.04 47.0373 109.885 47.7813 109.576 48.384C109.267 48.9867 108.84 49.4427 108.296 49.752C107.752 50.0613 107.128 50.216 106.424 50.216ZM109.328 50V47.872H109.208V41.36H110.384V50H109.328ZM112.62 50V41.36H113.676V43.44L113.468 43.168C113.564 42.912 113.689 42.6773 113.844 42.464C113.999 42.2453 114.167 42.0667 114.348 41.928C114.572 41.7307 114.833 41.5813 115.132 41.48C115.431 41.3733 115.732 41.312 116.036 41.296C116.34 41.2747 116.617 41.296 116.868 41.36V42.464C116.553 42.384 116.209 42.3653 115.836 42.408C115.463 42.4507 115.119 42.6 114.804 42.856C114.516 43.08 114.3 43.3493 114.156 43.664C114.012 43.9733 113.916 44.304 113.868 44.656C113.82 45.0027 113.796 45.3467 113.796 45.688V50H112.62ZM125.589 50.24C124.783 50.24 124.058 50.1067 123.413 49.84C122.773 49.568 122.242 49.184 121.821 48.688C121.405 48.192 121.133 47.6027 121.005 46.92L122.205 46.72C122.397 47.4667 122.802 48.0533 123.421 48.48C124.039 48.9013 124.778 49.112 125.637 49.112C126.202 49.112 126.709 49.024 127.157 48.848C127.605 48.6667 127.957 48.4107 128.213 48.08C128.469 47.7493 128.597 47.3573 128.597 46.904C128.597 46.6053 128.543 46.352 128.437 46.144C128.33 45.9307 128.189 45.7547 128.013 45.616C127.837 45.4773 127.645 45.3627 127.437 45.272C127.229 45.176 127.026 45.0987 126.829 45.04L123.909 44.168C123.557 44.0667 123.231 43.9387 122.933 43.784C122.634 43.624 122.373 43.4347 122.149 43.216C121.93 42.992 121.759 42.7307 121.637 42.432C121.514 42.1333 121.453 41.792 121.453 41.408C121.453 40.7573 121.623 40.1947 121.965 39.72C122.306 39.2453 122.773 38.88 123.365 38.624C123.957 38.368 124.631 38.2427 125.389 38.248C126.157 38.248 126.842 38.384 127.445 38.656C128.053 38.928 128.554 39.3173 128.949 39.824C129.343 40.3253 129.605 40.92 129.733 41.608L128.501 41.832C128.421 41.3307 128.237 40.896 127.949 40.528C127.661 40.16 127.293 39.8773 126.845 39.68C126.402 39.4773 125.914 39.3733 125.381 39.368C124.863 39.368 124.402 39.456 123.997 39.632C123.597 39.8027 123.279 40.0373 123.045 40.336C122.81 40.6347 122.693 40.976 122.693 41.36C122.693 41.7493 122.799 42.0613 123.013 42.296C123.231 42.5307 123.498 42.7147 123.813 42.848C124.133 42.9813 124.442 43.0907 124.741 43.176L126.997 43.84C127.231 43.904 127.506 43.9973 127.821 44.12C128.141 44.2373 128.45 44.408 128.749 44.632C129.053 44.8507 129.303 45.1387 129.501 45.496C129.698 45.8533 129.797 46.3067 129.797 46.856C129.797 47.3893 129.69 47.8667 129.477 48.288C129.269 48.7093 128.973 49.064 128.589 49.352C128.21 49.64 127.765 49.8587 127.253 50.008C126.746 50.1627 126.191 50.24 125.589 50.24ZM131.608 39.72V38.4H132.784V39.72H131.608ZM131.608 50V41.36H132.784V50H131.608ZM138.839 50.24C137.996 50.24 137.265 50.0533 136.647 49.68C136.033 49.3067 135.556 48.7813 135.215 48.104C134.873 47.4267 134.703 46.632 134.703 45.72C134.703 44.776 134.871 43.96 135.207 43.272C135.543 42.584 136.015 42.0533 136.623 41.68C137.236 41.3067 137.959 41.12 138.791 41.12C139.644 41.12 140.372 41.3173 140.975 41.712C141.577 42.1013 142.033 42.6613 142.343 43.392C142.652 44.1227 142.793 44.9947 142.767 46.008H141.567V45.592C141.545 44.472 141.303 43.6267 140.839 43.056C140.38 42.4853 139.708 42.2 138.823 42.2C137.895 42.2 137.183 42.5013 136.687 43.104C136.196 43.7067 135.951 44.5653 135.951 45.68C135.951 46.768 136.196 47.6133 136.687 48.216C137.183 48.8133 137.884 49.112 138.791 49.112C139.409 49.112 139.948 48.9707 140.407 48.688C140.871 48.4 141.236 47.9867 141.503 47.448L142.599 47.872C142.257 48.624 141.753 49.208 141.087 49.624C140.425 50.0347 139.676 50.24 138.839 50.24ZM135.535 46.008V45.024H142.135V46.008H135.535ZM151.097 50.24C150.292 50.24 149.604 50.04 149.033 49.64C148.462 49.2347 148.025 48.688 147.721 48C147.417 47.312 147.265 46.536 147.265 45.672C147.265 44.8133 147.414 44.04 147.713 43.352C148.017 42.664 148.452 42.12 149.017 41.72C149.582 41.32 150.26 41.12 151.049 41.12C151.86 41.12 152.542 41.3173 153.097 41.712C153.652 42.1067 154.07 42.648 154.353 43.336C154.641 44.0187 154.785 44.7973 154.785 45.672C154.785 46.5307 154.644 47.3067 154.361 48C154.078 48.688 153.662 49.2347 153.113 49.64C152.564 50.04 151.892 50.24 151.097 50.24ZM151.217 49.144C151.83 49.144 152.337 48.9947 152.737 48.696C153.137 48.3973 153.436 47.9867 153.633 47.464C153.83 46.936 153.929 46.3387 153.929 45.672C153.929 44.9947 153.83 44.3973 153.633 43.88C153.436 43.3573 153.137 42.9493 152.737 42.656C152.342 42.3627 151.844 42.216 151.241 42.216C150.622 42.216 150.11 42.368 149.705 42.672C149.3 42.976 148.998 43.3893 148.801 43.912C148.609 44.4347 148.513 45.0213 148.513 45.672C148.513 46.328 148.612 46.92 148.809 47.448C149.012 47.9707 149.313 48.384 149.713 48.688C150.113 48.992 150.614 49.144 151.217 49.144ZM153.929 50V43.496H153.801V38.48H154.985V50H153.929ZM159.701 50.24C159.051 50.24 158.504 50.1227 158.061 49.888C157.624 49.6533 157.296 49.3413 157.077 48.952C156.859 48.5627 156.749 48.1387 156.749 47.68C156.749 47.2107 156.843 46.8107 157.029 46.48C157.221 46.144 157.48 45.8693 157.805 45.656C158.136 45.4427 158.517 45.28 158.949 45.168C159.387 45.0613 159.869 44.968 160.397 44.888C160.931 44.8027 161.451 44.7307 161.957 44.672C162.469 44.608 162.917 44.5467 163.301 44.488L162.885 44.744C162.901 43.8907 162.736 43.2587 162.389 42.848C162.043 42.4373 161.44 42.232 160.581 42.232C159.989 42.232 159.488 42.3653 159.077 42.632C158.672 42.8987 158.387 43.32 158.221 43.896L157.077 43.56C157.275 42.7867 157.672 42.1867 158.269 41.76C158.867 41.3333 159.643 41.12 160.597 41.12C161.387 41.12 162.056 41.2693 162.605 41.568C163.16 41.8613 163.552 42.288 163.781 42.848C163.888 43.0987 163.957 43.3787 163.989 43.688C164.021 43.9973 164.037 44.312 164.037 44.632V50H162.989V47.832L163.293 47.96C163 48.7013 162.544 49.2667 161.925 49.656C161.307 50.0453 160.565 50.24 159.701 50.24ZM159.837 49.224C160.387 49.224 160.867 49.1253 161.277 48.928C161.688 48.7307 162.019 48.4613 162.269 48.12C162.52 47.7733 162.683 47.384 162.757 46.952C162.821 46.6747 162.856 46.3707 162.861 46.04C162.867 45.704 162.869 45.4533 162.869 45.288L163.317 45.52C162.917 45.5733 162.483 45.6267 162.013 45.68C161.549 45.7333 161.091 45.7947 160.637 45.864C160.189 45.9333 159.784 46.016 159.421 46.112C159.176 46.1813 158.939 46.28 158.709 46.408C158.48 46.5307 158.291 46.696 158.141 46.904C157.997 47.112 157.925 47.3707 157.925 47.68C157.925 47.9307 157.987 48.1733 158.109 48.408C158.237 48.6427 158.44 48.8373 158.717 48.992C159 49.1467 159.373 49.224 159.837 49.224Z" fill="white"/>
<circle cx="198" cy="21" r="21" fill="white"/>
<g clip-path="url(#clip0_229_2728)">
<path d="M209.482 17.0138C208.683 16.7355 208.051 16.1215 207.749 15.3298L207.576 14.8782H202.01L201.838 15.3298C201.776 15.4935 201.699 15.6493 201.61 15.7963L196.674 12L185.953 20.2467L188.505 23.5638L189.971 22.4361V28.6049H188.571V30.0086H204.777V28.6049H203.377V25.9195C203.629 26.087 203.891 26.2408 204.162 26.3807L204.793 26.7074L205.425 26.3807C206.789 25.6756 207.933 24.6088 208.732 23.2967C209.531 21.9846 209.953 20.4789 209.953 18.9426V17.178L209.482 17.0138ZM208.549 18.9426C208.549 21.555 207.11 23.9233 204.793 25.1272C204.275 24.8577 203.801 24.5306 203.377 24.1553C202.816 23.6594 202.344 23.0795 201.973 22.4394C201.682 21.9379 201.455 21.3997 201.296 20.8359C201.127 20.2295 201.037 19.5936 201.037 18.9426V18.1434C201.297 18.0161 201.542 17.8641 201.769 17.6895C202.142 17.4009 202.467 17.0522 202.727 16.6558C202.807 16.5357 202.879 16.4106 202.946 16.2819H206.64C207.061 17.0914 207.729 17.7429 208.549 18.1434V18.9426ZM188.762 21.5953L187.922 20.5032L196.674 13.7712L200.596 16.7884C200.441 16.8781 200.276 16.9536 200.104 17.0138L199.633 17.178V17.7854L196.674 15.509L188.762 21.5953ZM197.644 28.6049H195.704V23.9335H197.644V28.6049ZM199.048 28.6049V22.5298H194.3V28.6049H191.375V21.3561L196.674 17.28L199.658 19.5753C199.757 20.8898 200.165 22.1653 200.854 23.2967C201.174 23.8226 201.55 24.3089 201.973 24.7487V28.6047H199.048V28.6049Z" fill="#6FB9FE"/>
<path d="M205.788 19.0109L204.768 19.9969L204.481 20.2743L203.323 19.1802L202.534 20.0165L202.359 20.2012L203.377 21.1624L204.492 22.2158L206.913 19.876L207.63 19.1826L206.655 18.1733L205.788 19.0109Z" fill="#6FB9FE"/>
</g>
<defs>
<clipPath id="clip0_229_2728">
<rect width="24" height="24" fill="white" transform="translate(186 9)"/>
</clipPath>
</defs>
</svg>
