<svg width="169" height="65" viewBox="0 0 169 65" fill="none" xmlns="http://www.w3.org/2000/svg">
<path d="M21 21H159C164.523 21 169 25.4772 169 31V55C169 60.5228 164.523 65 159 65H31C25.4772 65 21 60.5228 21 55V21Z" fill="#33E47A"/>
<path d="M66.8 50V49.752L73.096 39.608H66.96V38.48H75.024V38.752L68.76 48.88H74.968V50H66.8ZM80.2521 50.216C79.7348 50.216 79.2815 50.136 78.8921 49.976C78.5081 49.816 78.1801 49.6 77.9081 49.328C77.6415 49.056 77.4255 48.7467 77.2601 48.4C77.0948 48.048 76.9748 47.6773 76.9001 47.288C76.8255 46.8933 76.7881 46.5013 76.7881 46.112V41.36H77.9721V45.768C77.9721 46.2427 78.0175 46.6827 78.1081 47.088C78.1988 47.4933 78.3428 47.848 78.5401 48.152C78.7428 48.4507 79.0015 48.6827 79.3161 48.848C79.6361 49.0133 80.0228 49.096 80.4761 49.096C80.8921 49.096 81.2575 49.024 81.5721 48.88C81.8921 48.736 82.1588 48.5307 82.3721 48.264C82.5908 47.992 82.7561 47.664 82.8681 47.28C82.9801 46.8907 83.0361 46.4533 83.0361 45.968L83.8681 46.152C83.8681 47.0373 83.7135 47.7813 83.4041 48.384C83.0948 48.9867 82.6681 49.4427 82.1241 49.752C81.5801 50.0613 80.9561 50.216 80.2521 50.216ZM83.1561 50V47.872H83.0361V41.36H84.2121V50H83.1561ZM86.4401 50L86.4481 38.48H87.6321V45.52L91.4881 41.36H93.0561L89.0081 45.68L93.5841 50H91.8721L87.6321 45.84V50H86.4401ZM97.6896 50.216C97.1723 50.216 96.719 50.136 96.3296 49.976C95.9456 49.816 95.6176 49.6 95.3456 49.328C95.079 49.056 94.863 48.7467 94.6976 48.4C94.5323 48.048 94.4123 47.6773 94.3376 47.288C94.263 46.8933 94.2256 46.5013 94.2256 46.112V41.36H95.4096V45.768C95.4096 46.2427 95.455 46.6827 95.5456 47.088C95.6363 47.4933 95.7803 47.848 95.9776 48.152C96.1803 48.4507 96.439 48.6827 96.7536 48.848C97.0736 49.0133 97.4603 49.096 97.9136 49.096C98.3296 49.096 98.695 49.024 99.0096 48.88C99.3296 48.736 99.5963 48.5307 99.8096 48.264C100.028 47.992 100.194 47.664 100.306 47.28C100.418 46.8907 100.474 46.4533 100.474 45.968L101.306 46.152C101.306 47.0373 101.151 47.7813 100.842 48.384C100.532 48.9867 100.106 49.4427 99.5616 49.752C99.0176 50.0613 98.3936 50.216 97.6896 50.216ZM100.594 50V47.872H100.474V41.36H101.65V50H100.594ZM110.126 50V45.592C110.126 45.112 110.08 44.672 109.99 44.272C109.899 43.8667 109.752 43.5147 109.55 43.216C109.352 42.912 109.094 42.6773 108.774 42.512C108.459 42.3467 108.075 42.264 107.622 42.264C107.206 42.264 106.838 42.336 106.518 42.48C106.203 42.624 105.936 42.832 105.718 43.104C105.504 43.3707 105.342 43.696 105.23 44.08C105.118 44.464 105.062 44.9013 105.062 45.392L104.23 45.208C104.23 44.3227 104.384 43.5787 104.694 42.976C105.003 42.3733 105.43 41.9173 105.974 41.608C106.518 41.2987 107.142 41.144 107.846 41.144C108.363 41.144 108.814 41.224 109.198 41.384C109.587 41.544 109.915 41.76 110.182 42.032C110.454 42.304 110.672 42.616 110.838 42.968C111.003 43.3147 111.123 43.6853 111.198 44.08C111.272 44.4693 111.31 44.8587 111.31 45.248V50H110.126ZM103.878 50V41.36H104.942V43.488H105.062V50H103.878ZM114.242 50V40.72C114.242 40.496 114.252 40.2747 114.274 40.056C114.3 39.8373 114.351 39.6293 114.426 39.432C114.5 39.2293 114.618 39.0427 114.778 38.872C114.954 38.68 115.146 38.5413 115.354 38.456C115.562 38.3653 115.778 38.3067 116.002 38.28C116.231 38.2533 116.455 38.24 116.674 38.24H117.778V39.232H116.754C116.306 39.232 115.97 39.3413 115.746 39.56C115.527 39.7787 115.418 40.1227 115.418 40.592V50H114.242ZM112.746 42.368V41.36H117.778V42.368H112.746ZM123.762 50C123.276 50.1013 122.796 50.1413 122.322 50.12C121.852 50.0987 121.431 49.9973 121.058 49.816C120.69 49.6347 120.41 49.352 120.218 48.968C120.063 48.648 119.978 48.3253 119.962 48C119.951 47.6693 119.946 47.2933 119.946 46.872V38.96H121.114V46.824C121.114 47.1867 121.116 47.4907 121.122 47.736C121.132 47.976 121.188 48.1893 121.29 48.376C121.482 48.7333 121.786 48.9467 122.202 49.016C122.623 49.0853 123.143 49.0693 123.762 48.968V50ZM118.098 42.368V41.36H123.762V42.368H118.098Z" fill="white"/>
<circle cx="21" cy="21" r="21" fill="#07133B"/>
<g clip-path="url(#clip0_618_1215)">
<path d="M32.8699 20.3708C32.4237 17.5787 30.9917 15.0199 28.8376 13.166C26.8377 11.4448 24.3268 10.4344 21.7022 10.281V9H20.2978V10.281C17.6731 10.4344 15.162 11.4448 13.1623 13.166C11.0083 15.0199 9.57623 17.5787 9.13 20.3708L9 21.1838H10.6002L10.8003 20.8202C11.3351 19.8486 12.3549 19.2451 13.4617 19.2451C14.5688 19.2451 15.5885 19.8486 16.1233 20.8202L16.3235 21.1838H18.1384L18.3385 20.8202C18.8734 19.8486 19.8931 19.2451 21 19.2451C22.1068 19.2451 23.1267 19.8486 23.6614 20.8202L23.8615 21.1838H25.6767L25.8768 20.8202C26.4115 19.8486 27.4314 19.2451 28.5382 19.2451C29.6451 19.2451 30.665 19.8486 31.1997 20.8202L31.3998 21.1838H33L32.8699 20.3708ZM13.4617 17.8407C12.5911 17.8407 11.7574 18.0959 11.051 18.5528C12.3409 15.071 15.3603 12.5273 19.0221 11.846C18.019 13.0774 17.2926 14.6962 16.8876 16.6294C16.6913 17.566 16.6001 18.4274 16.5593 19.1008C15.7416 18.3047 14.6354 17.8407 13.4617 17.8407ZM21 17.8407C19.8596 17.8407 18.7829 18.2787 17.9725 19.034C18.1067 17.1194 18.6819 13.7226 20.9998 11.8379C23.3104 13.7183 23.8886 17.1158 24.0252 19.032C23.2152 18.2779 22.1393 17.8407 21 17.8407ZM28.5382 17.8407C27.3645 17.8407 26.2584 18.3047 25.4406 19.1008C25.3998 18.4274 25.3086 17.566 25.1125 16.6294C24.7073 14.6962 23.9811 13.0774 22.9779 11.846C26.6398 12.5273 29.659 15.071 30.949 18.5528C30.2426 18.0959 29.4089 17.8407 28.5382 17.8407Z" fill="#33E47A"/>
<path d="M23.2999 23.0745H18.6995V25.7212H16.0527V30.3214H18.6995V32.9684H23.2999V30.3214H25.9466V25.7212H23.2999V23.0745ZM24.5422 27.1257V28.917H21.8954V31.5638H20.1039V28.917H17.4572V27.1257H20.1039V24.4789H21.8954V27.1257H24.5422Z" fill="#33E47A"/>
</g>
<defs>
<clipPath id="clip0_618_1215">
<rect width="24" height="24" fill="white" transform="translate(9 9)"/>
</clipPath>
</defs>
</svg>
