<svg width="237" height="65" viewBox="0 0 237 65" fill="none" xmlns="http://www.w3.org/2000/svg">
<path d="M21 21H227C232.523 21 237 25.4772 237 31V55C237 60.5228 232.523 65 227 65H31C25.4772 65 21 60.5228 21 55V21Z" fill="#33E47A"/>
<path d="M47.28 50V38.48H48.456V48.872H53.928V50H47.28ZM58.9479 50.24C58.1052 50.24 57.3745 50.0533 56.7559 49.68C56.1425 49.3067 55.6652 48.7813 55.3239 48.104C54.9825 47.4267 54.8119 46.632 54.8119 45.72C54.8119 44.776 54.9799 43.96 55.3159 43.272C55.6519 42.584 56.1239 42.0533 56.7319 41.68C57.3452 41.3067 58.0679 41.12 58.8999 41.12C59.7532 41.12 60.4812 41.3173 61.0839 41.712C61.6865 42.1013 62.1425 42.6613 62.4519 43.392C62.7612 44.1227 62.9025 44.9947 62.8759 46.008H61.6759V45.592C61.6545 44.472 61.4119 43.6267 60.9479 43.056C60.4892 42.4853 59.8172 42.2 58.9319 42.2C58.0039 42.2 57.2919 42.5013 56.7959 43.104C56.3052 43.7067 56.0599 44.5653 56.0599 45.68C56.0599 46.768 56.3052 47.6133 56.7959 48.216C57.2919 48.8133 57.9932 49.112 58.8999 49.112C59.5185 49.112 60.0572 48.9707 60.5159 48.688C60.9799 48.4 61.3452 47.9867 61.6119 47.448L62.7079 47.872C62.3665 48.624 61.8625 49.208 61.1959 49.624C60.5345 50.0347 59.7852 50.24 58.9479 50.24ZM55.6439 46.008V45.024H62.2439V46.008H55.6439ZM64.6513 50V41.36H65.7073V43.44L65.4993 43.168C65.5953 42.912 65.7206 42.6773 65.8753 42.464C66.0299 42.2453 66.1979 42.0667 66.3793 41.928C66.6033 41.7307 66.8646 41.5813 67.1633 41.48C67.4619 41.3733 67.7633 41.312 68.0673 41.296C68.3713 41.2747 68.6486 41.296 68.8993 41.36V42.464C68.5846 42.384 68.2406 42.3653 67.8673 42.408C67.4939 42.4507 67.1499 42.6 66.8353 42.856C66.5473 43.08 66.3313 43.3493 66.1873 43.664C66.0433 43.9733 65.9473 44.304 65.8993 44.656C65.8513 45.0027 65.8273 45.3467 65.8273 45.688V50H64.6513ZM76.6569 50V45.592C76.6569 45.112 76.6115 44.672 76.5209 44.272C76.4302 43.8667 76.2835 43.5147 76.0809 43.216C75.8835 42.912 75.6249 42.6773 75.3049 42.512C74.9902 42.3467 74.6062 42.264 74.1529 42.264C73.7369 42.264 73.3689 42.336 73.0489 42.48C72.7342 42.624 72.4675 42.832 72.2489 43.104C72.0355 43.3707 71.8729 43.696 71.7609 44.08C71.6489 44.464 71.5929 44.9013 71.5929 45.392L70.7609 45.208C70.7609 44.3227 70.9155 43.5787 71.2249 42.976C71.5342 42.3733 71.9609 41.9173 72.5049 41.608C73.0489 41.2987 73.6729 41.144 74.3769 41.144C74.8942 41.144 75.3449 41.224 75.7289 41.384C76.1182 41.544 76.4462 41.76 76.7129 42.032C76.9849 42.304 77.2035 42.616 77.3689 42.968C77.5342 43.3147 77.6542 43.6853 77.7289 44.08C77.8035 44.4693 77.8409 44.8587 77.8409 45.248V50H76.6569ZM70.4089 50V41.36H71.4729V43.488H71.5929V50H70.4089ZM83.526 50.24C82.6833 50.24 81.9527 50.0533 81.334 49.68C80.7207 49.3067 80.2433 48.7813 79.902 48.104C79.5607 47.4267 79.39 46.632 79.39 45.72C79.39 44.776 79.558 43.96 79.894 43.272C80.23 42.584 80.702 42.0533 81.31 41.68C81.9233 41.3067 82.646 41.12 83.478 41.12C84.3313 41.12 85.0593 41.3173 85.662 41.712C86.2647 42.1013 86.7207 42.6613 87.03 43.392C87.3393 44.1227 87.4807 44.9947 87.454 46.008H86.254V45.592C86.2327 44.472 85.99 43.6267 85.526 43.056C85.0673 42.4853 84.3953 42.2 83.51 42.2C82.582 42.2 81.87 42.5013 81.374 43.104C80.8833 43.7067 80.638 44.5653 80.638 45.68C80.638 46.768 80.8833 47.6133 81.374 48.216C81.87 48.8133 82.5713 49.112 83.478 49.112C84.0967 49.112 84.6353 48.9707 85.094 48.688C85.558 48.4 85.9233 47.9867 86.19 47.448L87.286 47.872C86.9447 48.624 86.4407 49.208 85.774 49.624C85.1127 50.0347 84.3633 50.24 83.526 50.24ZM80.222 46.008V45.024H86.822V46.008H80.222ZM95.235 50V45.592C95.235 45.112 95.1897 44.672 95.099 44.272C95.0083 43.8667 94.8617 43.5147 94.659 43.216C94.4617 42.912 94.203 42.6773 93.883 42.512C93.5683 42.3467 93.1843 42.264 92.731 42.264C92.315 42.264 91.947 42.336 91.627 42.48C91.3123 42.624 91.0457 42.832 90.827 43.104C90.6137 43.3707 90.451 43.696 90.339 44.08C90.227 44.464 90.171 44.9013 90.171 45.392L89.339 45.208C89.339 44.3227 89.4937 43.5787 89.803 42.976C90.1123 42.3733 90.539 41.9173 91.083 41.608C91.627 41.2987 92.251 41.144 92.955 41.144C93.4723 41.144 93.923 41.224 94.307 41.384C94.6963 41.544 95.0243 41.76 95.291 42.032C95.563 42.304 95.7817 42.616 95.947 42.968C96.1123 43.3147 96.2323 43.6853 96.307 44.08C96.3817 44.4693 96.419 44.8587 96.419 45.248V50H95.235ZM88.987 50V41.36H90.051V43.488H90.171V50H88.987ZM105.698 50.24C104.893 50.24 104.167 50.1067 103.522 49.84C102.882 49.568 102.351 49.184 101.93 48.688C101.514 48.192 101.242 47.6027 101.114 46.92L102.314 46.72C102.506 47.4667 102.911 48.0533 103.53 48.48C104.149 48.9013 104.887 49.112 105.746 49.112C106.311 49.112 106.818 49.024 107.266 48.848C107.714 48.6667 108.066 48.4107 108.322 48.08C108.578 47.7493 108.706 47.3573 108.706 46.904C108.706 46.6053 108.653 46.352 108.546 46.144C108.439 45.9307 108.298 45.7547 108.122 45.616C107.946 45.4773 107.754 45.3627 107.546 45.272C107.338 45.176 107.135 45.0987 106.938 45.04L104.018 44.168C103.666 44.0667 103.341 43.9387 103.042 43.784C102.743 43.624 102.482 43.4347 102.258 43.216C102.039 42.992 101.869 42.7307 101.746 42.432C101.623 42.1333 101.562 41.792 101.562 41.408C101.562 40.7573 101.733 40.1947 102.074 39.72C102.415 39.2453 102.882 38.88 103.474 38.624C104.066 38.368 104.741 38.2427 105.498 38.248C106.266 38.248 106.951 38.384 107.554 38.656C108.162 38.928 108.663 39.3173 109.058 39.824C109.453 40.3253 109.714 40.92 109.842 41.608L108.61 41.832C108.53 41.3307 108.346 40.896 108.058 40.528C107.77 40.16 107.402 39.8773 106.954 39.68C106.511 39.4773 106.023 39.3733 105.49 39.368C104.973 39.368 104.511 39.456 104.106 39.632C103.706 39.8027 103.389 40.0373 103.154 40.336C102.919 40.6347 102.802 40.976 102.802 41.36C102.802 41.7493 102.909 42.0613 103.122 42.296C103.341 42.5307 103.607 42.7147 103.922 42.848C104.242 42.9813 104.551 43.0907 104.85 43.176L107.106 43.84C107.341 43.904 107.615 43.9973 107.93 44.12C108.25 44.2373 108.559 44.408 108.858 44.632C109.162 44.8507 109.413 45.1387 109.61 45.496C109.807 45.8533 109.906 46.3067 109.906 46.856C109.906 47.3893 109.799 47.8667 109.586 48.288C109.378 48.7093 109.082 49.064 108.698 49.352C108.319 49.64 107.874 49.8587 107.362 50.008C106.855 50.1627 106.301 50.24 105.698 50.24ZM111.718 39.72V38.4H112.894V39.72H111.718ZM111.718 50V41.36H112.894V50H111.718ZM118.948 50.24C118.105 50.24 117.375 50.0533 116.756 49.68C116.143 49.3067 115.665 48.7813 115.324 48.104C114.983 47.4267 114.812 46.632 114.812 45.72C114.812 44.776 114.98 43.96 115.316 43.272C115.652 42.584 116.124 42.0533 116.732 41.68C117.345 41.3067 118.068 41.12 118.9 41.12C119.753 41.12 120.481 41.3173 121.084 41.712C121.687 42.1013 122.143 42.6613 122.452 43.392C122.761 44.1227 122.903 44.9947 122.876 46.008H121.676V45.592C121.655 44.472 121.412 43.6267 120.948 43.056C120.489 42.4853 119.817 42.2 118.932 42.2C118.004 42.2 117.292 42.5013 116.796 43.104C116.305 43.7067 116.06 44.5653 116.06 45.68C116.06 46.768 116.305 47.6133 116.796 48.216C117.292 48.8133 117.993 49.112 118.9 49.112C119.519 49.112 120.057 48.9707 120.516 48.688C120.98 48.4 121.345 47.9867 121.612 47.448L122.708 47.872C122.367 48.624 121.863 49.208 121.196 49.624C120.535 50.0347 119.785 50.24 118.948 50.24ZM115.644 46.008V45.024H122.244V46.008H115.644ZM131.158 50.216C130.641 50.216 130.188 50.136 129.798 49.976C129.414 49.816 129.086 49.6 128.814 49.328C128.548 49.056 128.332 48.7467 128.166 48.4C128.001 48.048 127.881 47.6773 127.806 47.288C127.732 46.8933 127.694 46.5013 127.694 46.112V41.36H128.878V45.768C128.878 46.2427 128.924 46.6827 129.014 47.088C129.105 47.4933 129.249 47.848 129.446 48.152C129.649 48.4507 129.908 48.6827 130.222 48.848C130.542 49.0133 130.929 49.096 131.382 49.096C131.798 49.096 132.164 49.024 132.478 48.88C132.798 48.736 133.065 48.5307 133.278 48.264C133.497 47.992 133.662 47.664 133.774 47.28C133.886 46.8907 133.942 46.4533 133.942 45.968L134.774 46.152C134.774 47.0373 134.62 47.7813 134.31 48.384C134.001 48.9867 133.574 49.4427 133.03 49.752C132.486 50.0613 131.862 50.216 131.158 50.216ZM134.062 50V47.872H133.942V41.36H135.118V50H134.062ZM143.594 50V45.592C143.594 45.112 143.549 44.672 143.458 44.272C143.368 43.8667 143.221 43.5147 143.018 43.216C142.821 42.912 142.562 42.6773 142.242 42.512C141.928 42.3467 141.544 42.264 141.09 42.264C140.674 42.264 140.306 42.336 139.986 42.48C139.672 42.624 139.405 42.832 139.186 43.104C138.973 43.3707 138.81 43.696 138.698 44.08C138.586 44.464 138.53 44.9013 138.53 45.392L137.698 45.208C137.698 44.3227 137.853 43.5787 138.162 42.976C138.472 42.3733 138.898 41.9173 139.442 41.608C139.986 41.2987 140.61 41.144 141.314 41.144C141.832 41.144 142.282 41.224 142.666 41.384C143.056 41.544 143.384 41.76 143.65 42.032C143.922 42.304 144.141 42.616 144.306 42.968C144.472 43.3147 144.592 43.6853 144.666 44.08C144.741 44.4693 144.778 44.8587 144.778 45.248V50H143.594ZM137.346 50V41.36H138.41V43.488H138.53V50H137.346ZM150.078 50.232C149.065 50.232 148.23 50.0133 147.574 49.576C146.924 49.1387 146.524 48.5307 146.374 47.752L147.574 47.552C147.702 48.0427 147.993 48.4347 148.446 48.728C148.905 49.016 149.47 49.16 150.142 49.16C150.798 49.16 151.316 49.024 151.694 48.752C152.073 48.4747 152.262 48.0987 152.262 47.624C152.262 47.3573 152.201 47.1413 152.078 46.976C151.961 46.8053 151.718 46.648 151.35 46.504C150.982 46.36 150.433 46.1893 149.702 45.992C148.918 45.7787 148.305 45.5653 147.862 45.352C147.42 45.1387 147.105 44.8933 146.918 44.616C146.732 44.3333 146.638 43.9893 146.638 43.584C146.638 43.0933 146.777 42.664 147.054 42.296C147.332 41.9227 147.716 41.6347 148.206 41.432C148.697 41.224 149.268 41.12 149.918 41.12C150.569 41.12 151.15 41.2267 151.662 41.44C152.18 41.648 152.596 41.9413 152.91 42.32C153.225 42.6987 153.412 43.1387 153.47 43.64L152.27 43.856C152.19 43.3493 151.937 42.9493 151.51 42.656C151.089 42.3573 150.553 42.2027 149.902 42.192C149.289 42.176 148.79 42.2933 148.406 42.544C148.022 42.7893 147.83 43.1173 147.83 43.528C147.83 43.7573 147.9 43.9547 148.038 44.12C148.177 44.28 148.428 44.432 148.79 44.576C149.158 44.72 149.681 44.8773 150.358 45.048C151.153 45.2507 151.777 45.464 152.23 45.688C152.684 45.912 153.006 46.176 153.198 46.48C153.39 46.784 153.486 47.16 153.486 47.608C153.486 48.424 153.182 49.0667 152.574 49.536C151.972 50 151.14 50.232 150.078 50.232ZM158.456 50L158.464 38.48H159.648V45.52L163.504 41.36H165.072L161.024 45.68L165.6 50H163.888L159.648 45.84V50H158.456ZM169.901 50.24C169.058 50.24 168.328 50.0533 167.709 49.68C167.096 49.3067 166.618 48.7813 166.277 48.104C165.936 47.4267 165.765 46.632 165.765 45.72C165.765 44.776 165.933 43.96 166.269 43.272C166.605 42.584 167.077 42.0533 167.685 41.68C168.298 41.3067 169.021 41.12 169.853 41.12C170.706 41.12 171.434 41.3173 172.037 41.712C172.64 42.1013 173.096 42.6613 173.405 43.392C173.714 44.1227 173.856 44.9947 173.829 46.008H172.629V45.592C172.608 44.472 172.365 43.6267 171.901 43.056C171.442 42.4853 170.77 42.2 169.885 42.2C168.957 42.2 168.245 42.5013 167.749 43.104C167.258 43.7067 167.013 44.5653 167.013 45.68C167.013 46.768 167.258 47.6133 167.749 48.216C168.245 48.8133 168.946 49.112 169.853 49.112C170.472 49.112 171.01 48.9707 171.469 48.688C171.933 48.4 172.298 47.9867 172.565 47.448L173.661 47.872C173.32 48.624 172.816 49.208 172.149 49.624C171.488 50.0347 170.738 50.24 169.901 50.24ZM166.597 46.008V45.024H173.197V46.008H166.597ZM181.61 50V45.592C181.61 45.112 181.565 44.672 181.474 44.272C181.383 43.8667 181.237 43.5147 181.034 43.216C180.837 42.912 180.578 42.6773 180.258 42.512C179.943 42.3467 179.559 42.264 179.106 42.264C178.69 42.264 178.322 42.336 178.002 42.48C177.687 42.624 177.421 42.832 177.202 43.104C176.989 43.3707 176.826 43.696 176.714 44.08C176.602 44.464 176.546 44.9013 176.546 45.392L175.714 45.208C175.714 44.3227 175.869 43.5787 176.178 42.976C176.487 42.3733 176.914 41.9173 177.458 41.608C178.002 41.2987 178.626 41.144 179.33 41.144C179.847 41.144 180.298 41.224 180.682 41.384C181.071 41.544 181.399 41.76 181.666 42.032C181.938 42.304 182.157 42.616 182.322 42.968C182.487 43.3147 182.607 43.6853 182.682 44.08C182.757 44.4693 182.794 44.8587 182.794 45.248V50H181.61ZM175.362 50V41.36H176.426V43.488H176.546V50H175.362ZM191.11 50V45.592C191.11 45.112 191.065 44.672 190.974 44.272C190.883 43.8667 190.737 43.5147 190.534 43.216C190.337 42.912 190.078 42.6773 189.758 42.512C189.443 42.3467 189.059 42.264 188.606 42.264C188.19 42.264 187.822 42.336 187.502 42.48C187.187 42.624 186.921 42.832 186.702 43.104C186.489 43.3707 186.326 43.696 186.214 44.08C186.102 44.464 186.046 44.9013 186.046 45.392L185.214 45.208C185.214 44.3227 185.369 43.5787 185.678 42.976C185.987 42.3733 186.414 41.9173 186.958 41.608C187.502 41.2987 188.126 41.144 188.83 41.144C189.347 41.144 189.798 41.224 190.182 41.384C190.571 41.544 190.899 41.76 191.166 42.032C191.438 42.304 191.657 42.616 191.822 42.968C191.987 43.3147 192.107 43.6853 192.182 44.08C192.257 44.4693 192.294 44.8587 192.294 45.248V50H191.11ZM184.862 50V41.36H185.926V43.488H186.046V50H184.862ZM197.979 50.24C197.136 50.24 196.406 50.0533 195.787 49.68C195.174 49.3067 194.696 48.7813 194.355 48.104C194.014 47.4267 193.843 46.632 193.843 45.72C193.843 44.776 194.011 43.96 194.347 43.272C194.683 42.584 195.155 42.0533 195.763 41.68C196.376 41.3067 197.099 41.12 197.931 41.12C198.784 41.12 199.512 41.3173 200.115 41.712C200.718 42.1013 201.174 42.6613 201.483 43.392C201.792 44.1227 201.934 44.9947 201.907 46.008H200.707V45.592C200.686 44.472 200.443 43.6267 199.979 43.056C199.52 42.4853 198.848 42.2 197.963 42.2C197.035 42.2 196.323 42.5013 195.827 43.104C195.336 43.7067 195.091 44.5653 195.091 45.68C195.091 46.768 195.336 47.6133 195.827 48.216C196.323 48.8133 197.024 49.112 197.931 49.112C198.55 49.112 199.088 48.9707 199.547 48.688C200.011 48.4 200.376 47.9867 200.643 47.448L201.739 47.872C201.398 48.624 200.894 49.208 200.227 49.624C199.566 50.0347 198.816 50.24 197.979 50.24ZM194.675 46.008V45.024H201.275V46.008H194.675ZM209.688 50V45.592C209.688 45.112 209.643 44.672 209.552 44.272C209.461 43.8667 209.315 43.5147 209.112 43.216C208.915 42.912 208.656 42.6773 208.336 42.512C208.021 42.3467 207.637 42.264 207.184 42.264C206.768 42.264 206.4 42.336 206.08 42.48C205.765 42.624 205.499 42.832 205.28 43.104C205.067 43.3707 204.904 43.696 204.792 44.08C204.68 44.464 204.624 44.9013 204.624 45.392L203.792 45.208C203.792 44.3227 203.947 43.5787 204.256 42.976C204.565 42.3733 204.992 41.9173 205.536 41.608C206.08 41.2987 206.704 41.144 207.408 41.144C207.925 41.144 208.376 41.224 208.76 41.384C209.149 41.544 209.477 41.76 209.744 42.032C210.016 42.304 210.235 42.616 210.4 42.968C210.565 43.3147 210.685 43.6853 210.76 44.08C210.835 44.4693 210.872 44.8587 210.872 45.248V50H209.688ZM203.44 50V41.36H204.504V43.488H204.624V50H203.44Z" fill="white"/>
<circle cx="21" cy="21" r="21" fill="#121921"/>
<g clip-path="url(#clip0_229_2721)">
<path d="M32.8699 20.3708C32.4237 17.5787 30.9917 15.0199 28.8376 13.166C26.8377 11.4448 24.3268 10.4344 21.7022 10.281V9H20.2978V10.281C17.6731 10.4344 15.162 11.4448 13.1623 13.166C11.0083 15.0199 9.57623 17.5787 9.13 20.3708L9 21.1838H10.6002L10.8003 20.8202C11.3351 19.8486 12.3549 19.2451 13.4617 19.2451C14.5688 19.2451 15.5885 19.8486 16.1233 20.8202L16.3235 21.1838H18.1384L18.3385 20.8202C18.8734 19.8486 19.8931 19.2451 21 19.2451C22.1068 19.2451 23.1267 19.8486 23.6614 20.8202L23.8615 21.1838H25.6767L25.8768 20.8202C26.4115 19.8486 27.4314 19.2451 28.5382 19.2451C29.6451 19.2451 30.665 19.8486 31.1997 20.8202L31.3998 21.1838H33L32.8699 20.3708ZM13.4617 17.8407C12.5911 17.8407 11.7574 18.0959 11.051 18.5528C12.3409 15.071 15.3603 12.5273 19.0221 11.846C18.019 13.0774 17.2926 14.6962 16.8876 16.6294C16.6913 17.566 16.6001 18.4274 16.5593 19.1008C15.7416 18.3047 14.6354 17.8407 13.4617 17.8407ZM21 17.8407C19.8596 17.8407 18.7829 18.2787 17.9725 19.034C18.1067 17.1194 18.6819 13.7226 20.9998 11.8379C23.3104 13.7183 23.8886 17.1158 24.0252 19.032C23.2152 18.2779 22.1393 17.8407 21 17.8407ZM28.5382 17.8407C27.3645 17.8407 26.2584 18.3047 25.4406 19.1008C25.3998 18.4274 25.3086 17.566 25.1125 16.6294C24.7073 14.6962 23.9811 13.0774 22.9779 11.846C26.6398 12.5273 29.659 15.071 30.949 18.5528C30.2426 18.0959 29.4089 17.8407 28.5382 17.8407Z" fill="#33E47A"/>
<path d="M23.2999 23.0745H18.6995V25.7212H16.0527V30.3214H18.6995V32.9684H23.2999V30.3214H25.9466V25.7212H23.2999V23.0745ZM24.5422 27.1257V28.917H21.8954V31.5638H20.1039V28.917H17.4572V27.1257H20.1039V24.4789H21.8954V27.1257H24.5422Z" fill="#33E47A"/>
</g>
<defs>
<clipPath id="clip0_229_2721">
<rect width="24" height="24" fill="white" transform="translate(9 9)"/>
</clipPath>
</defs>
</svg>
