<svg width="198" height="65" viewBox="0 0 198 65" fill="none" xmlns="http://www.w3.org/2000/svg">
<path d="M0 31C0 25.4772 4.47715 21 10 21H177V55C177 60.5228 172.523 65 167 65H10C4.47715 65 0 60.5228 0 55V31Z" fill="#6FB9FE"/>
<path d="M32.4826 50L29.1546 38.48H30.3786L33.0746 47.992L35.7546 38.488L36.9866 38.48L39.6826 47.992L42.3626 38.48H43.5946L40.2746 50H39.0906L36.3706 40.552L33.6666 50H32.4826ZM44.8269 39.72V38.4H46.0029V39.72H44.8269ZM44.8269 50V41.36H46.0029V50H44.8269ZM48.4013 50V41.36H49.4573V43.44L49.2493 43.168C49.3453 42.912 49.4706 42.6773 49.6253 42.464C49.7799 42.2453 49.9479 42.0667 50.1293 41.928C50.3533 41.7307 50.6146 41.5813 50.9133 41.48C51.2119 41.3733 51.5133 41.312 51.8173 41.296C52.1213 41.2747 52.3986 41.296 52.6493 41.36V42.464C52.3346 42.384 51.9906 42.3653 51.6173 42.408C51.2439 42.4507 50.8999 42.6 50.5853 42.856C50.2973 43.08 50.0813 43.3493 49.9373 43.664C49.7933 43.9733 49.6973 44.304 49.6493 44.656C49.6013 45.0027 49.5773 45.3467 49.5773 45.688V50H48.4013ZM60.594 50.232C59.5807 50.232 58.746 50.0133 58.09 49.576C57.4393 49.1387 57.0393 48.5307 56.89 47.752L58.09 47.552C58.218 48.0427 58.5087 48.4347 58.962 48.728C59.4207 49.016 59.986 49.16 60.658 49.16C61.314 49.16 61.8313 49.024 62.21 48.752C62.5887 48.4747 62.778 48.0987 62.778 47.624C62.778 47.3573 62.7167 47.1413 62.594 46.976C62.4767 46.8053 62.234 46.648 61.866 46.504C61.498 46.36 60.9487 46.1893 60.218 45.992C59.434 45.7787 58.8207 45.5653 58.378 45.352C57.9353 45.1387 57.6207 44.8933 57.434 44.616C57.2473 44.3333 57.154 43.9893 57.154 43.584C57.154 43.0933 57.2927 42.664 57.57 42.296C57.8473 41.9227 58.2313 41.6347 58.722 41.432C59.2127 41.224 59.7833 41.12 60.434 41.12C61.0847 41.12 61.666 41.2267 62.178 41.44C62.6953 41.648 63.1113 41.9413 63.426 42.32C63.7407 42.6987 63.9273 43.1387 63.986 43.64L62.786 43.856C62.706 43.3493 62.4527 42.9493 62.026 42.656C61.6047 42.3573 61.0687 42.2027 60.418 42.192C59.8047 42.176 59.306 42.2933 58.922 42.544C58.538 42.7893 58.346 43.1173 58.346 43.528C58.346 43.7573 58.4153 43.9547 58.554 44.12C58.6927 44.28 58.9433 44.432 59.306 44.576C59.674 44.72 60.1967 44.8773 60.874 45.048C61.6687 45.2507 62.2927 45.464 62.746 45.688C63.1993 45.912 63.522 46.176 63.714 46.48C63.906 46.784 64.002 47.16 64.002 47.608C64.002 48.424 63.698 49.0667 63.09 49.536C62.4873 50 61.6553 50.232 60.594 50.232ZM70.4803 50C69.9949 50.1013 69.5149 50.1413 69.0403 50.12C68.5709 50.0987 68.1496 49.9973 67.7763 49.816C67.4083 49.6347 67.1283 49.352 66.9363 48.968C66.7816 48.648 66.6963 48.3253 66.6803 48C66.6696 47.6693 66.6643 47.2933 66.6643 46.872V38.96H67.8323V46.824C67.8323 47.1867 67.8349 47.4907 67.8403 47.736C67.8509 47.976 67.9069 48.1893 68.0083 48.376C68.2003 48.7333 68.5043 48.9467 68.9203 49.016C69.3416 49.0853 69.8616 49.0693 70.4803 48.968V50ZM64.8163 42.368V41.36H70.4803V42.368H64.8163ZM75.526 50.24C74.6833 50.24 73.9527 50.0533 73.334 49.68C72.7207 49.3067 72.2433 48.7813 71.902 48.104C71.5607 47.4267 71.39 46.632 71.39 45.72C71.39 44.776 71.558 43.96 71.894 43.272C72.23 42.584 72.702 42.0533 73.31 41.68C73.9233 41.3067 74.646 41.12 75.478 41.12C76.3313 41.12 77.0593 41.3173 77.662 41.712C78.2647 42.1013 78.7207 42.6613 79.03 43.392C79.3393 44.1227 79.4807 44.9947 79.454 46.008H78.254V45.592C78.2327 44.472 77.99 43.6267 77.526 43.056C77.0673 42.4853 76.3953 42.2 75.51 42.2C74.582 42.2 73.87 42.5013 73.374 43.104C72.8833 43.7067 72.638 44.5653 72.638 45.68C72.638 46.768 72.8833 47.6133 73.374 48.216C73.87 48.8133 74.5713 49.112 75.478 49.112C76.0967 49.112 76.6353 48.9707 77.094 48.688C77.558 48.4 77.9233 47.9867 78.19 47.448L79.286 47.872C78.9447 48.624 78.4407 49.208 77.774 49.624C77.1127 50.0347 76.3633 50.24 75.526 50.24ZM72.222 46.008V45.024H78.822V46.008H72.222ZM81.3894 50V38.24H82.5654V50H81.3894ZM85.1238 50V38.24H86.2998V50H85.1238ZM92.3541 50.24C91.5115 50.24 90.7808 50.0533 90.1621 49.68C89.5488 49.3067 89.0715 48.7813 88.7301 48.104C88.3888 47.4267 88.2181 46.632 88.2181 45.72C88.2181 44.776 88.3861 43.96 88.7221 43.272C89.0581 42.584 89.5301 42.0533 90.1381 41.68C90.7515 41.3067 91.4741 41.12 92.3061 41.12C93.1595 41.12 93.8875 41.3173 94.4901 41.712C95.0928 42.1013 95.5488 42.6613 95.8581 43.392C96.1675 44.1227 96.3088 44.9947 96.2821 46.008H95.0821V45.592C95.0608 44.472 94.8181 43.6267 94.3541 43.056C93.8955 42.4853 93.2235 42.2 92.3381 42.2C91.4101 42.2 90.6981 42.5013 90.2021 43.104C89.7115 43.7067 89.4661 44.5653 89.4661 45.68C89.4661 46.768 89.7115 47.6133 90.2021 48.216C90.6981 48.8133 91.3995 49.112 92.3061 49.112C92.9248 49.112 93.4635 48.9707 93.9221 48.688C94.3861 48.4 94.7515 47.9867 95.0181 47.448L96.1141 47.872C95.7728 48.624 95.2688 49.208 94.6021 49.624C93.9408 50.0347 93.1915 50.24 92.3541 50.24ZM89.0501 46.008V45.024H95.6501V46.008H89.0501ZM104.063 50V45.592C104.063 45.112 104.018 44.672 103.927 44.272C103.836 43.8667 103.69 43.5147 103.487 43.216C103.29 42.912 103.031 42.6773 102.711 42.512C102.396 42.3467 102.012 42.264 101.559 42.264C101.143 42.264 100.775 42.336 100.455 42.48C100.14 42.624 99.8738 42.832 99.6551 43.104C99.4418 43.3707 99.2791 43.696 99.1671 44.08C99.0551 44.464 98.9991 44.9013 98.9991 45.392L98.1671 45.208C98.1671 44.3227 98.3218 43.5787 98.6311 42.976C98.9405 42.3733 99.3671 41.9173 99.9111 41.608C100.455 41.2987 101.079 41.144 101.783 41.144C102.3 41.144 102.751 41.224 103.135 41.384C103.524 41.544 103.852 41.76 104.119 42.032C104.391 42.304 104.61 42.616 104.775 42.968C104.94 43.3147 105.06 43.6853 105.135 44.08C105.21 44.4693 105.247 44.8587 105.247 45.248V50H104.063ZM97.8151 50V41.36H98.8791V43.488H98.9991V50H97.8151ZM114.182 50.24C113.34 50.24 112.609 50.0533 111.99 49.68C111.377 49.3067 110.9 48.7813 110.558 48.104C110.217 47.4267 110.046 46.632 110.046 45.72C110.046 44.776 110.214 43.96 110.55 43.272C110.886 42.584 111.358 42.0533 111.966 41.68C112.58 41.3067 113.302 41.12 114.134 41.12C114.988 41.12 115.716 41.3173 116.318 41.712C116.921 42.1013 117.377 42.6613 117.686 43.392C117.996 44.1227 118.137 44.9947 118.11 46.008H116.91V45.592C116.889 44.472 116.646 43.6267 116.182 43.056C115.724 42.4853 115.052 42.2 114.166 42.2C113.238 42.2 112.526 42.5013 112.03 43.104C111.54 43.7067 111.294 44.5653 111.294 45.68C111.294 46.768 111.54 47.6133 112.03 48.216C112.526 48.8133 113.228 49.112 114.134 49.112C114.753 49.112 115.292 48.9707 115.75 48.688C116.214 48.4 116.58 47.9867 116.846 47.448L117.942 47.872C117.601 48.624 117.097 49.208 116.43 49.624C115.769 50.0347 115.02 50.24 114.182 50.24ZM110.878 46.008V45.024H117.478V46.008H110.878ZM120.046 39.72V38.4H121.222V39.72H120.046ZM120.046 50V41.36H121.222V50H120.046ZM129.86 50V45.592C129.86 45.112 129.815 44.672 129.724 44.272C129.633 43.8667 129.487 43.5147 129.284 43.216C129.087 42.912 128.828 42.6773 128.508 42.512C128.193 42.3467 127.809 42.264 127.356 42.264C126.94 42.264 126.572 42.336 126.252 42.48C125.937 42.624 125.671 42.832 125.452 43.104C125.239 43.3707 125.076 43.696 124.964 44.08C124.852 44.464 124.796 44.9013 124.796 45.392L123.964 45.208C123.964 44.3227 124.119 43.5787 124.428 42.976C124.737 42.3733 125.164 41.9173 125.708 41.608C126.252 41.2987 126.876 41.144 127.58 41.144C128.097 41.144 128.548 41.224 128.932 41.384C129.321 41.544 129.649 41.76 129.916 42.032C130.188 42.304 130.407 42.616 130.572 42.968C130.737 43.3147 130.857 43.6853 130.932 44.08C131.007 44.4693 131.044 44.8587 131.044 45.248V50H129.86ZM123.612 50V41.36H124.676V43.488H124.796V50H123.612Z" fill="white"/>
<circle cx="177" cy="21" r="21" fill="#121921"/>
<g clip-path="url(#clip0_635_2673)">
<path d="M188.482 17.0138C187.683 16.7355 187.051 16.1215 186.749 15.3298L186.576 14.8782H181.01L180.838 15.3298C180.776 15.4935 180.699 15.6493 180.61 15.7963L175.674 12L164.953 20.2467L167.505 23.5638L168.971 22.4361V28.6049H167.571V30.0086H183.777V28.6049H182.377V25.9195C182.629 26.087 182.891 26.2408 183.162 26.3807L183.793 26.7074L184.425 26.3807C185.789 25.6756 186.933 24.6088 187.732 23.2967C188.531 21.9846 188.953 20.4789 188.953 18.9426V17.178L188.482 17.0138ZM187.549 18.9426C187.549 21.555 186.11 23.9233 183.793 25.1272C183.275 24.8577 182.801 24.5306 182.377 24.1553C181.816 23.6594 181.344 23.0795 180.973 22.4394C180.682 21.9379 180.455 21.3997 180.296 20.8359C180.127 20.2295 180.037 19.5936 180.037 18.9426V18.1434C180.297 18.0161 180.542 17.8641 180.769 17.6895C181.142 17.4009 181.467 17.0522 181.727 16.6558C181.807 16.5357 181.879 16.4106 181.946 16.2819H185.64C186.061 17.0914 186.729 17.7429 187.549 18.1434V18.9426ZM167.762 21.5953L166.922 20.5032L175.674 13.7712L179.596 16.7884C179.441 16.8781 179.276 16.9536 179.104 17.0138L178.633 17.178V17.7854L175.674 15.509L167.762 21.5953ZM176.644 28.6049H174.704V23.9335H176.644V28.6049ZM178.048 28.6049V22.5298H173.3V28.6049H170.375V21.3561L175.674 17.28L178.658 19.5753C178.757 20.8898 179.165 22.1653 179.854 23.2967C180.174 23.8226 180.55 24.3089 180.973 24.7487V28.6047H178.048V28.6049Z" fill="#6FB9FE"/>
<path d="M184.788 19.0109L183.768 19.9969L183.481 20.2743L182.323 19.1802L181.534 20.0165L181.359 20.2012L182.377 21.1624L183.492 22.2158L185.913 19.876L186.63 19.1826L185.655 18.1733L184.788 19.0109Z" fill="#6FB9FE"/>
</g>
<defs>
<clipPath id="clip0_635_2673">
<rect width="24" height="24" fill="white" transform="translate(165 9)"/>
</clipPath>
</defs>
</svg>
