<svg width="186" height="66" viewBox="0 0 186 66" fill="none" xmlns="http://www.w3.org/2000/svg">
<path d="M21 21.5H176C181.523 21.5 186 25.9772 186 31.5V55.5C186 61.0228 181.523 65.5 176 65.5H31C25.4772 65.5 21 61.0228 21 55.5V21.5Z" fill="#33E47A"/>
<path d="M64.28 49.5V37.98H65.456V49.5H64.28ZM74.0944 49.5V45.092C74.0944 44.612 74.049 44.172 73.9584 43.772C73.8677 43.3667 73.721 43.0147 73.5184 42.716C73.321 42.412 73.0624 42.1773 72.7424 42.012C72.4277 41.8467 72.0437 41.764 71.5904 41.764C71.1744 41.764 70.8064 41.836 70.4864 41.98C70.1717 42.124 69.905 42.332 69.6864 42.604C69.473 42.8707 69.3104 43.196 69.1984 43.58C69.0864 43.964 69.0304 44.4013 69.0304 44.892L68.1984 44.708C68.1984 43.8227 68.353 43.0787 68.6624 42.476C68.9717 41.8733 69.3984 41.4173 69.9424 41.108C70.4864 40.7987 71.1104 40.644 71.8144 40.644C72.3317 40.644 72.7824 40.724 73.1664 40.884C73.5557 41.044 73.8837 41.26 74.1504 41.532C74.4224 41.804 74.641 42.116 74.8064 42.468C74.9717 42.8147 75.0917 43.1853 75.1664 43.58C75.241 43.9693 75.2784 44.3587 75.2784 44.748V49.5H74.0944ZM67.8464 49.5V37.98H68.9104V44.484H69.0304V49.5H67.8464ZM77.3544 49.5V40.86H78.4104V42.94L78.2024 42.668C78.2984 42.412 78.4237 42.1773 78.5784 41.964C78.733 41.7453 78.901 41.5667 79.0824 41.428C79.3064 41.2307 79.5677 41.0813 79.8664 40.98C80.165 40.8733 80.4664 40.812 80.7704 40.796C81.0744 40.7747 81.3517 40.796 81.6024 40.86V41.964C81.2877 41.884 80.9437 41.8653 80.5704 41.908C80.197 41.9507 79.853 42.1 79.5384 42.356C79.2504 42.58 79.0344 42.8493 78.8904 43.164C78.7464 43.4733 78.6504 43.804 78.6024 44.156C78.5544 44.5027 78.5304 44.8467 78.5304 45.188V49.5H77.3544ZM86.6198 49.74C85.7771 49.74 85.0464 49.5533 84.4278 49.18C83.8144 48.8067 83.3371 48.2813 82.9958 47.604C82.6544 46.9267 82.4838 46.132 82.4838 45.22C82.4838 44.276 82.6518 43.46 82.9878 42.772C83.3238 42.084 83.7958 41.5533 84.4038 41.18C85.0171 40.8067 85.7398 40.62 86.5718 40.62C87.4251 40.62 88.1531 40.8173 88.7558 41.212C89.3584 41.6013 89.8144 42.1613 90.1238 42.892C90.4331 43.6227 90.5744 44.4947 90.5478 45.508H89.3478V45.092C89.3264 43.972 89.0838 43.1267 88.6198 42.556C88.1611 41.9853 87.4891 41.7 86.6038 41.7C85.6758 41.7 84.9638 42.0013 84.4678 42.604C83.9771 43.2067 83.7318 44.0653 83.7318 45.18C83.7318 46.268 83.9771 47.1133 84.4678 47.716C84.9638 48.3133 85.6651 48.612 86.5718 48.612C87.1904 48.612 87.7291 48.4707 88.1878 48.188C88.6518 47.9 89.0171 47.4867 89.2838 46.948L90.3798 47.372C90.0384 48.124 89.5344 48.708 88.8678 49.124C88.2064 49.5347 87.4571 49.74 86.6198 49.74ZM83.3158 45.508V44.524H89.9158V45.508H83.3158ZM95.2063 49.5V49.252L101.502 39.108H95.3663V37.98H103.43V38.252L97.1663 48.38H103.374V49.5H95.2063ZM108.658 49.716C108.141 49.716 107.688 49.636 107.298 49.476C106.914 49.316 106.586 49.1 106.314 48.828C106.048 48.556 105.832 48.2467 105.666 47.9C105.501 47.548 105.381 47.1773 105.306 46.788C105.232 46.3933 105.194 46.0013 105.194 45.612V40.86H106.378V45.268C106.378 45.7427 106.424 46.1827 106.514 46.588C106.605 46.9933 106.749 47.348 106.946 47.652C107.149 47.9507 107.408 48.1827 107.722 48.348C108.042 48.5133 108.429 48.596 108.882 48.596C109.298 48.596 109.664 48.524 109.978 48.38C110.298 48.236 110.565 48.0307 110.778 47.764C110.997 47.492 111.162 47.164 111.274 46.78C111.386 46.3907 111.442 45.9533 111.442 45.468L112.274 45.652C112.274 46.5373 112.12 47.2813 111.81 47.884C111.501 48.4867 111.074 48.9427 110.53 49.252C109.986 49.5613 109.362 49.716 108.658 49.716ZM111.562 49.5V47.372H111.442V40.86H112.618V49.5H111.562ZM114.846 49.5L114.854 37.98H116.038V45.02L119.894 40.86H121.462L117.414 45.18L121.99 49.5H120.278L116.038 45.34V49.5H114.846ZM126.096 49.716C125.579 49.716 125.125 49.636 124.736 49.476C124.352 49.316 124.024 49.1 123.752 48.828C123.485 48.556 123.269 48.2467 123.104 47.9C122.939 47.548 122.819 47.1773 122.744 46.788C122.669 46.3933 122.632 46.0013 122.632 45.612V40.86H123.816V45.268C123.816 45.7427 123.861 46.1827 123.952 46.588C124.043 46.9933 124.187 47.348 124.384 47.652C124.587 47.9507 124.845 48.1827 125.16 48.348C125.48 48.5133 125.867 48.596 126.32 48.596C126.736 48.596 127.101 48.524 127.416 48.38C127.736 48.236 128.003 48.0307 128.216 47.764C128.435 47.492 128.6 47.164 128.712 46.78C128.824 46.3907 128.88 45.9533 128.88 45.468L129.712 45.652C129.712 46.5373 129.557 47.2813 129.248 47.884C128.939 48.4867 128.512 48.9427 127.968 49.252C127.424 49.5613 126.8 49.716 126.096 49.716ZM129 49.5V47.372H128.88V40.86H130.056V49.5H129ZM138.532 49.5V45.092C138.532 44.612 138.487 44.172 138.396 43.772C138.305 43.3667 138.159 43.0147 137.956 42.716C137.759 42.412 137.5 42.1773 137.18 42.012C136.865 41.8467 136.481 41.764 136.028 41.764C135.612 41.764 135.244 41.836 134.924 41.98C134.609 42.124 134.343 42.332 134.124 42.604C133.911 42.8707 133.748 43.196 133.636 43.58C133.524 43.964 133.468 44.4013 133.468 44.892L132.636 44.708C132.636 43.8227 132.791 43.0787 133.1 42.476C133.409 41.8733 133.836 41.4173 134.38 41.108C134.924 40.7987 135.548 40.644 136.252 40.644C136.769 40.644 137.22 40.724 137.604 40.884C137.993 41.044 138.321 41.26 138.588 41.532C138.86 41.804 139.079 42.116 139.244 42.468C139.409 42.8147 139.529 43.1853 139.604 43.58C139.679 43.9693 139.716 44.3587 139.716 44.748V49.5H138.532ZM132.284 49.5V40.86H133.348V42.988H133.468V49.5H132.284ZM142.648 49.5V40.22C142.648 39.996 142.659 39.7747 142.68 39.556C142.707 39.3373 142.757 39.1293 142.832 38.932C142.907 38.7293 143.024 38.5427 143.184 38.372C143.36 38.18 143.552 38.0413 143.76 37.956C143.968 37.8653 144.184 37.8067 144.408 37.78C144.637 37.7533 144.861 37.74 145.08 37.74H146.184V38.732H145.16C144.712 38.732 144.376 38.8413 144.152 39.06C143.933 39.2787 143.824 39.6227 143.824 40.092V49.5H142.648ZM141.152 41.868V40.86H146.184V41.868H141.152ZM152.168 49.5C151.682 49.6013 151.202 49.6413 150.728 49.62C150.258 49.5987 149.837 49.4973 149.464 49.316C149.096 49.1347 148.816 48.852 148.624 48.468C148.469 48.148 148.384 47.8253 148.368 47.5C148.357 47.1693 148.352 46.7933 148.352 46.372V38.46H149.52V46.324C149.52 46.6867 149.522 46.9907 149.528 47.236C149.538 47.476 149.594 47.6893 149.696 47.876C149.888 48.2333 150.192 48.4467 150.608 48.516C151.029 48.5853 151.549 48.5693 152.168 48.468V49.5ZM146.504 41.868V40.86H152.168V41.868H146.504Z" fill="white"/>
<circle cx="21" cy="21" r="21" fill="#121921"/>
<g clip-path="url(#clip0_635_2684)">
<path d="M32.8699 20.3708C32.4237 17.5787 30.9917 15.0199 28.8376 13.166C26.8377 11.4448 24.3268 10.4344 21.7022 10.281V9H20.2978V10.281C17.6731 10.4344 15.162 11.4448 13.1623 13.166C11.0083 15.0199 9.57623 17.5787 9.13 20.3708L9 21.1838H10.6002L10.8003 20.8202C11.3351 19.8486 12.3549 19.2451 13.4617 19.2451C14.5688 19.2451 15.5885 19.8486 16.1233 20.8202L16.3235 21.1838H18.1384L18.3385 20.8202C18.8734 19.8486 19.8931 19.2451 21 19.2451C22.1068 19.2451 23.1267 19.8486 23.6614 20.8202L23.8615 21.1838H25.6767L25.8768 20.8202C26.4115 19.8486 27.4314 19.2451 28.5382 19.2451C29.6451 19.2451 30.665 19.8486 31.1997 20.8202L31.3998 21.1838H33L32.8699 20.3708ZM13.4617 17.8407C12.5911 17.8407 11.7574 18.0959 11.051 18.5528C12.3409 15.071 15.3603 12.5273 19.0221 11.846C18.019 13.0774 17.2926 14.6962 16.8876 16.6294C16.6913 17.566 16.6001 18.4274 16.5593 19.1008C15.7416 18.3047 14.6354 17.8407 13.4617 17.8407ZM21 17.8407C19.8596 17.8407 18.7829 18.2787 17.9725 19.034C18.1067 17.1194 18.6819 13.7226 20.9998 11.8379C23.3104 13.7183 23.8886 17.1158 24.0252 19.032C23.2152 18.2779 22.1393 17.8407 21 17.8407ZM28.5382 17.8407C27.3645 17.8407 26.2584 18.3047 25.4406 19.1008C25.3998 18.4274 25.3086 17.566 25.1125 16.6294C24.7073 14.6962 23.9811 13.0774 22.9779 11.846C26.6398 12.5273 29.659 15.071 30.949 18.5528C30.2426 18.0959 29.4089 17.8407 28.5382 17.8407Z" fill="#33E47A"/>
<path d="M23.2999 23.0745H18.6995V25.7212H16.0527V30.3214H18.6995V32.9684H23.2999V30.3214H25.9466V25.7212H23.2999V23.0745ZM24.5422 27.1257V28.917H21.8954V31.5638H20.1039V28.917H17.4572V27.1257H20.1039V24.4789H21.8954V27.1257H24.5422Z" fill="#33E47A"/>
</g>
<defs>
<clipPath id="clip0_635_2684">
<rect width="24" height="24" fill="white" transform="translate(9 9)"/>
</clipPath>
</defs>
</svg>
