<svg width="186" height="66" viewBox="0 0 186 66" fill="none" xmlns="http://www.w3.org/2000/svg">
<path d="M21 21.5H176C181.523 21.5 186 25.9772 186 31.5V55.5C186 61.0228 181.523 65.5 176 65.5H31C25.4772 65.5 21 61.0228 21 55.5V21.5Z" fill="#33E47A"/>
<path d="M64.12 49.5V37.98H67.616C67.7387 37.98 67.9467 37.9827 68.24 37.988C68.5387 37.9933 68.824 38.0147 69.096 38.052C69.9707 38.1747 70.7013 38.5 71.288 39.028C71.8747 39.556 72.3147 40.228 72.608 41.044C72.9013 41.86 73.048 42.7587 73.048 43.74C73.048 44.7213 72.9013 45.62 72.608 46.436C72.3147 47.252 71.8747 47.924 71.288 48.452C70.7013 48.98 69.9707 49.3053 69.096 49.428C68.8293 49.46 68.544 49.4813 68.24 49.492C67.936 49.4973 67.728 49.5 67.616 49.5H64.12ZM65.336 48.372H67.616C67.8347 48.372 68.0693 48.3667 68.32 48.356C68.576 48.34 68.7947 48.3133 68.976 48.276C69.648 48.1587 70.1893 47.8867 70.6 47.46C71.016 47.0333 71.32 46.5 71.512 45.86C71.704 45.2147 71.8 44.508 71.8 43.74C71.8 42.9667 71.704 42.2573 71.512 41.612C71.32 40.9667 71.016 40.4333 70.6 40.012C70.184 39.5907 69.6427 39.3213 68.976 39.204C68.7947 39.1667 68.5733 39.1427 68.312 39.132C68.056 39.116 67.824 39.108 67.616 39.108H65.336V48.372ZM78.526 49.74C77.6833 49.74 76.9527 49.5533 76.334 49.18C75.7207 48.8067 75.2433 48.2813 74.902 47.604C74.5607 46.9267 74.39 46.132 74.39 45.22C74.39 44.276 74.558 43.46 74.894 42.772C75.23 42.084 75.702 41.5533 76.31 41.18C76.9233 40.8067 77.646 40.62 78.478 40.62C79.3313 40.62 80.0593 40.8173 80.662 41.212C81.2647 41.6013 81.7207 42.1613 82.03 42.892C82.3393 43.6227 82.4807 44.4947 82.454 45.508H81.254V45.092C81.2327 43.972 80.99 43.1267 80.526 42.556C80.0673 41.9853 79.3953 41.7 78.51 41.7C77.582 41.7 76.87 42.0013 76.374 42.604C75.8833 43.2067 75.638 44.0653 75.638 45.18C75.638 46.268 75.8833 47.1133 76.374 47.716C76.87 48.3133 77.5713 48.612 78.478 48.612C79.0967 48.612 79.6353 48.4707 80.094 48.188C80.558 47.9 80.9233 47.4867 81.19 46.948L82.286 47.372C81.9447 48.124 81.4407 48.708 80.774 49.124C80.1127 49.5347 79.3633 49.74 78.526 49.74ZM75.222 45.508V44.524H81.822V45.508H75.222ZM84.3894 39.22V37.9H85.5654V39.22H84.3894ZM84.3894 49.5V40.86H85.5654V49.5H84.3894ZM94.2038 49.5V45.092C94.2038 44.612 94.1584 44.172 94.0678 43.772C93.9771 43.3667 93.8304 43.0147 93.6278 42.716C93.4304 42.412 93.1718 42.1773 92.8518 42.012C92.5371 41.8467 92.1531 41.764 91.6998 41.764C91.2838 41.764 90.9158 41.836 90.5958 41.98C90.2811 42.124 90.0144 42.332 89.7958 42.604C89.5824 42.8707 89.4198 43.196 89.3078 43.58C89.1958 43.964 89.1398 44.4013 89.1398 44.892L88.3078 44.708C88.3078 43.8227 88.4624 43.0787 88.7718 42.476C89.0811 41.8733 89.5078 41.4173 90.0518 41.108C90.5958 40.7987 91.2198 40.644 91.9238 40.644C92.4411 40.644 92.8918 40.724 93.2758 40.884C93.6651 41.044 93.9931 41.26 94.2598 41.532C94.5318 41.804 94.7504 42.116 94.9158 42.468C95.0811 42.8147 95.2011 43.1853 95.2758 43.58C95.3504 43.9693 95.3878 44.3587 95.3878 44.748V49.5H94.2038ZM87.9558 49.5V40.86H89.0198V42.988H89.1398V49.5H87.9558ZM101.073 49.74C100.23 49.74 99.4995 49.5533 98.8809 49.18C98.2675 48.8067 97.7902 48.2813 97.4489 47.604C97.1075 46.9267 96.9369 46.132 96.9369 45.22C96.9369 44.276 97.1049 43.46 97.4409 42.772C97.7769 42.084 98.2489 41.5533 98.8569 41.18C99.4702 40.8067 100.193 40.62 101.025 40.62C101.878 40.62 102.606 40.8173 103.209 41.212C103.812 41.6013 104.268 42.1613 104.577 42.892C104.886 43.6227 105.028 44.4947 105.001 45.508H103.801V45.092C103.78 43.972 103.537 43.1267 103.073 42.556C102.614 41.9853 101.942 41.7 101.057 41.7C100.129 41.7 99.4169 42.0013 98.9209 42.604C98.4302 43.2067 98.1849 44.0653 98.1849 45.18C98.1849 46.268 98.4302 47.1133 98.9209 47.716C99.4169 48.3133 100.118 48.612 101.025 48.612C101.644 48.612 102.182 48.4707 102.641 48.188C103.105 47.9 103.47 47.4867 103.737 46.948L104.833 47.372C104.492 48.124 103.988 48.708 103.321 49.124C102.66 49.5347 101.91 49.74 101.073 49.74ZM97.7689 45.508V44.524H104.369V45.508H97.7689ZM109.659 49.5V49.252L115.955 39.108H109.819V37.98H117.883V38.252L111.619 48.38H117.827V49.5H109.659ZM123.112 49.716C122.594 49.716 122.141 49.636 121.752 49.476C121.368 49.316 121.04 49.1 120.768 48.828C120.501 48.556 120.285 48.2467 120.12 47.9C119.954 47.548 119.834 47.1773 119.76 46.788C119.685 46.3933 119.648 46.0013 119.648 45.612V40.86H120.832V45.268C120.832 45.7427 120.877 46.1827 120.968 46.588C121.058 46.9933 121.202 47.348 121.4 47.652C121.602 47.9507 121.861 48.1827 122.176 48.348C122.496 48.5133 122.882 48.596 123.336 48.596C123.752 48.596 124.117 48.524 124.432 48.38C124.752 48.236 125.018 48.0307 125.232 47.764C125.45 47.492 125.616 47.164 125.728 46.78C125.84 46.3907 125.896 45.9533 125.896 45.468L126.727 45.652C126.727 46.5373 126.573 47.2813 126.264 47.884C125.954 48.4867 125.528 48.9427 124.984 49.252C124.44 49.5613 123.816 49.716 123.112 49.716ZM126.016 49.5V47.372H125.896V40.86H127.072V49.5H126.016ZM129.3 49.5L129.308 37.98H130.492V45.02L134.348 40.86H135.916L131.868 45.18L136.444 49.5H134.732L130.492 45.34V49.5H129.3ZM140.549 49.716C140.032 49.716 139.578 49.636 139.189 49.476C138.805 49.316 138.477 49.1 138.205 48.828C137.938 48.556 137.722 48.2467 137.557 47.9C137.392 47.548 137.272 47.1773 137.197 46.788C137.122 46.3933 137.085 46.0013 137.085 45.612V40.86H138.269V45.268C138.269 45.7427 138.314 46.1827 138.405 46.588C138.496 46.9933 138.64 47.348 138.837 47.652C139.04 47.9507 139.298 48.1827 139.613 48.348C139.933 48.5133 140.32 48.596 140.773 48.596C141.189 48.596 141.554 48.524 141.869 48.38C142.189 48.236 142.456 48.0307 142.669 47.764C142.888 47.492 143.053 47.164 143.165 46.78C143.277 46.3907 143.333 45.9533 143.333 45.468L144.165 45.652C144.165 46.5373 144.01 47.2813 143.701 47.884C143.392 48.4867 142.965 48.9427 142.421 49.252C141.877 49.5613 141.253 49.716 140.549 49.716ZM143.453 49.5V47.372H143.333V40.86H144.509V49.5H143.453ZM152.985 49.5V45.092C152.985 44.612 152.94 44.172 152.849 43.772C152.758 43.3667 152.612 43.0147 152.409 42.716C152.212 42.412 151.953 42.1773 151.633 42.012C151.318 41.8467 150.934 41.764 150.481 41.764C150.065 41.764 149.697 41.836 149.377 41.98C149.062 42.124 148.796 42.332 148.577 42.604C148.364 42.8707 148.201 43.196 148.089 43.58C147.977 43.964 147.921 44.4013 147.921 44.892L147.089 44.708C147.089 43.8227 147.244 43.0787 147.553 42.476C147.862 41.8733 148.289 41.4173 148.833 41.108C149.377 40.7987 150.001 40.644 150.705 40.644C151.222 40.644 151.673 40.724 152.057 40.884C152.446 41.044 152.774 41.26 153.041 41.532C153.313 41.804 153.532 42.116 153.697 42.468C153.862 42.8147 153.982 43.1853 154.057 43.58C154.132 43.9693 154.169 44.3587 154.169 44.748V49.5H152.985ZM146.737 49.5V40.86H147.801V42.988H147.921V49.5H146.737ZM157.101 49.5V40.22C157.101 39.996 157.112 39.7747 157.133 39.556C157.16 39.3373 157.21 39.1293 157.285 38.932C157.36 38.7293 157.477 38.5427 157.637 38.372C157.813 38.18 158.005 38.0413 158.213 37.956C158.421 37.8653 158.637 37.8067 158.861 37.78C159.09 37.7533 159.314 37.74 159.533 37.74H160.637V38.732H159.613C159.165 38.732 158.829 38.8413 158.605 39.06C158.386 39.2787 158.277 39.6227 158.277 40.092V49.5H157.101ZM155.605 41.868V40.86H160.637V41.868H155.605ZM166.621 49.5C166.136 49.6013 165.656 49.6413 165.181 49.62C164.712 49.5987 164.29 49.4973 163.917 49.316C163.549 49.1347 163.269 48.852 163.077 48.468C162.922 48.148 162.837 47.8253 162.821 47.5C162.81 47.1693 162.805 46.7933 162.805 46.372V38.46H163.973V46.324C163.973 46.6867 163.976 46.9907 163.981 47.236C163.992 47.476 164.048 47.6893 164.149 47.876C164.341 48.2333 164.645 48.4467 165.061 48.516C165.482 48.5853 166.002 48.5693 166.621 48.468V49.5ZM160.957 41.868V40.86H166.621V41.868H160.957Z" fill="white"/>
<circle cx="21" cy="21" r="21" fill="#121921"/>
<g clip-path="url(#clip0_631_390)">
<path d="M32.8699 20.3708C32.4237 17.5787 30.9917 15.0199 28.8376 13.166C26.8377 11.4448 24.3268 10.4344 21.7022 10.281V9H20.2978V10.281C17.6731 10.4344 15.162 11.4448 13.1623 13.166C11.0083 15.0199 9.57623 17.5787 9.13 20.3708L9 21.1838H10.6002L10.8003 20.8202C11.3351 19.8486 12.3549 19.2451 13.4617 19.2451C14.5688 19.2451 15.5885 19.8486 16.1233 20.8202L16.3235 21.1838H18.1384L18.3385 20.8202C18.8734 19.8486 19.8931 19.2451 21 19.2451C22.1068 19.2451 23.1267 19.8486 23.6614 20.8202L23.8615 21.1838H25.6767L25.8768 20.8202C26.4115 19.8486 27.4314 19.2451 28.5382 19.2451C29.6451 19.2451 30.665 19.8486 31.1997 20.8202L31.3998 21.1838H33L32.8699 20.3708ZM13.4617 17.8407C12.5911 17.8407 11.7574 18.0959 11.051 18.5528C12.3409 15.071 15.3603 12.5273 19.0221 11.846C18.019 13.0774 17.2926 14.6962 16.8876 16.6294C16.6913 17.566 16.6001 18.4274 16.5593 19.1008C15.7416 18.3047 14.6354 17.8407 13.4617 17.8407ZM21 17.8407C19.8596 17.8407 18.7829 18.2787 17.9725 19.034C18.1067 17.1194 18.6819 13.7226 20.9998 11.8379C23.3104 13.7183 23.8886 17.1158 24.0252 19.032C23.2152 18.2779 22.1393 17.8407 21 17.8407ZM28.5382 17.8407C27.3645 17.8407 26.2584 18.3047 25.4406 19.1008C25.3998 18.4274 25.3086 17.566 25.1125 16.6294C24.7073 14.6962 23.9811 13.0774 22.9779 11.846C26.6398 12.5273 29.659 15.071 30.949 18.5528C30.2426 18.0959 29.4089 17.8407 28.5382 17.8407Z" fill="#33E47A"/>
<path d="M23.2999 23.0745H18.6995V25.7212H16.0527V30.3214H18.6995V32.9684H23.2999V30.3214H25.9466V25.7212H23.2999V23.0745ZM24.5422 27.1257V28.917H21.8954V31.5638H20.1039V28.917H17.4572V27.1257H20.1039V24.4789H21.8954V27.1257H24.5422Z" fill="#33E47A"/>
</g>
<defs>
<clipPath id="clip0_631_390">
<rect width="24" height="24" fill="white" transform="translate(9 9)"/>
</clipPath>
</defs>
</svg>
