<svg width="227" height="65" viewBox="0 0 227 65" fill="none" xmlns="http://www.w3.org/2000/svg">
<path d="M0 31C0 25.4772 4.47715 21 10 21H206V55C206 60.5228 201.523 65 196 65H10C4.47715 65 0 60.5228 0 55V31Z" fill="#6FB9FE"/>
<path d="M52.241 50.24C51.361 50.24 50.5823 50.0587 49.905 49.696C49.233 49.3333 48.705 48.8213 48.321 48.16C47.937 47.4987 47.745 46.7253 47.745 45.84V38.488L48.929 38.48V45.688C48.929 46.2853 49.0303 46.8027 49.233 47.24C49.4357 47.672 49.6997 48.0293 50.025 48.312C50.3557 48.5893 50.7157 48.7947 51.105 48.928C51.4943 49.0613 51.873 49.128 52.241 49.128C52.6143 49.128 52.9957 49.0613 53.385 48.928C53.7743 48.7947 54.1317 48.5893 54.457 48.312C54.7823 48.0293 55.0463 47.672 55.249 47.24C55.4517 46.8027 55.553 46.2853 55.553 45.688V38.48H56.737V45.84C56.737 46.7253 56.545 47.4987 56.161 48.16C55.777 48.816 55.2463 49.328 54.569 49.696C53.897 50.0587 53.121 50.24 52.241 50.24ZM65.2194 50V45.592C65.2194 45.112 65.174 44.672 65.0834 44.272C64.9927 43.8667 64.846 43.5147 64.6434 43.216C64.446 42.912 64.1874 42.6773 63.8674 42.512C63.5527 42.3467 63.1687 42.264 62.7154 42.264C62.2994 42.264 61.9314 42.336 61.6114 42.48C61.2967 42.624 61.03 42.832 60.8114 43.104C60.598 43.3707 60.4354 43.696 60.3234 44.08C60.2114 44.464 60.1554 44.9013 60.1554 45.392L59.3234 45.208C59.3234 44.3227 59.478 43.5787 59.7874 42.976C60.0967 42.3733 60.5234 41.9173 61.0674 41.608C61.6114 41.2987 62.2354 41.144 62.9394 41.144C63.4567 41.144 63.9074 41.224 64.2914 41.384C64.6807 41.544 65.0087 41.76 65.2754 42.032C65.5474 42.304 65.766 42.616 65.9314 42.968C66.0967 43.3147 66.2167 43.6853 66.2914 44.08C66.366 44.4693 66.4034 44.8587 66.4034 45.248V50H65.2194ZM58.9714 50V41.36H60.0354V43.488H60.1554V50H58.9714ZM71.7034 50.232C70.69 50.232 69.8554 50.0133 69.1994 49.576C68.5487 49.1387 68.1487 48.5307 67.9994 47.752L69.1994 47.552C69.3274 48.0427 69.618 48.4347 70.0714 48.728C70.53 49.016 71.0954 49.16 71.7674 49.16C72.4234 49.16 72.9407 49.024 73.3194 48.752C73.698 48.4747 73.8874 48.0987 73.8874 47.624C73.8874 47.3573 73.826 47.1413 73.7034 46.976C73.586 46.8053 73.3434 46.648 72.9754 46.504C72.6074 46.36 72.058 46.1893 71.3274 45.992C70.5434 45.7787 69.93 45.5653 69.4874 45.352C69.0447 45.1387 68.73 44.8933 68.5434 44.616C68.3567 44.3333 68.2634 43.9893 68.2634 43.584C68.2634 43.0933 68.402 42.664 68.6794 42.296C68.9567 41.9227 69.3407 41.6347 69.8314 41.432C70.322 41.224 70.8927 41.12 71.5434 41.12C72.194 41.12 72.7754 41.2267 73.2874 41.44C73.8047 41.648 74.2207 41.9413 74.5354 42.32C74.85 42.6987 75.0367 43.1387 75.0954 43.64L73.8954 43.856C73.8154 43.3493 73.562 42.9493 73.1354 42.656C72.714 42.3573 72.178 42.2027 71.5274 42.192C70.914 42.176 70.4154 42.2933 70.0314 42.544C69.6474 42.7893 69.4554 43.1173 69.4554 43.528C69.4554 43.7573 69.5247 43.9547 69.6634 44.12C69.802 44.28 70.0527 44.432 70.4154 44.576C70.7834 44.72 71.306 44.8773 71.9834 45.048C72.778 45.2507 73.402 45.464 73.8554 45.688C74.3087 45.912 74.6314 46.176 74.8234 46.48C75.0154 46.784 75.1114 47.16 75.1114 47.608C75.1114 48.424 74.8074 49.0667 74.1994 49.536C73.5967 50 72.7647 50.232 71.7034 50.232ZM80.5416 50.24C79.699 50.24 78.9683 50.0533 78.3496 49.68C77.7363 49.3067 77.259 48.7813 76.9176 48.104C76.5763 47.4267 76.4056 46.632 76.4056 45.72C76.4056 44.776 76.5736 43.96 76.9096 43.272C77.2456 42.584 77.7176 42.0533 78.3256 41.68C78.939 41.3067 79.6616 41.12 80.4936 41.12C81.347 41.12 82.075 41.3173 82.6776 41.712C83.2803 42.1013 83.7363 42.6613 84.0456 43.392C84.355 44.1227 84.4963 44.9947 84.4696 46.008H83.2696V45.592C83.2483 44.472 83.0056 43.6267 82.5416 43.056C82.083 42.4853 81.411 42.2 80.5256 42.2C79.5976 42.2 78.8856 42.5013 78.3896 43.104C77.899 43.7067 77.6536 44.5653 77.6536 45.68C77.6536 46.768 77.899 47.6133 78.3896 48.216C78.8856 48.8133 79.587 49.112 80.4936 49.112C81.1123 49.112 81.651 48.9707 82.1096 48.688C82.5736 48.4 82.939 47.9867 83.2056 47.448L84.3016 47.872C83.9603 48.624 83.4563 49.208 82.7896 49.624C82.1283 50.0347 81.379 50.24 80.5416 50.24ZM77.2376 46.008V45.024H83.8376V46.008H77.2376ZM86.245 50V41.36H87.301V43.44L87.093 43.168C87.189 42.912 87.3143 42.6773 87.469 42.464C87.6237 42.2453 87.7917 42.0667 87.973 41.928C88.197 41.7307 88.4583 41.5813 88.757 41.48C89.0557 41.3733 89.357 41.312 89.661 41.296C89.965 41.2747 90.2423 41.296 90.493 41.36V42.464C90.1783 42.384 89.8343 42.3653 89.461 42.408C89.0877 42.4507 88.7437 42.6 88.429 42.856C88.141 43.08 87.925 43.3493 87.781 43.664C87.637 43.9733 87.541 44.304 87.493 44.656C87.445 45.0027 87.421 45.3467 87.421 45.688V50H86.245ZM95.5104 50.24C94.6677 50.24 93.937 50.0533 93.3184 49.68C92.705 49.3067 92.2277 48.7813 91.8864 48.104C91.545 47.4267 91.3744 46.632 91.3744 45.72C91.3744 44.776 91.5424 43.96 91.8784 43.272C92.2144 42.584 92.6864 42.0533 93.2944 41.68C93.9077 41.3067 94.6304 41.12 95.4624 41.12C96.3157 41.12 97.0437 41.3173 97.6464 41.712C98.249 42.1013 98.705 42.6613 99.0144 43.392C99.3237 44.1227 99.465 44.9947 99.4384 46.008H98.2384V45.592C98.217 44.472 97.9744 43.6267 97.5104 43.056C97.0517 42.4853 96.3797 42.2 95.4944 42.2C94.5664 42.2 93.8544 42.5013 93.3584 43.104C92.8677 43.7067 92.6224 44.5653 92.6224 45.68C92.6224 46.768 92.8677 47.6133 93.3584 48.216C93.8544 48.8133 94.5557 49.112 95.4624 49.112C96.081 49.112 96.6197 48.9707 97.0784 48.688C97.5424 48.4 97.9077 47.9867 98.1744 47.448L99.2704 47.872C98.929 48.624 98.425 49.208 97.7584 49.624C97.097 50.0347 96.3477 50.24 95.5104 50.24ZM92.2064 46.008V45.024H98.8064V46.008H92.2064ZM104.417 50V38.48H105.497L110.025 48.168L114.529 38.48H115.625V49.992H114.505V41.104L110.401 50H109.641L105.545 41.104V50H104.417ZM118.03 39.72V38.4H119.206V39.72H118.03ZM118.03 50V41.36H119.206V50H118.03ZM124.828 50.232C123.815 50.232 122.98 50.0133 122.324 49.576C121.674 49.1387 121.274 48.5307 121.124 47.752L122.324 47.552C122.452 48.0427 122.743 48.4347 123.196 48.728C123.655 49.016 124.22 49.16 124.892 49.16C125.548 49.16 126.066 49.024 126.444 48.752C126.823 48.4747 127.012 48.0987 127.012 47.624C127.012 47.3573 126.951 47.1413 126.828 46.976C126.711 46.8053 126.468 46.648 126.1 46.504C125.732 46.36 125.183 46.1893 124.452 45.992C123.668 45.7787 123.055 45.5653 122.612 45.352C122.17 45.1387 121.855 44.8933 121.668 44.616C121.482 44.3333 121.388 43.9893 121.388 43.584C121.388 43.0933 121.527 42.664 121.804 42.296C122.082 41.9227 122.466 41.6347 122.956 41.432C123.447 41.224 124.018 41.12 124.668 41.12C125.319 41.12 125.9 41.2267 126.412 41.44C126.93 41.648 127.346 41.9413 127.66 42.32C127.975 42.6987 128.162 43.1387 128.22 43.64L127.02 43.856C126.94 43.3493 126.687 42.9493 126.26 42.656C125.839 42.3573 125.303 42.2027 124.652 42.192C124.039 42.176 123.54 42.2933 123.156 42.544C122.772 42.7893 122.58 43.1173 122.58 43.528C122.58 43.7573 122.65 43.9547 122.788 44.12C122.927 44.28 123.178 44.432 123.54 44.576C123.908 44.72 124.431 44.8773 125.108 45.048C125.903 45.2507 126.527 45.464 126.98 45.688C127.434 45.912 127.756 46.176 127.948 46.48C128.14 46.784 128.236 47.16 128.236 47.608C128.236 48.424 127.932 49.0667 127.324 49.536C126.722 50 125.89 50.232 124.828 50.232ZM133.235 50.232C132.221 50.232 131.387 50.0133 130.731 49.576C130.08 49.1387 129.68 48.5307 129.531 47.752L130.731 47.552C130.859 48.0427 131.149 48.4347 131.603 48.728C132.061 49.016 132.627 49.16 133.299 49.16C133.955 49.16 134.472 49.024 134.851 48.752C135.229 48.4747 135.419 48.0987 135.419 47.624C135.419 47.3573 135.357 47.1413 135.235 46.976C135.117 46.8053 134.875 46.648 134.507 46.504C134.139 46.36 133.589 46.1893 132.859 45.992C132.075 45.7787 131.461 45.5653 131.019 45.352C130.576 45.1387 130.261 44.8933 130.075 44.616C129.888 44.3333 129.795 43.9893 129.795 43.584C129.795 43.0933 129.933 42.664 130.211 42.296C130.488 41.9227 130.872 41.6347 131.363 41.432C131.853 41.224 132.424 41.12 133.075 41.12C133.725 41.12 134.307 41.2267 134.819 41.44C135.336 41.648 135.752 41.9413 136.067 42.32C136.381 42.6987 136.568 43.1387 136.627 43.64L135.427 43.856C135.347 43.3493 135.093 42.9493 134.667 42.656C134.245 42.3573 133.709 42.2027 133.059 42.192C132.445 42.176 131.947 42.2933 131.563 42.544C131.179 42.7893 130.987 43.1173 130.987 43.528C130.987 43.7573 131.056 43.9547 131.195 44.12C131.333 44.28 131.584 44.432 131.947 44.576C132.315 44.72 132.837 44.8773 133.515 45.048C134.309 45.2507 134.933 45.464 135.387 45.688C135.84 45.912 136.163 46.176 136.355 46.48C136.547 46.784 136.643 47.16 136.643 47.608C136.643 48.424 136.339 49.0667 135.731 49.536C135.128 50 134.296 50.232 133.235 50.232ZM138.577 39.72V38.4H139.753V39.72H138.577ZM138.577 50V41.36H139.753V50H138.577ZM145.759 50.24C144.901 50.24 144.167 50.0453 143.559 49.656C142.951 49.2667 142.485 48.728 142.159 48.04C141.834 47.352 141.671 46.5627 141.671 45.672C141.671 44.7653 141.837 43.9707 142.167 43.288C142.498 42.6053 142.967 42.0747 143.575 41.696C144.189 41.312 144.917 41.12 145.759 41.12C146.623 41.12 147.359 41.3147 147.967 41.704C148.581 42.088 149.047 42.624 149.367 43.312C149.693 43.9947 149.855 44.7813 149.855 45.672C149.855 46.5787 149.693 47.376 149.367 48.064C149.042 48.7467 148.573 49.28 147.959 49.664C147.346 50.048 146.613 50.24 145.759 50.24ZM145.759 49.112C146.719 49.112 147.434 48.7947 147.903 48.16C148.373 47.52 148.607 46.6907 148.607 45.672C148.607 44.6267 148.37 43.7947 147.895 43.176C147.426 42.5573 146.714 42.248 145.759 42.248C145.114 42.248 144.581 42.3947 144.159 42.688C143.743 42.976 143.431 43.3787 143.223 43.896C143.021 44.408 142.919 45 142.919 45.672C142.919 46.712 143.159 47.5467 143.639 48.176C144.119 48.8 144.826 49.112 145.759 49.112ZM157.86 50V45.592C157.86 45.112 157.815 44.672 157.724 44.272C157.633 43.8667 157.487 43.5147 157.284 43.216C157.087 42.912 156.828 42.6773 156.508 42.512C156.193 42.3467 155.809 42.264 155.356 42.264C154.94 42.264 154.572 42.336 154.252 42.48C153.937 42.624 153.671 42.832 153.452 43.104C153.239 43.3707 153.076 43.696 152.964 44.08C152.852 44.464 152.796 44.9013 152.796 45.392L151.964 45.208C151.964 44.3227 152.119 43.5787 152.428 42.976C152.737 42.3733 153.164 41.9173 153.708 41.608C154.252 41.2987 154.876 41.144 155.58 41.144C156.097 41.144 156.548 41.224 156.932 41.384C157.321 41.544 157.649 41.76 157.916 42.032C158.188 42.304 158.407 42.616 158.572 42.968C158.737 43.3147 158.857 43.6853 158.932 44.08C159.007 44.4693 159.044 44.8587 159.044 45.248V50H157.86ZM151.612 50V41.36H152.676V43.488H152.796V50H151.612Z" fill="#121921"/>
<circle cx="206" cy="21" r="21" fill="#121921"/>
<g clip-path="url(#clip0_229_3304)">
<path d="M217.482 17.0138C216.683 16.7355 216.051 16.1215 215.749 15.3298L215.576 14.8782H210.01L209.838 15.3298C209.776 15.4935 209.699 15.6493 209.61 15.7963L204.674 12L193.953 20.2467L196.505 23.5638L197.971 22.4361V28.6049H196.571V30.0086H212.777V28.6049H211.377V25.9195C211.629 26.087 211.891 26.2408 212.162 26.3807L212.793 26.7074L213.425 26.3807C214.789 25.6756 215.933 24.6088 216.732 23.2967C217.531 21.9846 217.953 20.4789 217.953 18.9426V17.178L217.482 17.0138ZM216.549 18.9426C216.549 21.555 215.11 23.9233 212.793 25.1272C212.275 24.8577 211.801 24.5306 211.377 24.1553C210.816 23.6594 210.344 23.0795 209.973 22.4394C209.682 21.9379 209.455 21.3997 209.296 20.8359C209.127 20.2295 209.037 19.5936 209.037 18.9426V18.1434C209.297 18.0161 209.542 17.8641 209.769 17.6895C210.142 17.4009 210.467 17.0522 210.727 16.6558C210.807 16.5357 210.879 16.4106 210.946 16.2819H214.64C215.061 17.0914 215.729 17.7429 216.549 18.1434V18.9426ZM196.762 21.5953L195.922 20.5032L204.674 13.7712L208.596 16.7884C208.441 16.8781 208.276 16.9536 208.104 17.0138L207.633 17.178V17.7854L204.674 15.509L196.762 21.5953ZM205.644 28.6049H203.704V23.9335H205.644V28.6049ZM207.048 28.6049V22.5298H202.3V28.6049H199.375V21.3561L204.674 17.28L207.658 19.5753C207.757 20.8898 208.165 22.1653 208.854 23.2967C209.174 23.8226 209.55 24.3089 209.973 24.7487V28.6047H207.048V28.6049Z" fill="#6FB9FE"/>
<path d="M213.788 19.0109L212.768 19.9969L212.481 20.2743L211.323 19.1802L210.534 20.0165L210.359 20.2012L211.377 21.1624L212.492 22.2158L214.913 19.876L215.63 19.1826L214.655 18.1733L213.788 19.0109Z" fill="#6FB9FE"/>
</g>
<defs>
<clipPath id="clip0_229_3304">
<rect width="24" height="24" fill="white" transform="translate(194 9)"/>
</clipPath>
</defs>
</svg>
