<svg width="225" height="65" viewBox="0 0 225 65" fill="none" xmlns="http://www.w3.org/2000/svg">
<path d="M0 31C0 25.4772 4.47715 21 10 21H204V55C204 60.5228 199.523 65 194 65H10C4.47716 65 0 60.5228 0 55V31Z" fill="#6FB9FE"/>
<path d="M36.7048 50.24C35.8941 50.24 35.1634 50.0987 34.5128 49.816C33.8621 49.5333 33.3074 49.1307 32.8488 48.608C32.3954 48.0853 32.0488 47.456 31.8088 46.72C31.5688 45.9787 31.4488 45.152 31.4488 44.24C31.4488 43.0347 31.6568 41.984 32.0728 41.088C32.4941 40.1867 33.0968 39.488 33.8808 38.992C34.6648 38.496 35.6061 38.248 36.7048 38.248C37.9314 38.248 38.9288 38.536 39.6968 39.112C40.4701 39.6827 41.0088 40.4507 41.3128 41.416L40.1288 41.704C39.8781 41 39.4648 40.4373 38.8888 40.016C38.3181 39.5947 37.6061 39.384 36.7528 39.384C35.8514 39.3787 35.1021 39.5813 34.5048 39.992C33.9074 40.3973 33.4568 40.968 33.1528 41.704C32.8541 42.4347 32.7021 43.28 32.6968 44.24C32.6914 45.2 32.8381 46.0453 33.1368 46.776C33.4408 47.5013 33.8941 48.072 34.4968 48.488C35.0994 48.8987 35.8514 49.1067 36.7528 49.112C37.5794 49.112 38.2621 48.952 38.8008 48.632C39.3394 48.312 39.7474 47.8533 40.0248 47.256C40.3074 46.6587 40.4674 45.952 40.5048 45.136H37.8488V44.128H41.7368C41.7528 44.2507 41.7608 44.3813 41.7608 44.52C41.7661 44.6533 41.7688 44.7493 41.7688 44.808C41.7688 45.848 41.5821 46.7787 41.2088 47.6C40.8354 48.416 40.2728 49.0613 39.5208 49.536C38.7741 50.0053 37.8354 50.24 36.7048 50.24ZM47.026 50.24C46.1833 50.24 45.4527 50.0533 44.834 49.68C44.2207 49.3067 43.7433 48.7813 43.402 48.104C43.0607 47.4267 42.89 46.632 42.89 45.72C42.89 44.776 43.058 43.96 43.394 43.272C43.73 42.584 44.202 42.0533 44.81 41.68C45.4233 41.3067 46.146 41.12 46.978 41.12C47.8313 41.12 48.5593 41.3173 49.162 41.712C49.7647 42.1013 50.2207 42.6613 50.53 43.392C50.8393 44.1227 50.9807 44.9947 50.954 46.008H49.754V45.592C49.7327 44.472 49.49 43.6267 49.026 43.056C48.5673 42.4853 47.8953 42.2 47.01 42.2C46.082 42.2 45.37 42.5013 44.874 43.104C44.3833 43.7067 44.138 44.5653 44.138 45.68C44.138 46.768 44.3833 47.6133 44.874 48.216C45.37 48.8133 46.0713 49.112 46.978 49.112C47.5967 49.112 48.1353 48.9707 48.594 48.688C49.058 48.4 49.4233 47.9867 49.69 47.448L50.786 47.872C50.4447 48.624 49.9407 49.208 49.274 49.624C48.6127 50.0347 47.8633 50.24 47.026 50.24ZM43.722 46.008V45.024H50.322V46.008H43.722ZM56.3854 50.24C55.5427 50.24 54.812 50.0533 54.1934 49.68C53.58 49.3067 53.1027 48.7813 52.7614 48.104C52.42 47.4267 52.2494 46.632 52.2494 45.72C52.2494 44.776 52.4174 43.96 52.7534 43.272C53.0894 42.584 53.5614 42.0533 54.1694 41.68C54.7827 41.3067 55.5054 41.12 56.3374 41.12C57.1907 41.12 57.9187 41.3173 58.5214 41.712C59.124 42.1013 59.58 42.6613 59.8894 43.392C60.1987 44.1227 60.34 44.9947 60.3134 46.008H59.1134V45.592C59.092 44.472 58.8494 43.6267 58.3854 43.056C57.9267 42.4853 57.2547 42.2 56.3694 42.2C55.4414 42.2 54.7294 42.5013 54.2334 43.104C53.7427 43.7067 53.4974 44.5653 53.4974 45.68C53.4974 46.768 53.7427 47.6133 54.2334 48.216C54.7294 48.8133 55.4307 49.112 56.3374 49.112C56.956 49.112 57.4947 48.9707 57.9534 48.688C58.4174 48.4 58.7827 47.9867 59.0494 47.448L60.1454 47.872C59.804 48.624 59.3 49.208 58.6334 49.624C57.972 50.0347 57.2227 50.24 56.3854 50.24ZM53.0814 46.008V45.024H59.6814V46.008H53.0814ZM62.2488 39.72V38.4H63.4248V39.72H62.2488ZM62.2488 50V41.36H63.4248V50H62.2488ZM69.2551 54.08C68.8125 54.08 68.3751 54.0133 67.9431 53.88C67.5165 53.752 67.1218 53.5467 66.7591 53.264C66.3965 52.9867 66.0925 52.624 65.8471 52.176L66.9111 51.584C67.1511 52.064 67.4871 52.408 67.9191 52.616C68.3565 52.8293 68.8018 52.936 69.2551 52.936C69.8791 52.936 70.3831 52.8187 70.7671 52.584C71.1565 52.3547 71.4391 52.0133 71.6151 51.56C71.7911 51.1067 71.8765 50.5413 71.8711 49.864V47.56H72.0071V41.36H73.0551V49.88C73.0551 50.1253 73.0471 50.36 73.0311 50.584C73.0205 50.8133 72.9965 51.0373 72.9591 51.256C72.8578 51.9013 72.6471 52.432 72.3271 52.848C72.0125 53.264 71.5965 53.5733 71.0791 53.776C70.5671 53.9787 69.9591 54.08 69.2551 54.08ZM69.1751 50.24C68.3698 50.24 67.6818 50.04 67.1111 49.64C66.5405 49.2347 66.1031 48.688 65.7991 48C65.4951 47.312 65.3431 46.536 65.3431 45.672C65.3431 44.8133 65.4925 44.04 65.7911 43.352C66.0951 42.664 66.5298 42.12 67.0951 41.72C67.6605 41.32 68.3378 41.12 69.1271 41.12C69.9378 41.12 70.6205 41.3173 71.1751 41.712C71.7298 42.1067 72.1485 42.648 72.4311 43.336C72.7191 44.0187 72.8631 44.7973 72.8631 45.672C72.8631 46.5307 72.7218 47.3067 72.4391 48C72.1565 48.688 71.7405 49.2347 71.1911 49.64C70.6418 50.04 69.9698 50.24 69.1751 50.24ZM69.2951 49.144C69.9085 49.144 70.4151 48.9947 70.8151 48.696C71.2151 48.3973 71.5138 47.9867 71.7111 47.464C71.9085 46.936 72.0071 46.3387 72.0071 45.672C72.0071 44.9947 71.9085 44.3973 71.7111 43.88C71.5138 43.3573 71.2151 42.9493 70.8151 42.656C70.4205 42.3627 69.9218 42.216 69.3191 42.216C68.7005 42.216 68.1885 42.368 67.7831 42.672C67.3778 42.976 67.0765 43.3893 66.8791 43.912C66.6871 44.4347 66.5911 45.0213 66.5911 45.672C66.5911 46.328 66.6898 46.92 66.8871 47.448C67.0898 47.9707 67.3911 48.384 67.7911 48.688C68.1911 48.992 68.6925 49.144 69.2951 49.144ZM81.5319 50V45.592C81.5319 45.112 81.4865 44.672 81.3959 44.272C81.3052 43.8667 81.1585 43.5147 80.9559 43.216C80.7585 42.912 80.4999 42.6773 80.1799 42.512C79.8652 42.3467 79.4812 42.264 79.0279 42.264C78.6119 42.264 78.2439 42.336 77.9239 42.48C77.6092 42.624 77.3425 42.832 77.1239 43.104C76.9105 43.3707 76.7479 43.696 76.6359 44.08C76.5239 44.464 76.4679 44.9013 76.4679 45.392L75.6359 45.208C75.6359 44.3227 75.7905 43.5787 76.0999 42.976C76.4092 42.3733 76.8359 41.9173 77.3799 41.608C77.9239 41.2987 78.5479 41.144 79.2519 41.144C79.7692 41.144 80.2199 41.224 80.6039 41.384C80.9932 41.544 81.3212 41.76 81.5879 42.032C81.8599 42.304 82.0785 42.616 82.2439 42.968C82.4092 43.3147 82.5292 43.6853 82.6039 44.08C82.6785 44.4693 82.7159 44.8587 82.7159 45.248V50H81.5319ZM75.2839 50V41.36H76.3479V43.488H76.4679V50H75.2839ZM88.401 50.24C87.5583 50.24 86.8277 50.0533 86.209 49.68C85.5957 49.3067 85.1183 48.7813 84.777 48.104C84.4357 47.4267 84.265 46.632 84.265 45.72C84.265 44.776 84.433 43.96 84.769 43.272C85.105 42.584 85.577 42.0533 86.185 41.68C86.7983 41.3067 87.521 41.12 88.353 41.12C89.2063 41.12 89.9343 41.3173 90.537 41.712C91.1397 42.1013 91.5957 42.6613 91.905 43.392C92.2143 44.1227 92.3557 44.9947 92.329 46.008H91.129V45.592C91.1077 44.472 90.865 43.6267 90.401 43.056C89.9423 42.4853 89.2703 42.2 88.385 42.2C87.457 42.2 86.745 42.5013 86.249 43.104C85.7583 43.7067 85.513 44.5653 85.513 45.68C85.513 46.768 85.7583 47.6133 86.249 48.216C86.745 48.8133 87.4463 49.112 88.353 49.112C88.9717 49.112 89.5103 48.9707 89.969 48.688C90.433 48.4 90.7983 47.9867 91.065 47.448L92.161 47.872C91.8197 48.624 91.3157 49.208 90.649 49.624C89.9877 50.0347 89.2383 50.24 88.401 50.24ZM85.097 46.008V45.024H91.697V46.008H85.097ZM98.8084 50C98.323 50.1013 97.843 50.1413 97.3684 50.12C96.899 50.0987 96.4777 49.9973 96.1044 49.816C95.7364 49.6347 95.4564 49.352 95.2644 48.968C95.1097 48.648 95.0244 48.3253 95.0084 48C94.9977 47.6693 94.9924 47.2933 94.9924 46.872V38.96H96.1604V46.824C96.1604 47.1867 96.163 47.4907 96.1684 47.736C96.179 47.976 96.235 48.1893 96.3364 48.376C96.5284 48.7333 96.8324 48.9467 97.2484 49.016C97.6697 49.0853 98.1897 49.0693 98.8084 48.968V50ZM93.1444 42.368V41.36H98.8084V42.368H93.1444ZM103.854 50.24C103.011 50.24 102.281 50.0533 101.662 49.68C101.049 49.3067 100.571 48.7813 100.23 48.104C99.8888 47.4267 99.7181 46.632 99.7181 45.72C99.7181 44.776 99.8861 43.96 100.222 43.272C100.558 42.584 101.03 42.0533 101.638 41.68C102.251 41.3067 102.974 41.12 103.806 41.12C104.659 41.12 105.387 41.3173 105.99 41.712C106.593 42.1013 107.049 42.6613 107.358 43.392C107.667 44.1227 107.809 44.9947 107.782 46.008H106.582V45.592C106.561 44.472 106.318 43.6267 105.854 43.056C105.395 42.4853 104.723 42.2 103.838 42.2C102.91 42.2 102.198 42.5013 101.702 43.104C101.211 43.7067 100.966 44.5653 100.966 45.68C100.966 46.768 101.211 47.6133 101.702 48.216C102.198 48.8133 102.899 49.112 103.806 49.112C104.425 49.112 104.963 48.9707 105.422 48.688C105.886 48.4 106.251 47.9867 106.518 47.448L107.614 47.872C107.273 48.624 106.769 49.208 106.102 49.624C105.441 50.0347 104.691 50.24 103.854 50.24ZM100.55 46.008V45.024H107.15V46.008H100.55ZM109.558 50V41.36H110.614V43.44L110.406 43.168C110.502 42.912 110.627 42.6773 110.782 42.464C110.936 42.2453 111.104 42.0667 111.286 41.928C111.51 41.7307 111.771 41.5813 112.07 41.48C112.368 41.3733 112.67 41.312 112.974 41.296C113.278 41.2747 113.555 41.296 113.806 41.36V42.464C113.491 42.384 113.147 42.3653 112.774 42.408C112.4 42.4507 112.056 42.6 111.742 42.856C111.454 43.08 111.238 43.3493 111.094 43.664C110.95 43.9733 110.854 44.304 110.806 44.656C110.758 45.0027 110.734 45.3467 110.734 45.688V50H109.558ZM122.526 50.24C121.721 50.24 120.996 50.1067 120.35 49.84C119.71 49.568 119.18 49.184 118.758 48.688C118.342 48.192 118.07 47.6027 117.942 46.92L119.142 46.72C119.334 47.4667 119.74 48.0533 120.358 48.48C120.977 48.9013 121.716 49.112 122.574 49.112C123.14 49.112 123.646 49.024 124.094 48.848C124.542 48.6667 124.894 48.4107 125.15 48.08C125.406 47.7493 125.534 47.3573 125.534 46.904C125.534 46.6053 125.481 46.352 125.374 46.144C125.268 45.9307 125.126 45.7547 124.95 45.616C124.774 45.4773 124.582 45.3627 124.374 45.272C124.166 45.176 123.964 45.0987 123.766 45.04L120.846 44.168C120.494 44.0667 120.169 43.9387 119.87 43.784C119.572 43.624 119.31 43.4347 119.086 43.216C118.868 42.992 118.697 42.7307 118.574 42.432C118.452 42.1333 118.39 41.792 118.39 41.408C118.39 40.7573 118.561 40.1947 118.902 39.72C119.244 39.2453 119.71 38.88 120.302 38.624C120.894 38.368 121.569 38.2427 122.326 38.248C123.094 38.248 123.78 38.384 124.382 38.656C124.99 38.928 125.492 39.3173 125.886 39.824C126.281 40.3253 126.542 40.92 126.67 41.608L125.438 41.832C125.358 41.3307 125.174 40.896 124.886 40.528C124.598 40.16 124.23 39.8773 123.782 39.68C123.34 39.4773 122.852 39.3733 122.318 39.368C121.801 39.368 121.34 39.456 120.934 39.632C120.534 39.8027 120.217 40.0373 119.982 40.336C119.748 40.6347 119.63 40.976 119.63 41.36C119.63 41.7493 119.737 42.0613 119.95 42.296C120.169 42.5307 120.436 42.7147 120.75 42.848C121.07 42.9813 121.38 43.0907 121.678 43.176L123.934 43.84C124.169 43.904 124.444 43.9973 124.758 44.12C125.078 44.2373 125.388 44.408 125.686 44.632C125.99 44.8507 126.241 45.1387 126.438 45.496C126.636 45.8533 126.734 46.3067 126.734 46.856C126.734 47.3893 126.628 47.8667 126.414 48.288C126.206 48.7093 125.91 49.064 125.526 49.352C125.148 49.64 124.702 49.8587 124.19 50.008C123.684 50.1627 123.129 50.24 122.526 50.24ZM131.97 50.24C131.1 50.24 130.364 50.0453 129.762 49.656C129.159 49.2667 128.7 48.7307 128.386 48.048C128.076 47.36 127.916 46.5707 127.906 45.68C127.916 44.7733 128.082 43.9787 128.402 43.296C128.722 42.608 129.183 42.0747 129.786 41.696C130.388 41.312 131.119 41.12 131.978 41.12C132.852 41.12 133.612 41.3333 134.258 41.76C134.908 42.1867 135.354 42.7707 135.594 43.512L134.442 43.88C134.239 43.3627 133.916 42.9627 133.474 42.68C133.036 42.392 132.535 42.248 131.97 42.248C131.335 42.248 130.81 42.3947 130.394 42.688C129.978 42.976 129.668 43.3787 129.466 43.896C129.263 44.4133 129.159 45.008 129.154 45.68C129.164 46.7147 129.404 47.5467 129.874 48.176C130.343 48.8 131.042 49.112 131.97 49.112C132.556 49.112 133.055 48.9787 133.466 48.712C133.882 48.44 134.196 48.0453 134.41 47.528L135.594 47.88C135.274 48.648 134.804 49.2347 134.186 49.64C133.567 50.04 132.828 50.24 131.97 50.24ZM143.485 50V45.592C143.485 45.112 143.44 44.672 143.349 44.272C143.258 43.8667 143.112 43.5147 142.909 43.216C142.712 42.912 142.453 42.6773 142.133 42.512C141.818 42.3467 141.434 42.264 140.981 42.264C140.565 42.264 140.197 42.336 139.877 42.48C139.562 42.624 139.296 42.832 139.077 43.104C138.864 43.3707 138.701 43.696 138.589 44.08C138.477 44.464 138.421 44.9013 138.421 45.392L137.589 45.208C137.589 44.3227 137.744 43.5787 138.053 42.976C138.362 42.3733 138.789 41.9173 139.333 41.608C139.877 41.2987 140.501 41.144 141.205 41.144C141.722 41.144 142.173 41.224 142.557 41.384C142.946 41.544 143.274 41.76 143.541 42.032C143.813 42.304 144.032 42.616 144.197 42.968C144.362 43.3147 144.482 43.6853 144.557 44.08C144.632 44.4693 144.669 44.8587 144.669 45.248V50H143.485ZM137.237 50V38.48H138.301V44.984H138.421V50H137.237ZM150.049 50.216C149.532 50.216 149.078 50.136 148.689 49.976C148.305 49.816 147.977 49.6 147.705 49.328C147.438 49.056 147.222 48.7467 147.057 48.4C146.892 48.048 146.772 47.6773 146.697 47.288C146.622 46.8933 146.585 46.5013 146.585 46.112V41.36H147.769V45.768C147.769 46.2427 147.814 46.6827 147.905 47.088C147.996 47.4933 148.14 47.848 148.337 48.152C148.54 48.4507 148.798 48.6827 149.113 48.848C149.433 49.0133 149.82 49.096 150.273 49.096C150.689 49.096 151.054 49.024 151.369 48.88C151.689 48.736 151.956 48.5307 152.169 48.264C152.388 47.992 152.553 47.664 152.665 47.28C152.777 46.8907 152.833 46.4533 152.833 45.968L153.665 46.152C153.665 47.0373 153.51 47.7813 153.201 48.384C152.892 48.9867 152.465 49.4427 151.921 49.752C151.377 50.0613 150.753 50.216 150.049 50.216ZM152.953 50V47.872H152.833V41.36H154.009V50H152.953ZM160.949 50C160.464 50.1013 159.984 50.1413 159.509 50.12C159.04 50.0987 158.618 49.9973 158.245 49.816C157.877 49.6347 157.597 49.352 157.405 48.968C157.25 48.648 157.165 48.3253 157.149 48C157.138 47.6693 157.133 47.2933 157.133 46.872V38.96H158.301V46.824C158.301 47.1867 158.304 47.4907 158.309 47.736C158.32 47.976 158.376 48.1893 158.477 48.376C158.669 48.7333 158.973 48.9467 159.389 49.016C159.81 49.0853 160.33 49.0693 160.949 48.968V50ZM155.285 42.368V41.36H160.949V42.368H155.285ZM161.851 50V49.752L167.427 42.456H162.267V41.36H169.363V41.632L163.795 48.904H169.059V50H161.851Z" fill="#121921"/>
<circle cx="204" cy="21" r="21" fill="#121921"/>
<g clip-path="url(#clip0_618_1001)">
<path d="M215.482 17.0138C214.683 16.7355 214.051 16.1215 213.749 15.3298L213.576 14.8782H208.01L207.838 15.3298C207.776 15.4935 207.699 15.6493 207.61 15.7963L202.674 12L191.953 20.2467L194.505 23.5638L195.971 22.4361V28.6049H194.571V30.0086H210.777V28.6049H209.377V25.9195C209.629 26.087 209.891 26.2408 210.162 26.3807L210.793 26.7074L211.425 26.3807C212.789 25.6756 213.933 24.6088 214.732 23.2967C215.531 21.9846 215.953 20.4789 215.953 18.9426V17.178L215.482 17.0138ZM214.549 18.9426C214.549 21.555 213.11 23.9233 210.793 25.1272C210.275 24.8577 209.801 24.5306 209.377 24.1553C208.816 23.6594 208.344 23.0795 207.973 22.4394C207.682 21.9379 207.455 21.3997 207.296 20.8359C207.127 20.2295 207.037 19.5936 207.037 18.9426V18.1434C207.297 18.0161 207.542 17.8641 207.769 17.6895C208.142 17.4009 208.467 17.0522 208.727 16.6558C208.807 16.5357 208.879 16.4106 208.946 16.2819H212.64C213.061 17.0914 213.729 17.7429 214.549 18.1434V18.9426ZM194.762 21.5953L193.922 20.5032L202.674 13.7712L206.596 16.7884C206.441 16.8781 206.276 16.9536 206.104 17.0138L205.633 17.178V17.7854L202.674 15.509L194.762 21.5953ZM203.644 28.6049H201.704V23.9335H203.644V28.6049ZM205.048 28.6049V22.5298H200.3V28.6049H197.375V21.3561L202.674 17.28L205.658 19.5753C205.757 20.8898 206.165 22.1653 206.854 23.2967C207.174 23.8226 207.55 24.3089 207.973 24.7487V28.6047H205.048V28.6049Z" fill="#6FB9FE"/>
<path d="M211.788 19.0109L210.768 19.9969L210.481 20.2743L209.323 19.1802L208.534 20.0165L208.359 20.2012L209.377 21.1624L210.492 22.2158L212.913 19.876L213.63 19.1826L212.655 18.1733L211.788 19.0109Z" fill="#6FB9FE"/>
</g>
<defs>
<clipPath id="clip0_618_1001">
<rect width="24" height="24" fill="white" transform="translate(192 9)"/>
</clipPath>
</defs>
</svg>
