<svg width="172" height="65" viewBox="0 0 172 65" fill="none" xmlns="http://www.w3.org/2000/svg">
<path d="M21 21H162C167.523 21 172 25.4772 172 31V55C172 60.5228 167.523 65 162 65H31C25.4772 65 21 60.5228 21 55V21Z" fill="#33E47A"/>
<path d="M53.736 50.24C52.9253 50.24 52.1947 50.0987 51.544 49.816C50.8933 49.5333 50.3387 49.1307 49.88 48.608C49.4267 48.0853 49.08 47.456 48.84 46.72C48.6 45.9787 48.48 45.152 48.48 44.24C48.48 43.0347 48.688 41.984 49.104 41.088C49.5253 40.1867 50.128 39.488 50.912 38.992C51.696 38.496 52.6373 38.248 53.736 38.248C54.9627 38.248 55.96 38.536 56.728 39.112C57.5013 39.6827 58.04 40.4507 58.344 41.416L57.16 41.704C56.9093 41 56.496 40.4373 55.92 40.016C55.3493 39.5947 54.6373 39.384 53.784 39.384C52.8827 39.3787 52.1333 39.5813 51.536 39.992C50.9387 40.3973 50.488 40.968 50.184 41.704C49.8853 42.4347 49.7333 43.28 49.728 44.24C49.7227 45.2 49.8693 46.0453 50.168 46.776C50.472 47.5013 50.9253 48.072 51.528 48.488C52.1307 48.8987 52.8827 49.1067 53.784 49.112C54.6107 49.112 55.2933 48.952 55.832 48.632C56.3707 48.312 56.7787 47.8533 57.056 47.256C57.3387 46.6587 57.4987 45.952 57.536 45.136H54.88V44.128H58.768C58.784 44.2507 58.792 44.3813 58.792 44.52C58.7973 44.6533 58.8 44.7493 58.8 44.808C58.8 45.848 58.6133 46.7787 58.24 47.6C57.8667 48.416 57.304 49.0613 56.552 49.536C55.8053 50.0053 54.8667 50.24 53.736 50.24ZM60.4013 50V41.36H61.4573V43.44L61.2493 43.168C61.3453 42.912 61.4706 42.6773 61.6253 42.464C61.7799 42.2453 61.9479 42.0667 62.1293 41.928C62.3533 41.7307 62.6146 41.5813 62.9133 41.48C63.2119 41.3733 63.5133 41.312 63.8173 41.296C64.1213 41.2747 64.3986 41.296 64.6493 41.36V42.464C64.3346 42.384 63.9906 42.3653 63.6173 42.408C63.2439 42.4507 62.8999 42.6 62.5853 42.856C62.2973 43.08 62.0813 43.3493 61.9373 43.664C61.7933 43.9733 61.6973 44.304 61.6493 44.656C61.6013 45.0027 61.5773 45.3467 61.5773 45.688V50H60.4013ZM69.6186 50.24C68.76 50.24 68.0266 50.0453 67.4186 49.656C66.8106 49.2667 66.344 48.728 66.0186 48.04C65.6933 47.352 65.5306 46.5627 65.5306 45.672C65.5306 44.7653 65.696 43.9707 66.0266 43.288C66.3573 42.6053 66.8266 42.0747 67.4346 41.696C68.048 41.312 68.776 41.12 69.6186 41.12C70.4826 41.12 71.2186 41.3147 71.8266 41.704C72.44 42.088 72.9066 42.624 73.2266 43.312C73.552 43.9947 73.7146 44.7813 73.7146 45.672C73.7146 46.5787 73.552 47.376 73.2266 48.064C72.9013 48.7467 72.432 49.28 71.8186 49.664C71.2053 50.048 70.472 50.24 69.6186 50.24ZM69.6186 49.112C70.5786 49.112 71.2933 48.7947 71.7626 48.16C72.232 47.52 72.4666 46.6907 72.4666 45.672C72.4666 44.6267 72.2293 43.7947 71.7546 43.176C71.2853 42.5573 70.5733 42.248 69.6186 42.248C68.9733 42.248 68.44 42.3947 68.0186 42.688C67.6026 42.976 67.2906 43.3787 67.0826 43.896C66.88 44.408 66.7786 45 66.7786 45.672C66.7786 46.712 67.0186 47.5467 67.4986 48.176C67.9786 48.8 68.6853 49.112 69.6186 49.112ZM78.6253 50.232C77.6119 50.232 76.7773 50.0133 76.1213 49.576C75.4706 49.1387 75.0706 48.5307 74.9213 47.752L76.1213 47.552C76.2493 48.0427 76.5399 48.4347 76.9933 48.728C77.4519 49.016 78.0173 49.16 78.6892 49.16C79.3453 49.16 79.8626 49.024 80.2413 48.752C80.6199 48.4747 80.8093 48.0987 80.8093 47.624C80.8093 47.3573 80.7479 47.1413 80.6253 46.976C80.5079 46.8053 80.2653 46.648 79.8973 46.504C79.5293 46.36 78.9799 46.1893 78.2493 45.992C77.4653 45.7787 76.8519 45.5653 76.4093 45.352C75.9666 45.1387 75.6519 44.8933 75.4653 44.616C75.2786 44.3333 75.1853 43.9893 75.1853 43.584C75.1853 43.0933 75.3239 42.664 75.6013 42.296C75.8786 41.9227 76.2626 41.6347 76.7533 41.432C77.2439 41.224 77.8146 41.12 78.4653 41.12C79.1159 41.12 79.6973 41.2267 80.2093 41.44C80.7266 41.648 81.1426 41.9413 81.4573 42.32C81.7719 42.6987 81.9586 43.1387 82.0173 43.64L80.8173 43.856C80.7373 43.3493 80.4839 42.9493 80.0573 42.656C79.6359 42.3573 79.0999 42.2027 78.4493 42.192C77.8359 42.176 77.3373 42.2933 76.9533 42.544C76.5693 42.7893 76.3773 43.1173 76.3773 43.528C76.3773 43.7573 76.4466 43.9547 76.5853 44.12C76.7239 44.28 76.9746 44.432 77.3373 44.576C77.7053 44.72 78.2279 44.8773 78.9053 45.048C79.6999 45.2507 80.3239 45.464 80.7773 45.688C81.2306 45.912 81.5533 46.176 81.7453 46.48C81.9373 46.784 82.0333 47.16 82.0333 47.608C82.0333 48.424 81.7293 49.0667 81.1213 49.536C80.5186 50 79.6866 50.232 78.6253 50.232ZM87.0315 50.232C86.0182 50.232 85.1835 50.0133 84.5275 49.576C83.8768 49.1387 83.4768 48.5307 83.3275 47.752L84.5275 47.552C84.6555 48.0427 84.9462 48.4347 85.3995 48.728C85.8582 49.016 86.4235 49.16 87.0955 49.16C87.7515 49.16 88.2688 49.024 88.6475 48.752C89.0262 48.4747 89.2155 48.0987 89.2155 47.624C89.2155 47.3573 89.1542 47.1413 89.0315 46.976C88.9142 46.8053 88.6715 46.648 88.3035 46.504C87.9355 46.36 87.3862 46.1893 86.6555 45.992C85.8715 45.7787 85.2582 45.5653 84.8155 45.352C84.3728 45.1387 84.0582 44.8933 83.8715 44.616C83.6848 44.3333 83.5915 43.9893 83.5915 43.584C83.5915 43.0933 83.7302 42.664 84.0075 42.296C84.2848 41.9227 84.6688 41.6347 85.1595 41.432C85.6502 41.224 86.2208 41.12 86.8715 41.12C87.5222 41.12 88.1035 41.2267 88.6155 41.44C89.1328 41.648 89.5488 41.9413 89.8635 42.32C90.1782 42.6987 90.3648 43.1387 90.4235 43.64L89.2235 43.856C89.1435 43.3493 88.8902 42.9493 88.4635 42.656C88.0422 42.3573 87.5062 42.2027 86.8555 42.192C86.2422 42.176 85.7435 42.2933 85.3595 42.544C84.9755 42.7893 84.7835 43.1173 84.7835 43.528C84.7835 43.7573 84.8528 43.9547 84.9915 44.12C85.1302 44.28 85.3808 44.432 85.7435 44.576C86.1115 44.72 86.6342 44.8773 87.3115 45.048C88.1062 45.2507 88.7302 45.464 89.1835 45.688C89.6368 45.912 89.9595 46.176 90.1515 46.48C90.3435 46.784 90.4395 47.16 90.4395 47.608C90.4395 48.424 90.1355 49.0667 89.5275 49.536C88.9248 50 88.0928 50.232 87.0315 50.232ZM95.8698 50.24C95.0271 50.24 94.2964 50.0533 93.6778 49.68C93.0644 49.3067 92.5871 48.7813 92.2458 48.104C91.9044 47.4267 91.7338 46.632 91.7338 45.72C91.7338 44.776 91.9018 43.96 92.2378 43.272C92.5738 42.584 93.0458 42.0533 93.6538 41.68C94.2671 41.3067 94.9898 41.12 95.8218 41.12C96.6751 41.12 97.4031 41.3173 98.0058 41.712C98.6084 42.1013 99.0644 42.6613 99.3738 43.392C99.6831 44.1227 99.8244 44.9947 99.7978 46.008H98.5978V45.592C98.5764 44.472 98.3338 43.6267 97.8698 43.056C97.4111 42.4853 96.7391 42.2 95.8538 42.2C94.9258 42.2 94.2138 42.5013 93.7178 43.104C93.2271 43.7067 92.9818 44.5653 92.9818 45.68C92.9818 46.768 93.2271 47.6133 93.7178 48.216C94.2138 48.8133 94.9151 49.112 95.8218 49.112C96.4404 49.112 96.9791 48.9707 97.4378 48.688C97.9018 48.4 98.2671 47.9867 98.5338 47.448L99.6298 47.872C99.2884 48.624 98.7844 49.208 98.1178 49.624C97.4564 50.0347 96.7071 50.24 95.8698 50.24ZM92.5658 46.008V45.024H99.1658V46.008H92.5658ZM104.776 50V38.48H109.224C109.336 38.48 109.462 38.4853 109.6 38.496C109.744 38.5013 109.888 38.5173 110.032 38.544C110.635 38.6347 111.144 38.8453 111.56 39.176C111.982 39.5013 112.299 39.912 112.512 40.408C112.731 40.904 112.84 41.4533 112.84 42.056C112.84 42.6533 112.731 43.2 112.512 43.696C112.294 44.192 111.974 44.6053 111.552 44.936C111.136 45.2613 110.63 45.4693 110.032 45.56C109.888 45.5813 109.744 45.5973 109.6 45.608C109.462 45.6187 109.336 45.624 109.224 45.624H105.952V50H104.776ZM105.952 44.504H109.192C109.288 44.504 109.4 44.4987 109.528 44.488C109.656 44.4773 109.782 44.4587 109.904 44.432C110.299 44.3467 110.622 44.184 110.872 43.944C111.128 43.704 111.318 43.4187 111.44 43.088C111.568 42.7573 111.632 42.4133 111.632 42.056C111.632 41.6987 111.568 41.3547 111.44 41.024C111.318 40.688 111.128 40.4 110.872 40.16C110.622 39.92 110.299 39.7573 109.904 39.672C109.782 39.6453 109.656 39.6293 109.528 39.624C109.4 39.6133 109.288 39.608 109.192 39.608H105.952V44.504ZM114.593 50V38.24H115.769V50H114.593ZM122.559 39.672V38.392H123.839V39.672H122.559ZM119.511 39.672V38.392H120.791V39.672H119.511ZM120.639 50.24C119.988 50.24 119.442 50.1227 118.999 49.888C118.562 49.6533 118.234 49.3413 118.015 48.952C117.796 48.5627 117.687 48.1387 117.687 47.68C117.687 47.2107 117.78 46.8107 117.967 46.48C118.159 46.144 118.418 45.8693 118.743 45.656C119.074 45.4427 119.455 45.28 119.887 45.168C120.324 45.0613 120.807 44.968 121.335 44.888C121.868 44.8027 122.388 44.7307 122.895 44.672C123.407 44.608 123.855 44.5467 124.239 44.488L123.823 44.744C123.839 43.8907 123.674 43.2587 123.327 42.848C122.98 42.4373 122.378 42.232 121.519 42.232C120.927 42.232 120.426 42.3653 120.015 42.632C119.61 42.8987 119.324 43.32 119.159 43.896L118.015 43.56C118.212 42.7867 118.61 42.1867 119.207 41.76C119.804 41.3333 120.58 41.12 121.535 41.12C122.324 41.12 122.994 41.2693 123.543 41.568C124.098 41.8613 124.49 42.288 124.719 42.848C124.826 43.0987 124.895 43.3787 124.927 43.688C124.959 43.9973 124.975 44.312 124.975 44.632V50H123.927V47.832L124.231 47.96C123.938 48.7013 123.482 49.2667 122.863 49.656C122.244 50.0453 121.503 50.24 120.639 50.24ZM120.775 49.224C121.324 49.224 121.804 49.1253 122.215 48.928C122.626 48.7307 122.956 48.4613 123.207 48.12C123.458 47.7733 123.62 47.384 123.695 46.952C123.759 46.6747 123.794 46.3707 123.799 46.04C123.804 45.704 123.807 45.4533 123.807 45.288L124.255 45.52C123.855 45.5733 123.42 45.6267 122.951 45.68C122.487 45.7333 122.028 45.7947 121.575 45.864C121.127 45.9333 120.722 46.016 120.359 46.112C120.114 46.1813 119.876 46.28 119.647 46.408C119.418 46.5307 119.228 46.696 119.079 46.904C118.935 47.112 118.863 47.3707 118.863 47.68C118.863 47.9307 118.924 48.1733 119.047 48.408C119.175 48.6427 119.378 48.8373 119.655 48.992C119.938 49.1467 120.311 49.224 120.775 49.224ZM133.298 50V45.592C133.298 45.112 133.252 44.672 133.162 44.272C133.071 43.8667 132.924 43.5147 132.722 43.216C132.524 42.912 132.266 42.6773 131.946 42.512C131.631 42.3467 131.247 42.264 130.794 42.264C130.378 42.264 130.01 42.336 129.69 42.48C129.375 42.624 129.108 42.832 128.89 43.104C128.676 43.3707 128.514 43.696 128.402 44.08C128.29 44.464 128.234 44.9013 128.234 45.392L127.402 45.208C127.402 44.3227 127.556 43.5787 127.866 42.976C128.175 42.3733 128.602 41.9173 129.146 41.608C129.69 41.2987 130.314 41.144 131.018 41.144C131.535 41.144 131.986 41.224 132.37 41.384C132.759 41.544 133.087 41.76 133.354 42.032C133.626 42.304 133.844 42.616 134.01 42.968C134.175 43.3147 134.295 43.6853 134.37 44.08C134.444 44.4693 134.482 44.8587 134.482 45.248V50H133.298ZM127.05 50V41.36H128.114V43.488H128.234V50H127.05ZM140.167 50.24C139.324 50.24 138.593 50.0533 137.975 49.68C137.361 49.3067 136.884 48.7813 136.543 48.104C136.201 47.4267 136.031 46.632 136.031 45.72C136.031 44.776 136.199 43.96 136.535 43.272C136.871 42.584 137.343 42.0533 137.951 41.68C138.564 41.3067 139.287 41.12 140.119 41.12C140.972 41.12 141.7 41.3173 142.303 41.712C142.905 42.1013 143.361 42.6613 143.671 43.392C143.98 44.1227 144.121 44.9947 144.095 46.008H142.895V45.592C142.873 44.472 142.631 43.6267 142.167 43.056C141.708 42.4853 141.036 42.2 140.151 42.2C139.223 42.2 138.511 42.5013 138.015 43.104C137.524 43.7067 137.279 44.5653 137.279 45.68C137.279 46.768 137.524 47.6133 138.015 48.216C138.511 48.8133 139.212 49.112 140.119 49.112C140.737 49.112 141.276 48.9707 141.735 48.688C142.199 48.4 142.564 47.9867 142.831 47.448L143.927 47.872C143.585 48.624 143.081 49.208 142.415 49.624C141.753 50.0347 141.004 50.24 140.167 50.24ZM136.863 46.008V45.024H143.463V46.008H136.863Z" fill="#121921"/>
<circle cx="21" cy="21" r="21" fill="#121921"/>
<g clip-path="url(#clip0_618_994)">
<path d="M32.8699 20.3708C32.4237 17.5787 30.9917 15.0199 28.8376 13.166C26.8377 11.4448 24.3268 10.4344 21.7022 10.281V9H20.2978V10.281C17.6731 10.4344 15.162 11.4448 13.1623 13.166C11.0083 15.0199 9.57623 17.5787 9.13 20.3708L9 21.1838H10.6002L10.8003 20.8202C11.3351 19.8486 12.3549 19.2451 13.4617 19.2451C14.5688 19.2451 15.5885 19.8486 16.1233 20.8202L16.3235 21.1838H18.1384L18.3385 20.8202C18.8734 19.8486 19.8931 19.2451 21 19.2451C22.1068 19.2451 23.1267 19.8486 23.6614 20.8202L23.8615 21.1838H25.6767L25.8768 20.8202C26.4115 19.8486 27.4314 19.2451 28.5382 19.2451C29.6451 19.2451 30.665 19.8486 31.1997 20.8202L31.3998 21.1838H33L32.8699 20.3708ZM13.4617 17.8407C12.5911 17.8407 11.7574 18.0959 11.051 18.5528C12.3409 15.071 15.3603 12.5273 19.0221 11.846C18.019 13.0774 17.2926 14.6962 16.8876 16.6294C16.6913 17.566 16.6001 18.4274 16.5593 19.1008C15.7416 18.3047 14.6354 17.8407 13.4617 17.8407ZM21 17.8407C19.8596 17.8407 18.7829 18.2787 17.9725 19.034C18.1067 17.1194 18.6819 13.7226 20.9998 11.8379C23.3104 13.7183 23.8886 17.1158 24.0252 19.032C23.2152 18.2779 22.1393 17.8407 21 17.8407ZM28.5382 17.8407C27.3645 17.8407 26.2584 18.3047 25.4406 19.1008C25.3998 18.4274 25.3086 17.566 25.1125 16.6294C24.7073 14.6962 23.9811 13.0774 22.9779 11.846C26.6398 12.5273 29.659 15.071 30.949 18.5528C30.2426 18.0959 29.4089 17.8407 28.5382 17.8407Z" fill="#33E47A"/>
<path d="M23.3003 23.0745H18.7V25.7212H16.0532V30.3214H18.7V32.9684H23.3003V30.3214H25.9471V25.7212H23.3003V23.0745ZM24.5427 27.1257V28.917H21.8959V31.5638H20.1044V28.917H17.4576V27.1257H20.1044V24.4789H21.8959V27.1257H24.5427Z" fill="#33E47A"/>
</g>
<defs>
<clipPath id="clip0_618_994">
<rect width="24" height="24" fill="white" transform="translate(9 9)"/>
</clipPath>
</defs>
</svg>
