<svg width="201" height="65" viewBox="0 0 201 65" fill="none" xmlns="http://www.w3.org/2000/svg">
<path d="M0 31C0 25.4772 4.47715 21 10 21H180V55C180 60.5228 175.523 65 170 65H10C4.47716 65 0 60.5228 0 55V31Z" fill="#6FB9FE"/>
<path d="M43.62 50V38.48H47.116C47.2387 38.48 47.4467 38.4827 47.74 38.488C48.0387 38.4933 48.324 38.5147 48.596 38.552C49.4707 38.6747 50.2013 39 50.788 39.528C51.3747 40.056 51.8147 40.728 52.108 41.544C52.4013 42.36 52.548 43.2587 52.548 44.24C52.548 45.2213 52.4013 46.12 52.108 46.936C51.8147 47.752 51.3747 48.424 50.788 48.952C50.2013 49.48 49.4707 49.8053 48.596 49.928C48.3293 49.96 48.044 49.9813 47.74 49.992C47.436 49.9973 47.228 50 47.116 50H43.62ZM44.836 48.872H47.116C47.3347 48.872 47.5693 48.8667 47.82 48.856C48.076 48.84 48.2947 48.8133 48.476 48.776C49.148 48.6587 49.6893 48.3867 50.1 47.96C50.516 47.5333 50.82 47 51.012 46.36C51.204 45.7147 51.3 45.008 51.3 44.24C51.3 43.4667 51.204 42.7573 51.012 42.112C50.82 41.4667 50.516 40.9333 50.1 40.512C49.684 40.0907 49.1427 39.8213 48.476 39.704C48.2947 39.6667 48.0733 39.6427 47.812 39.632C47.556 39.616 47.324 39.608 47.116 39.608H44.836V48.872ZM56.842 50.24C56.1913 50.24 55.6447 50.1227 55.202 49.888C54.7647 49.6533 54.4367 49.3413 54.218 48.952C53.9993 48.5627 53.89 48.1387 53.89 47.68C53.89 47.2107 53.9833 46.8107 54.17 46.48C54.362 46.144 54.6207 45.8693 54.946 45.656C55.2767 45.4427 55.658 45.28 56.09 45.168C56.5273 45.0613 57.01 44.968 57.538 44.888C58.0713 44.8027 58.5913 44.7307 59.098 44.672C59.61 44.608 60.058 44.5467 60.442 44.488L60.026 44.744C60.042 43.8907 59.8767 43.2587 59.53 42.848C59.1833 42.4373 58.5807 42.232 57.722 42.232C57.13 42.232 56.6287 42.3653 56.218 42.632C55.8127 42.8987 55.5273 43.32 55.362 43.896L54.218 43.56C54.4153 42.7867 54.8127 42.1867 55.41 41.76C56.0073 41.3333 56.7833 41.12 57.738 41.12C58.5273 41.12 59.1967 41.2693 59.746 41.568C60.3007 41.8613 60.6927 42.288 60.922 42.848C61.0287 43.0987 61.098 43.3787 61.13 43.688C61.162 43.9973 61.178 44.312 61.178 44.632V50H60.13V47.832L60.434 47.96C60.1407 48.7013 59.6847 49.2667 59.066 49.656C58.4473 50.0453 57.706 50.24 56.842 50.24ZM56.978 49.224C57.5273 49.224 58.0073 49.1253 58.418 48.928C58.8287 48.7307 59.1593 48.4613 59.41 48.12C59.6607 47.7733 59.8233 47.384 59.898 46.952C59.962 46.6747 59.9967 46.3707 60.002 46.04C60.0073 45.704 60.01 45.4533 60.01 45.288L60.458 45.52C60.058 45.5733 59.6233 45.6267 59.154 45.68C58.69 45.7333 58.2313 45.7947 57.778 45.864C57.33 45.9333 56.9247 46.016 56.562 46.112C56.3167 46.1813 56.0793 46.28 55.85 46.408C55.6207 46.5307 55.4313 46.696 55.282 46.904C55.138 47.112 55.066 47.3707 55.066 47.68C55.066 47.9307 55.1273 48.1733 55.25 48.408C55.378 48.6427 55.5807 48.8373 55.858 48.992C56.1407 49.1467 56.514 49.224 56.978 49.224ZM67.9646 50C67.4793 50.1013 66.9993 50.1413 66.5246 50.12C66.0553 50.0987 65.634 49.9973 65.2606 49.816C64.8926 49.6347 64.6126 49.352 64.4206 48.968C64.266 48.648 64.1806 48.3253 64.1646 48C64.154 47.6693 64.1486 47.2933 64.1486 46.872V38.96H65.3166V46.824C65.3166 47.1867 65.3193 47.4907 65.3246 47.736C65.3353 47.976 65.3913 48.1893 65.4926 48.376C65.6846 48.7333 65.9886 48.9467 66.4046 49.016C66.826 49.0853 67.346 49.0693 67.9646 48.968V50ZM62.3006 42.368V41.36H67.9646V42.368H62.3006ZM73.0104 50.24C72.1677 50.24 71.437 50.0533 70.8184 49.68C70.205 49.3067 69.7277 48.7813 69.3864 48.104C69.045 47.4267 68.8744 46.632 68.8744 45.72C68.8744 44.776 69.0424 43.96 69.3784 43.272C69.7144 42.584 70.1864 42.0533 70.7944 41.68C71.4077 41.3067 72.1304 41.12 72.9624 41.12C73.8157 41.12 74.5437 41.3173 75.1464 41.712C75.749 42.1013 76.205 42.6613 76.5144 43.392C76.8237 44.1227 76.965 44.9947 76.9384 46.008H75.7384V45.592C75.717 44.472 75.4744 43.6267 75.0104 43.056C74.5517 42.4853 73.8797 42.2 72.9944 42.2C72.0664 42.2 71.3544 42.5013 70.8584 43.104C70.3677 43.7067 70.1224 44.5653 70.1224 45.68C70.1224 46.768 70.3677 47.6133 70.8584 48.216C71.3544 48.8133 72.0557 49.112 72.9624 49.112C73.581 49.112 74.1197 48.9707 74.5784 48.688C75.0424 48.4 75.4077 47.9867 75.6744 47.448L76.7704 47.872C76.429 48.624 75.925 49.208 75.2584 49.624C74.597 50.0347 73.8477 50.24 73.0104 50.24ZM69.7064 46.008V45.024H76.3064V46.008H69.7064ZM84.7194 50V45.592C84.7194 45.112 84.674 44.672 84.5834 44.272C84.4927 43.8667 84.346 43.5147 84.1434 43.216C83.946 42.912 83.6874 42.6773 83.3674 42.512C83.0527 42.3467 82.6687 42.264 82.2154 42.264C81.7994 42.264 81.4314 42.336 81.1114 42.48C80.7967 42.624 80.53 42.832 80.3114 43.104C80.098 43.3707 79.9354 43.696 79.8234 44.08C79.7114 44.464 79.6554 44.9013 79.6554 45.392L78.8234 45.208C78.8234 44.3227 78.978 43.5787 79.2874 42.976C79.5967 42.3733 80.0234 41.9173 80.5674 41.608C81.1114 41.2987 81.7354 41.144 82.4394 41.144C82.9567 41.144 83.4074 41.224 83.7914 41.384C84.1807 41.544 84.5087 41.76 84.7754 42.032C85.0474 42.304 85.266 42.616 85.4314 42.968C85.5967 43.3147 85.7167 43.6853 85.7914 44.08C85.866 44.4693 85.9034 44.8587 85.9034 45.248V50H84.7194ZM78.4714 50V41.36H79.5354V43.488H79.6554V50H78.4714ZM91.2034 50.232C90.19 50.232 89.3554 50.0133 88.6994 49.576C88.0487 49.1387 87.6487 48.5307 87.4994 47.752L88.6994 47.552C88.8274 48.0427 89.118 48.4347 89.5714 48.728C90.03 49.016 90.5954 49.16 91.2674 49.16C91.9234 49.16 92.4407 49.024 92.8194 48.752C93.198 48.4747 93.3874 48.0987 93.3874 47.624C93.3874 47.3573 93.326 47.1413 93.2034 46.976C93.086 46.8053 92.8434 46.648 92.4754 46.504C92.1074 46.36 91.558 46.1893 90.8274 45.992C90.0434 45.7787 89.43 45.5653 88.9874 45.352C88.5447 45.1387 88.23 44.8933 88.0434 44.616C87.8567 44.3333 87.7634 43.9893 87.7634 43.584C87.7634 43.0933 87.902 42.664 88.1794 42.296C88.4567 41.9227 88.8407 41.6347 89.3314 41.432C89.822 41.224 90.3927 41.12 91.0434 41.12C91.694 41.12 92.2754 41.2267 92.7874 41.44C93.3047 41.648 93.7207 41.9413 94.0354 42.32C94.35 42.6987 94.5367 43.1387 94.5954 43.64L93.3954 43.856C93.3154 43.3493 93.062 42.9493 92.6354 42.656C92.214 42.3573 91.678 42.2027 91.0274 42.192C90.414 42.176 89.9154 42.2933 89.5314 42.544C89.1474 42.7893 88.9554 43.1173 88.9554 43.528C88.9554 43.7573 89.0247 43.9547 89.1634 44.12C89.302 44.28 89.5527 44.432 89.9154 44.576C90.2834 44.72 90.806 44.8773 91.4834 45.048C92.278 45.2507 92.902 45.464 93.3554 45.688C93.8087 45.912 94.1314 46.176 94.3234 46.48C94.5154 46.784 94.6114 47.16 94.6114 47.608C94.6114 48.424 94.3074 49.0667 93.6994 49.536C93.0967 50 92.2647 50.232 91.2034 50.232ZM99.9696 50.24C99.1003 50.24 98.3643 50.0453 97.7616 49.656C97.159 49.2667 96.7003 48.7307 96.3856 48.048C96.0763 47.36 95.9163 46.5707 95.9056 45.68C95.9163 44.7733 96.0816 43.9787 96.4016 43.296C96.7216 42.608 97.183 42.0747 97.7856 41.696C98.3883 41.312 99.119 41.12 99.9776 41.12C100.852 41.12 101.612 41.3333 102.258 41.76C102.908 42.1867 103.354 42.7707 103.594 43.512L102.442 43.88C102.239 43.3627 101.916 42.9627 101.474 42.68C101.036 42.392 100.535 42.248 99.9696 42.248C99.335 42.248 98.8096 42.3947 98.3936 42.688C97.9776 42.976 97.6683 43.3787 97.4656 43.896C97.263 44.4133 97.159 45.008 97.1536 45.68C97.1643 46.7147 97.4043 47.5467 97.8736 48.176C98.343 48.8 99.0416 49.112 99.9696 49.112C100.556 49.112 101.055 48.9787 101.466 48.712C101.882 48.44 102.196 48.0453 102.41 47.528L103.594 47.88C103.274 48.648 102.804 49.2347 102.186 49.64C101.567 50.04 100.828 50.24 99.9696 50.24ZM111.485 50V45.592C111.485 45.112 111.44 44.672 111.349 44.272C111.258 43.8667 111.112 43.5147 110.909 43.216C110.712 42.912 110.453 42.6773 110.133 42.512C109.818 42.3467 109.434 42.264 108.981 42.264C108.565 42.264 108.197 42.336 107.877 42.48C107.562 42.624 107.296 42.832 107.077 43.104C106.864 43.3707 106.701 43.696 106.589 44.08C106.477 44.464 106.421 44.9013 106.421 45.392L105.589 45.208C105.589 44.3227 105.744 43.5787 106.053 42.976C106.362 42.3733 106.789 41.9173 107.333 41.608C107.877 41.2987 108.501 41.144 109.205 41.144C109.722 41.144 110.173 41.224 110.557 41.384C110.946 41.544 111.274 41.76 111.541 42.032C111.813 42.304 112.032 42.616 112.197 42.968C112.362 43.3147 112.482 43.6853 112.557 44.08C112.632 44.4693 112.669 44.8587 112.669 45.248V50H111.485ZM105.237 50V38.48H106.301V44.984H106.421V50H105.237ZM118.049 50.216C117.532 50.216 117.078 50.136 116.689 49.976C116.305 49.816 115.977 49.6 115.705 49.328C115.438 49.056 115.222 48.7467 115.057 48.4C114.892 48.048 114.772 47.6773 114.697 47.288C114.622 46.8933 114.585 46.5013 114.585 46.112V41.36H115.769V45.768C115.769 46.2427 115.814 46.6827 115.905 47.088C115.996 47.4933 116.14 47.848 116.337 48.152C116.54 48.4507 116.798 48.6827 117.113 48.848C117.433 49.0133 117.82 49.096 118.273 49.096C118.689 49.096 119.054 49.024 119.369 48.88C119.689 48.736 119.956 48.5307 120.169 48.264C120.388 47.992 120.553 47.664 120.665 47.28C120.777 46.8907 120.833 46.4533 120.833 45.968L121.665 46.152C121.665 47.0373 121.51 47.7813 121.201 48.384C120.892 48.9867 120.465 49.4427 119.921 49.752C119.377 50.0613 118.753 50.216 118.049 50.216ZM120.953 50V47.872H120.833V41.36H122.009V50H120.953ZM128.949 50C128.464 50.1013 127.984 50.1413 127.509 50.12C127.04 50.0987 126.618 49.9973 126.245 49.816C125.877 49.6347 125.597 49.352 125.405 48.968C125.25 48.648 125.165 48.3253 125.149 48C125.138 47.6693 125.133 47.2933 125.133 46.872V38.96H126.301V46.824C126.301 47.1867 126.304 47.4907 126.309 47.736C126.32 47.976 126.376 48.1893 126.477 48.376C126.669 48.7333 126.973 48.9467 127.389 49.016C127.81 49.0853 128.33 49.0693 128.949 48.968V50ZM123.285 42.368V41.36H128.949V42.368H123.285ZM129.851 50V49.752L135.427 42.456H130.267V41.36H137.363V41.632L131.795 48.904H137.059V50H129.851Z" fill="white"/>
<circle cx="180" cy="21" r="21" fill="#07133B"/>
<g clip-path="url(#clip0_618_1288)">
<path d="M191.482 17.0138C190.683 16.7355 190.051 16.1215 189.749 15.3298L189.576 14.8782H184.01L183.838 15.3298C183.776 15.4935 183.699 15.6493 183.61 15.7963L178.674 12L167.953 20.2467L170.505 23.5638L171.971 22.4361V28.6049H170.571V30.0086H186.777V28.6049H185.377V25.9195C185.629 26.087 185.891 26.2408 186.162 26.3807L186.793 26.7074L187.425 26.3807C188.789 25.6756 189.933 24.6088 190.732 23.2967C191.531 21.9846 191.953 20.4789 191.953 18.9426V17.178L191.482 17.0138ZM190.549 18.9426C190.549 21.555 189.11 23.9233 186.793 25.1272C186.275 24.8577 185.801 24.5306 185.377 24.1553C184.816 23.6594 184.344 23.0795 183.973 22.4394C183.682 21.9379 183.455 21.3997 183.296 20.8359C183.127 20.2295 183.037 19.5936 183.037 18.9426V18.1434C183.297 18.0161 183.542 17.8641 183.769 17.6895C184.142 17.4009 184.467 17.0522 184.727 16.6558C184.807 16.5357 184.879 16.4106 184.946 16.2819H188.64C189.061 17.0914 189.729 17.7429 190.549 18.1434V18.9426ZM170.762 21.5953L169.922 20.5032L178.674 13.7712L182.596 16.7884C182.441 16.8781 182.276 16.9536 182.104 17.0138L181.633 17.178V17.7854L178.674 15.509L170.762 21.5953ZM179.644 28.6049H177.704V23.9335H179.644V28.6049ZM181.048 28.6049V22.5298H176.3V28.6049H173.375V21.3561L178.674 17.28L181.658 19.5753C181.757 20.8898 182.165 22.1653 182.854 23.2967C183.174 23.8226 183.55 24.3089 183.973 24.7487V28.6047H181.048V28.6049Z" fill="#6FB9FE"/>
<path d="M187.788 19.0109L186.768 19.9969L186.481 20.2743L185.323 19.1802L184.534 20.0165L184.359 20.2012L185.377 21.1624L186.492 22.2158L188.913 19.876L189.63 19.1826L188.655 18.1733L187.788 19.0109Z" fill="#6FB9FE"/>
</g>
<defs>
<clipPath id="clip0_618_1288">
<rect width="24" height="24" fill="white" transform="translate(168 9)"/>
</clipPath>
</defs>
</svg>
