<svg width="223" height="65" viewBox="0 0 223 65" fill="none" xmlns="http://www.w3.org/2000/svg">
<path d="M21 21H213C218.523 21 223 25.4772 223 31V55C223 60.5228 218.523 65 213 65H31C25.4771 65 21 60.5228 21 55V21Z" fill="#33E47A"/>
<path d="M59.8 50V49.752L66.096 39.608H59.96V38.48H68.024V38.752L61.76 48.88H67.968V50H59.8ZM73.2521 50.216C72.7348 50.216 72.2815 50.136 71.8921 49.976C71.5081 49.816 71.1801 49.6 70.9081 49.328C70.6415 49.056 70.4255 48.7467 70.2601 48.4C70.0948 48.048 69.9748 47.6773 69.9001 47.288C69.8255 46.8933 69.7881 46.5013 69.7881 46.112V41.36H70.9721V45.768C70.9721 46.2427 71.0175 46.6827 71.1081 47.088C71.1988 47.4933 71.3428 47.848 71.5401 48.152C71.7428 48.4507 72.0015 48.6827 72.3161 48.848C72.6361 49.0133 73.0228 49.096 73.4761 49.096C73.8921 49.096 74.2575 49.024 74.5721 48.88C74.8921 48.736 75.1588 48.5307 75.3721 48.264C75.5908 47.992 75.7561 47.664 75.8681 47.28C75.9801 46.8907 76.0361 46.4533 76.0361 45.968L76.8681 46.152C76.8681 47.0373 76.7135 47.7813 76.4041 48.384C76.0948 48.9867 75.6681 49.4427 75.1241 49.752C74.5801 50.0613 73.9561 50.216 73.2521 50.216ZM76.1561 50V47.872H76.0361V41.36H77.2121V50H76.1561ZM82.6721 50.232C81.6588 50.232 80.8241 50.0133 80.1681 49.576C79.5175 49.1387 79.1175 48.5307 78.9681 47.752L80.1681 47.552C80.2961 48.0427 80.5868 48.4347 81.0401 48.728C81.4988 49.016 82.0641 49.16 82.7361 49.16C83.3921 49.16 83.9095 49.024 84.2881 48.752C84.6668 48.4747 84.8561 48.0987 84.8561 47.624C84.8561 47.3573 84.7948 47.1413 84.6721 46.976C84.5548 46.8053 84.3121 46.648 83.9441 46.504C83.5761 46.36 83.0268 46.1893 82.2961 45.992C81.5121 45.7787 80.8988 45.5653 80.4561 45.352C80.0135 45.1387 79.6988 44.8933 79.5121 44.616C79.3255 44.3333 79.2321 43.9893 79.2321 43.584C79.2321 43.0933 79.3708 42.664 79.6481 42.296C79.9255 41.9227 80.3095 41.6347 80.8001 41.432C81.2908 41.224 81.8615 41.12 82.5121 41.12C83.1628 41.12 83.7441 41.2267 84.2561 41.44C84.7735 41.648 85.1895 41.9413 85.5041 42.32C85.8188 42.6987 86.0055 43.1387 86.0641 43.64L84.8641 43.856C84.7841 43.3493 84.5308 42.9493 84.1041 42.656C83.6828 42.3573 83.1468 42.2027 82.4961 42.192C81.8828 42.176 81.3841 42.2933 81.0001 42.544C80.6161 42.7893 80.4241 43.1173 80.4241 43.528C80.4241 43.7573 80.4935 43.9547 80.6321 44.12C80.7708 44.28 81.0215 44.432 81.3841 44.576C81.7521 44.72 82.2748 44.8773 82.9521 45.048C83.7468 45.2507 84.3708 45.464 84.8241 45.688C85.2775 45.912 85.6001 46.176 85.7921 46.48C85.9841 46.784 86.0801 47.16 86.0801 47.608C86.0801 48.424 85.7761 49.0667 85.1681 49.536C84.5655 50 83.7335 50.232 82.6721 50.232ZM90.3264 50.24C89.6757 50.24 89.129 50.1227 88.6864 49.888C88.249 49.6533 87.921 49.3413 87.7024 48.952C87.4837 48.5627 87.3744 48.1387 87.3744 47.68C87.3744 47.2107 87.4677 46.8107 87.6544 46.48C87.8464 46.144 88.105 45.8693 88.4304 45.656C88.761 45.4427 89.1424 45.28 89.5744 45.168C90.0117 45.0613 90.4944 44.968 91.0224 44.888C91.5557 44.8027 92.0757 44.7307 92.5824 44.672C93.0944 44.608 93.5424 44.5467 93.9264 44.488L93.5104 44.744C93.5264 43.8907 93.361 43.2587 93.0144 42.848C92.6677 42.4373 92.065 42.232 91.2064 42.232C90.6144 42.232 90.113 42.3653 89.7024 42.632C89.297 42.8987 89.0117 43.32 88.8464 43.896L87.7024 43.56C87.8997 42.7867 88.297 42.1867 88.8944 41.76C89.4917 41.3333 90.2677 41.12 91.2224 41.12C92.0117 41.12 92.681 41.2693 93.2304 41.568C93.785 41.8613 94.177 42.288 94.4064 42.848C94.513 43.0987 94.5824 43.3787 94.6144 43.688C94.6464 43.9973 94.6624 44.312 94.6624 44.632V50H93.6144V47.832L93.9184 47.96C93.625 48.7013 93.169 49.2667 92.5504 49.656C91.9317 50.0453 91.1904 50.24 90.3264 50.24ZM90.4624 49.224C91.0117 49.224 91.4917 49.1253 91.9024 48.928C92.313 48.7307 92.6437 48.4613 92.8944 48.12C93.145 47.7733 93.3077 47.384 93.3824 46.952C93.4464 46.6747 93.481 46.3707 93.4864 46.04C93.4917 45.704 93.4944 45.4533 93.4944 45.288L93.9424 45.52C93.5424 45.5733 93.1077 45.6267 92.6384 45.68C92.1744 45.7333 91.7157 45.7947 91.2624 45.864C90.8144 45.9333 90.409 46.016 90.0464 46.112C89.801 46.1813 89.5637 46.28 89.3344 46.408C89.105 46.5307 88.9157 46.696 88.7664 46.904C88.6224 47.112 88.5504 47.3707 88.5504 47.68C88.5504 47.9307 88.6117 48.1733 88.7344 48.408C88.8624 48.6427 89.065 48.8373 89.3424 48.992C89.625 49.1467 89.9984 49.224 90.4624 49.224ZM107.049 50L107.057 44.328C107.057 43.6613 106.87 43.1387 106.497 42.76C106.129 42.376 105.66 42.184 105.089 42.184C104.764 42.184 104.446 42.2587 104.137 42.408C103.828 42.5573 103.572 42.7973 103.369 43.128C103.172 43.4587 103.073 43.8907 103.073 44.424L102.377 44.224C102.361 43.6053 102.481 43.064 102.737 42.6C102.998 42.136 103.356 41.776 103.809 41.52C104.268 41.2587 104.785 41.128 105.361 41.128C106.23 41.128 106.926 41.3973 107.449 41.936C107.972 42.4693 108.233 43.192 108.233 44.104L108.225 50H107.049ZM96.737 50V41.36H97.793V43.488H97.921V50H96.737ZM101.905 50L101.913 44.408C101.913 43.72 101.729 43.1787 101.361 42.784C100.998 42.384 100.518 42.184 99.921 42.184C99.3237 42.184 98.841 42.3893 98.473 42.8C98.105 43.2053 97.921 43.7467 97.921 44.424L97.217 44.04C97.217 43.4853 97.3477 42.9893 97.609 42.552C97.8703 42.1093 98.2277 41.7627 98.681 41.512C99.1343 41.256 99.649 41.128 100.225 41.128C100.774 41.128 101.262 41.2453 101.689 41.48C102.121 41.7147 102.46 42.056 102.705 42.504C102.95 42.952 103.073 43.496 103.073 44.136L103.065 50H101.905ZM120.612 50L120.62 44.328C120.62 43.6613 120.433 43.1387 120.06 42.76C119.692 42.376 119.222 42.184 118.652 42.184C118.326 42.184 118.009 42.2587 117.7 42.408C117.39 42.5573 117.134 42.7973 116.932 43.128C116.734 43.4587 116.636 43.8907 116.636 44.424L115.94 44.224C115.924 43.6053 116.044 43.064 116.3 42.6C116.561 42.136 116.918 41.776 117.372 41.52C117.83 41.2587 118.348 41.128 118.924 41.128C119.793 41.128 120.489 41.3973 121.012 41.936C121.534 42.4693 121.796 43.192 121.796 44.104L121.788 50H120.612ZM110.3 50V41.36H111.356V43.488H111.484V50H110.3ZM115.468 50L115.476 44.408C115.476 43.72 115.292 43.1787 114.924 42.784C114.561 42.384 114.081 42.184 113.484 42.184C112.886 42.184 112.404 42.3893 112.036 42.8C111.668 43.2053 111.484 43.7467 111.484 44.424L110.78 44.04C110.78 43.4853 110.91 42.9893 111.172 42.552C111.433 42.1093 111.79 41.7627 112.244 41.512C112.697 41.256 113.212 41.128 113.788 41.128C114.337 41.128 114.825 41.2453 115.252 41.48C115.684 41.7147 116.022 42.056 116.268 42.504C116.513 42.952 116.636 43.496 116.636 44.136L116.628 50H115.468ZM127.479 50.24C126.636 50.24 125.906 50.0533 125.287 49.68C124.674 49.3067 124.196 48.7813 123.855 48.104C123.514 47.4267 123.343 46.632 123.343 45.72C123.343 44.776 123.511 43.96 123.847 43.272C124.183 42.584 124.655 42.0533 125.263 41.68C125.876 41.3067 126.599 41.12 127.431 41.12C128.284 41.12 129.012 41.3173 129.615 41.712C130.218 42.1013 130.674 42.6613 130.983 43.392C131.292 44.1227 131.434 44.9947 131.407 46.008H130.207V45.592C130.186 44.472 129.943 43.6267 129.479 43.056C129.02 42.4853 128.348 42.2 127.463 42.2C126.535 42.2 125.823 42.5013 125.327 43.104C124.836 43.7067 124.591 44.5653 124.591 45.68C124.591 46.768 124.836 47.6133 125.327 48.216C125.823 48.8133 126.524 49.112 127.431 49.112C128.05 49.112 128.588 48.9707 129.047 48.688C129.511 48.4 129.876 47.9867 130.143 47.448L131.239 47.872C130.898 48.624 130.394 49.208 129.727 49.624C129.066 50.0347 128.316 50.24 127.479 50.24ZM124.175 46.008V45.024H130.775V46.008H124.175ZM139.188 50V45.592C139.188 45.112 139.143 44.672 139.052 44.272C138.961 43.8667 138.815 43.5147 138.612 43.216C138.415 42.912 138.156 42.6773 137.836 42.512C137.521 42.3467 137.137 42.264 136.684 42.264C136.268 42.264 135.9 42.336 135.58 42.48C135.265 42.624 134.999 42.832 134.78 43.104C134.567 43.3707 134.404 43.696 134.292 44.08C134.18 44.464 134.124 44.9013 134.124 45.392L133.292 45.208C133.292 44.3227 133.447 43.5787 133.756 42.976C134.065 42.3733 134.492 41.9173 135.036 41.608C135.58 41.2987 136.204 41.144 136.908 41.144C137.425 41.144 137.876 41.224 138.26 41.384C138.649 41.544 138.977 41.76 139.244 42.032C139.516 42.304 139.735 42.616 139.9 42.968C140.065 43.3147 140.185 43.6853 140.26 44.08C140.335 44.4693 140.372 44.8587 140.372 45.248V50H139.188ZM132.94 50V41.36H134.004V43.488H134.124V50H132.94ZM144.92 50.24C144.269 50.24 143.723 50.1227 143.28 49.888C142.843 49.6533 142.515 49.3413 142.296 48.952C142.077 48.5627 141.968 48.1387 141.968 47.68C141.968 47.2107 142.061 46.8107 142.248 46.48C142.44 46.144 142.699 45.8693 143.024 45.656C143.355 45.4427 143.736 45.28 144.168 45.168C144.605 45.0613 145.088 44.968 145.616 44.888C146.149 44.8027 146.669 44.7307 147.176 44.672C147.688 44.608 148.136 44.5467 148.52 44.488L148.104 44.744C148.12 43.8907 147.955 43.2587 147.608 42.848C147.261 42.4373 146.659 42.232 145.8 42.232C145.208 42.232 144.707 42.3653 144.296 42.632C143.891 42.8987 143.605 43.32 143.44 43.896L142.296 43.56C142.493 42.7867 142.891 42.1867 143.488 41.76C144.085 41.3333 144.861 41.12 145.816 41.12C146.605 41.12 147.275 41.2693 147.824 41.568C148.379 41.8613 148.771 42.288 149 42.848C149.107 43.0987 149.176 43.3787 149.208 43.688C149.24 43.9973 149.256 44.312 149.256 44.632V50H148.208V47.832L148.512 47.96C148.219 48.7013 147.763 49.2667 147.144 49.656C146.525 50.0453 145.784 50.24 144.92 50.24ZM145.056 49.224C145.605 49.224 146.085 49.1253 146.496 48.928C146.907 48.7307 147.237 48.4613 147.488 48.12C147.739 47.7733 147.901 47.384 147.976 46.952C148.04 46.6747 148.075 46.3707 148.08 46.04C148.085 45.704 148.088 45.4533 148.088 45.288L148.536 45.52C148.136 45.5733 147.701 45.6267 147.232 45.68C146.768 45.7333 146.309 45.7947 145.856 45.864C145.408 45.9333 145.003 46.016 144.64 46.112C144.395 46.1813 144.157 46.28 143.928 46.408C143.699 46.5307 143.509 46.696 143.36 46.904C143.216 47.112 143.144 47.3707 143.144 47.68C143.144 47.9307 143.205 48.1733 143.328 48.408C143.456 48.6427 143.659 48.8373 143.936 48.992C144.219 49.1467 144.592 49.224 145.056 49.224ZM151.339 50V41.36H152.395V43.44L152.187 43.168C152.283 42.912 152.408 42.6773 152.563 42.464C152.717 42.2453 152.885 42.0667 153.067 41.928C153.291 41.7307 153.552 41.5813 153.851 41.48C154.149 41.3733 154.451 41.312 154.755 41.296C155.059 41.2747 155.336 41.296 155.587 41.36V42.464C155.272 42.384 154.928 42.3653 154.555 42.408C154.181 42.4507 153.837 42.6 153.523 42.856C153.235 43.08 153.019 43.3493 152.875 43.664C152.731 43.9733 152.635 44.304 152.587 44.656C152.539 45.0027 152.515 45.3467 152.515 45.688V50H151.339ZM160.984 50.24C160.19 50.24 159.518 50.04 158.968 49.64C158.419 49.2347 158.003 48.688 157.72 48C157.438 47.3067 157.296 46.5307 157.296 45.672C157.296 44.7973 157.438 44.0187 157.72 43.336C158.008 42.648 158.43 42.1067 158.984 41.712C159.539 41.3173 160.222 41.12 161.032 41.12C161.822 41.12 162.499 41.32 163.064 41.72C163.63 42.12 164.062 42.664 164.36 43.352C164.664 44.04 164.816 44.8133 164.816 45.672C164.816 46.536 164.664 47.312 164.36 48C164.056 48.688 163.619 49.2347 163.048 49.64C162.478 50.04 161.79 50.24 160.984 50.24ZM157.096 50V38.48H158.28V43.496H158.152V50H157.096ZM160.864 49.144C161.467 49.144 161.968 48.992 162.368 48.688C162.768 48.384 163.067 47.9707 163.264 47.448C163.467 46.92 163.568 46.328 163.568 45.672C163.568 45.0213 163.47 44.4347 163.272 43.912C163.075 43.3893 162.774 42.976 162.368 42.672C161.968 42.368 161.459 42.216 160.84 42.216C160.238 42.216 159.736 42.3627 159.336 42.656C158.942 42.9493 158.646 43.3573 158.448 43.88C158.251 44.3973 158.152 44.9947 158.152 45.672C158.152 46.3387 158.251 46.936 158.448 47.464C158.646 47.9867 158.944 48.3973 159.344 48.696C159.744 48.9947 160.251 49.144 160.864 49.144ZM170.229 50.24C169.386 50.24 168.656 50.0533 168.037 49.68C167.424 49.3067 166.946 48.7813 166.605 48.104C166.264 47.4267 166.093 46.632 166.093 45.72C166.093 44.776 166.261 43.96 166.597 43.272C166.933 42.584 167.405 42.0533 168.013 41.68C168.626 41.3067 169.349 41.12 170.181 41.12C171.034 41.12 171.762 41.3173 172.365 41.712C172.968 42.1013 173.424 42.6613 173.733 43.392C174.042 44.1227 174.184 44.9947 174.157 46.008H172.957V45.592C172.936 44.472 172.693 43.6267 172.229 43.056C171.77 42.4853 171.098 42.2 170.213 42.2C169.285 42.2 168.573 42.5013 168.077 43.104C167.586 43.7067 167.341 44.5653 167.341 45.68C167.341 46.768 167.586 47.6133 168.077 48.216C168.573 48.8133 169.274 49.112 170.181 49.112C170.8 49.112 171.338 48.9707 171.797 48.688C172.261 48.4 172.626 47.9867 172.893 47.448L173.989 47.872C173.648 48.624 173.144 49.208 172.477 49.624C171.816 50.0347 171.066 50.24 170.229 50.24ZM166.925 46.008V45.024H173.525V46.008H166.925ZM176.093 39.72V38.4H177.269V39.72H176.093ZM176.093 50V41.36H177.269V50H176.093ZM184.371 50C183.886 50.1013 183.406 50.1413 182.931 50.12C182.462 50.0987 182.04 49.9973 181.667 49.816C181.299 49.6347 181.019 49.352 180.827 48.968C180.672 48.648 180.587 48.3253 180.571 48C180.56 47.6693 180.555 47.2933 180.555 46.872V38.96H181.723V46.824C181.723 47.1867 181.726 47.4907 181.731 47.736C181.742 47.976 181.798 48.1893 181.899 48.376C182.091 48.7333 182.395 48.9467 182.811 49.016C183.232 49.0853 183.752 49.0693 184.371 48.968V50ZM178.707 42.368V41.36H184.371V42.368H178.707Z" fill="white"/>
<circle cx="21" cy="21" r="21" fill="#07133B"/>
<g clip-path="url(#clip0_618_1281)">
<path d="M32.8699 20.3708C32.4237 17.5787 30.9917 15.0199 28.8376 13.166C26.8377 11.4448 24.3268 10.4344 21.7022 10.281V9H20.2978V10.281C17.6731 10.4344 15.162 11.4448 13.1623 13.166C11.0083 15.0199 9.57623 17.5787 9.13 20.3708L9 21.1838H10.6002L10.8003 20.8202C11.3351 19.8486 12.3549 19.2451 13.4617 19.2451C14.5688 19.2451 15.5885 19.8486 16.1233 20.8202L16.3235 21.1838H18.1384L18.3385 20.8202C18.8734 19.8486 19.8931 19.2451 21 19.2451C22.1068 19.2451 23.1267 19.8486 23.6614 20.8202L23.8615 21.1838H25.6767L25.8768 20.8202C26.4115 19.8486 27.4314 19.2451 28.5382 19.2451C29.6451 19.2451 30.665 19.8486 31.1997 20.8202L31.3998 21.1838H33L32.8699 20.3708ZM13.4617 17.8407C12.5911 17.8407 11.7574 18.0959 11.051 18.5528C12.3409 15.071 15.3603 12.5273 19.0221 11.846C18.019 13.0774 17.2926 14.6962 16.8876 16.6294C16.6913 17.566 16.6001 18.4274 16.5593 19.1008C15.7416 18.3047 14.6354 17.8407 13.4617 17.8407ZM21 17.8407C19.8596 17.8407 18.7829 18.2787 17.9725 19.034C18.1067 17.1194 18.6819 13.7226 20.9998 11.8379C23.3104 13.7183 23.8886 17.1158 24.0252 19.032C23.2152 18.2779 22.1393 17.8407 21 17.8407ZM28.5382 17.8407C27.3645 17.8407 26.2584 18.3047 25.4406 19.1008C25.3998 18.4274 25.3086 17.566 25.1125 16.6294C24.7073 14.6962 23.9811 13.0774 22.9779 11.846C26.6398 12.5273 29.659 15.071 30.949 18.5528C30.2426 18.0959 29.4089 17.8407 28.5382 17.8407Z" fill="#33E47A"/>
<path d="M23.2999 23.0745H18.6995V25.7212H16.0527V30.3214H18.6995V32.9684H23.2999V30.3214H25.9466V25.7212H23.2999V23.0745ZM24.5422 27.1257V28.917H21.8954V31.5638H20.1039V28.917H17.4572V27.1257H20.1039V24.4789H21.8954V27.1257H24.5422Z" fill="#33E47A"/>
</g>
<defs>
<clipPath id="clip0_618_1281">
<rect width="24" height="24" fill="white" transform="translate(9 9)"/>
</clipPath>
</defs>
</svg>
