<svg width="235" height="65" viewBox="0 0 235 65" fill="none" xmlns="http://www.w3.org/2000/svg">
<path d="M0 31C0 25.4772 4.47715 21 10 21H214V55C214 60.5228 209.523 65 204 65H10C4.47715 65 0 60.5228 0 55V31Z" fill="#6FB9FE"/>
<path d="M61.9754 50.24C61.0954 50.24 60.3167 50.0587 59.6394 49.696C58.9674 49.3333 58.4394 48.8213 58.0554 48.16C57.6714 47.4987 57.4794 46.7253 57.4794 45.84V38.488L58.6634 38.48V45.688C58.6634 46.2853 58.7647 46.8027 58.9674 47.24C59.17 47.672 59.434 48.0293 59.7594 48.312C60.09 48.5893 60.45 48.7947 60.8394 48.928C61.2287 49.0613 61.6074 49.128 61.9754 49.128C62.3487 49.128 62.73 49.0613 63.1194 48.928C63.5087 48.7947 63.866 48.5893 64.1914 48.312C64.5167 48.0293 64.7807 47.672 64.9834 47.24C65.186 46.8027 65.2874 46.2853 65.2874 45.688V38.48H66.4714V45.84C66.4714 46.7253 66.2794 47.4987 65.8954 48.16C65.5114 48.816 64.9807 49.328 64.3034 49.696C63.6314 50.0587 62.8554 50.24 61.9754 50.24ZM74.9538 50V45.592C74.9538 45.112 74.9084 44.672 74.8178 44.272C74.7271 43.8667 74.5804 43.5147 74.3778 43.216C74.1804 42.912 73.9218 42.6773 73.6018 42.512C73.2871 42.3467 72.9031 42.264 72.4498 42.264C72.0338 42.264 71.6658 42.336 71.3458 42.48C71.0311 42.624 70.7644 42.832 70.5458 43.104C70.3324 43.3707 70.1698 43.696 70.0578 44.08C69.9458 44.464 69.8898 44.9013 69.8898 45.392L69.0578 45.208C69.0578 44.3227 69.2124 43.5787 69.5218 42.976C69.8311 42.3733 70.2578 41.9173 70.8018 41.608C71.3458 41.2987 71.9698 41.144 72.6738 41.144C73.1911 41.144 73.6418 41.224 74.0258 41.384C74.4151 41.544 74.7431 41.76 75.0098 42.032C75.2818 42.304 75.5004 42.616 75.6658 42.968C75.8311 43.3147 75.9511 43.6853 76.0258 44.08C76.1004 44.4693 76.1378 44.8587 76.1378 45.248V50H74.9538ZM68.7058 50V41.36H69.7698V43.488H69.8898V50H68.7058ZM80.5498 50L77.4138 41.36H78.6058L81.1578 48.464L83.6938 41.36H84.9018L81.7658 50H80.5498ZM89.6823 50.24C88.8396 50.24 88.1089 50.0533 87.4903 49.68C86.8769 49.3067 86.3996 48.7813 86.0583 48.104C85.7169 47.4267 85.5463 46.632 85.5463 45.72C85.5463 44.776 85.7143 43.96 86.0503 43.272C86.3863 42.584 86.8583 42.0533 87.4663 41.68C88.0796 41.3067 88.8023 41.12 89.6343 41.12C90.4876 41.12 91.2156 41.3173 91.8183 41.712C92.4209 42.1013 92.8769 42.6613 93.1863 43.392C93.4956 44.1227 93.6369 44.9947 93.6103 46.008H92.4103V45.592C92.3889 44.472 92.1463 43.6267 91.6823 43.056C91.2236 42.4853 90.5516 42.2 89.6663 42.2C88.7383 42.2 88.0263 42.5013 87.5303 43.104C87.0396 43.7067 86.7943 44.5653 86.7943 45.68C86.7943 46.768 87.0396 47.6133 87.5303 48.216C88.0263 48.8133 88.7276 49.112 89.6343 49.112C90.2529 49.112 90.7916 48.9707 91.2503 48.688C91.7143 48.4 92.0796 47.9867 92.3463 47.448L93.4423 47.872C93.1009 48.624 92.5969 49.208 91.9303 49.624C91.2689 50.0347 90.5196 50.24 89.6823 50.24ZM86.3783 46.008V45.024H92.9783V46.008H86.3783ZM95.3856 50V41.36H96.4416V43.44L96.2336 43.168C96.3296 42.912 96.455 42.6773 96.6096 42.464C96.7643 42.2453 96.9323 42.0667 97.1136 41.928C97.3376 41.7307 97.599 41.5813 97.8976 41.48C98.1963 41.3733 98.4976 41.312 98.8016 41.296C99.1056 41.2747 99.383 41.296 99.6336 41.36V42.464C99.319 42.384 98.975 42.3653 98.6016 42.408C98.2283 42.4507 97.8843 42.6 97.5696 42.856C97.2816 43.08 97.0656 43.3493 96.9216 43.664C96.7776 43.9733 96.6816 44.304 96.6336 44.656C96.5856 45.0027 96.5616 45.3467 96.5616 45.688V50H95.3856ZM105.031 50.24C104.237 50.24 103.565 50.04 103.015 49.64C102.466 49.2347 102.05 48.688 101.767 48C101.485 47.3067 101.343 46.5307 101.343 45.672C101.343 44.7973 101.485 44.0187 101.767 43.336C102.055 42.648 102.477 42.1067 103.031 41.712C103.586 41.3173 104.269 41.12 105.079 41.12C105.869 41.12 106.546 41.32 107.111 41.72C107.677 42.12 108.109 42.664 108.407 43.352C108.711 44.04 108.863 44.8133 108.863 45.672C108.863 46.536 108.711 47.312 108.407 48C108.103 48.688 107.666 49.2347 107.095 49.64C106.525 50.04 105.837 50.24 105.031 50.24ZM101.143 50V38.48H102.327V43.496H102.199V50H101.143ZM104.911 49.144C105.514 49.144 106.015 48.992 106.415 48.688C106.815 48.384 107.114 47.9707 107.311 47.448C107.514 46.92 107.615 46.328 107.615 45.672C107.615 45.0213 107.517 44.4347 107.319 43.912C107.122 43.3893 106.821 42.976 106.415 42.672C106.015 42.368 105.506 42.216 104.887 42.216C104.285 42.216 103.783 42.3627 103.383 42.656C102.989 42.9493 102.693 43.3573 102.495 43.88C102.298 44.3973 102.199 44.9947 102.199 45.672C102.199 46.3387 102.298 46.936 102.495 47.464C102.693 47.9867 102.991 48.3973 103.391 48.696C103.791 48.9947 104.298 49.144 104.911 49.144ZM110.78 39.72V38.4H111.956V39.72H110.78ZM110.78 50V41.36H111.956V50H110.78ZM120.594 50V45.592C120.594 45.112 120.549 44.672 120.458 44.272C120.368 43.8667 120.221 43.5147 120.018 43.216C119.821 42.912 119.562 42.6773 119.242 42.512C118.928 42.3467 118.544 42.264 118.09 42.264C117.674 42.264 117.306 42.336 116.986 42.48C116.672 42.624 116.405 42.832 116.186 43.104C115.973 43.3707 115.81 43.696 115.698 44.08C115.586 44.464 115.53 44.9013 115.53 45.392L114.698 45.208C114.698 44.3227 114.853 43.5787 115.162 42.976C115.472 42.3733 115.898 41.9173 116.442 41.608C116.986 41.2987 117.61 41.144 118.314 41.144C118.832 41.144 119.282 41.224 119.666 41.384C120.056 41.544 120.384 41.76 120.65 42.032C120.922 42.304 121.141 42.616 121.306 42.968C121.472 43.3147 121.592 43.6853 121.666 44.08C121.741 44.4693 121.778 44.8587 121.778 45.248V50H120.594ZM114.346 50V41.36H115.41V43.488H115.53V50H114.346ZM127.16 50.24C126.354 50.24 125.666 50.04 125.096 49.64C124.525 49.2347 124.088 48.688 123.784 48C123.48 47.312 123.328 46.536 123.328 45.672C123.328 44.8133 123.477 44.04 123.776 43.352C124.08 42.664 124.514 42.12 125.08 41.72C125.645 41.32 126.322 41.12 127.112 41.12C127.922 41.12 128.605 41.3173 129.16 41.712C129.714 42.1067 130.133 42.648 130.416 43.336C130.704 44.0187 130.848 44.7973 130.848 45.672C130.848 46.5307 130.706 47.3067 130.424 48C130.141 48.688 129.725 49.2347 129.176 49.64C128.626 50.04 127.954 50.24 127.16 50.24ZM127.28 49.144C127.893 49.144 128.4 48.9947 128.8 48.696C129.2 48.3973 129.498 47.9867 129.696 47.464C129.893 46.936 129.992 46.3387 129.992 45.672C129.992 44.9947 129.893 44.3973 129.696 43.88C129.498 43.3573 129.2 42.9493 128.8 42.656C128.405 42.3627 127.906 42.216 127.304 42.216C126.685 42.216 126.173 42.368 125.768 42.672C125.362 42.976 125.061 43.3893 124.864 43.912C124.672 44.4347 124.576 45.0213 124.576 45.672C124.576 46.328 124.674 46.92 124.872 47.448C125.074 47.9707 125.376 48.384 125.776 48.688C126.176 48.992 126.677 49.144 127.28 49.144ZM129.992 50V43.496H129.864V38.48H131.048V50H129.992ZM133.452 50V38.24H134.628V50H133.452ZM137.186 39.72V38.4H138.362V39.72H137.186ZM137.186 50V41.36H138.362V50H137.186ZM144.345 50.24C143.475 50.24 142.739 50.0453 142.137 49.656C141.534 49.2667 141.075 48.7307 140.761 48.048C140.451 47.36 140.291 46.5707 140.281 45.68C140.291 44.7733 140.457 43.9787 140.777 43.296C141.097 42.608 141.558 42.0747 142.161 41.696C142.763 41.312 143.494 41.12 144.353 41.12C145.227 41.12 145.987 41.3333 146.633 41.76C147.283 42.1867 147.729 42.7707 147.969 43.512L146.817 43.88C146.614 43.3627 146.291 42.9627 145.849 42.68C145.411 42.392 144.91 42.248 144.345 42.248C143.71 42.248 143.185 42.3947 142.769 42.688C142.353 42.976 142.043 43.3787 141.841 43.896C141.638 44.4133 141.534 45.008 141.529 45.68C141.539 46.7147 141.779 47.5467 142.249 48.176C142.718 48.8 143.417 49.112 144.345 49.112C144.931 49.112 145.43 48.9787 145.841 48.712C146.257 48.44 146.571 48.0453 146.785 47.528L147.969 47.88C147.649 48.648 147.179 49.2347 146.561 49.64C145.942 50.04 145.203 50.24 144.345 50.24ZM155.86 50V45.592C155.86 45.112 155.815 44.672 155.724 44.272C155.633 43.8667 155.487 43.5147 155.284 43.216C155.087 42.912 154.828 42.6773 154.508 42.512C154.193 42.3467 153.809 42.264 153.356 42.264C152.94 42.264 152.572 42.336 152.252 42.48C151.937 42.624 151.671 42.832 151.452 43.104C151.239 43.3707 151.076 43.696 150.964 44.08C150.852 44.464 150.796 44.9013 150.796 45.392L149.964 45.208C149.964 44.3227 150.119 43.5787 150.428 42.976C150.737 42.3733 151.164 41.9173 151.708 41.608C152.252 41.2987 152.876 41.144 153.58 41.144C154.097 41.144 154.548 41.224 154.932 41.384C155.321 41.544 155.649 41.76 155.916 42.032C156.188 42.304 156.407 42.616 156.572 42.968C156.737 43.3147 156.857 43.6853 156.932 44.08C157.007 44.4693 157.044 44.8587 157.044 45.248V50H155.86ZM149.612 50V38.48H150.676V44.984H150.796V50H149.612Z" fill="white"/>
<circle cx="214" cy="21" r="21" fill="#07133B"/>
<g clip-path="url(#clip0_618_1098)">
<path d="M225.482 17.0138C224.683 16.7355 224.051 16.1215 223.749 15.3298L223.576 14.8782H218.01L217.838 15.3298C217.776 15.4935 217.699 15.6493 217.61 15.7963L212.674 12L201.953 20.2467L204.505 23.5638L205.971 22.4361V28.6049H204.571V30.0086H220.777V28.6049H219.377V25.9195C219.629 26.087 219.891 26.2408 220.162 26.3807L220.793 26.7074L221.425 26.3807C222.789 25.6756 223.933 24.6088 224.732 23.2967C225.531 21.9846 225.953 20.4789 225.953 18.9426V17.178L225.482 17.0138ZM224.549 18.9426C224.549 21.555 223.11 23.9233 220.793 25.1272C220.275 24.8577 219.801 24.5306 219.377 24.1553C218.816 23.6594 218.344 23.0795 217.973 22.4394C217.682 21.9379 217.455 21.3997 217.296 20.8359C217.127 20.2295 217.037 19.5936 217.037 18.9426V18.1434C217.297 18.0161 217.542 17.8641 217.769 17.6895C218.142 17.4009 218.467 17.0522 218.727 16.6558C218.807 16.5357 218.879 16.4106 218.946 16.2819H222.64C223.061 17.0914 223.729 17.7429 224.549 18.1434V18.9426ZM204.762 21.5953L203.922 20.5032L212.674 13.7712L216.596 16.7884C216.441 16.8781 216.276 16.9536 216.104 17.0138L215.633 17.178V17.7854L212.674 15.509L204.762 21.5953ZM213.644 28.6049H211.704V23.9335H213.644V28.6049ZM215.048 28.6049V22.5298H210.3V28.6049H207.375V21.3561L212.674 17.28L215.658 19.5753C215.757 20.8898 216.165 22.1653 216.854 23.2967C217.174 23.8226 217.55 24.3089 217.973 24.7487V28.6047H215.048V28.6049Z" fill="#6FB9FE"/>
<path d="M221.788 19.0109L220.768 19.9969L220.481 20.2743L219.323 19.1802L218.534 20.0165L218.359 20.2012L219.377 21.1624L220.492 22.2158L222.913 19.876L223.63 19.1826L222.655 18.1733L221.788 19.0109Z" fill="#6FB9FE"/>
</g>
<defs>
<clipPath id="clip0_618_1098">
<rect width="24" height="24" fill="white" transform="translate(202 9)"/>
</clipPath>
</defs>
</svg>
