<svg width="168" height="65" viewBox="0 0 168 65" fill="none" xmlns="http://www.w3.org/2000/svg">
<path d="M21 21H158C163.523 21 168 25.4772 168 31V55C168 60.5228 163.523 65 158 65H31C25.4772 65 21 60.5228 21 55V21Z" fill="#33E47A"/>
<path d="M59.12 50V38.48H60.296V43.92L65.552 38.48H67.056L61.688 44.04L67.496 50H65.96L60.296 44.24V50H59.12ZM71.5874 50.24C70.7287 50.24 69.9954 50.0453 69.3874 49.656C68.7794 49.2667 68.3127 48.728 67.9874 48.04C67.662 47.352 67.4994 46.5627 67.4994 45.672C67.4994 44.7653 67.6647 43.9707 67.9954 43.288C68.326 42.6053 68.7954 42.0747 69.4034 41.696C70.0167 41.312 70.7447 41.12 71.5874 41.12C72.4514 41.12 73.1874 41.3147 73.7954 41.704C74.4087 42.088 74.8754 42.624 75.1954 43.312C75.5207 43.9947 75.6834 44.7813 75.6834 45.672C75.6834 46.5787 75.5207 47.376 75.1954 48.064C74.87 48.7467 74.4007 49.28 73.7874 49.664C73.174 50.048 72.4407 50.24 71.5874 50.24ZM71.5874 49.112C72.5474 49.112 73.262 48.7947 73.7314 48.16C74.2007 47.52 74.4354 46.6907 74.4354 45.672C74.4354 44.6267 74.198 43.7947 73.7234 43.176C73.254 42.5573 72.542 42.248 71.5874 42.248C70.942 42.248 70.4087 42.3947 69.9874 42.688C69.5714 42.976 69.2594 43.3787 69.0514 43.896C68.8487 44.408 68.7474 45 68.7474 45.672C68.7474 46.712 68.9874 47.5467 69.4674 48.176C69.9474 48.8 70.654 49.112 71.5874 49.112ZM80.594 50.232C79.5807 50.232 78.746 50.0133 78.09 49.576C77.4393 49.1387 77.0393 48.5307 76.89 47.752L78.09 47.552C78.218 48.0427 78.5087 48.4347 78.962 48.728C79.4207 49.016 79.986 49.16 80.658 49.16C81.314 49.16 81.8313 49.024 82.21 48.752C82.5887 48.4747 82.778 48.0987 82.778 47.624C82.778 47.3573 82.7167 47.1413 82.594 46.976C82.4767 46.8053 82.234 46.648 81.866 46.504C81.498 46.36 80.9487 46.1893 80.218 45.992C79.434 45.7787 78.8207 45.5653 78.378 45.352C77.9353 45.1387 77.6207 44.8933 77.434 44.616C77.2473 44.3333 77.154 43.9893 77.154 43.584C77.154 43.0933 77.2927 42.664 77.57 42.296C77.8473 41.9227 78.2313 41.6347 78.722 41.432C79.2127 41.224 79.7833 41.12 80.434 41.12C81.0847 41.12 81.666 41.2267 82.178 41.44C82.6953 41.648 83.1113 41.9413 83.426 42.32C83.7407 42.6987 83.9273 43.1387 83.986 43.64L82.786 43.856C82.706 43.3493 82.4527 42.9493 82.026 42.656C81.6047 42.3573 81.0687 42.2027 80.418 42.192C79.8047 42.176 79.306 42.2933 78.922 42.544C78.538 42.7893 78.346 43.1173 78.346 43.528C78.346 43.7573 78.4153 43.9547 78.554 44.12C78.6927 44.28 78.9433 44.432 79.306 44.576C79.674 44.72 80.1967 44.8773 80.874 45.048C81.6687 45.2507 82.2927 45.464 82.746 45.688C83.1993 45.912 83.522 46.176 83.714 46.48C83.906 46.784 84.002 47.16 84.002 47.608C84.002 48.424 83.698 49.0667 83.09 49.536C82.4873 50 81.6553 50.232 80.594 50.232ZM90.4803 50C89.9949 50.1013 89.5149 50.1413 89.0403 50.12C88.5709 50.0987 88.1496 49.9973 87.7763 49.816C87.4083 49.6347 87.1283 49.352 86.9363 48.968C86.7816 48.648 86.6963 48.3253 86.6803 48C86.6696 47.6693 86.6643 47.2933 86.6643 46.872V38.96H87.8323V46.824C87.8323 47.1867 87.8349 47.4907 87.8403 47.736C87.8509 47.976 87.9069 48.1893 88.0083 48.376C88.2003 48.7333 88.5043 48.9467 88.9203 49.016C89.3416 49.0853 89.8616 49.0693 90.4803 48.968V50ZM84.8163 42.368V41.36H90.4803V42.368H84.8163ZM95.526 50.24C94.6833 50.24 93.9527 50.0533 93.334 49.68C92.7207 49.3067 92.2433 48.7813 91.902 48.104C91.5607 47.4267 91.39 46.632 91.39 45.72C91.39 44.776 91.558 43.96 91.894 43.272C92.23 42.584 92.702 42.0533 93.31 41.68C93.9233 41.3067 94.646 41.12 95.478 41.12C96.3313 41.12 97.0593 41.3173 97.662 41.712C98.2647 42.1013 98.7207 42.6613 99.03 43.392C99.3393 44.1227 99.4807 44.9947 99.454 46.008H98.254V45.592C98.2327 44.472 97.99 43.6267 97.526 43.056C97.0673 42.4853 96.3953 42.2 95.51 42.2C94.582 42.2 93.87 42.5013 93.374 43.104C92.8833 43.7067 92.638 44.5653 92.638 45.68C92.638 46.768 92.8833 47.6133 93.374 48.216C93.87 48.8133 94.5713 49.112 95.478 49.112C96.0967 49.112 96.6353 48.9707 97.094 48.688C97.558 48.4 97.9233 47.9867 98.19 47.448L99.286 47.872C98.9447 48.624 98.4407 49.208 97.774 49.624C97.1127 50.0347 96.3633 50.24 95.526 50.24ZM92.222 46.008V45.024H98.822V46.008H92.222ZM107.235 50V45.592C107.235 45.112 107.19 44.672 107.099 44.272C107.008 43.8667 106.862 43.5147 106.659 43.216C106.462 42.912 106.203 42.6773 105.883 42.512C105.568 42.3467 105.184 42.264 104.731 42.264C104.315 42.264 103.947 42.336 103.627 42.48C103.312 42.624 103.046 42.832 102.827 43.104C102.614 43.3707 102.451 43.696 102.339 44.08C102.227 44.464 102.171 44.9013 102.171 45.392L101.339 45.208C101.339 44.3227 101.494 43.5787 101.803 42.976C102.112 42.3733 102.539 41.9173 103.083 41.608C103.627 41.2987 104.251 41.144 104.955 41.144C105.472 41.144 105.923 41.224 106.307 41.384C106.696 41.544 107.024 41.76 107.291 42.032C107.563 42.304 107.782 42.616 107.947 42.968C108.112 43.3147 108.232 43.6853 108.307 44.08C108.382 44.4693 108.419 44.8587 108.419 45.248V50H107.235ZM100.987 50V41.36H102.051V43.488H102.171V50H100.987ZM110.655 50V38.24H111.831V50H110.655ZM117.837 50.24C116.979 50.24 116.245 50.0453 115.637 49.656C115.029 49.2667 114.563 48.728 114.237 48.04C113.912 47.352 113.749 46.5627 113.749 45.672C113.749 44.7653 113.915 43.9707 114.245 43.288C114.576 42.6053 115.045 42.0747 115.653 41.696C116.267 41.312 116.995 41.12 117.837 41.12C118.701 41.12 119.437 41.3147 120.045 41.704C120.659 42.088 121.125 42.624 121.445 43.312C121.771 43.9947 121.933 44.7813 121.933 45.672C121.933 46.5787 121.771 47.376 121.445 48.064C121.12 48.7467 120.651 49.28 120.037 49.664C119.424 50.048 118.691 50.24 117.837 50.24ZM117.837 49.112C118.797 49.112 119.512 48.7947 119.981 48.16C120.451 47.52 120.685 46.6907 120.685 45.672C120.685 44.6267 120.448 43.7947 119.973 43.176C119.504 42.5573 118.792 42.248 117.837 42.248C117.192 42.248 116.659 42.3947 116.237 42.688C115.821 42.976 115.509 43.3787 115.301 43.896C115.099 44.408 114.997 45 114.997 45.672C114.997 46.712 115.237 47.5467 115.717 48.176C116.197 48.8 116.904 49.112 117.837 49.112ZM126.844 50.232C125.831 50.232 124.996 50.0133 124.34 49.576C123.689 49.1387 123.289 48.5307 123.14 47.752L124.34 47.552C124.468 48.0427 124.759 48.4347 125.212 48.728C125.671 49.016 126.236 49.16 126.908 49.16C127.564 49.16 128.081 49.024 128.46 48.752C128.839 48.4747 129.028 48.0987 129.028 47.624C129.028 47.3573 128.967 47.1413 128.844 46.976C128.727 46.8053 128.484 46.648 128.116 46.504C127.748 46.36 127.199 46.1893 126.468 45.992C125.684 45.7787 125.071 45.5653 124.628 45.352C124.185 45.1387 123.871 44.8933 123.684 44.616C123.497 44.3333 123.404 43.9893 123.404 43.584C123.404 43.0933 123.543 42.664 123.82 42.296C124.097 41.9227 124.481 41.6347 124.972 41.432C125.463 41.224 126.033 41.12 126.684 41.12C127.335 41.12 127.916 41.2267 128.428 41.44C128.945 41.648 129.361 41.9413 129.676 42.32C129.991 42.6987 130.177 43.1387 130.236 43.64L129.036 43.856C128.956 43.3493 128.703 42.9493 128.276 42.656C127.855 42.3573 127.319 42.2027 126.668 42.192C126.055 42.176 125.556 42.2933 125.172 42.544C124.788 42.7893 124.596 43.1173 124.596 43.528C124.596 43.7573 124.665 43.9547 124.804 44.12C124.943 44.28 125.193 44.432 125.556 44.576C125.924 44.72 126.447 44.8773 127.124 45.048C127.919 45.2507 128.543 45.464 128.996 45.688C129.449 45.912 129.772 46.176 129.964 46.48C130.156 46.784 130.252 47.16 130.252 47.608C130.252 48.424 129.948 49.0667 129.34 49.536C128.737 50 127.905 50.232 126.844 50.232Z" fill="white"/>
<circle cx="21" cy="21" r="21" fill="#07133B"/>
<g clip-path="url(#clip0_618_1091)">
<path d="M32.8699 20.3708C32.4237 17.5787 30.9917 15.0199 28.8376 13.166C26.8377 11.4448 24.3268 10.4344 21.7022 10.281V9H20.2978V10.281C17.6731 10.4344 15.162 11.4448 13.1623 13.166C11.0083 15.0199 9.57623 17.5787 9.13 20.3708L9 21.1838H10.6002L10.8003 20.8202C11.3351 19.8486 12.3549 19.2451 13.4617 19.2451C14.5688 19.2451 15.5885 19.8486 16.1233 20.8202L16.3235 21.1838H18.1384L18.3385 20.8202C18.8734 19.8486 19.8931 19.2451 21 19.2451C22.1068 19.2451 23.1267 19.8486 23.6614 20.8202L23.8615 21.1838H25.6767L25.8768 20.8202C26.4115 19.8486 27.4314 19.2451 28.5382 19.2451C29.6451 19.2451 30.665 19.8486 31.1997 20.8202L31.3998 21.1838H33L32.8699 20.3708ZM13.4617 17.8407C12.5911 17.8407 11.7574 18.0959 11.051 18.5528C12.3409 15.071 15.3603 12.5273 19.0221 11.846C18.019 13.0774 17.2926 14.6962 16.8876 16.6294C16.6913 17.566 16.6001 18.4274 16.5593 19.1008C15.7416 18.3047 14.6354 17.8407 13.4617 17.8407ZM21 17.8407C19.8596 17.8407 18.7829 18.2787 17.9725 19.034C18.1067 17.1194 18.6819 13.7226 20.9998 11.8379C23.3104 13.7183 23.8886 17.1158 24.0252 19.032C23.2152 18.2779 22.1393 17.8407 21 17.8407ZM28.5382 17.8407C27.3645 17.8407 26.2584 18.3047 25.4406 19.1008C25.3998 18.4274 25.3086 17.566 25.1125 16.6294C24.7073 14.6962 23.9811 13.0774 22.9779 11.846C26.6398 12.5273 29.659 15.071 30.949 18.5528C30.2426 18.0959 29.4089 17.8407 28.5382 17.8407Z" fill="#33E47A"/>
<path d="M23.2999 23.0745H18.6995V25.7212H16.0527V30.3214H18.6995V32.9684H23.2999V30.3214H25.9466V25.7212H23.2999V23.0745ZM24.5422 27.1257V28.917H21.8954V31.5638H20.1039V28.917H17.4572V27.1257H20.1039V24.4789H21.8954V27.1257H24.5422Z" fill="#33E47A"/>
</g>
<defs>
<clipPath id="clip0_618_1091">
<rect width="24" height="24" fill="white" transform="translate(9 9)"/>
</clipPath>
</defs>
</svg>
