<svg width="201" height="65" viewBox="0 0 201 65" fill="none" xmlns="http://www.w3.org/2000/svg">
<path d="M0 31C0 25.4772 4.47715 21 10 21H180V55C180 60.5228 175.523 65 170 65H10C4.47716 65 0 60.5228 0 55V31Z" fill="#6FB9FE"/>
<path d="M33.2951 50L29.9671 38.48H31.1911L33.8871 47.992L36.5671 38.488L37.7991 38.48L40.4951 47.992L43.1751 38.48H44.4071L41.0871 50H39.9031L37.1831 40.552L34.4791 50H33.2951ZM45.6394 39.72V38.4H46.8154V39.72H45.6394ZM45.6394 50V41.36H46.8154V50H45.6394ZM49.2138 50V41.36H50.2698V43.44L50.0618 43.168C50.1578 42.912 50.2831 42.6773 50.4378 42.464C50.5924 42.2453 50.7604 42.0667 50.9418 41.928C51.1658 41.7307 51.4271 41.5813 51.7258 41.48C52.0244 41.3733 52.3258 41.312 52.6298 41.296C52.9338 41.2747 53.2111 41.296 53.4618 41.36V42.464C53.1471 42.384 52.8031 42.3653 52.4298 42.408C52.0564 42.4507 51.7124 42.6 51.3978 42.856C51.1098 43.08 50.8938 43.3493 50.7498 43.664C50.6058 43.9733 50.5098 44.304 50.4618 44.656C50.4138 45.0027 50.3898 45.3467 50.3898 45.688V50H49.2138ZM61.4065 50.232C60.3932 50.232 59.5585 50.0133 58.9025 49.576C58.2518 49.1387 57.8518 48.5307 57.7025 47.752L58.9025 47.552C59.0305 48.0427 59.3212 48.4347 59.7745 48.728C60.2332 49.016 60.7985 49.16 61.4705 49.16C62.1265 49.16 62.6438 49.024 63.0225 48.752C63.4012 48.4747 63.5905 48.0987 63.5905 47.624C63.5905 47.3573 63.5292 47.1413 63.4065 46.976C63.2892 46.8053 63.0465 46.648 62.6785 46.504C62.3105 46.36 61.7612 46.1893 61.0305 45.992C60.2465 45.7787 59.6332 45.5653 59.1905 45.352C58.7478 45.1387 58.4332 44.8933 58.2465 44.616C58.0598 44.3333 57.9665 43.9893 57.9665 43.584C57.9665 43.0933 58.1052 42.664 58.3825 42.296C58.6598 41.9227 59.0438 41.6347 59.5345 41.432C60.0252 41.224 60.5958 41.12 61.2465 41.12C61.8972 41.12 62.4785 41.2267 62.9905 41.44C63.5078 41.648 63.9238 41.9413 64.2385 42.32C64.5532 42.6987 64.7398 43.1387 64.7985 43.64L63.5985 43.856C63.5185 43.3493 63.2652 42.9493 62.8385 42.656C62.4172 42.3573 61.8812 42.2027 61.2305 42.192C60.6172 42.176 60.1185 42.2933 59.7345 42.544C59.3505 42.7893 59.1585 43.1173 59.1585 43.528C59.1585 43.7573 59.2278 43.9547 59.3665 44.12C59.5052 44.28 59.7558 44.432 60.1185 44.576C60.4865 44.72 61.0092 44.8773 61.6865 45.048C62.4812 45.2507 63.1052 45.464 63.5585 45.688C64.0118 45.912 64.3345 46.176 64.5265 46.48C64.7185 46.784 64.8145 47.16 64.8145 47.608C64.8145 48.424 64.5105 49.0667 63.9025 49.536C63.2998 50 62.4678 50.232 61.4065 50.232ZM69.8928 50.216C69.3754 50.216 68.9221 50.136 68.5328 49.976C68.1488 49.816 67.8208 49.6 67.5488 49.328C67.2821 49.056 67.0661 48.7467 66.9008 48.4C66.7354 48.048 66.6154 47.6773 66.5408 47.288C66.4661 46.8933 66.4288 46.5013 66.4288 46.112V41.36H67.6128V45.768C67.6128 46.2427 67.6581 46.6827 67.7488 47.088C67.8394 47.4933 67.9834 47.848 68.1808 48.152C68.3834 48.4507 68.6421 48.6827 68.9568 48.848C69.2768 49.0133 69.6634 49.096 70.1168 49.096C70.5328 49.096 70.8981 49.024 71.2128 48.88C71.5328 48.736 71.7994 48.5307 72.0128 48.264C72.2314 47.992 72.3968 47.664 72.5088 47.28C72.6208 46.8907 72.6768 46.4533 72.6768 45.968L73.5087 46.152C73.5087 47.0373 73.3541 47.7813 73.0448 48.384C72.7354 48.9867 72.3088 49.4427 71.7648 49.752C71.2208 50.0613 70.5968 50.216 69.8928 50.216ZM72.7968 50V47.872H72.6768V41.36H73.8528V50H72.7968ZM79.6727 50.24C78.8034 50.24 78.0674 50.0453 77.4648 49.656C76.8621 49.2667 76.4034 48.7307 76.0888 48.048C75.7794 47.36 75.6194 46.5707 75.6088 45.68C75.6194 44.7733 75.7848 43.9787 76.1048 43.296C76.4248 42.608 76.8861 42.0747 77.4888 41.696C78.0914 41.312 78.8221 41.12 79.6808 41.12C80.5554 41.12 81.3154 41.3333 81.9608 41.76C82.6114 42.1867 83.0568 42.7707 83.2968 43.512L82.1448 43.88C81.9421 43.3627 81.6194 42.9627 81.1768 42.68C80.7394 42.392 80.2381 42.248 79.6727 42.248C79.0381 42.248 78.5128 42.3947 78.0968 42.688C77.6808 42.976 77.3714 43.3787 77.1688 43.896C76.9661 44.4133 76.8621 45.008 76.8568 45.68C76.8674 46.7147 77.1074 47.5467 77.5768 48.176C78.0461 48.8 78.7448 49.112 79.6727 49.112C80.2594 49.112 80.7581 48.9787 81.1688 48.712C81.5848 48.44 81.8994 48.0453 82.1128 47.528L83.2968 47.88C82.9768 48.648 82.5074 49.2347 81.8888 49.64C81.2701 50.04 80.5314 50.24 79.6727 50.24ZM91.1881 50V45.592C91.1881 45.112 91.1428 44.672 91.0521 44.272C90.9615 43.8667 90.8148 43.5147 90.6121 43.216C90.4148 42.912 90.1561 42.6773 89.8361 42.512C89.5215 42.3467 89.1375 42.264 88.6841 42.264C88.2681 42.264 87.9001 42.336 87.5801 42.48C87.2655 42.624 86.9988 42.832 86.7801 43.104C86.5668 43.3707 86.4041 43.696 86.2921 44.08C86.1801 44.464 86.1241 44.9013 86.1241 45.392L85.2921 45.208C85.2921 44.3227 85.4468 43.5787 85.7561 42.976C86.0655 42.3733 86.4921 41.9173 87.0361 41.608C87.5801 41.2987 88.2041 41.144 88.9081 41.144C89.4255 41.144 89.8761 41.224 90.2601 41.384C90.6495 41.544 90.9775 41.76 91.2441 42.032C91.5161 42.304 91.7348 42.616 91.9001 42.968C92.0655 43.3147 92.1855 43.6853 92.2601 44.08C92.3348 44.4693 92.3721 44.8587 92.3721 45.248V50H91.1881ZM84.9401 50V38.48H86.0041V44.984H86.1241V50H84.9401ZM98.1041 50.24C97.2615 50.24 96.5308 50.0533 95.9121 49.68C95.2988 49.3067 94.8215 48.7813 94.4801 48.104C94.1388 47.4267 93.9681 46.632 93.9681 45.72C93.9681 44.776 94.1361 43.96 94.4721 43.272C94.8081 42.584 95.2801 42.0533 95.8881 41.68C96.5015 41.3067 97.2241 41.12 98.0561 41.12C98.9095 41.12 99.6375 41.3173 100.24 41.712C100.843 42.1013 101.299 42.6613 101.608 43.392C101.917 44.1227 102.059 44.9947 102.032 46.008H100.832V45.592C100.811 44.472 100.568 43.6267 100.104 43.056C99.6455 42.4853 98.9735 42.2 98.0881 42.2C97.1601 42.2 96.4481 42.5013 95.9521 43.104C95.4615 43.7067 95.2161 44.5653 95.2161 45.68C95.2161 46.768 95.4615 47.6133 95.9521 48.216C96.4481 48.8133 97.1495 49.112 98.0561 49.112C98.6748 49.112 99.2135 48.9707 99.6721 48.688C100.136 48.4 100.501 47.9867 100.768 47.448L101.864 47.872C101.523 48.624 101.019 49.208 100.352 49.624C99.6908 50.0347 98.9415 50.24 98.1041 50.24ZM94.8001 46.008V45.024H101.4V46.008H94.8001ZM109.813 50V45.592C109.813 45.112 109.768 44.672 109.677 44.272C109.586 43.8667 109.44 43.5147 109.237 43.216C109.04 42.912 108.781 42.6773 108.461 42.512C108.146 42.3467 107.762 42.264 107.309 42.264C106.893 42.264 106.525 42.336 106.205 42.48C105.89 42.624 105.624 42.832 105.405 43.104C105.192 43.3707 105.029 43.696 104.917 44.08C104.805 44.464 104.749 44.9013 104.749 45.392L103.917 45.208C103.917 44.3227 104.072 43.5787 104.381 42.976C104.69 42.3733 105.117 41.9173 105.661 41.608C106.205 41.2987 106.829 41.144 107.533 41.144C108.05 41.144 108.501 41.224 108.885 41.384C109.274 41.544 109.602 41.76 109.869 42.032C110.141 42.304 110.36 42.616 110.525 42.968C110.69 43.3147 110.81 43.6853 110.885 44.08C110.96 44.4693 110.997 44.8587 110.997 45.248V50H109.813ZM103.565 50V41.36H104.629V43.488H104.749V50H103.565ZM116.276 50V38.48H119.772C119.895 38.48 120.103 38.4827 120.396 38.488C120.695 38.4933 120.98 38.5147 121.252 38.552C122.127 38.6747 122.858 39 123.444 39.528C124.031 40.056 124.471 40.728 124.764 41.544C125.058 42.36 125.204 43.2587 125.204 44.24C125.204 45.2213 125.058 46.12 124.764 46.936C124.471 47.752 124.031 48.424 123.444 48.952C122.858 49.48 122.127 49.8053 121.252 49.928C120.986 49.96 120.7 49.9813 120.396 49.992C120.092 49.9973 119.884 50 119.772 50H116.276ZM117.492 48.872H119.772C119.991 48.872 120.226 48.8667 120.476 48.856C120.732 48.84 120.951 48.8133 121.132 48.776C121.804 48.6587 122.346 48.3867 122.756 47.96C123.172 47.5333 123.476 47 123.668 46.36C123.86 45.7147 123.956 45.008 123.956 44.24C123.956 43.4667 123.86 42.7573 123.668 42.112C123.476 41.4667 123.172 40.9333 122.756 40.512C122.34 40.0907 121.799 39.8213 121.132 39.704C120.951 39.6667 120.73 39.6427 120.468 39.632C120.212 39.616 119.98 39.608 119.772 39.608H117.492V48.872ZM127.186 39.72V38.4H128.362V39.72H127.186ZM127.186 50V41.36H128.362V50H127.186ZM134.345 50.24C133.475 50.24 132.739 50.0453 132.137 49.656C131.534 49.2667 131.075 48.7307 130.761 48.048C130.451 47.36 130.291 46.5707 130.281 45.68C130.291 44.7733 130.457 43.9787 130.777 43.296C131.097 42.608 131.558 42.0747 132.161 41.696C132.763 41.312 133.494 41.12 134.353 41.12C135.227 41.12 135.987 41.3333 136.633 41.76C137.283 42.1867 137.729 42.7707 137.969 43.512L136.817 43.88C136.614 43.3627 136.291 42.9627 135.849 42.68C135.411 42.392 134.91 42.248 134.345 42.248C133.71 42.248 133.185 42.3947 132.769 42.688C132.353 42.976 132.043 43.3787 131.841 43.896C131.638 44.4133 131.534 45.008 131.529 45.68C131.539 46.7147 131.779 47.5467 132.249 48.176C132.718 48.8 133.417 49.112 134.345 49.112C134.931 49.112 135.43 48.9787 135.841 48.712C136.257 48.44 136.571 48.0453 136.785 47.528L137.969 47.88C137.649 48.648 137.179 49.2347 136.561 49.64C135.942 50.04 135.203 50.24 134.345 50.24ZM145.86 50V45.592C145.86 45.112 145.815 44.672 145.724 44.272C145.633 43.8667 145.487 43.5147 145.284 43.216C145.087 42.912 144.828 42.6773 144.508 42.512C144.193 42.3467 143.809 42.264 143.356 42.264C142.94 42.264 142.572 42.336 142.252 42.48C141.937 42.624 141.671 42.832 141.452 43.104C141.239 43.3707 141.076 43.696 140.964 44.08C140.852 44.464 140.796 44.9013 140.796 45.392L139.964 45.208C139.964 44.3227 140.119 43.5787 140.428 42.976C140.737 42.3733 141.164 41.9173 141.708 41.608C142.252 41.2987 142.876 41.144 143.58 41.144C144.097 41.144 144.548 41.224 144.932 41.384C145.321 41.544 145.649 41.76 145.916 42.032C146.188 42.304 146.407 42.616 146.572 42.968C146.737 43.3147 146.857 43.6853 146.932 44.08C147.007 44.4693 147.044 44.8587 147.044 45.248V50H145.86ZM139.612 50V38.48H140.676V44.984H140.796V50H139.612Z" fill="white"/>
<circle cx="180" cy="21" r="21" fill="#07133B"/>
<g clip-path="url(#clip0_618_1222)">
<path d="M191.482 17.0138C190.683 16.7355 190.051 16.1215 189.749 15.3298L189.576 14.8782H184.01L183.838 15.3298C183.776 15.4935 183.699 15.6493 183.61 15.7963L178.674 12L167.953 20.2467L170.505 23.5638L171.971 22.4361V28.6049H170.571V30.0086H186.777V28.6049H185.377V25.9195C185.629 26.087 185.891 26.2408 186.162 26.3807L186.793 26.7074L187.425 26.3807C188.789 25.6756 189.933 24.6088 190.732 23.2967C191.531 21.9846 191.953 20.4789 191.953 18.9426V17.178L191.482 17.0138ZM190.549 18.9426C190.549 21.555 189.11 23.9233 186.793 25.1272C186.275 24.8577 185.801 24.5306 185.377 24.1553C184.816 23.6594 184.344 23.0795 183.973 22.4394C183.682 21.9379 183.455 21.3997 183.296 20.8359C183.127 20.2295 183.037 19.5936 183.037 18.9426V18.1434C183.297 18.0161 183.542 17.8641 183.769 17.6895C184.142 17.4009 184.467 17.0522 184.727 16.6558C184.807 16.5357 184.879 16.4106 184.946 16.2819H188.64C189.061 17.0914 189.729 17.7429 190.549 18.1434V18.9426ZM170.762 21.5953L169.922 20.5032L178.674 13.7712L182.596 16.7884C182.441 16.8781 182.276 16.9536 182.104 17.0138L181.633 17.178V17.7854L178.674 15.509L170.762 21.5953ZM179.644 28.6049H177.704V23.9335H179.644V28.6049ZM181.048 28.6049V22.5298H176.3V28.6049H173.375V21.3561L178.674 17.28L181.658 19.5753C181.757 20.8898 182.165 22.1653 182.854 23.2967C183.174 23.8226 183.55 24.3089 183.973 24.7487V28.6047H181.048V28.6049Z" fill="#6FB9FE"/>
<path d="M187.788 19.0109L186.768 19.9969L186.481 20.2743L185.323 19.1802L184.534 20.0165L184.359 20.2012L185.377 21.1624L186.492 22.2158L188.913 19.876L189.63 19.1826L188.655 18.1733L187.788 19.0109Z" fill="#6FB9FE"/>
</g>
<defs>
<clipPath id="clip0_618_1222">
<rect width="24" height="24" fill="white" transform="translate(168 9)"/>
</clipPath>
</defs>
</svg>
