<svg width="72" height="73" viewBox="0 0 72 73" fill="none" xmlns="http://www.w3.org/2000/svg">
<path d="M44.8472 71.7984L36.6396 70.5747L28.5064 72.2217L32.9454 45.2588L33.9176 44.405L37.9476 44.3006L38.9628 45.1029L44.792 71.7998L44.8472 71.7984Z" fill="#03A8E2"/>
<path d="M30.1066 42.2941L29.9187 43.5695L9.67859 61.9373L6.66145 54.2262L1.19725 48.0149L26.7451 38.3485L27.971 38.7586L30.0486 42.1851L30.1066 42.2941Z" fill="#0069D1"/>
<path d="M29.8119 30.9218L27.9147 34.4513L26.7116 34.9244L0.697458 26.5938L5.83269 20.1079L8.44651 12.251L29.6106 29.546L29.8643 30.81L29.8119 30.9218Z" fill="#0069D1"/>
<path d="M43.0051 0.693587L38.5661 27.6565L37.5939 28.5103L33.5639 28.6147L32.5487 27.8124L26.7195 1.11553L34.9271 2.33919L43.0603 0.692156L43.0051 0.693587Z" fill="#0069D1"/>
<path d="M70.3682 24.8438L44.8203 34.5103L43.5944 34.1001L41.5169 30.6737L41.7048 29.3982L61.9448 11.0305L64.962 18.7415L70.4262 24.9528L70.3682 24.8438Z" fill="#0069D1"/>
<path d="M70.9229 46.2635L65.7877 52.7494L63.1739 60.6063L42.0098 43.3113L41.7561 42.0473L43.6534 38.5179L44.8565 38.0448L70.8706 46.3753L70.9229 46.2635Z" fill="#0069D1"/>
<path d="M37.9177 32.4796L33.3909 32.5969L31.229 36.5751L33.594 40.4361L38.1208 40.3188L40.2827 36.3406L37.9177 32.4796Z" fill="#03A8E2"/>
</svg>
