<svg width="232" height="36" viewBox="0 0 232 36" fill="none" xmlns="http://www.w3.org/2000/svg">
<rect width="232" height="36" rx="18" fill="#C5E3FF" fill-opacity="0.4"/>
<g clip-path="url(#clip0_229_3519)">
<path d="M43.3486 17.4348L43.9787 17.7605L44.6086 17.4348C45.9652 16.7335 47.1016 15.6736 47.8955 14.3696C48.6891 13.0655 49.1086 11.5692 49.1086 10.0424V8.28571L48.6371 8.12164C47.845 7.84497 47.2188 7.23706 46.9192 6.45227L46.7467 6H41.2107L41.0382 6.45227C40.7386 7.23706 40.1124 7.84497 39.3203 8.12164L38.8486 8.28571V10.0424C38.8486 11.5692 39.2681 13.0655 40.0617 14.3696C40.8558 15.6736 41.9922 16.7335 43.3486 17.4348ZM40.2549 10.0424V9.25269C41.0673 8.85461 41.7296 8.2088 42.1487 7.40625H43.2756V10.7485H40.2906C40.2672 10.5159 40.2549 10.2801 40.2549 10.0424ZM47.7023 10.0424C47.7023 10.2801 47.6902 10.5159 47.6668 10.7485H44.6818V7.40625H45.8087C46.2278 8.2088 46.8901 8.85461 47.7023 9.25269V10.0424ZM44.6818 15.7575V12.1547H47.3748C46.9102 13.6121 45.97 14.8823 44.6818 15.7575ZM43.2756 12.1547V15.7575C41.9874 14.8823 41.0472 13.6121 40.5826 12.1547H43.2756Z" fill="#6FB9FE"/>
<path d="M52.9738 10.1987C51.8192 10.1987 50.8804 11.1381 50.8804 12.2922V17.9613L50.5592 18.2925C50.4552 18.0761 50.3131 17.8736 50.1326 17.696C49.2921 16.8691 47.9324 16.8766 47.1013 17.7128L43.9789 20.8547L40.8566 17.7128C40.0255 16.8766 38.6656 16.8691 37.8251 17.696C37.6448 17.8736 37.5027 18.0761 37.3987 18.2925L37.0775 17.9613V12.2922C37.0775 11.1381 36.1385 10.1987 34.9841 10.1987C33.8296 10.1987 32.8906 11.1381 32.8906 12.2922V20.1771L36.9318 26.956V30.0001H51.0261V26.956L55.0673 20.1771V12.2922C55.0673 11.1381 54.1283 10.1987 52.9738 10.1987ZM43.2758 28.5939H38.338V26.5684L34.2969 19.7898V12.2922C34.2969 11.9133 34.6049 11.605 34.9841 11.605C35.3633 11.605 35.6713 11.9133 35.6713 12.2922V18.5298L40.0367 23.05L40.0396 23.0472L40.0986 23.1086L41.1097 22.1308L38.765 19.7063C38.5175 19.413 38.5343 18.9709 38.8119 18.6981C39.1021 18.4121 39.5721 18.415 39.8591 18.7042L43.2758 22.142V28.5939ZM53.661 19.7898L49.6199 26.5684V28.5939H44.6821V22.142L48.0988 18.7042C48.3856 18.415 48.8558 18.4121 49.146 18.6981C49.4234 18.9709 49.4402 19.413 49.1929 19.7063L46.8482 22.1308L47.8591 23.1086L47.9183 23.0472L47.921 23.05L52.2866 18.5298V12.2922C52.2866 11.9133 52.5946 11.605 52.9738 11.605C53.353 11.605 53.661 11.9133 53.661 12.2922V19.7898Z" fill="#6FB9FE"/>
</g>
<path d="M72.1656 24.24C71.2483 24.24 70.4403 24.0533 69.7416 23.68C69.0483 23.3067 68.5043 22.7813 68.1096 22.104C67.7203 21.4267 67.5256 20.632 67.5256 19.72V12.496L69.4776 12.48V19.672C69.4776 20.104 69.5496 20.4907 69.6936 20.832C69.843 21.1733 70.043 21.464 70.2936 21.704C70.5443 21.9387 70.8323 22.1173 71.1576 22.24C71.483 22.3627 71.819 22.424 72.1656 22.424C72.523 22.424 72.8616 22.3627 73.1816 22.24C73.507 22.112 73.795 21.9307 74.0456 21.696C74.2963 21.456 74.4936 21.1653 74.6376 20.824C74.7816 20.4827 74.8536 20.0987 74.8536 19.672V12.48H76.8056V19.72C76.8056 20.632 76.6083 21.4267 76.2136 22.104C75.8243 22.7813 75.2803 23.3067 74.5816 23.68C73.8883 24.0533 73.083 24.24 72.1656 24.24ZM85.4972 24V19.84C85.4972 19.568 85.4786 19.2667 85.4412 18.936C85.4039 18.6053 85.3159 18.288 85.1772 17.984C85.0439 17.6747 84.8412 17.4213 84.5692 17.224C84.3026 17.0267 83.9399 16.928 83.4812 16.928C83.2359 16.928 82.9932 16.968 82.7532 17.048C82.5132 17.128 82.2946 17.2667 82.0972 17.464C81.9052 17.656 81.7506 17.9227 81.6332 18.264C81.5159 18.6 81.4572 19.032 81.4572 19.56L80.3132 19.072C80.3132 18.336 80.4546 17.6693 80.7372 17.072C81.0252 16.4747 81.4466 16 82.0012 15.648C82.5559 15.2907 83.2386 15.112 84.0492 15.112C84.6892 15.112 85.2172 15.2187 85.6332 15.432C86.0492 15.6453 86.3799 15.9173 86.6252 16.248C86.8706 16.5787 87.0519 16.9307 87.1692 17.304C87.2866 17.6773 87.3612 18.032 87.3932 18.368C87.4306 18.6987 87.4492 18.968 87.4492 19.176V24H85.4972ZM79.5052 24V15.36H81.2252V18.04H81.4572V24H79.5052ZM93.3529 24.24C92.2862 24.24 91.4195 24 90.7529 23.52C90.0862 23.04 89.6809 22.3653 89.5369 21.496L91.5049 21.192C91.6062 21.6187 91.8302 21.9547 92.1769 22.2C92.5235 22.4453 92.9609 22.568 93.4889 22.568C93.9529 22.568 94.3102 22.4773 94.5609 22.296C94.8169 22.1093 94.9449 21.856 94.9449 21.536C94.9449 21.3387 94.8969 21.1813 94.8009 21.064C94.7102 20.9413 94.5075 20.824 94.1929 20.712C93.8782 20.6 93.3955 20.4587 92.7449 20.288C92.0195 20.096 91.4435 19.8907 91.0169 19.672C90.5902 19.448 90.2835 19.184 90.0969 18.88C89.9102 18.576 89.8169 18.208 89.8169 17.776C89.8169 17.2373 89.9582 16.768 90.2409 16.368C90.5235 15.968 90.9182 15.6613 91.4249 15.448C91.9315 15.2293 92.5289 15.12 93.2169 15.12C93.8889 15.12 94.4835 15.224 95.0009 15.432C95.5235 15.64 95.9449 15.936 96.2649 16.32C96.5849 16.704 96.7822 17.1547 96.8569 17.672L94.8889 18.024C94.8409 17.656 94.6729 17.3653 94.3849 17.152C94.1022 16.9387 93.7235 16.8187 93.2489 16.792C92.7955 16.7653 92.4302 16.8347 92.1529 17C91.8755 17.16 91.7369 17.3867 91.7369 17.68C91.7369 17.8453 91.7929 17.9867 91.9049 18.104C92.0169 18.2213 92.2409 18.3387 92.5769 18.456C92.9182 18.5733 93.4249 18.7173 94.0969 18.888C94.7849 19.064 95.3342 19.2667 95.7449 19.496C96.1609 19.72 96.4595 19.9893 96.6409 20.304C96.8275 20.6187 96.9209 21 96.9209 21.448C96.9209 22.3173 96.6035 23 95.9689 23.496C95.3395 23.992 94.4675 24.24 93.3529 24.24ZM103.081 24.24C102.206 24.24 101.438 24.0507 100.777 23.672C100.116 23.2933 99.5985 22.768 99.2251 22.096C98.8571 21.424 98.6731 20.6507 98.6731 19.776C98.6731 18.832 98.8545 18.0133 99.2171 17.32C99.5798 16.6213 100.084 16.08 100.729 15.696C101.374 15.312 102.121 15.12 102.969 15.12C103.865 15.12 104.625 15.3307 105.249 15.752C105.878 16.168 106.345 16.7573 106.649 17.52C106.953 18.2827 107.068 19.1813 106.993 20.216H105.081V19.512C105.076 18.5733 104.91 17.888 104.585 17.456C104.26 17.024 103.748 16.808 103.049 16.808C102.26 16.808 101.673 17.0533 101.289 17.544C100.905 18.0293 100.713 18.7413 100.713 19.68C100.713 20.5547 100.905 21.232 101.289 21.712C101.673 22.192 102.233 22.432 102.969 22.432C103.444 22.432 103.852 22.328 104.193 22.12C104.54 21.9067 104.806 21.6 104.993 21.2L106.897 21.776C106.566 22.5547 106.054 23.16 105.361 23.592C104.673 24.024 103.913 24.24 103.081 24.24ZM100.105 20.216V18.76H106.049V20.216H100.105ZM109.258 24V15.36H110.962V17.464L110.754 17.192C110.861 16.904 111.002 16.6427 111.178 16.408C111.359 16.168 111.575 15.9707 111.826 15.816C112.039 15.672 112.274 15.56 112.53 15.48C112.791 15.3947 113.058 15.344 113.33 15.328C113.602 15.3067 113.866 15.3173 114.122 15.36V17.16C113.866 17.0853 113.57 17.0613 113.234 17.088C112.903 17.1147 112.605 17.208 112.338 17.368C112.071 17.512 111.853 17.696 111.682 17.92C111.517 18.144 111.394 18.4 111.314 18.688C111.234 18.9707 111.194 19.2773 111.194 19.608V24H109.258ZM122.404 24L118.772 12.48H120.756L123.796 22.128L126.876 12.48H128.86L125.228 24H122.404ZM133.517 24.24C132.642 24.24 131.874 24.0507 131.213 23.672C130.551 23.2933 130.034 22.768 129.661 22.096C129.293 21.424 129.109 20.6507 129.109 19.776C129.109 18.832 129.29 18.0133 129.653 17.32C130.015 16.6213 130.519 16.08 131.165 15.696C131.81 15.312 132.557 15.12 133.405 15.12C134.301 15.12 135.061 15.3307 135.685 15.752C136.314 16.168 136.781 16.7573 137.085 17.52C137.389 18.2827 137.503 19.1813 137.429 20.216H135.517V19.512C135.511 18.5733 135.346 17.888 135.021 17.456C134.695 17.024 134.183 16.808 133.485 16.808C132.695 16.808 132.109 17.0533 131.725 17.544C131.341 18.0293 131.149 18.7413 131.149 19.68C131.149 20.5547 131.341 21.232 131.725 21.712C132.109 22.192 132.669 22.432 133.405 22.432C133.879 22.432 134.287 22.328 134.629 22.12C134.975 21.9067 135.242 21.6 135.429 21.2L137.333 21.776C137.002 22.5547 136.49 23.16 135.797 23.592C135.109 24.024 134.349 24.24 133.517 24.24ZM130.541 20.216V18.76H136.485V20.216H130.541ZM139.694 24V15.36H141.398V17.464L141.19 17.192C141.296 16.904 141.438 16.6427 141.614 16.408C141.795 16.168 142.011 15.9707 142.262 15.816C142.475 15.672 142.71 15.56 142.966 15.48C143.227 15.3947 143.494 15.344 143.766 15.328C144.038 15.3067 144.302 15.3173 144.558 15.36V17.16C144.302 17.0853 144.006 17.0613 143.67 17.088C143.339 17.1147 143.04 17.208 142.774 17.368C142.507 17.512 142.288 17.696 142.118 17.92C141.952 18.144 141.83 18.4 141.75 18.688C141.67 18.9707 141.63 19.2773 141.63 19.608V24H139.694ZM151.628 24C151.058 24.1067 150.498 24.152 149.948 24.136C149.404 24.1253 148.916 24.0267 148.484 23.84C148.052 23.648 147.724 23.3467 147.5 22.936C147.303 22.5627 147.199 22.1813 147.188 21.792C147.178 21.4027 147.172 20.9627 147.172 20.472V12.96H149.092V20.36C149.092 20.7067 149.095 21.0107 149.1 21.272C149.111 21.5333 149.167 21.7467 149.268 21.912C149.46 22.232 149.767 22.4107 150.188 22.448C150.61 22.4853 151.09 22.464 151.628 22.384V24ZM145.604 16.872V15.36H151.628V16.872H145.604ZM153.966 24V15.36H155.67V17.464L155.462 17.192C155.569 16.904 155.71 16.6427 155.886 16.408C156.068 16.168 156.284 15.9707 156.534 15.816C156.748 15.672 156.982 15.56 157.238 15.48C157.5 15.3947 157.766 15.344 158.038 15.328C158.31 15.3067 158.574 15.3173 158.83 15.36V17.16C158.574 17.0853 158.278 17.0613 157.942 17.088C157.612 17.1147 157.313 17.208 157.046 17.368C156.78 17.512 156.561 17.696 156.39 17.92C156.225 18.144 156.102 18.4 156.022 18.688C155.942 18.9707 155.902 19.2773 155.902 19.608V24H153.966ZM163.05 24.24C162.426 24.24 161.898 24.1227 161.466 23.888C161.034 23.648 160.706 23.3307 160.482 22.936C160.263 22.5413 160.154 22.1067 160.154 21.632C160.154 21.216 160.223 20.8427 160.362 20.512C160.5 20.176 160.714 19.888 161.002 19.648C161.29 19.4027 161.663 19.2027 162.122 19.048C162.468 18.936 162.874 18.8347 163.338 18.744C163.807 18.6533 164.314 18.5707 164.858 18.496C165.407 18.416 165.98 18.3307 166.578 18.24L165.89 18.632C165.895 18.0347 165.762 17.5947 165.49 17.312C165.218 17.0293 164.759 16.888 164.114 16.888C163.724 16.888 163.348 16.9787 162.986 17.16C162.623 17.3413 162.37 17.6533 162.226 18.096L160.466 17.544C160.679 16.8133 161.084 16.2267 161.682 15.784C162.284 15.3413 163.095 15.12 164.114 15.12C164.882 15.12 165.556 15.2453 166.138 15.496C166.724 15.7467 167.159 16.1573 167.442 16.728C167.596 17.032 167.69 17.344 167.722 17.664C167.754 17.9787 167.77 18.3227 167.77 18.696V24H166.082V22.128L166.362 22.432C165.972 23.056 165.516 23.5147 164.994 23.808C164.476 24.096 163.828 24.24 163.05 24.24ZM163.434 22.704C163.871 22.704 164.244 22.6267 164.554 22.472C164.863 22.3173 165.108 22.128 165.29 21.904C165.476 21.68 165.602 21.4693 165.666 21.272C165.767 21.0267 165.823 20.7467 165.834 20.432C165.85 20.112 165.858 19.8533 165.858 19.656L166.45 19.832C165.868 19.9227 165.37 20.0027 164.954 20.072C164.538 20.1413 164.18 20.208 163.882 20.272C163.583 20.3307 163.319 20.3973 163.09 20.472C162.866 20.552 162.676 20.6453 162.522 20.752C162.367 20.8587 162.247 20.9813 162.162 21.12C162.082 21.2587 162.042 21.4213 162.042 21.608C162.042 21.8213 162.095 22.0107 162.202 22.176C162.308 22.336 162.463 22.464 162.666 22.56C162.874 22.656 163.13 22.704 163.434 22.704ZM173.573 24.248C172.933 24.248 172.405 24.1413 171.989 23.928C171.573 23.7147 171.242 23.4427 170.997 23.112C170.751 22.7813 170.57 22.4293 170.453 22.056C170.335 21.6827 170.258 21.3307 170.221 21C170.189 20.664 170.173 20.392 170.173 20.184V15.36H172.125V19.52C172.125 19.7867 172.143 20.088 172.181 20.424C172.218 20.7547 172.303 21.0747 172.437 21.384C172.575 21.688 172.778 21.9387 173.045 22.136C173.317 22.3333 173.682 22.432 174.141 22.432C174.386 22.432 174.629 22.392 174.869 22.312C175.109 22.232 175.325 22.096 175.517 21.904C175.714 21.7067 175.871 21.4373 175.989 21.096C176.106 20.7547 176.165 20.3227 176.165 19.8L177.309 20.288C177.309 21.024 177.165 21.6907 176.877 22.288C176.594 22.8853 176.175 23.3627 175.621 23.72C175.066 24.072 174.383 24.248 173.573 24.248ZM176.397 24V21.32H176.165V15.36H178.101V24H176.397ZM184.756 24.24C183.881 24.24 183.113 24.0507 182.452 23.672C181.791 23.2933 181.273 22.768 180.9 22.096C180.532 21.424 180.348 20.6507 180.348 19.776C180.348 18.832 180.529 18.0133 180.892 17.32C181.255 16.6213 181.759 16.08 182.404 15.696C183.049 15.312 183.796 15.12 184.644 15.12C185.54 15.12 186.3 15.3307 186.924 15.752C187.553 16.168 188.02 16.7573 188.324 17.52C188.628 18.2827 188.743 19.1813 188.668 20.216H186.756V19.512C186.751 18.5733 186.585 17.888 186.26 17.456C185.935 17.024 185.423 16.808 184.724 16.808C183.935 16.808 183.348 17.0533 182.964 17.544C182.58 18.0293 182.388 18.7413 182.388 19.68C182.388 20.5547 182.58 21.232 182.964 21.712C183.348 22.192 183.908 22.432 184.644 22.432C185.119 22.432 185.527 22.328 185.868 22.12C186.215 21.9067 186.481 21.6 186.668 21.2L188.572 21.776C188.241 22.5547 187.729 23.16 187.036 23.592C186.348 24.024 185.588 24.24 184.756 24.24ZM181.78 20.216V18.76H187.724V20.216H181.78ZM196.675 24V19.84C196.675 19.568 196.656 19.2667 196.619 18.936C196.581 18.6053 196.493 18.288 196.355 17.984C196.221 17.6747 196.019 17.4213 195.747 17.224C195.48 17.0267 195.117 16.928 194.659 16.928C194.413 16.928 194.171 16.968 193.931 17.048C193.691 17.128 193.472 17.2667 193.275 17.464C193.083 17.656 192.928 17.9227 192.811 18.264C192.693 18.6 192.635 19.032 192.635 19.56L191.491 19.072C191.491 18.336 191.632 17.6693 191.915 17.072C192.203 16.4747 192.624 16 193.179 15.648C193.733 15.2907 194.416 15.112 195.227 15.112C195.867 15.112 196.395 15.2187 196.811 15.432C197.227 15.6453 197.557 15.9173 197.803 16.248C198.048 16.5787 198.229 16.9307 198.347 17.304C198.464 17.6773 198.539 18.032 198.571 18.368C198.608 18.6987 198.627 18.968 198.627 19.176V24H196.675ZM190.683 24V15.36H192.403V18.04H192.635V24H190.683Z" fill="#6FB9FE"/>
<defs>
<clipPath id="clip0_229_3519">
<rect width="24" height="24" fill="white" transform="translate(32 6)"/>
</clipPath>
</defs>
</svg>
