<svg width="199" height="65" viewBox="0 0 199 65" fill="none" xmlns="http://www.w3.org/2000/svg">
<path d="M0 31C0 25.4772 4.47715 21 10 21H178V55C178 60.5228 173.523 65 168 65H10C4.47715 65 0 60.5228 0 55V31Z" fill="#33E47A"/>
<path d="M31.592 50L28.264 38.48H29.488L32.184 47.992L34.864 38.488L36.096 38.48L38.792 47.992L41.472 38.48H42.704L39.384 50H38.2L35.48 40.552L32.776 50H31.592ZM43.9363 39.72V38.4H45.1123V39.72H43.9363ZM43.9363 50V41.36H45.1123V50H43.9363ZM47.5106 50V41.36H48.5666V43.44L48.3586 43.168C48.4546 42.912 48.58 42.6773 48.7346 42.464C48.8893 42.2453 49.0573 42.0667 49.2386 41.928C49.4626 41.7307 49.724 41.5813 50.0226 41.48C50.3213 41.3733 50.6226 41.312 50.9266 41.296C51.2306 41.2747 51.508 41.296 51.7586 41.36V42.464C51.444 42.384 51.1 42.3653 50.7266 42.408C50.3533 42.4507 50.0093 42.6 49.6946 42.856C49.4066 43.08 49.1906 43.3493 49.0466 43.664C48.9026 43.9733 48.8066 44.304 48.7586 44.656C48.7106 45.0027 48.6866 45.3467 48.6866 45.688V50H47.5106ZM59.7034 50.232C58.69 50.232 57.8554 50.0133 57.1994 49.576C56.5487 49.1387 56.1487 48.5307 55.9994 47.752L57.1994 47.552C57.3274 48.0427 57.618 48.4347 58.0714 48.728C58.53 49.016 59.0954 49.16 59.7674 49.16C60.4234 49.16 60.9407 49.024 61.3194 48.752C61.698 48.4747 61.8874 48.0987 61.8874 47.624C61.8874 47.3573 61.826 47.1413 61.7034 46.976C61.586 46.8053 61.3434 46.648 60.9754 46.504C60.6074 46.36 60.058 46.1893 59.3274 45.992C58.5434 45.7787 57.93 45.5653 57.4874 45.352C57.0447 45.1387 56.73 44.8933 56.5434 44.616C56.3567 44.3333 56.2634 43.9893 56.2634 43.584C56.2634 43.0933 56.402 42.664 56.6794 42.296C56.9567 41.9227 57.3407 41.6347 57.8314 41.432C58.322 41.224 58.8927 41.12 59.5434 41.12C60.194 41.12 60.7754 41.2267 61.2874 41.44C61.8047 41.648 62.2207 41.9413 62.5354 42.32C62.85 42.6987 63.0367 43.1387 63.0954 43.64L61.8954 43.856C61.8154 43.3493 61.562 42.9493 61.1354 42.656C60.714 42.3573 60.178 42.2027 59.5274 42.192C58.914 42.176 58.4154 42.2933 58.0314 42.544C57.6474 42.7893 57.4554 43.1173 57.4554 43.528C57.4554 43.7573 57.5247 43.9547 57.6634 44.12C57.802 44.28 58.0527 44.432 58.4154 44.576C58.7834 44.72 59.306 44.8773 59.9834 45.048C60.778 45.2507 61.402 45.464 61.8554 45.688C62.3087 45.912 62.6314 46.176 62.8234 46.48C63.0154 46.784 63.1114 47.16 63.1114 47.608C63.1114 48.424 62.8074 49.0667 62.1994 49.536C61.5967 50 60.7647 50.232 59.7034 50.232ZM68.4696 50.24C67.6003 50.24 66.8643 50.0453 66.2616 49.656C65.659 49.2667 65.2003 48.7307 64.8856 48.048C64.5763 47.36 64.4163 46.5707 64.4056 45.68C64.4163 44.7733 64.5816 43.9787 64.9016 43.296C65.2216 42.608 65.683 42.0747 66.2856 41.696C66.8883 41.312 67.619 41.12 68.4776 41.12C69.3523 41.12 70.1123 41.3333 70.7576 41.76C71.4083 42.1867 71.8536 42.7707 72.0936 43.512L70.9416 43.88C70.739 43.3627 70.4163 42.9627 69.9736 42.68C69.5363 42.392 69.035 42.248 68.4696 42.248C67.835 42.248 67.3096 42.3947 66.8936 42.688C66.4776 42.976 66.1683 43.3787 65.9656 43.896C65.763 44.4133 65.659 45.008 65.6536 45.68C65.6643 46.7147 65.9043 47.5467 66.3736 48.176C66.843 48.8 67.5416 49.112 68.4696 49.112C69.0563 49.112 69.555 48.9787 69.9656 48.712C70.3816 48.44 70.6963 48.0453 70.9096 47.528L72.0936 47.88C71.7736 48.648 71.3043 49.2347 70.6856 49.64C70.067 50.04 69.3283 50.24 68.4696 50.24ZM79.985 50V45.592C79.985 45.112 79.9397 44.672 79.849 44.272C79.7583 43.8667 79.6117 43.5147 79.409 43.216C79.2117 42.912 78.953 42.6773 78.633 42.512C78.3183 42.3467 77.9343 42.264 77.481 42.264C77.065 42.264 76.697 42.336 76.377 42.48C76.0623 42.624 75.7957 42.832 75.577 43.104C75.3637 43.3707 75.201 43.696 75.089 44.08C74.977 44.464 74.921 44.9013 74.921 45.392L74.089 45.208C74.089 44.3227 74.2437 43.5787 74.553 42.976C74.8623 42.3733 75.289 41.9173 75.833 41.608C76.377 41.2987 77.001 41.144 77.705 41.144C78.2223 41.144 78.673 41.224 79.057 41.384C79.4463 41.544 79.7743 41.76 80.041 42.032C80.313 42.304 80.5317 42.616 80.697 42.968C80.8623 43.3147 80.9823 43.6853 81.057 44.08C81.1317 44.4693 81.169 44.8587 81.169 45.248V50H79.985ZM73.737 50V38.48H74.801V44.984H74.921V50H73.737ZM87.677 39.672V38.392H88.957V39.672H87.677ZM84.629 39.672V38.392H85.909V39.672H84.629ZM86.549 50.216C86.0317 50.216 85.5783 50.136 85.189 49.976C84.805 49.816 84.477 49.6 84.205 49.328C83.9383 49.056 83.7223 48.7467 83.557 48.4C83.3917 48.048 83.2717 47.6773 83.197 47.288C83.1223 46.8933 83.085 46.5013 83.085 46.112V41.36H84.269V45.768C84.269 46.2427 84.3143 46.6827 84.405 47.088C84.4957 47.4933 84.6397 47.848 84.837 48.152C85.0397 48.4507 85.2983 48.6827 85.613 48.848C85.933 49.0133 86.3197 49.096 86.773 49.096C87.189 49.096 87.5543 49.024 87.869 48.88C88.189 48.736 88.4557 48.5307 88.669 48.264C88.8877 47.992 89.053 47.664 89.165 47.28C89.277 46.8907 89.333 46.4533 89.333 45.968L90.165 46.152C90.165 47.0373 90.0103 47.7813 89.701 48.384C89.3917 48.9867 88.965 49.4427 88.421 49.752C87.877 50.0613 87.253 50.216 86.549 50.216ZM89.453 50V47.872H89.333V41.36H90.509V50H89.453ZM97.449 50C96.9637 50.1013 96.4837 50.1413 96.009 50.12C95.5397 50.0987 95.1183 49.9973 94.745 49.816C94.377 49.6347 94.097 49.352 93.905 48.968C93.7503 48.648 93.665 48.3253 93.649 48C93.6383 47.6693 93.633 47.2933 93.633 46.872V38.96H94.801V46.824C94.801 47.1867 94.8037 47.4907 94.809 47.736C94.8197 47.976 94.8757 48.1893 94.977 48.376C95.169 48.7333 95.473 48.9467 95.889 49.016C96.3103 49.0853 96.8303 49.0693 97.449 48.968V50ZM91.785 42.368V41.36H97.449V42.368H91.785ZM98.3513 50V49.752L103.927 42.456H98.7673V41.36H105.863V41.632L100.295 48.904H105.559V50H98.3513ZM110.635 50.24C109.793 50.24 109.062 50.0533 108.443 49.68C107.83 49.3067 107.353 48.7813 107.011 48.104C106.67 47.4267 106.499 46.632 106.499 45.72C106.499 44.776 106.667 43.96 107.003 43.272C107.339 42.584 107.811 42.0533 108.419 41.68C109.033 41.3067 109.755 41.12 110.587 41.12C111.441 41.12 112.169 41.3173 112.771 41.712C113.374 42.1013 113.83 42.6613 114.139 43.392C114.449 44.1227 114.59 44.9947 114.563 46.008H113.363V45.592C113.342 44.472 113.099 43.6267 112.635 43.056C112.177 42.4853 111.505 42.2 110.619 42.2C109.691 42.2 108.979 42.5013 108.483 43.104C107.993 43.7067 107.747 44.5653 107.747 45.68C107.747 46.768 107.993 47.6133 108.483 48.216C108.979 48.8133 109.681 49.112 110.587 49.112C111.206 49.112 111.745 48.9707 112.203 48.688C112.667 48.4 113.033 47.9867 113.299 47.448L114.395 47.872C114.054 48.624 113.55 49.208 112.883 49.624C112.222 50.0347 111.473 50.24 110.635 50.24ZM107.331 46.008V45.024H113.931V46.008H107.331ZM122.344 50V45.592C122.344 45.112 122.299 44.672 122.208 44.272C122.118 43.8667 121.971 43.5147 121.768 43.216C121.571 42.912 121.312 42.6773 120.992 42.512C120.678 42.3467 120.294 42.264 119.84 42.264C119.424 42.264 119.056 42.336 118.736 42.48C118.422 42.624 118.155 42.832 117.936 43.104C117.723 43.3707 117.56 43.696 117.448 44.08C117.336 44.464 117.28 44.9013 117.28 45.392L116.448 45.208C116.448 44.3227 116.603 43.5787 116.912 42.976C117.222 42.3733 117.648 41.9173 118.192 41.608C118.736 41.2987 119.36 41.144 120.064 41.144C120.582 41.144 121.032 41.224 121.416 41.384C121.806 41.544 122.134 41.76 122.4 42.032C122.672 42.304 122.891 42.616 123.056 42.968C123.222 43.3147 123.342 43.6853 123.416 44.08C123.491 44.4693 123.528 44.8587 123.528 45.248V50H122.344ZM116.096 50V41.36H117.16V43.488H117.28V50H116.096ZM132.808 50.24C132.002 50.24 131.277 50.1067 130.632 49.84C129.992 49.568 129.461 49.184 129.04 48.688C128.624 48.192 128.352 47.6027 128.224 46.92L129.424 46.72C129.616 47.4667 130.021 48.0533 130.64 48.48C131.258 48.9013 131.997 49.112 132.856 49.112C133.421 49.112 133.928 49.024 134.376 48.848C134.824 48.6667 135.176 48.4107 135.432 48.08C135.688 47.7493 135.816 47.3573 135.816 46.904C135.816 46.6053 135.762 46.352 135.656 46.144C135.549 45.9307 135.408 45.7547 135.232 45.616C135.056 45.4773 134.864 45.3627 134.656 45.272C134.448 45.176 134.245 45.0987 134.048 45.04L131.128 44.168C130.776 44.0667 130.45 43.9387 130.152 43.784C129.853 43.624 129.592 43.4347 129.368 43.216C129.149 42.992 128.978 42.7307 128.856 42.432C128.733 42.1333 128.672 41.792 128.672 41.408C128.672 40.7573 128.842 40.1947 129.184 39.72C129.525 39.2453 129.992 38.88 130.584 38.624C131.176 38.368 131.85 38.2427 132.608 38.248C133.376 38.248 134.061 38.384 134.664 38.656C135.272 38.928 135.773 39.3173 136.168 39.824C136.562 40.3253 136.824 40.92 136.952 41.608L135.72 41.832C135.64 41.3307 135.456 40.896 135.168 40.528C134.88 40.16 134.512 39.8773 134.064 39.68C133.621 39.4773 133.133 39.3733 132.6 39.368C132.082 39.368 131.621 39.456 131.216 39.632C130.816 39.8027 130.498 40.0373 130.264 40.336C130.029 40.6347 129.912 40.976 129.912 41.36C129.912 41.7493 130.018 42.0613 130.232 42.296C130.45 42.5307 130.717 42.7147 131.032 42.848C131.352 42.9813 131.661 43.0907 131.96 43.176L134.216 43.84C134.45 43.904 134.725 43.9973 135.04 44.12C135.36 44.2373 135.669 44.408 135.968 44.632C136.272 44.8507 136.522 45.1387 136.72 45.496C136.917 45.8533 137.016 46.3067 137.016 46.856C137.016 47.3893 136.909 47.8667 136.696 48.288C136.488 48.7093 136.192 49.064 135.808 49.352C135.429 49.64 134.984 49.8587 134.472 50.008C133.965 50.1627 133.41 50.24 132.808 50.24ZM138.827 39.72V38.4H140.003V39.72H138.827ZM138.827 50V41.36H140.003V50H138.827ZM146.057 50.24C145.215 50.24 144.484 50.0533 143.865 49.68C143.252 49.3067 142.775 48.7813 142.433 48.104C142.092 47.4267 141.921 46.632 141.921 45.72C141.921 44.776 142.089 43.96 142.425 43.272C142.761 42.584 143.233 42.0533 143.841 41.68C144.455 41.3067 145.177 41.12 146.009 41.12C146.863 41.12 147.591 41.3173 148.193 41.712C148.796 42.1013 149.252 42.6613 149.561 43.392C149.871 44.1227 150.012 44.9947 149.985 46.008H148.785V45.592C148.764 44.472 148.521 43.6267 148.057 43.056C147.599 42.4853 146.927 42.2 146.041 42.2C145.113 42.2 144.401 42.5013 143.905 43.104C143.415 43.7067 143.169 44.5653 143.169 45.68C143.169 46.768 143.415 47.6133 143.905 48.216C144.401 48.8133 145.103 49.112 146.009 49.112C146.628 49.112 147.167 48.9707 147.625 48.688C148.089 48.4 148.455 47.9867 148.721 47.448L149.817 47.872C149.476 48.624 148.972 49.208 148.305 49.624C147.644 50.0347 146.895 50.24 146.057 50.24ZM142.753 46.008V45.024H149.353V46.008H142.753Z" fill="white"/>
<circle cx="178" cy="21" r="21" fill="white"/>
<g clip-path="url(#clip0_229_3318)">
<path d="M173.104 14.0065C173.556 14.8337 174.264 15.4997 174.888 16.0873C174.996 16.1885 175.102 16.2887 175.206 16.3885C175.602 16.7681 176 17.1325 176.386 17.4849C176.765 17.8317 177.157 18.1901 177.54 18.5578L178.027 19.0254L178.514 18.5578C178.897 18.1901 179.289 17.8317 179.668 17.4849C180.053 17.1325 180.452 16.7681 180.847 16.3885C180.951 16.2887 181.058 16.1885 181.165 16.0873C181.79 15.4997 182.498 14.8337 182.95 14.0065C183.567 12.8778 183.548 11.6219 182.899 10.5604C182.092 9.24298 180.96 8.95935 180.153 8.95331C179.475 8.94781 178.803 9.14227 178.215 9.51325L178.027 9.63117L177.84 9.51453C177.258 9.14703 176.597 8.95312 175.927 8.95312C175.918 8.95312 175.909 8.95312 175.901 8.95331C175.093 8.95917 173.962 9.24298 173.155 10.5604C172.505 11.6219 172.486 12.8778 173.104 14.0065ZM174.355 11.2947C174.737 10.6705 175.246 10.3645 175.911 10.3596C175.916 10.3596 175.922 10.3596 175.927 10.3596C176.331 10.3596 176.733 10.4784 177.092 10.7051L178.027 11.2907L178.963 10.704C179.326 10.4756 179.732 10.3564 180.142 10.3596C180.808 10.3645 181.317 10.6705 181.699 11.2947C182.084 11.9238 182.09 12.6473 181.716 13.3315C181.371 13.9627 180.776 14.5221 180.201 15.0632C180.09 15.1675 179.981 15.271 179.873 15.3739C179.49 15.7418 179.098 16.1003 178.719 16.4471C178.492 16.6549 178.26 16.8668 178.027 17.0836C177.794 16.8668 177.562 16.6549 177.335 16.4471C176.955 16.1003 176.563 15.7418 176.18 15.3739C176.073 15.271 175.963 15.1675 175.852 15.0632C175.277 14.5221 174.682 13.9627 174.337 13.3315C173.963 12.6473 173.969 11.924 174.355 11.2947Z" fill="#33E47A"/>
<path d="M187.022 13.1504C185.868 13.1504 184.928 14.0897 184.928 15.2442V20.9133L184.608 21.2451C184.504 21.0281 184.361 20.8258 184.181 20.6482C183.34 19.8211 181.98 19.8286 181.149 20.665L178.027 23.807L174.904 20.665C174.073 19.8286 172.713 19.8211 171.873 20.6482C171.692 20.8258 171.55 21.0281 171.446 21.2451L171.125 20.9133V15.2442C171.125 14.0897 170.186 13.1504 169.031 13.1504C167.877 13.1504 166.938 14.0897 166.938 15.2442V23.1297L170.979 29.9088V32.9533H185.075V29.9088L189.116 23.1297V15.2442C189.116 14.0897 188.177 13.1504 187.022 13.1504ZM177.323 31.547H172.385V29.5215L168.344 22.7422V15.2442C168.344 14.8652 168.652 14.5568 169.031 14.5568C169.41 14.5568 169.719 14.8652 169.719 15.2442V21.4821L171.777 23.6109C171.795 23.6317 171.815 23.6521 171.834 23.6724L174.084 26.0028L174.087 26L174.146 26.0612L175.157 25.0836L172.812 22.6587C172.565 22.3656 172.582 21.9232 172.859 21.6505C173.15 21.3647 173.619 21.3673 173.907 21.6564L177.324 25.0946V31.547H177.323ZM187.71 22.7422L183.668 29.5215V31.547H178.73V25.0946L182.147 21.6564C182.434 21.3674 182.904 21.3647 183.194 21.6505C183.471 21.9234 183.488 22.3656 183.241 22.6587L180.896 25.0836L181.907 26.0612L181.966 26L181.969 26.0028L184.219 23.6724C184.239 23.6522 184.258 23.6317 184.276 23.6109L186.335 21.4821V15.2442C186.335 14.8652 186.643 14.5568 187.022 14.5568C187.401 14.5568 187.71 14.8652 187.71 15.2442V22.7422Z" fill="#33E47A"/>
</g>
<defs>
<clipPath id="clip0_229_3318">
<rect width="24" height="24" fill="white" transform="translate(166 9)"/>
</clipPath>
</defs>
</svg>
