<svg width="60" height="60" viewBox="0 0 60 60" fill="none" xmlns="http://www.w3.org/2000/svg">
<rect width="60" height="60" rx="10" fill="#6FB9FE"/>
<g clip-path="url(#clip0_229_3325)">
<path d="M42.4258 20.7564C39.9603 19.8967 38.012 18.0041 37.0805 15.5633L36.8653 15H23.14L22.925 15.5633C21.9933 18.0041 20.045 19.8967 17.5797 20.7564L16.9922 20.961V25.0287C16.9922 29.0206 18.0894 32.9329 20.1649 36.3425C22.2407 39.7524 25.2122 42.5235 28.7583 44.3568L30.0027 45L31.2469 44.3566C34.793 42.5235 37.7646 39.7524 39.8403 36.3425C41.9158 32.9329 43.0131 29.0206 43.0131 25.0287V20.961L42.4258 20.7564ZM41.2617 25.0287C41.2617 32.5413 37.1162 39.3512 30.4427 42.8009L30.0027 43.0284L29.5626 42.8009C22.8891 39.3512 18.7436 32.5413 18.7436 25.0287V22.1857C21.2318 21.1501 23.2235 19.2119 24.3274 16.7514H35.6776C36.7818 19.2119 38.7735 21.1501 41.2617 22.1857V25.0287Z" fill="white"/>
<path d="M34.8239 18.7154L34.5692 18.2886H25.4356L25.1809 18.7154C24.0381 20.6293 23.1374 21.6744 20.823 22.8062L20.332 23.0463V26.09L20.3334 26.1397C20.4982 29.0442 21.3377 31.8521 22.7614 34.2599C24.2544 36.7852 26.4001 38.8737 28.9666 40.2997L30.0025 40.8357L31.0149 40.3123L31.0382 40.2997C33.6047 38.8737 35.7504 36.7852 37.2434 34.2599C38.6671 31.8521 39.5066 29.0442 39.6714 26.1397L39.6728 23.0463L39.1818 22.8062C36.8671 21.6744 35.9669 20.6293 34.8239 18.7154ZM37.9216 26.0648C37.6051 31.5005 34.7198 36.2453 30.1989 38.7625L30.0025 38.8641L29.8059 38.7625C25.2853 36.2453 22.3997 31.5005 22.0832 26.0648V24.1301C24.248 22.9875 25.3285 21.7982 26.4244 20.04H33.5802C34.6763 21.7982 35.7568 22.9875 37.9214 24.1301V26.0648H37.9216Z" fill="white"/>
<path d="M28.8125 29.9384L25.5663 26.8728L24.3638 28.1461L28.8265 32.3607L35.6492 25.7661L34.4321 24.5068L28.8125 29.9384Z" fill="white"/>
</g>
<defs>
<clipPath id="clip0_229_3325">
<rect width="30" height="30" fill="white" transform="translate(15 15)"/>
</clipPath>
</defs>
</svg>
