<svg width="179" height="63" viewBox="0 0 179 63" fill="none" xmlns="http://www.w3.org/2000/svg">
<path d="M0 30.7814C0 25.3496 4.40332 20.9463 9.83508 20.9463H158V53.1112C158 58.543 153.597 62.9463 148.165 62.9463H9.83508C4.40331 62.9463 0 58.543 0 53.1112V30.7814Z" fill="#33E47A"/>
<path d="M16.1801 48.1396V36.8096H20.6727C21.4385 36.8096 22.0654 36.9644 22.5532 37.2738C23.0463 37.5781 23.4108 37.9689 23.6469 38.4462C23.8881 38.9235 24.0088 39.4166 24.0088 39.9254C24.0088 40.5496 23.8593 41.0794 23.5603 41.5147C23.2666 41.9501 22.8653 42.2438 22.3565 42.396V42.0026C23.0699 42.1652 23.6101 42.5035 23.9773 43.0175C24.3497 43.5316 24.5359 44.1164 24.5359 44.7721C24.5359 45.4435 24.4074 46.031 24.1504 46.5346C23.8934 47.0381 23.5105 47.4315 23.0017 47.7148C22.4981 47.998 21.8739 48.1396 21.1291 48.1396H16.1801ZM18.0999 46.3536H20.893C21.2235 46.3536 21.5198 46.288 21.7821 46.1569C22.0444 46.0205 22.249 45.8317 22.3958 45.5904C22.5479 45.3439 22.624 45.0527 22.624 44.717C22.624 44.4128 22.5584 44.14 22.4273 43.8988C22.2962 43.6575 22.1047 43.466 21.8529 43.3244C21.6012 43.1775 21.2995 43.1041 20.9481 43.1041H18.0999V46.3536ZM18.0999 41.3338H20.6491C20.9219 41.3338 21.1658 41.2813 21.3808 41.1764C21.5959 41.0715 21.7664 40.9168 21.8923 40.7122C22.0182 40.5076 22.0811 40.2558 22.0811 39.9569C22.0811 39.5635 21.9552 39.2356 21.7034 38.9734C21.4517 38.7111 21.1002 38.5799 20.6491 38.5799H18.0999V41.3338ZM29.9706 48.3757C29.1103 48.3757 28.355 48.1895 27.7046 47.8171C27.0541 47.4446 26.5453 46.928 26.1782 46.267C25.8162 45.6061 25.6353 44.8456 25.6353 43.9853C25.6353 43.0569 25.8136 42.2517 26.1703 41.5698C26.527 40.8827 27.0227 40.3503 27.6573 39.9726C28.292 39.5949 29.0264 39.4061 29.8604 39.4061C30.7416 39.4061 31.4891 39.6133 32.1028 40.0277C32.7218 40.4368 33.1807 41.0164 33.4797 41.7665C33.7787 42.5166 33.8915 43.4004 33.818 44.4181H31.9376V43.7257C31.9323 42.8025 31.7697 42.1284 31.4498 41.7036C31.1298 41.2787 30.6262 41.0663 29.9391 41.0663C29.1628 41.0663 28.5858 41.3075 28.2081 41.7901C27.8304 42.2674 27.6416 42.9677 27.6416 43.8909C27.6416 44.7511 27.8304 45.4173 28.2081 45.8894C28.5858 46.3615 29.1365 46.5975 29.8604 46.5975C30.3272 46.5975 30.7285 46.4952 31.0642 46.2907C31.4052 46.0808 31.6674 45.7792 31.851 45.3858L33.7236 45.9523C33.3984 46.7182 32.8949 47.3135 32.213 47.7384C31.5363 48.1633 30.7888 48.3757 29.9706 48.3757ZM27.0436 44.4181V42.9861H32.8896V44.4181H27.0436ZM38.8546 48.3757C37.8055 48.3757 36.9531 48.1396 36.2975 47.6676C35.6418 47.1955 35.2431 46.5319 35.1015 45.6769L37.0371 45.378C37.1367 45.7976 37.357 46.128 37.698 46.3693C38.0389 46.6106 38.4691 46.7313 38.9883 46.7313C39.4447 46.7313 39.7961 46.6421 40.0427 46.4638C40.2944 46.2802 40.4203 46.031 40.4203 45.7163C40.4203 45.5222 40.3731 45.3675 40.2787 45.2521C40.1895 45.1314 39.9902 45.016 39.6807 44.9059C39.3713 44.7957 38.8966 44.6567 38.2566 44.4889C37.5432 44.3 36.9767 44.0981 36.5571 43.883C36.1375 43.6627 35.8359 43.4031 35.6523 43.1041C35.4687 42.8051 35.3769 42.4432 35.3769 42.0183C35.3769 41.4885 35.5159 41.0269 35.7939 40.6335C36.0719 40.2401 36.4601 39.9385 36.9584 39.7287C37.4567 39.5136 38.0442 39.4061 38.7208 39.4061C39.3818 39.4061 39.9666 39.5084 40.4754 39.7129C40.9895 39.9175 41.4038 40.2086 41.7186 40.5863C42.0333 40.964 42.2274 41.4072 42.3008 41.916L40.3653 42.2622C40.3181 41.9003 40.1528 41.6144 39.8696 41.4046C39.5916 41.1948 39.2191 41.0767 38.7523 41.0505C38.3064 41.0243 37.9471 41.0925 37.6744 41.2551C37.4016 41.4125 37.2652 41.6354 37.2652 41.9239C37.2652 42.0865 37.3203 42.2255 37.4305 42.3409C37.5406 42.4563 37.7609 42.5717 38.0914 42.6871C38.4271 42.8025 38.9254 42.9441 39.5863 43.112C40.263 43.2851 40.8032 43.4844 41.2071 43.7099C41.6163 43.9302 41.91 44.1951 42.0884 44.5046C42.272 44.8141 42.3637 45.1891 42.3637 45.6297C42.3637 46.4847 42.0516 47.1561 41.4274 47.644C40.8085 48.1318 39.9509 48.3757 38.8546 48.3757ZM47.3681 48.3757C46.319 48.3757 45.4666 48.1396 44.811 47.6676C44.1553 47.1955 43.7566 46.5319 43.615 45.6769L45.5506 45.378C45.6502 45.7976 45.8705 46.128 46.2115 46.3693C46.5524 46.6106 46.9826 46.7313 47.5018 46.7313C47.9582 46.7313 48.3096 46.6421 48.5562 46.4638C48.8079 46.2802 48.9338 46.031 48.9338 45.7163C48.9338 45.5222 48.8866 45.3675 48.7922 45.2521C48.703 45.1314 48.5037 45.016 48.1942 44.9059C47.8848 44.7957 47.41 44.6567 46.7701 44.4889C46.0567 44.3 45.4902 44.0981 45.0706 43.883C44.651 43.6627 44.3494 43.4031 44.1658 43.1041C43.9822 42.8051 43.8904 42.4432 43.8904 42.0183C43.8904 41.4885 44.0294 41.0269 44.3074 40.6335C44.5854 40.2401 44.9736 39.9385 45.4719 39.7287C45.9702 39.5136 46.5577 39.4061 47.2343 39.4061C47.8952 39.4061 48.4801 39.5084 48.9889 39.7129C49.503 39.9175 49.9173 40.2086 50.2321 40.5863C50.5468 40.964 50.7409 41.4072 50.8143 41.916L48.8788 42.2622C48.8315 41.9003 48.6663 41.6144 48.3831 41.4046C48.1051 41.1948 47.7326 41.0767 47.2658 41.0505C46.8199 41.0243 46.4606 41.0925 46.1879 41.2551C45.9151 41.4125 45.7787 41.6354 45.7787 41.9239C45.7787 42.0865 45.8338 42.2255 45.944 42.3409C46.0541 42.4563 46.2744 42.5717 46.6049 42.6871C46.9406 42.8025 47.4389 42.9441 48.0998 43.112C48.7765 43.2851 49.3167 43.4844 49.7206 43.7099C50.1298 43.9302 50.4235 44.1951 50.6019 44.5046C50.7854 44.8141 50.8772 45.1891 50.8772 45.6297C50.8772 46.4847 50.5651 47.1561 49.9409 47.644C49.322 48.1318 48.4644 48.3757 47.3681 48.3757ZM56.4638 48.3757C55.6036 48.3757 54.8482 48.1895 54.1978 47.8171C53.5474 47.4446 53.0386 46.928 52.6714 46.267C52.3095 45.6061 52.1285 44.8456 52.1285 43.9853C52.1285 43.0569 52.3069 42.2517 52.6635 41.5698C53.0202 40.8827 53.5159 40.3503 54.1506 39.9726C54.7853 39.5949 55.5196 39.4061 56.3537 39.4061C57.2349 39.4061 57.9824 39.6133 58.5961 40.0277C59.215 40.4368 59.674 41.0164 59.973 41.7665C60.272 42.5166 60.3847 43.4004 60.3113 44.4181H58.4308V43.7257C58.4256 42.8025 58.263 42.1284 57.943 41.7036C57.623 41.2787 57.1195 41.0663 56.4323 41.0663C55.656 41.0663 55.079 41.3075 54.7014 41.7901C54.3237 42.2674 54.1349 42.9677 54.1349 43.8909C54.1349 44.7511 54.3237 45.4173 54.7014 45.8894C55.079 46.3615 55.6298 46.5975 56.3537 46.5975C56.8205 46.5975 57.2218 46.4952 57.5575 46.2907C57.8984 46.0808 58.1607 45.7792 58.3443 45.3858L60.2169 45.9523C59.8917 46.7182 59.3881 47.3135 58.7062 47.7384C58.0296 48.1633 57.2821 48.3757 56.4638 48.3757ZM53.5369 44.4181V42.9861H59.3829V44.4181H53.5369ZM62.0669 48.1396V39.6421H63.7428V41.7114L63.5382 41.4439C63.6431 41.1607 63.7821 40.9037 63.9552 40.6729C64.1335 40.4368 64.346 40.2427 64.5925 40.0906C64.8023 39.949 65.0331 39.8388 65.2849 39.7602C65.5419 39.6762 65.8042 39.6264 66.0717 39.6107C66.3392 39.5897 66.5989 39.6002 66.8506 39.6421V41.4125C66.5989 41.339 66.3077 41.3154 65.9773 41.3416C65.6521 41.3679 65.3583 41.4597 65.0961 41.617C64.8338 41.7586 64.6187 41.9396 64.4509 42.1599C64.2883 42.3802 64.1676 42.632 64.089 42.9153C64.0103 43.1933 63.9709 43.4949 63.9709 43.8201V48.1396H62.0669ZM72.0616 48.3757C71.2014 48.3757 70.4461 48.1895 69.7956 47.8171C69.1452 47.4446 68.6364 46.928 68.2692 46.267C67.9073 45.6061 67.7263 44.8456 67.7263 43.9853C67.7263 43.0569 67.9047 42.2517 68.2614 41.5698C68.618 40.8827 69.1137 40.3503 69.7484 39.9726C70.3831 39.5949 71.1175 39.4061 71.9515 39.4061C72.8327 39.4061 73.5802 39.6133 74.1939 40.0277C74.8128 40.4368 75.2718 41.0164 75.5708 41.7665C75.8698 42.5166 75.9826 43.4004 75.9091 44.4181H74.0287V43.7257C74.0234 42.8025 73.8608 42.1284 73.5408 41.7036C73.2209 41.2787 72.7173 41.0663 72.0302 41.0663C71.2539 41.0663 70.6769 41.3075 70.2992 41.7901C69.9215 42.2674 69.7327 42.9677 69.7327 43.8909C69.7327 44.7511 69.9215 45.4173 70.2992 45.8894C70.6769 46.3615 71.2276 46.5975 71.9515 46.5975C72.4183 46.5975 72.8196 46.4952 73.1553 46.2907C73.4963 46.0808 73.7585 45.7792 73.9421 45.3858L75.8147 45.9523C75.4895 46.7182 74.9859 47.3135 74.304 47.7384C73.6274 48.1633 72.8799 48.3757 72.0616 48.3757ZM69.1347 44.4181V42.9861H74.9807V44.4181H69.1347ZM80.5003 48.1396V47.88L86.0866 38.5878H80.8937V36.8096H89.3676V37.0771L83.8127 46.3536H89.2338V48.1396H80.5003ZM94.436 48.3836C93.8065 48.3836 93.2872 48.2787 92.8781 48.0688C92.4689 47.859 92.1437 47.5915 91.9024 47.2663C91.6611 46.9411 91.4828 46.5949 91.3674 46.2277C91.252 45.8605 91.176 45.5143 91.1392 45.1891C91.1078 44.8587 91.092 44.5912 91.092 44.3866V39.6421H93.0118V43.7335C93.0118 43.9958 93.0302 44.2922 93.0669 44.6226C93.1036 44.9478 93.1876 45.2626 93.3187 45.5668C93.4551 45.8658 93.6544 46.1123 93.9167 46.3064C94.1842 46.5005 94.5435 46.5975 94.9946 46.5975C95.2359 46.5975 95.4745 46.5582 95.7106 46.4795C95.9466 46.4008 96.1591 46.267 96.3479 46.0782C96.542 45.8841 96.6967 45.6192 96.8121 45.2835C96.9275 44.9478 96.9852 44.523 96.9852 44.0089L98.1103 44.4889C98.1103 45.2127 97.9687 45.8684 97.6855 46.4559C97.4075 47.0434 96.9957 47.5128 96.4502 47.8643C95.9047 48.2105 95.2333 48.3836 94.436 48.3836ZM97.2134 48.1396V45.5038H96.9852V39.6421H98.8893V48.1396H97.2134ZM101.084 48.1396L101.1 36.8096H103.02V43.7335L106.128 39.6421H108.496L105.199 43.8909L108.779 48.1396H106.269L103.02 44.0483V48.1396H101.084ZM112.754 48.3836C112.124 48.3836 111.605 48.2787 111.196 48.0688C110.787 47.859 110.462 47.5915 110.22 47.2663C109.979 46.9411 109.801 46.5949 109.685 46.2277C109.57 45.8605 109.494 45.5143 109.457 45.1891C109.426 44.8587 109.41 44.5912 109.41 44.3866V39.6421H111.33V43.7335C111.33 43.9958 111.348 44.2922 111.385 44.6226C111.421 44.9478 111.505 45.2626 111.637 45.5668C111.773 45.8658 111.972 46.1123 112.235 46.3064C112.502 46.5005 112.861 46.5975 113.312 46.5975C113.554 46.5975 113.792 46.5582 114.028 46.4795C114.264 46.4008 114.477 46.267 114.666 46.0782C114.86 45.8841 115.015 45.6192 115.13 45.2835C115.245 44.9478 115.303 44.523 115.303 44.0089L116.428 44.4889C116.428 45.2127 116.287 45.8684 116.003 46.4559C115.725 47.0434 115.314 47.5128 114.768 47.8643C114.223 48.2105 113.551 48.3836 112.754 48.3836ZM115.531 48.1396V45.5038H115.303V39.6421H117.207V48.1396H115.531ZM125.295 48.1396V44.0483C125.295 43.7807 125.277 43.4844 125.24 43.1592C125.203 42.8339 125.117 42.5218 124.98 42.2229C124.849 41.9186 124.65 41.6695 124.382 41.4754C124.12 41.2813 123.763 41.1843 123.312 41.1843C123.071 41.1843 122.832 41.2236 122.596 41.3023C122.36 41.381 122.145 41.5174 121.951 41.7114C121.762 41.9003 121.61 42.1625 121.495 42.4982C121.379 42.8287 121.322 43.2536 121.322 43.7729L120.197 43.2929C120.197 42.5691 120.336 41.9134 120.614 41.3259C120.897 40.7384 121.311 40.2716 121.857 39.9254C122.402 39.5739 123.074 39.3982 123.871 39.3982C124.5 39.3982 125.02 39.5031 125.429 39.7129C125.838 39.9228 126.163 40.1903 126.405 40.5155C126.646 40.8407 126.824 41.1869 126.94 41.5541C127.055 41.9213 127.128 42.2701 127.16 42.6005C127.197 42.9257 127.215 43.1906 127.215 43.3952V48.1396H125.295ZM119.402 48.1396V39.6421H121.094V42.2779H121.322V48.1396H119.402ZM130.008 48.1396V39.5084C130.008 39.2933 130.016 39.0573 130.031 38.8003C130.047 38.538 130.092 38.2783 130.165 38.0213C130.239 37.7643 130.372 37.5309 130.566 37.3211C130.808 37.0535 131.067 36.87 131.345 36.7703C131.629 36.6654 131.907 36.6077 132.179 36.5972C132.452 36.5815 132.691 36.5736 132.895 36.5736H133.958V38.1157H132.974C132.612 38.1157 132.342 38.2075 132.164 38.3911C131.99 38.5695 131.904 38.8055 131.904 39.0992V48.1396H130.008ZM128.639 41.1292V39.6421H133.958V41.1292H128.639ZM140.196 48.1396C139.635 48.2446 139.084 48.2891 138.543 48.2734C138.008 48.2629 137.528 48.1659 137.104 47.9823C136.679 47.7935 136.356 47.4971 136.136 47.0932C135.942 46.726 135.839 46.351 135.829 45.9681C135.819 45.5851 135.813 45.1524 135.813 44.6698V37.2817H137.702V44.5597C137.702 44.9006 137.704 45.1996 137.709 45.4566C137.72 45.7137 137.775 45.9235 137.875 46.0861C138.064 46.4008 138.365 46.5765 138.78 46.6132C139.194 46.65 139.666 46.629 140.196 46.5503V48.1396ZM134.271 41.1292V39.6421H140.196V41.1292H134.271Z" fill="white"/>
<ellipse cx="157.853" cy="20.4592" rx="20.6537" ry="20.4592" fill="white"/>
<g clip-path="url(#clip0_229_3535)">
<path d="M153.037 13.6459C153.482 14.4518 154.178 15.1007 154.792 15.6731C154.898 15.7718 155.003 15.8693 155.105 15.9666C155.494 16.3364 155.886 16.6914 156.265 17.0348C156.638 17.3726 157.024 17.7217 157.4 18.08L157.879 18.5356L158.358 18.08C158.735 17.7217 159.12 17.3726 159.493 17.0348C159.872 16.6914 160.264 16.3364 160.653 15.9666C160.756 15.8693 160.86 15.7718 160.966 15.6731C161.58 15.1007 162.276 14.4518 162.721 13.6459C163.328 12.5463 163.31 11.3227 162.671 10.2886C161.877 9.00505 160.764 8.72872 159.97 8.72283C159.303 8.71748 158.643 8.90693 158.064 9.26835L157.879 9.38324L157.696 9.2696C157.123 8.91157 156.473 8.72266 155.814 8.72266C155.805 8.72266 155.797 8.72266 155.788 8.72283C154.994 8.72854 153.881 9.00505 153.088 10.2886C152.449 11.3227 152.43 12.5463 153.037 13.6459ZM154.267 11.0039C154.643 10.3958 155.144 10.0977 155.798 10.0929C155.804 10.0929 155.809 10.0929 155.814 10.0929C156.211 10.0929 156.606 10.2086 156.96 10.4295L157.879 11L158.8 10.4284C159.157 10.206 159.557 10.0898 159.96 10.0929C160.614 10.0977 161.115 10.3958 161.491 11.0039C161.87 11.6169 161.876 12.3217 161.508 12.9883C161.168 13.6032 160.583 14.1482 160.018 14.6754C159.909 14.7771 159.801 14.8778 159.695 14.9781C159.318 15.3365 158.933 15.6858 158.56 16.0236C158.336 16.2261 158.108 16.4325 157.879 16.6437C157.65 16.4325 157.422 16.2261 157.198 16.0236C156.825 15.6858 156.44 15.3365 156.063 14.9781C155.957 14.8778 155.849 14.7771 155.74 14.6754C155.175 14.1482 154.59 13.6032 154.25 12.9883C153.883 12.3217 153.888 11.617 154.267 11.0039Z" fill="#33E47A"/>
<path d="M166.726 12.8115C165.591 12.8115 164.667 13.7267 164.667 14.8514V20.3746L164.351 20.6978C164.249 20.4864 164.109 20.2893 163.932 20.1163C163.105 19.3105 161.767 19.3178 160.95 20.1327L157.879 23.1937L154.808 20.1327C153.991 19.3178 152.653 19.3105 151.827 20.1163C151.649 20.2893 151.509 20.4864 151.407 20.6978L151.091 20.3746V14.8514C151.091 13.7267 150.167 12.8115 149.032 12.8115C147.896 12.8115 146.973 13.7267 146.973 14.8514V22.5338L150.948 29.1384V32.1045H164.811V29.1384L168.785 22.5338V14.8514C168.785 13.7267 167.862 12.8115 166.726 12.8115ZM157.187 30.7344H152.331V28.7611L148.356 22.1563V14.8514C148.356 14.4822 148.659 14.1817 149.032 14.1817C149.405 14.1817 149.708 14.4822 149.708 14.8514V20.9287L151.732 23.0026C151.751 23.023 151.769 23.0428 151.789 23.0626L154.001 25.3329L154.004 25.3303L154.062 25.3898L155.057 24.4374L152.751 22.075C152.507 21.7894 152.524 21.3584 152.797 21.0928C153.082 20.8143 153.544 20.8168 153.827 21.0985L157.187 24.4481V30.7344H157.187ZM167.402 22.1563L163.427 28.7611V30.7344H158.571V24.4481L161.931 21.0985C162.214 20.817 162.676 20.8143 162.961 21.0928C163.234 21.3586 163.25 21.7894 163.007 22.075L160.701 24.4374L161.696 25.3898L161.754 25.3303L161.756 25.3329L163.97 23.0626C163.989 23.0429 164.007 23.023 164.026 23.0026L166.05 20.9287V14.8514C166.05 14.4822 166.353 14.1817 166.726 14.1817C167.099 14.1817 167.402 14.4822 167.402 14.8514V22.1563Z" fill="#33E47A"/>
</g>
<defs>
<clipPath id="clip0_229_3535">
<rect width="23.6042" height="23.382" fill="white" transform="translate(146.051 8.76855)"/>
</clipPath>
</defs>
</svg>
