<svg width="232" height="36" viewBox="0 0 232 36" fill="none" xmlns="http://www.w3.org/2000/svg">
<rect width="232" height="36" rx="18" fill="#C5E3FF" fill-opacity="0.4"/>
<g clip-path="url(#clip0_229_3023)">
<path d="M43.5198 15.3781C43.4211 15.2918 43.3023 15.2169 43.1631 15.1536C43.024 15.0902 42.8682 15.0322 42.6957 14.9792C42.5865 14.9441 42.4888 14.9142 42.4025 14.8895C42.3163 14.865 42.2432 14.8394 42.1833 14.813C42.1235 14.7864 42.0777 14.7573 42.046 14.7258C42.0143 14.694 41.9984 14.6537 41.9984 14.6042C41.9984 14.5374 42.0257 14.4898 42.0803 14.4616C42.1348 14.4334 42.2079 14.4193 42.2996 14.4193C42.4122 14.4193 42.5276 14.438 42.6455 14.475C42.7634 14.5118 42.87 14.5515 42.9652 14.5938C43.0778 14.6431 43.187 14.6995 43.2926 14.7626L43.7365 13.9123C43.6519 13.87 43.5568 13.8251 43.4512 13.7775C43.3455 13.7299 43.2318 13.686 43.1104 13.6455C43.0818 13.636 43.0531 13.627 43.0242 13.6182V12.9248H41.6179V13.6622C41.5231 13.7079 41.4346 13.7623 41.3541 13.8277C41.2237 13.9333 41.1206 14.0654 41.045 14.2239C40.9692 14.3823 40.9313 14.5656 40.9313 14.7734C40.9313 14.9108 40.95 15.0322 40.9868 15.1378C41.0237 15.2435 41.0811 15.3378 41.1585 15.4203C41.236 15.5031 41.3347 15.5771 41.4544 15.6423C41.574 15.7075 41.7166 15.7682 41.8821 15.8245C41.9949 15.8633 42.1015 15.8968 42.2018 15.9248C42.3022 15.9532 42.3912 15.9812 42.4686 16.0094C42.5461 16.0376 42.6067 16.0702 42.6508 16.1072C42.6948 16.1442 42.7169 16.189 42.7169 16.2418C42.7169 16.2912 42.6948 16.3307 42.6508 16.3606C42.6067 16.3906 42.5285 16.4056 42.4157 16.4056C42.2679 16.4056 42.1226 16.3844 41.9799 16.3421C41.8373 16.3 41.7097 16.2524 41.597 16.1995C41.4632 16.1398 41.3347 16.0711 41.2114 15.9935L40.7676 16.8969C40.8804 16.9637 41.0027 17.0236 41.1349 17.0764C41.2669 17.1293 41.4042 17.175 41.5469 17.2139C41.5705 17.2203 41.5943 17.226 41.6179 17.232V17.8879H43.0242V17.2437C43.1516 17.2034 43.2686 17.1479 43.3746 17.0764C43.5101 16.985 43.6193 16.8625 43.702 16.7092C43.7848 16.5562 43.8262 16.3668 43.8262 16.1414C43.8262 15.9655 43.7998 15.8157 43.7471 15.6924C43.6942 15.5692 43.6183 15.4645 43.5198 15.3781Z" fill="#6FB9FE"/>
<path d="M42.3193 11.0273C39.7927 11.0273 37.7373 13.0829 37.7373 15.6094C37.7373 18.1359 39.7927 20.1914 42.3193 20.1914C44.8458 20.1914 46.9017 18.1359 46.9017 15.6094C46.9017 13.0829 44.8458 11.0273 42.3193 11.0273ZM42.3193 18.7852C40.5681 18.7852 39.1436 17.3606 39.1436 15.6094C39.1436 13.8582 40.5681 12.4336 42.3193 12.4336C44.0706 12.4336 45.4955 13.8582 45.4955 15.6094C45.4955 17.3606 44.0706 18.7852 42.3193 18.7852Z" fill="#6FB9FE"/>
<path d="M55.5285 18.8161C54.8975 18.5958 54.3993 18.1115 54.1607 17.4871L53.988 17.0349H53.0877V8.90625H32V22.4062H47.4384C47.951 24.286 49.2256 25.8924 51.0139 26.8167L51.5938 27.1166L52.1736 26.8167C54.5337 25.5965 56 23.1881 56 20.5312V18.9802L55.5285 18.8161ZM51.6815 10.3125V12.6564C50.59 12.3741 49.7545 11.45 49.6017 10.3125H51.6815ZM33.4062 10.3125H35.4858C35.3331 11.45 34.4977 12.3739 33.4062 12.6564V10.3125ZM33.4062 21V18.5623C34.5276 18.8525 35.3794 19.8197 35.4975 21H33.4062ZM47.659 18.8161L47.1875 18.9807V20.5312C47.1875 20.6884 47.1926 20.8449 47.2029 21H36.9081C36.7783 19.0424 35.3063 17.4465 33.4062 17.126V14.0927C35.2759 13.7774 36.7311 12.2271 36.901 10.3125H48.1865C48.3564 12.2271 49.8118 13.7776 51.6815 14.0929V17.0349H49.1995L49.0268 17.4871C48.7882 18.1115 48.29 18.5958 47.659 18.8161ZM54.5938 20.5312C54.5938 22.6355 53.4462 24.5447 51.5938 25.5328C50.314 24.8503 49.3708 23.7286 48.9102 22.4062C48.784 22.0448 48.6941 21.6685 48.643 21.2818C48.6307 21.1884 48.6205 21.0943 48.613 21C48.6003 20.8449 48.5938 20.6887 48.5938 20.5312V19.9417C49.2452 19.6064 49.7806 19.0847 50.1317 18.4411H53.0558C53.0667 18.4603 53.0769 18.4796 53.0877 18.4988C53.4393 19.1157 53.9619 19.6163 54.5938 19.9417V20.5312Z" fill="#6FB9FE"/>
<path d="M52.9725 19.8062L51.2493 21.4711L50.7502 21L50.371 20.6418L50.0326 21L49.4053 21.6643L50.1913 22.4062L51.2607 23.4159L52.3055 22.4062L53.0879 21.6502L53.95 20.8173L53.0879 19.9252L52.9725 19.8062Z" fill="#6FB9FE"/>
</g>
<path d="M67.1919 24V12.48H70.6879C70.8105 12.48 71.0185 12.4827 71.3119 12.488C71.6105 12.4933 71.8959 12.5147 72.1679 12.552C73.0425 12.6747 73.7732 13 74.3599 13.528C74.9465 14.056 75.3865 14.728 75.6799 15.544C75.9732 16.36 76.1199 17.2587 76.1199 18.24C76.1199 19.2213 75.9732 20.12 75.6799 20.936C75.3865 21.752 74.9465 22.424 74.3599 22.952C73.7732 23.48 73.0425 23.8053 72.1679 23.928C71.9012 23.96 71.6159 23.9813 71.3119 23.992C71.0079 23.9973 70.7999 24 70.6879 24H67.1919ZM68.4079 22.872H70.6879C70.9065 22.872 71.1412 22.8667 71.3919 22.856C71.6479 22.84 71.8665 22.8133 72.0479 22.776C72.7199 22.6587 73.2612 22.3867 73.6719 21.96C74.0879 21.5333 74.3919 21 74.5839 20.36C74.7759 19.7147 74.8719 19.008 74.8719 18.24C74.8719 17.4667 74.7759 16.7573 74.5839 16.112C74.3919 15.4667 74.0879 14.9333 73.6719 14.512C73.2559 14.0907 72.7145 13.8213 72.0479 13.704C71.8665 13.6667 71.6452 13.6427 71.3839 13.632C71.1279 13.616 70.8959 13.608 70.6879 13.608H68.4079V22.872ZM78.5819 13.72V12.4H79.7579V13.72H78.5819ZM78.5819 24V15.36H79.7579V24H78.5819ZM86.2923 24.24C85.4496 24.24 84.7189 24.0533 84.1003 23.68C83.4869 23.3067 83.0096 22.7813 82.6683 22.104C82.3269 21.4267 82.1563 20.632 82.1563 19.72C82.1563 18.776 82.3243 17.96 82.6603 17.272C82.9963 16.584 83.4683 16.0533 84.0763 15.68C84.6896 15.3067 85.4123 15.12 86.2443 15.12C87.0976 15.12 87.8256 15.3173 88.4283 15.712C89.0309 16.1013 89.4869 16.6613 89.7963 17.392C90.1056 18.1227 90.2469 18.9947 90.2203 20.008H89.0203V19.592C88.9989 18.472 88.7563 17.6267 88.2923 17.056C87.8336 16.4853 87.1616 16.2 86.2763 16.2C85.3483 16.2 84.6363 16.5013 84.1403 17.104C83.6496 17.7067 83.4043 18.5653 83.4043 19.68C83.4043 20.768 83.6496 21.6133 84.1403 22.216C84.6363 22.8133 85.3376 23.112 86.2443 23.112C86.8629 23.112 87.4016 22.9707 87.8603 22.688C88.3243 22.4 88.6896 21.9867 88.9563 21.448L90.0523 21.872C89.7109 22.624 89.2069 23.208 88.5403 23.624C87.8789 24.0347 87.1296 24.24 86.2923 24.24ZM82.9883 20.008V19.024H89.5883V20.008H82.9883ZM98.4813 24V19.592C98.4813 19.112 98.4359 18.672 98.3453 18.272C98.2546 17.8667 98.1079 17.5147 97.9053 17.216C97.7079 16.912 97.4493 16.6773 97.1293 16.512C96.8146 16.3467 96.4306 16.264 95.9773 16.264C95.5613 16.264 95.1933 16.336 94.8733 16.48C94.5586 16.624 94.2919 16.832 94.0733 17.104C93.8599 17.3707 93.6973 17.696 93.5853 18.08C93.4733 18.464 93.4173 18.9013 93.4173 19.392L92.5853 19.208C92.5853 18.3227 92.7399 17.5787 93.0493 16.976C93.3586 16.3733 93.7853 15.9173 94.3293 15.608C94.8733 15.2987 95.4973 15.144 96.2013 15.144C96.7186 15.144 97.1693 15.224 97.5533 15.384C97.9426 15.544 98.2706 15.76 98.5373 16.032C98.8093 16.304 99.0279 16.616 99.1933 16.968C99.3586 17.3147 99.4786 17.6853 99.5533 18.08C99.6279 18.4693 99.6653 18.8587 99.6653 19.248V24H98.4813ZM92.2333 24V15.36H93.2973V17.488H93.4173V24H92.2333ZM105.445 24.232C104.432 24.232 103.597 24.0133 102.941 23.576C102.291 23.1387 101.891 22.5307 101.741 21.752L102.941 21.552C103.069 22.0427 103.36 22.4347 103.813 22.728C104.272 23.016 104.837 23.16 105.509 23.16C106.165 23.16 106.683 23.024 107.061 22.752C107.44 22.4747 107.629 22.0987 107.629 21.624C107.629 21.3573 107.568 21.1413 107.445 20.976C107.328 20.8053 107.085 20.648 106.717 20.504C106.349 20.36 105.8 20.1893 105.069 19.992C104.285 19.7787 103.672 19.5653 103.229 19.352C102.787 19.1387 102.472 18.8933 102.285 18.616C102.099 18.3333 102.005 17.9893 102.005 17.584C102.005 17.0933 102.144 16.664 102.421 16.296C102.699 15.9227 103.083 15.6347 103.573 15.432C104.064 15.224 104.635 15.12 105.285 15.12C105.936 15.12 106.517 15.2267 107.029 15.44C107.547 15.648 107.963 15.9413 108.277 16.32C108.592 16.6987 108.779 17.1387 108.837 17.64L107.637 17.856C107.557 17.3493 107.304 16.9493 106.877 16.656C106.456 16.3573 105.92 16.2027 105.269 16.192C104.656 16.176 104.157 16.2933 103.773 16.544C103.389 16.7893 103.197 17.1173 103.197 17.528C103.197 17.7573 103.267 17.9547 103.405 18.12C103.544 18.28 103.795 18.432 104.157 18.576C104.525 18.72 105.048 18.8773 105.725 19.048C106.52 19.2507 107.144 19.464 107.597 19.688C108.051 19.912 108.373 20.176 108.565 20.48C108.757 20.784 108.853 21.16 108.853 21.608C108.853 22.424 108.549 23.0667 107.941 23.536C107.339 24 106.507 24.232 105.445 24.232ZM115.812 24C115.326 24.1013 114.846 24.1413 114.372 24.12C113.902 24.0987 113.481 23.9973 113.108 23.816C112.74 23.6347 112.46 23.352 112.268 22.968C112.113 22.648 112.028 22.3253 112.012 22C112.001 21.6693 111.996 21.2933 111.996 20.872V12.96H113.164V20.824C113.164 21.1867 113.166 21.4907 113.172 21.736C113.182 21.976 113.238 22.1893 113.34 22.376C113.532 22.7333 113.836 22.9467 114.252 23.016C114.673 23.0853 115.193 23.0693 115.812 22.968V24ZM110.148 16.368V15.36H115.812V16.368H110.148ZM118.154 24V12.24H119.33V24H118.154ZM125.864 24.24C125.021 24.24 124.291 24.0533 123.672 23.68C123.059 23.3067 122.581 22.7813 122.24 22.104C121.899 21.4267 121.728 20.632 121.728 19.72C121.728 18.776 121.896 17.96 122.232 17.272C122.568 16.584 123.04 16.0533 123.648 15.68C124.261 15.3067 124.984 15.12 125.816 15.12C126.669 15.12 127.397 15.3173 128 15.712C128.603 16.1013 129.059 16.6613 129.368 17.392C129.677 18.1227 129.819 18.9947 129.792 20.008H128.592V19.592C128.571 18.472 128.328 17.6267 127.864 17.056C127.405 16.4853 126.733 16.2 125.848 16.2C124.92 16.2 124.208 16.5013 123.712 17.104C123.221 17.7067 122.976 18.5653 122.976 19.68C122.976 20.768 123.221 21.6133 123.712 22.216C124.208 22.8133 124.909 23.112 125.816 23.112C126.435 23.112 126.973 22.9707 127.432 22.688C127.896 22.4 128.261 21.9867 128.528 21.448L129.624 21.872C129.283 22.624 128.779 23.208 128.112 23.624C127.451 24.0347 126.701 24.24 125.864 24.24ZM122.56 20.008V19.024H129.16V20.008H122.56ZM132.207 13.72V12.4H133.383V13.72H132.207ZM132.207 24V15.36H133.383V24H132.207ZM139.486 24.232C138.473 24.232 137.638 24.0133 136.982 23.576C136.331 23.1387 135.931 22.5307 135.782 21.752L136.982 21.552C137.11 22.0427 137.401 22.4347 137.854 22.728C138.313 23.016 138.878 23.16 139.55 23.16C140.206 23.16 140.723 23.024 141.102 22.752C141.481 22.4747 141.67 22.0987 141.67 21.624C141.67 21.3573 141.609 21.1413 141.486 20.976C141.369 20.8053 141.126 20.648 140.758 20.504C140.39 20.36 139.841 20.1893 139.11 19.992C138.326 19.7787 137.713 19.5653 137.27 19.352C136.827 19.1387 136.513 18.8933 136.326 18.616C136.139 18.3333 136.046 17.9893 136.046 17.584C136.046 17.0933 136.185 16.664 136.462 16.296C136.739 15.9227 137.123 15.6347 137.614 15.432C138.105 15.224 138.675 15.12 139.326 15.12C139.977 15.12 140.558 15.2267 141.07 15.44C141.587 15.648 142.003 15.9413 142.318 16.32C142.633 16.6987 142.819 17.1387 142.878 17.64L141.678 17.856C141.598 17.3493 141.345 16.9493 140.918 16.656C140.497 16.3573 139.961 16.2027 139.31 16.192C138.697 16.176 138.198 16.2933 137.814 16.544C137.43 16.7893 137.238 17.1173 137.238 17.528C137.238 17.7573 137.307 17.9547 137.446 18.12C137.585 18.28 137.835 18.432 138.198 18.576C138.566 18.72 139.089 18.8773 139.766 19.048C140.561 19.2507 141.185 19.464 141.638 19.688C142.091 19.912 142.414 20.176 142.606 20.48C142.798 20.784 142.894 21.16 142.894 21.608C142.894 22.424 142.59 23.0667 141.982 23.536C141.379 24 140.547 24.232 139.486 24.232ZM149.852 24C149.367 24.1013 148.887 24.1413 148.412 24.12C147.943 24.0987 147.521 23.9973 147.148 23.816C146.78 23.6347 146.5 23.352 146.308 22.968C146.153 22.648 146.068 22.3253 146.052 22C146.041 21.6693 146.036 21.2933 146.036 20.872V12.96H147.204V20.824C147.204 21.1867 147.207 21.4907 147.212 21.736C147.223 21.976 147.279 22.1893 147.38 22.376C147.572 22.7333 147.876 22.9467 148.292 23.016C148.713 23.0853 149.233 23.0693 149.852 22.968V24ZM144.188 16.368V15.36H149.852V16.368H144.188ZM155.338 24.216C154.821 24.216 154.368 24.136 153.978 23.976C153.594 23.816 153.266 23.6 152.994 23.328C152.728 23.056 152.512 22.7467 152.346 22.4C152.181 22.048 152.061 21.6773 151.986 21.288C151.912 20.8933 151.874 20.5013 151.874 20.112V15.36H153.058V19.768C153.058 20.2427 153.104 20.6827 153.194 21.088C153.285 21.4933 153.429 21.848 153.626 22.152C153.829 22.4507 154.088 22.6827 154.402 22.848C154.722 23.0133 155.109 23.096 155.562 23.096C155.978 23.096 156.344 23.024 156.658 22.88C156.978 22.736 157.245 22.5307 157.458 22.264C157.677 21.992 157.842 21.664 157.954 21.28C158.066 20.8907 158.122 20.4533 158.122 19.968L158.954 20.152C158.954 21.0373 158.8 21.7813 158.49 22.384C158.181 22.9867 157.754 23.4427 157.21 23.752C156.666 24.0613 156.042 24.216 155.338 24.216ZM158.242 24V21.872H158.122V15.36H159.298V24H158.242ZM168.254 24V19.592C168.254 19.112 168.209 18.672 168.118 18.272C168.028 17.8667 167.881 17.5147 167.678 17.216C167.481 16.912 167.222 16.6773 166.902 16.512C166.588 16.3467 166.204 16.264 165.75 16.264C165.334 16.264 164.966 16.336 164.646 16.48C164.332 16.624 164.065 16.832 163.846 17.104C163.633 17.3707 163.47 17.696 163.358 18.08C163.246 18.464 163.19 18.9013 163.19 19.392L162.358 19.208C162.358 18.3227 162.513 17.5787 162.822 16.976C163.132 16.3733 163.558 15.9173 164.102 15.608C164.646 15.2987 165.27 15.144 165.974 15.144C166.492 15.144 166.942 15.224 167.326 15.384C167.716 15.544 168.044 15.76 168.31 16.032C168.582 16.304 168.801 16.616 168.966 16.968C169.132 17.3147 169.252 17.6853 169.326 18.08C169.401 18.4693 169.438 18.8587 169.438 19.248V24H168.254ZM162.006 24V15.36H163.07V17.488H163.19V24H162.006ZM175.426 28.08C174.984 28.08 174.546 28.0133 174.114 27.88C173.688 27.752 173.293 27.5467 172.93 27.264C172.568 26.9867 172.264 26.624 172.018 26.176L173.082 25.584C173.322 26.064 173.658 26.408 174.09 26.616C174.528 26.8293 174.973 26.936 175.426 26.936C176.05 26.936 176.554 26.8187 176.938 26.584C177.328 26.3547 177.61 26.0133 177.786 25.56C177.962 25.1067 178.048 24.5413 178.042 23.864V21.56H178.178V15.36H179.226V23.88C179.226 24.1253 179.218 24.36 179.202 24.584C179.192 24.8133 179.168 25.0373 179.13 25.256C179.029 25.9013 178.818 26.432 178.498 26.848C178.184 27.264 177.768 27.5733 177.25 27.776C176.738 27.9787 176.13 28.08 175.426 28.08ZM175.346 24.24C174.541 24.24 173.853 24.04 173.282 23.64C172.712 23.2347 172.274 22.688 171.97 22C171.666 21.312 171.514 20.536 171.514 19.672C171.514 18.8133 171.664 18.04 171.962 17.352C172.266 16.664 172.701 16.12 173.266 15.72C173.832 15.32 174.509 15.12 175.298 15.12C176.109 15.12 176.792 15.3173 177.346 15.712C177.901 16.1067 178.32 16.648 178.602 17.336C178.89 18.0187 179.034 18.7973 179.034 19.672C179.034 20.5307 178.893 21.3067 178.61 22C178.328 22.688 177.912 23.2347 177.362 23.64C176.813 24.04 176.141 24.24 175.346 24.24ZM175.466 23.144C176.08 23.144 176.586 22.9947 176.986 22.696C177.386 22.3973 177.685 21.9867 177.882 21.464C178.08 20.936 178.178 20.3387 178.178 19.672C178.178 18.9947 178.08 18.3973 177.882 17.88C177.685 17.3573 177.386 16.9493 176.986 16.656C176.592 16.3627 176.093 16.216 175.49 16.216C174.872 16.216 174.36 16.368 173.954 16.672C173.549 16.976 173.248 17.3893 173.05 17.912C172.858 18.4347 172.762 19.0213 172.762 19.672C172.762 20.328 172.861 20.92 173.058 21.448C173.261 21.9707 173.562 22.384 173.962 22.688C174.362 22.992 174.864 23.144 175.466 23.144ZM185.599 24.24C184.756 24.24 184.026 24.0533 183.407 23.68C182.794 23.3067 182.316 22.7813 181.975 22.104C181.634 21.4267 181.463 20.632 181.463 19.72C181.463 18.776 181.631 17.96 181.967 17.272C182.303 16.584 182.775 16.0533 183.383 15.68C183.996 15.3067 184.719 15.12 185.551 15.12C186.404 15.12 187.132 15.3173 187.735 15.712C188.338 16.1013 188.794 16.6613 189.103 17.392C189.412 18.1227 189.554 18.9947 189.527 20.008H188.327V19.592C188.306 18.472 188.063 17.6267 187.599 17.056C187.14 16.4853 186.468 16.2 185.583 16.2C184.655 16.2 183.943 16.5013 183.447 17.104C182.956 17.7067 182.711 18.5653 182.711 19.68C182.711 20.768 182.956 21.6133 183.447 22.216C183.943 22.8133 184.644 23.112 185.551 23.112C186.17 23.112 186.708 22.9707 187.167 22.688C187.631 22.4 187.996 21.9867 188.263 21.448L189.359 21.872C189.018 22.624 188.514 23.208 187.847 23.624C187.186 24.0347 186.436 24.24 185.599 24.24ZM182.295 20.008V19.024H188.895V20.008H182.295ZM197.788 24V19.592C197.788 19.112 197.743 18.672 197.652 18.272C197.561 17.8667 197.415 17.5147 197.212 17.216C197.015 16.912 196.756 16.6773 196.436 16.512C196.121 16.3467 195.737 16.264 195.284 16.264C194.868 16.264 194.5 16.336 194.18 16.48C193.865 16.624 193.599 16.832 193.38 17.104C193.167 17.3707 193.004 17.696 192.892 18.08C192.78 18.464 192.724 18.9013 192.724 19.392L191.892 19.208C191.892 18.3227 192.047 17.5787 192.356 16.976C192.665 16.3733 193.092 15.9173 193.636 15.608C194.18 15.2987 194.804 15.144 195.508 15.144C196.025 15.144 196.476 15.224 196.86 15.384C197.249 15.544 197.577 15.76 197.844 16.032C198.116 16.304 198.335 16.616 198.5 16.968C198.665 17.3147 198.785 17.6853 198.86 18.08C198.935 18.4693 198.972 18.8587 198.972 19.248V24H197.788ZM191.54 24V15.36H192.604V17.488H192.724V24H191.54Z" fill="#0069D1"/>
<defs>
<clipPath id="clip0_229_3023">
<rect width="24" height="24" fill="white" transform="translate(32 6)"/>
</clipPath>
</defs>
</svg>
