<svg width="199" height="65" viewBox="0 0 199 65" fill="none" xmlns="http://www.w3.org/2000/svg">
<path d="M0 31C0 25.4772 4.47715 21 10 21H178V55C178 60.5228 173.523 65 168 65H10C4.47715 65 0 60.5228 0 55V31Z" fill="#33E47A"/>
<path d="M50.958 50.27C50.028 50.27 49.188 50.111 48.438 49.793C47.694 49.469 47.079 49.01 46.593 48.416C46.113 47.816 45.801 47.105 45.657 46.283L47.619 45.986C47.817 46.778 48.231 47.396 48.861 47.84C49.491 48.278 50.226 48.497 51.066 48.497C51.588 48.497 52.068 48.416 52.506 48.254C52.944 48.086 53.295 47.849 53.559 47.543C53.829 47.231 53.964 46.859 53.964 46.427C53.964 46.193 53.922 45.986 53.838 45.806C53.76 45.626 53.649 45.47 53.505 45.338C53.367 45.2 53.196 45.083 52.992 44.987C52.794 44.885 52.575 44.798 52.335 44.726L49.014 43.745C48.69 43.649 48.36 43.526 48.024 43.376C47.688 43.22 47.379 43.019 47.097 42.773C46.821 42.521 46.596 42.212 46.422 41.846C46.248 41.474 46.161 41.024 46.161 40.496C46.161 39.698 46.365 39.023 46.773 38.471C47.187 37.913 47.745 37.493 48.447 37.211C49.149 36.923 49.935 36.779 50.805 36.779C51.681 36.791 52.464 36.947 53.154 37.247C53.85 37.547 54.426 37.979 54.882 38.543C55.344 39.101 55.662 39.779 55.836 40.577L53.82 40.919C53.73 40.433 53.538 40.016 53.244 39.668C52.95 39.314 52.59 39.044 52.164 38.858C51.738 38.666 51.276 38.567 50.778 38.561C50.298 38.549 49.857 38.621 49.455 38.777C49.059 38.933 48.741 39.152 48.501 39.434C48.267 39.716 48.15 40.04 48.15 40.406C48.15 40.766 48.255 41.057 48.465 41.279C48.675 41.501 48.933 41.678 49.239 41.81C49.551 41.936 49.86 42.041 50.166 42.125L52.56 42.8C52.86 42.884 53.199 42.998 53.577 43.142C53.961 43.28 54.33 43.475 54.684 43.727C55.044 43.979 55.341 44.315 55.575 44.735C55.809 45.149 55.926 45.671 55.926 46.301C55.926 46.955 55.794 47.531 55.53 48.029C55.266 48.521 54.903 48.935 54.441 49.271C53.985 49.601 53.457 49.85 52.857 50.018C52.257 50.186 51.624 50.27 50.958 50.27ZM57.808 38.687V36.86H59.689V38.687H57.808ZM57.808 50V40.28H59.689V50H57.808ZM66.3337 50.27C65.3377 50.27 64.4917 50.048 63.7957 49.604C63.0997 49.16 62.5657 48.551 62.1937 47.777C61.8277 47.003 61.6417 46.124 61.6357 45.14C61.6417 44.138 61.8337 43.253 62.2117 42.485C62.5897 41.711 63.1297 41.105 63.8317 40.667C64.5337 40.229 65.3767 40.01 66.3607 40.01C67.4227 40.01 68.3287 40.274 69.0787 40.802C69.8347 41.33 70.3327 42.053 70.5727 42.971L68.7007 43.511C68.5147 42.965 68.2087 42.542 67.7827 42.242C67.3627 41.936 66.8797 41.783 66.3337 41.783C65.7157 41.783 65.2087 41.93 64.8127 42.224C64.4167 42.512 64.1227 42.908 63.9307 43.412C63.7387 43.916 63.6397 44.492 63.6337 45.14C63.6397 46.142 63.8677 46.952 64.3177 47.57C64.7737 48.188 65.4457 48.497 66.3337 48.497C66.9397 48.497 67.4287 48.359 67.8007 48.083C68.1787 47.801 68.4667 47.399 68.6647 46.877L70.5727 47.327C70.2547 48.275 69.7297 49.004 68.9977 49.514C68.2657 50.018 67.3777 50.27 66.3337 50.27ZM79.0121 50V45.221C79.0121 44.843 78.9791 44.456 78.9131 44.06C78.8531 43.658 78.7331 43.286 78.5531 42.944C78.3791 42.602 78.1301 42.326 77.8061 42.116C77.4881 41.906 77.0711 41.801 76.5551 41.801C76.2191 41.801 75.9011 41.858 75.6011 41.972C75.3011 42.08 75.0371 42.257 74.8091 42.503C74.5871 42.749 74.4101 43.073 74.2781 43.475C74.1521 43.877 74.0891 44.366 74.0891 44.942L72.9191 44.501C72.9191 43.619 73.0841 42.842 73.4141 42.17C73.7441 41.492 74.2181 40.964 74.8361 40.586C75.4541 40.208 76.2011 40.019 77.0771 40.019C77.7491 40.019 78.3131 40.127 78.7691 40.343C79.2251 40.559 79.5941 40.844 79.8761 41.198C80.1641 41.546 80.3831 41.927 80.5331 42.341C80.6831 42.755 80.7851 43.16 80.8391 43.556C80.8931 43.952 80.9201 44.3 80.9201 44.6V50H79.0121ZM72.1811 50V37.04H73.8641V44.033H74.0891V50H72.1811ZM87.3593 50.27C86.3933 50.27 85.5443 50.06 84.8123 49.64C84.0863 49.214 83.5193 48.623 83.1113 47.867C82.7093 47.105 82.5083 46.223 82.5083 45.221C82.5083 44.159 82.7063 43.238 83.1023 42.458C83.5043 41.678 84.0623 41.075 84.7763 40.649C85.4903 40.223 86.3213 40.01 87.2693 40.01C88.2593 40.01 89.1023 40.241 89.7983 40.703C90.4943 41.159 91.0133 41.81 91.3553 42.656C91.7033 43.502 91.8413 44.507 91.7693 45.671H89.8883V44.987C89.8763 43.859 89.6603 43.025 89.2403 42.485C88.8263 41.945 88.1933 41.675 87.3413 41.675C86.3993 41.675 85.6913 41.972 85.2173 42.566C84.7433 43.16 84.5063 44.018 84.5063 45.14C84.5063 46.208 84.7433 47.036 85.2173 47.624C85.6913 48.206 86.3753 48.497 87.2693 48.497C87.8573 48.497 88.3643 48.365 88.7903 48.101C89.2223 47.831 89.5583 47.447 89.7983 46.949L91.6433 47.534C91.2653 48.404 90.6923 49.079 89.9243 49.559C89.1563 50.033 88.3013 50.27 87.3593 50.27ZM83.8943 45.671V44.204H90.8333V45.671H83.8943ZM93.5726 50V40.28H95.2466V42.638L95.0126 42.332C95.1326 42.02 95.2886 41.735 95.4806 41.477C95.6726 41.213 95.8946 40.997 96.1466 40.829C96.3926 40.649 96.6656 40.511 96.9656 40.415C97.2716 40.313 97.5836 40.253 97.9016 40.235C98.2196 40.211 98.5256 40.226 98.8196 40.28V42.044C98.5016 41.96 98.1476 41.936 97.7576 41.972C97.3736 42.008 97.0196 42.131 96.6956 42.341C96.3896 42.539 96.1466 42.779 95.9666 43.061C95.7926 43.343 95.6666 43.658 95.5886 44.006C95.5106 44.348 95.4716 44.711 95.4716 45.095V50H93.5726ZM107.14 50V45.221C107.14 44.843 107.107 44.456 107.041 44.06C106.981 43.658 106.861 43.286 106.681 42.944C106.507 42.602 106.258 42.326 105.934 42.116C105.616 41.906 105.199 41.801 104.683 41.801C104.347 41.801 104.029 41.858 103.729 41.972C103.429 42.08 103.165 42.257 102.937 42.503C102.715 42.749 102.538 43.073 102.406 43.475C102.28 43.877 102.217 44.366 102.217 44.942L101.047 44.501C101.047 43.619 101.212 42.842 101.542 42.17C101.872 41.492 102.346 40.964 102.964 40.586C103.582 40.208 104.329 40.019 105.205 40.019C105.877 40.019 106.441 40.127 106.897 40.343C107.353 40.559 107.722 40.844 108.004 41.198C108.292 41.546 108.511 41.927 108.661 42.341C108.811 42.755 108.913 43.16 108.967 43.556C109.021 43.952 109.048 44.3 109.048 44.6V50H107.14ZM100.309 50V37.04H101.992V44.033H102.217V50H100.309ZM115.487 50.27C114.521 50.27 113.672 50.06 112.94 49.64C112.214 49.214 111.647 48.623 111.239 47.867C110.837 47.105 110.636 46.223 110.636 45.221C110.636 44.159 110.834 43.238 111.23 42.458C111.632 41.678 112.19 41.075 112.904 40.649C113.618 40.223 114.449 40.01 115.397 40.01C116.387 40.01 117.23 40.241 117.926 40.703C118.622 41.159 119.141 41.81 119.483 42.656C119.831 43.502 119.969 44.507 119.897 45.671H118.016V44.987C118.004 43.859 117.788 43.025 117.368 42.485C116.954 41.945 116.321 41.675 115.469 41.675C114.527 41.675 113.819 41.972 113.345 42.566C112.871 43.16 112.634 44.018 112.634 45.14C112.634 46.208 112.871 47.036 113.345 47.624C113.819 48.206 114.503 48.497 115.397 48.497C115.985 48.497 116.492 48.365 116.918 48.101C117.35 47.831 117.686 47.447 117.926 46.949L119.771 47.534C119.393 48.404 118.82 49.079 118.052 49.559C117.284 50.033 116.429 50.27 115.487 50.27ZM112.022 45.671V44.204H118.961V45.671H112.022ZM121.88 38.687V36.86H123.761V38.687H121.88ZM121.88 50V40.28H123.761V50H121.88ZM131.81 50C131.198 50.12 130.598 50.171 130.01 50.153C129.422 50.135 128.897 50.021 128.435 49.811C127.973 49.601 127.625 49.271 127.391 48.821C127.181 48.419 127.067 48.011 127.049 47.597C127.037 47.177 127.031 46.703 127.031 46.175V37.58H128.921V46.085C128.921 46.475 128.924 46.814 128.93 47.102C128.942 47.39 129.005 47.633 129.119 47.831C129.335 48.203 129.677 48.416 130.145 48.47C130.619 48.518 131.174 48.497 131.81 48.407V50ZM125.168 41.792V40.28H131.81V41.792H125.168Z" fill="white"/>
<circle cx="178" cy="21" r="21" fill="#07133B"/>
<g clip-path="url(#clip0_248_487)">
<path d="M173.103 14.0065C173.556 14.8337 174.263 15.4997 174.888 16.0873C174.995 16.1885 175.102 16.2887 175.206 16.3885C175.601 16.7681 176 17.1325 176.385 17.4849C176.764 17.8317 177.156 18.1901 177.539 18.5578L178.026 19.0254L178.513 18.5578C178.896 18.1901 179.288 17.8317 179.667 17.4849C180.053 17.1325 180.451 16.7681 180.847 16.3885C180.951 16.2887 181.057 16.1885 181.165 16.0873C181.789 15.4997 182.497 14.8337 182.95 14.0065C183.567 12.8778 183.548 11.6219 182.898 10.5604C182.092 9.24298 180.96 8.95935 180.152 8.95331C179.475 8.94781 178.803 9.14227 178.215 9.51325L178.026 9.63117L177.84 9.51453C177.257 9.14703 176.596 8.95312 175.926 8.95312C175.918 8.95312 175.909 8.95312 175.9 8.95331C175.093 8.95917 173.961 9.24298 173.155 10.5604C172.505 11.6219 172.486 12.8778 173.103 14.0065ZM174.354 11.2947C174.736 10.6705 175.245 10.3645 175.911 10.3596C175.916 10.3596 175.921 10.3596 175.926 10.3596C176.33 10.3596 176.732 10.4784 177.091 10.7051L178.026 11.2907L178.963 10.704C179.325 10.4756 179.732 10.3564 180.142 10.3596C180.807 10.3645 181.316 10.6705 181.699 11.2947C182.084 11.9238 182.09 12.6473 181.716 13.3315C181.37 13.9627 180.776 14.5221 180.201 15.0632C180.09 15.1675 179.98 15.271 179.873 15.3739C179.49 15.7418 179.098 16.1003 178.718 16.4471C178.491 16.6549 178.259 16.8668 178.026 17.0836C177.793 16.8668 177.561 16.6549 177.334 16.4471C176.955 16.1003 176.563 15.7418 176.18 15.3739C176.072 15.271 175.962 15.1675 175.851 15.0632C175.277 14.5221 174.682 13.9627 174.337 13.3315C173.963 12.6473 173.969 11.924 174.354 11.2947Z" fill="#33E47A"/>
<path d="M187.022 13.1504C185.868 13.1504 184.928 14.0897 184.928 15.2442V20.9133L184.608 21.2451C184.504 21.0281 184.361 20.8258 184.181 20.6482C183.34 19.8211 181.98 19.8286 181.149 20.665L178.027 23.807L174.904 20.665C174.073 19.8286 172.713 19.8211 171.873 20.6482C171.692 20.8258 171.55 21.0281 171.446 21.2451L171.125 20.9133V15.2442C171.125 14.0897 170.186 13.1504 169.031 13.1504C167.877 13.1504 166.938 14.0897 166.938 15.2442V23.1297L170.979 29.9088V32.9533H185.075V29.9088L189.116 23.1297V15.2442C189.116 14.0897 188.177 13.1504 187.022 13.1504ZM177.323 31.547H172.385V29.5215L168.344 22.7422V15.2442C168.344 14.8652 168.652 14.5568 169.031 14.5568C169.41 14.5568 169.719 14.8652 169.719 15.2442V21.4821L171.777 23.6109C171.795 23.6317 171.815 23.6521 171.834 23.6724L174.084 26.0028L174.087 26L174.146 26.0612L175.157 25.0836L172.812 22.6587C172.565 22.3656 172.582 21.9232 172.859 21.6505C173.15 21.3647 173.619 21.3673 173.907 21.6564L177.324 25.0946V31.547H177.323ZM187.71 22.7422L183.668 29.5215V31.547H178.73V25.0946L182.147 21.6564C182.434 21.3674 182.904 21.3647 183.194 21.6505C183.471 21.9234 183.488 22.3656 183.241 22.6587L180.896 25.0836L181.907 26.0612L181.966 26L181.969 26.0028L184.219 23.6724C184.239 23.6522 184.258 23.6317 184.276 23.6109L186.335 21.4821V15.2442C186.335 14.8652 186.643 14.5568 187.022 14.5568C187.401 14.5568 187.71 14.8652 187.71 15.2442V22.7422Z" fill="#33E47A"/>
</g>
<defs>
<clipPath id="clip0_248_487">
<rect width="24" height="24" fill="white" transform="translate(166 9)"/>
</clipPath>
</defs>
</svg>
