<svg width="238" height="36" viewBox="0 0 238 36" fill="none" xmlns="http://www.w3.org/2000/svg">
<rect width="238" height="36" rx="18" fill="#03A8E2" fill-opacity="0.2"/>
<g clip-path="url(#clip0_229_2737)">
<path d="M56 26.4141V10.1409H50.0535V8.72021L49.5818 8.5556C48.5835 8.20734 47.7941 7.44086 47.4167 6.45227L47.2443 6H40.7557L40.5833 6.45227C40.2059 7.44086 39.4165 8.20734 38.4182 8.5556L37.9465 8.72021V10.1409H32V26.4141H41.5039V28.5938H39.8166V30H48.1834V28.5938H46.4961V26.4141H56ZM39.3528 9.69196C40.3708 9.21606 41.1959 8.41223 41.6984 7.40625H46.3016C46.8041 8.41223 47.6292 9.21606 48.6472 9.69196V10.7386C48.6472 11.0105 48.6346 11.2804 48.6088 11.5472C48.3392 14.4146 46.6437 16.951 44.0483 18.293L44 18.3179L43.9517 18.293C41.3563 16.951 39.6608 14.4146 39.3912 11.5472C39.3654 11.2804 39.3528 11.0105 39.3528 10.7386V9.69196ZM37.9799 11.5472C38.1049 13.0818 38.5869 14.5697 39.3918 15.8921C40.3372 17.445 41.6905 18.7068 43.3058 19.5421L44 19.9008L44.6942 19.5421C46.3095 18.7068 47.6628 17.445 48.6082 15.8921C49.4131 14.5697 49.8951 13.0818 50.0201 11.5472H54.5938V21.4764H33.4062V11.5472H37.9799ZM33.4062 25.0078V22.8829H54.5938V25.0078H33.4062ZM45.0898 28.5938H42.9102V26.4141H45.0898V28.5938Z" fill="#6FB9FE"/>
<path d="M46.4279 11.5472L47.07 10.9266L46.3107 10.1409L46.0928 9.91553L45.8593 10.1409L44.4047 11.5472L43.3885 12.5292L42.3484 11.5472L41.902 11.1259L41.5042 11.5472L40.9365 12.1481L43.3998 14.4741L46.4279 11.5472Z" fill="#6FB9FE"/>
</g>
<path d="M71.3894 24.24C70.584 24.24 69.8587 24.1067 69.2134 23.84C68.5734 23.568 68.0427 23.184 67.6214 22.688C67.2054 22.192 66.9334 21.6027 66.8054 20.92L68.0054 20.72C68.1974 21.4667 68.6027 22.0533 69.2214 22.48C69.84 22.9013 70.5787 23.112 71.4374 23.112C72.0027 23.112 72.5094 23.024 72.9574 22.848C73.4054 22.6667 73.7574 22.4107 74.0134 22.08C74.2694 21.7493 74.3974 21.3573 74.3974 20.904C74.3974 20.6053 74.344 20.352 74.2374 20.144C74.1307 19.9307 73.9894 19.7547 73.8134 19.616C73.6374 19.4773 73.4454 19.3627 73.2374 19.272C73.0294 19.176 72.8267 19.0987 72.6294 19.04L69.7094 18.168C69.3574 18.0667 69.032 17.9387 68.7334 17.784C68.4347 17.624 68.1734 17.4347 67.9494 17.216C67.7307 16.992 67.56 16.7307 67.4374 16.432C67.3147 16.1333 67.2534 15.792 67.2534 15.408C67.2534 14.7573 67.424 14.1947 67.7654 13.72C68.1067 13.2453 68.5734 12.88 69.1654 12.624C69.7574 12.368 70.432 12.2427 71.1894 12.248C71.9574 12.248 72.6427 12.384 73.2454 12.656C73.8534 12.928 74.3547 13.3173 74.7494 13.824C75.144 14.3253 75.4054 14.92 75.5334 15.608L74.3014 15.832C74.2214 15.3307 74.0374 14.896 73.7494 14.528C73.4614 14.16 73.0934 13.8773 72.6454 13.68C72.2027 13.4773 71.7147 13.3733 71.1814 13.368C70.664 13.368 70.2027 13.456 69.7974 13.632C69.3974 13.8027 69.08 14.0373 68.8454 14.336C68.6107 14.6347 68.4934 14.976 68.4934 15.36C68.4934 15.7493 68.6 16.0613 68.8134 16.296C69.032 16.5307 69.2987 16.7147 69.6134 16.848C69.9334 16.9813 70.2427 17.0907 70.5414 17.176L72.7974 17.84C73.032 17.904 73.3067 17.9973 73.6214 18.12C73.9414 18.2373 74.2507 18.408 74.5494 18.632C74.8534 18.8507 75.104 19.1387 75.3014 19.496C75.4987 19.8533 75.5974 20.3067 75.5974 20.856C75.5974 21.3893 75.4907 21.8667 75.2774 22.288C75.0694 22.7093 74.7734 23.064 74.3894 23.352C74.0107 23.64 73.5654 23.8587 73.0534 24.008C72.5467 24.1627 71.992 24.24 71.3894 24.24ZM81.3128 24.24C80.4434 24.24 79.7074 24.0453 79.1048 23.656C78.5021 23.2667 78.0434 22.7307 77.7288 22.048C77.4194 21.36 77.2594 20.5707 77.2488 19.68C77.2594 18.7733 77.4248 17.9787 77.7448 17.296C78.0648 16.608 78.5261 16.0747 79.1288 15.696C79.7314 15.312 80.4621 15.12 81.3208 15.12C82.1954 15.12 82.9554 15.3333 83.6008 15.76C84.2514 16.1867 84.6968 16.7707 84.9368 17.512L83.7848 17.88C83.5821 17.3627 83.2594 16.9627 82.8168 16.68C82.3794 16.392 81.8781 16.248 81.3128 16.248C80.6781 16.248 80.1528 16.3947 79.7368 16.688C79.3208 16.976 79.0114 17.3787 78.8088 17.896C78.6061 18.4133 78.5021 19.008 78.4968 19.68C78.5074 20.7147 78.7474 21.5467 79.2168 22.176C79.6861 22.8 80.3848 23.112 81.3128 23.112C81.8994 23.112 82.3981 22.9787 82.8088 22.712C83.2248 22.44 83.5394 22.0453 83.7528 21.528L84.9368 21.88C84.6168 22.648 84.1474 23.2347 83.5288 23.64C82.9101 24.04 82.1714 24.24 81.3128 24.24ZM93.3081 24V19.592C93.3081 19.112 93.2628 18.672 93.1721 18.272C93.0815 17.8667 92.9348 17.5147 92.7321 17.216C92.5348 16.912 92.2761 16.6773 91.9561 16.512C91.6415 16.3467 91.2575 16.264 90.8041 16.264C90.3881 16.264 90.0201 16.336 89.7001 16.48C89.3855 16.624 89.1188 16.832 88.9001 17.104C88.6868 17.3707 88.5241 17.696 88.4121 18.08C88.3001 18.464 88.2441 18.9013 88.2441 19.392L87.4121 19.208C87.4121 18.3227 87.5668 17.5787 87.8761 16.976C88.1855 16.3733 88.6121 15.9173 89.1561 15.608C89.7001 15.2987 90.3241 15.144 91.0281 15.144C91.5455 15.144 91.9961 15.224 92.3801 15.384C92.7695 15.544 93.0975 15.76 93.3641 16.032C93.6361 16.304 93.8548 16.616 94.0201 16.968C94.1855 17.3147 94.3055 17.6853 94.3801 18.08C94.4548 18.4693 94.4921 18.8587 94.4921 19.248V24H93.3081ZM87.0601 24V12.48H88.1241V18.984H88.2441V24H87.0601ZM97.0481 24V15.36H98.1041V17.44L97.8961 17.168C97.9921 16.912 98.1175 16.6773 98.2721 16.464C98.4268 16.2453 98.5948 16.0667 98.7761 15.928C99.0001 15.7307 99.2615 15.5813 99.5601 15.48C99.8588 15.3733 100.16 15.312 100.464 15.296C100.768 15.2747 101.045 15.296 101.296 15.36V16.464C100.981 16.384 100.637 16.3653 100.264 16.408C99.8908 16.4507 99.5468 16.6 99.2321 16.856C98.9441 17.08 98.7281 17.3493 98.5841 17.664C98.4401 17.9733 98.3441 18.304 98.2961 18.656C98.2481 19.0027 98.2241 19.3467 98.2241 19.688V24H97.0481ZM106.794 24.24C105.951 24.24 105.22 24.0533 104.602 23.68C103.988 23.3067 103.511 22.7813 103.17 22.104C102.828 21.4267 102.658 20.632 102.658 19.72C102.658 18.776 102.826 17.96 103.162 17.272C103.498 16.584 103.97 16.0533 104.578 15.68C105.191 15.3067 105.914 15.12 106.746 15.12C107.599 15.12 108.327 15.3173 108.93 15.712C109.532 16.1013 109.988 16.6613 110.298 17.392C110.607 18.1227 110.748 18.9947 110.722 20.008H109.522V19.592C109.5 18.472 109.258 17.6267 108.794 17.056C108.335 16.4853 107.663 16.2 106.778 16.2C105.85 16.2 105.138 16.5013 104.642 17.104C104.151 17.7067 103.906 18.5653 103.906 19.68C103.906 20.768 104.151 21.6133 104.642 22.216C105.138 22.8133 105.839 23.112 106.746 23.112C107.364 23.112 107.903 22.9707 108.362 22.688C108.826 22.4 109.191 21.9867 109.458 21.448L110.554 21.872C110.212 22.624 109.708 23.208 109.042 23.624C108.38 24.0347 107.631 24.24 106.794 24.24ZM103.49 20.008V19.024H110.09V20.008H103.49ZM113.137 13.72V12.4H114.313V13.72H113.137ZM113.137 24V15.36H114.313V24H113.137ZM121.071 24.24C120.277 24.24 119.605 24.04 119.055 23.64C118.506 23.2347 118.09 22.688 117.807 22C117.525 21.3067 117.383 20.5307 117.383 19.672C117.383 18.7973 117.525 18.0187 117.807 17.336C118.095 16.648 118.517 16.1067 119.071 15.712C119.626 15.3173 120.309 15.12 121.119 15.12C121.909 15.12 122.586 15.32 123.151 15.72C123.717 16.12 124.149 16.664 124.447 17.352C124.751 18.04 124.903 18.8133 124.903 19.672C124.903 20.536 124.751 21.312 124.447 22C124.143 22.688 123.706 23.2347 123.135 23.64C122.565 24.04 121.877 24.24 121.071 24.24ZM117.183 24V12.48H118.367V17.496H118.239V24H117.183ZM120.951 23.144C121.554 23.144 122.055 22.992 122.455 22.688C122.855 22.384 123.154 21.9707 123.351 21.448C123.554 20.92 123.655 20.328 123.655 19.672C123.655 19.0213 123.557 18.4347 123.359 17.912C123.162 17.3893 122.861 16.976 122.455 16.672C122.055 16.368 121.546 16.216 120.927 16.216C120.325 16.216 119.823 16.3627 119.423 16.656C119.029 16.9493 118.733 17.3573 118.535 17.88C118.338 18.3973 118.239 18.9947 118.239 19.672C118.239 20.3387 118.338 20.936 118.535 21.464C118.733 21.9867 119.031 22.3973 119.431 22.696C119.831 22.9947 120.338 23.144 120.951 23.144ZM130.796 24.24C129.953 24.24 129.223 24.0533 128.604 23.68C127.991 23.3067 127.513 22.7813 127.172 22.104C126.831 21.4267 126.66 20.632 126.66 19.72C126.66 18.776 126.828 17.96 127.164 17.272C127.5 16.584 127.972 16.0533 128.58 15.68C129.193 15.3067 129.916 15.12 130.748 15.12C131.601 15.12 132.329 15.3173 132.932 15.712C133.535 16.1013 133.991 16.6613 134.3 17.392C134.609 18.1227 134.751 18.9947 134.724 20.008H133.524V19.592C133.503 18.472 133.26 17.6267 132.796 17.056C132.337 16.4853 131.665 16.2 130.78 16.2C129.852 16.2 129.14 16.5013 128.644 17.104C128.153 17.7067 127.908 18.5653 127.908 19.68C127.908 20.768 128.153 21.6133 128.644 22.216C129.14 22.8133 129.841 23.112 130.748 23.112C131.367 23.112 131.905 22.9707 132.364 22.688C132.828 22.4 133.193 21.9867 133.46 21.448L134.556 21.872C134.215 22.624 133.711 23.208 133.044 23.624C132.383 24.0347 131.633 24.24 130.796 24.24ZM127.492 20.008V19.024H134.092V20.008H127.492ZM142.985 24V19.592C142.985 19.112 142.94 18.672 142.849 18.272C142.758 17.8667 142.612 17.5147 142.409 17.216C142.212 16.912 141.953 16.6773 141.633 16.512C141.318 16.3467 140.934 16.264 140.481 16.264C140.065 16.264 139.697 16.336 139.377 16.48C139.062 16.624 138.796 16.832 138.577 17.104C138.364 17.3707 138.201 17.696 138.089 18.08C137.977 18.464 137.921 18.9013 137.921 19.392L137.089 19.208C137.089 18.3227 137.244 17.5787 137.553 16.976C137.862 16.3733 138.289 15.9173 138.833 15.608C139.377 15.2987 140.001 15.144 140.705 15.144C141.222 15.144 141.673 15.224 142.057 15.384C142.446 15.544 142.774 15.76 143.041 16.032C143.313 16.304 143.532 16.616 143.697 16.968C143.862 17.3147 143.982 17.6853 144.057 18.08C144.132 18.4693 144.169 18.8587 144.169 19.248V24H142.985ZM136.737 24V15.36H137.801V17.488H137.921V24H136.737ZM154.408 24.24C153.603 24.24 152.877 24.1067 152.232 23.84C151.592 23.568 151.061 23.184 150.64 22.688C150.224 22.192 149.952 21.6027 149.824 20.92L151.024 20.72C151.216 21.4667 151.621 22.0533 152.24 22.48C152.859 22.9013 153.597 23.112 154.456 23.112C155.021 23.112 155.528 23.024 155.976 22.848C156.424 22.6667 156.776 22.4107 157.032 22.08C157.288 21.7493 157.416 21.3573 157.416 20.904C157.416 20.6053 157.363 20.352 157.256 20.144C157.149 19.9307 157.008 19.7547 156.832 19.616C156.656 19.4773 156.464 19.3627 156.256 19.272C156.048 19.176 155.845 19.0987 155.648 19.04L152.728 18.168C152.376 18.0667 152.051 17.9387 151.752 17.784C151.453 17.624 151.192 17.4347 150.968 17.216C150.749 16.992 150.579 16.7307 150.456 16.432C150.333 16.1333 150.272 15.792 150.272 15.408C150.272 14.7573 150.443 14.1947 150.784 13.72C151.125 13.2453 151.592 12.88 152.184 12.624C152.776 12.368 153.451 12.2427 154.208 12.248C154.976 12.248 155.661 12.384 156.264 12.656C156.872 12.928 157.373 13.3173 157.768 13.824C158.163 14.3253 158.424 14.92 158.552 15.608L157.32 15.832C157.24 15.3307 157.056 14.896 156.768 14.528C156.48 14.16 156.112 13.8773 155.664 13.68C155.221 13.4773 154.733 13.3733 154.2 13.368C153.683 13.368 153.221 13.456 152.816 13.632C152.416 13.8027 152.099 14.0373 151.864 14.336C151.629 14.6347 151.512 14.976 151.512 15.36C151.512 15.7493 151.619 16.0613 151.832 16.296C152.051 16.5307 152.317 16.7147 152.632 16.848C152.952 16.9813 153.261 17.0907 153.56 17.176L155.816 17.84C156.051 17.904 156.325 17.9973 156.64 18.12C156.96 18.2373 157.269 18.408 157.568 18.632C157.872 18.8507 158.123 19.1387 158.32 19.496C158.517 19.8533 158.616 20.3067 158.616 20.856C158.616 21.3893 158.509 21.8667 158.296 22.288C158.088 22.7093 157.792 23.064 157.408 23.352C157.029 23.64 156.584 23.8587 156.072 24.008C155.565 24.1627 155.011 24.24 154.408 24.24ZM160.908 13.72V12.4H162.084V13.72H160.908ZM160.908 24V15.36H162.084V24H160.908ZM168.618 24.24C167.775 24.24 167.045 24.0533 166.426 23.68C165.813 23.3067 165.335 22.7813 164.994 22.104C164.653 21.4267 164.482 20.632 164.482 19.72C164.482 18.776 164.65 17.96 164.986 17.272C165.322 16.584 165.794 16.0533 166.402 15.68C167.015 15.3067 167.738 15.12 168.57 15.12C169.423 15.12 170.151 15.3173 170.754 15.712C171.357 16.1013 171.813 16.6613 172.122 17.392C172.431 18.1227 172.573 18.9947 172.546 20.008H171.346V19.592C171.325 18.472 171.082 17.6267 170.618 17.056C170.159 16.4853 169.487 16.2 168.602 16.2C167.674 16.2 166.962 16.5013 166.466 17.104C165.975 17.7067 165.73 18.5653 165.73 19.68C165.73 20.768 165.975 21.6133 166.466 22.216C166.962 22.8133 167.663 23.112 168.57 23.112C169.189 23.112 169.727 22.9707 170.186 22.688C170.65 22.4 171.015 21.9867 171.282 21.448L172.378 21.872C172.037 22.624 171.533 23.208 170.866 23.624C170.205 24.0347 169.455 24.24 168.618 24.24ZM165.314 20.008V19.024H171.914V20.008H165.314ZM181.788 24.216C181.271 24.216 180.818 24.136 180.428 23.976C180.044 23.816 179.716 23.6 179.444 23.328C179.178 23.056 178.962 22.7467 178.796 22.4C178.631 22.048 178.511 21.6773 178.436 21.288C178.362 20.8933 178.324 20.5013 178.324 20.112V15.36H179.508V19.768C179.508 20.2427 179.554 20.6827 179.644 21.088C179.735 21.4933 179.879 21.848 180.076 22.152C180.279 22.4507 180.538 22.6827 180.852 22.848C181.172 23.0133 181.559 23.096 182.012 23.096C182.428 23.096 182.794 23.024 183.108 22.88C183.428 22.736 183.695 22.5307 183.908 22.264C184.127 21.992 184.292 21.664 184.404 21.28C184.516 20.8907 184.572 20.4533 184.572 19.968L185.404 20.152C185.404 21.0373 185.25 21.7813 184.94 22.384C184.631 22.9867 184.204 23.4427 183.66 23.752C183.116 24.0613 182.492 24.216 181.788 24.216ZM184.692 24V21.872H184.572V15.36H185.748V24H184.692ZM194.704 24V19.592C194.704 19.112 194.659 18.672 194.568 18.272C194.478 17.8667 194.331 17.5147 194.128 17.216C193.931 16.912 193.672 16.6773 193.352 16.512C193.038 16.3467 192.654 16.264 192.2 16.264C191.784 16.264 191.416 16.336 191.096 16.48C190.782 16.624 190.515 16.832 190.296 17.104C190.083 17.3707 189.92 17.696 189.808 18.08C189.696 18.464 189.64 18.9013 189.64 19.392L188.808 19.208C188.808 18.3227 188.963 17.5787 189.272 16.976C189.582 16.3733 190.008 15.9173 190.552 15.608C191.096 15.2987 191.72 15.144 192.424 15.144C192.942 15.144 193.392 15.224 193.776 15.384C194.166 15.544 194.494 15.76 194.76 16.032C195.032 16.304 195.251 16.616 195.416 16.968C195.582 17.3147 195.702 17.6853 195.776 18.08C195.851 18.4693 195.888 18.8587 195.888 19.248V24H194.704ZM188.456 24V15.36H189.52V17.488H189.64V24H188.456ZM201.668 24.232C200.655 24.232 199.82 24.0133 199.164 23.576C198.514 23.1387 198.114 22.5307 197.964 21.752L199.164 21.552C199.292 22.0427 199.583 22.4347 200.036 22.728C200.495 23.016 201.06 23.16 201.732 23.16C202.388 23.16 202.906 23.024 203.284 22.752C203.663 22.4747 203.852 22.0987 203.852 21.624C203.852 21.3573 203.791 21.1413 203.668 20.976C203.551 20.8053 203.308 20.648 202.94 20.504C202.572 20.36 202.023 20.1893 201.292 19.992C200.508 19.7787 199.895 19.5653 199.452 19.352C199.01 19.1387 198.695 18.8933 198.508 18.616C198.322 18.3333 198.228 17.9893 198.228 17.584C198.228 17.0933 198.367 16.664 198.644 16.296C198.922 15.9227 199.306 15.6347 199.796 15.432C200.287 15.224 200.858 15.12 201.508 15.12C202.159 15.12 202.74 15.2267 203.252 15.44C203.77 15.648 204.186 15.9413 204.5 16.32C204.815 16.6987 205.002 17.1387 205.06 17.64L203.86 17.856C203.78 17.3493 203.527 16.9493 203.1 16.656C202.679 16.3573 202.143 16.2027 201.492 16.192C200.879 16.176 200.38 16.2933 199.996 16.544C199.612 16.7893 199.42 17.1173 199.42 17.528C199.42 17.7573 199.49 17.9547 199.628 18.12C199.767 18.28 200.018 18.432 200.38 18.576C200.748 18.72 201.271 18.8773 201.948 19.048C202.743 19.2507 203.367 19.464 203.82 19.688C204.274 19.912 204.596 20.176 204.788 20.48C204.98 20.784 205.076 21.16 205.076 21.608C205.076 22.424 204.772 23.0667 204.164 23.536C203.562 24 202.73 24.232 201.668 24.232Z" fill="#03A8E2"/>
<defs>
<clipPath id="clip0_229_2737">
<rect width="24" height="24" fill="white" transform="translate(32 6)"/>
</clipPath>
</defs>
</svg>
