<svg width="257" height="36" viewBox="0 0 257 36" fill="none" xmlns="http://www.w3.org/2000/svg">
<rect width="257" height="36" rx="18" fill="#C5E3FF" fill-opacity="0.4"/>
<g clip-path="url(#clip0_631_408)">
<path d="M53.0254 17.4803L56 14.7204L48.1471 6.70312L46.5111 8.33184H43.2262C42.6472 8.33184 42.0783 8.50103 41.5923 8.80719L39.3777 7.14038L32 14.3051L34.3324 18.1957C34.2123 18.2754 34.098 18.3678 33.9922 18.4735L32.8353 19.6278C31.9755 20.4856 31.9738 21.8831 32.8317 22.7431C33.1829 23.0951 33.6324 23.3131 34.1182 23.3728C34.1158 23.4155 34.1141 23.4582 34.1141 23.5012C34.1134 24.0897 34.3419 24.6432 34.7574 25.0596C35.1664 25.4696 35.6982 25.684 36.2358 25.7038C36.2543 26.2414 36.4674 26.7735 36.8763 27.1834C37.306 27.6141 37.8709 27.8294 38.4358 27.8294C38.6782 27.8294 38.9205 27.7895 39.1521 27.7104C39.2565 28.0457 39.4407 28.3529 39.6957 28.6085C40.1253 29.0392 40.6902 29.2545 41.2552 29.2545C41.8185 29.2545 42.3817 29.0405 42.8111 28.6122L43.4605 27.9642C43.5331 27.8919 43.5995 27.8151 43.6605 27.7351L44.0291 28.0607C44.4535 28.4756 45.0127 28.7038 45.6071 28.7038C45.608 28.7038 45.6087 28.7038 45.6097 28.7038C46.2126 28.703 46.7793 28.4675 47.2054 28.0407C47.4751 27.7705 47.6676 27.4438 47.7727 27.0877C48.0081 27.1693 48.2581 27.2122 48.5148 27.2122C48.5155 27.2122 48.5164 27.2122 48.5172 27.2122C49.1203 27.2116 49.6869 26.9762 50.1129 26.5493C50.4275 26.234 50.6287 25.848 50.7179 25.4421C50.8726 25.4752 51.0318 25.4926 51.1938 25.4926C51.1945 25.4926 51.1955 25.4926 51.1962 25.4926C51.7992 25.4919 52.366 25.2566 52.792 24.8296C53.3206 24.3001 53.5302 23.5713 53.4226 22.8832C53.8723 22.8021 54.2863 22.5871 54.6159 22.2568C55.4951 21.3757 55.4937 19.9435 54.6126 19.064L53.0254 17.4803ZM42.0525 10.2264C42.3606 9.9157 42.7884 9.73754 43.226 9.73754H47.0915L48.1345 8.69915L53.9851 14.6724L52.0295 16.4866L47.0924 11.5519H43.4208L40.9507 14.0671C40.7693 14.2518 40.5267 14.354 40.2676 14.3547C40.0076 14.3567 39.7653 14.2546 39.5829 14.0707C39.2125 13.6974 39.2125 13.0902 39.5826 12.7168L42.0525 10.2264ZM33.8268 21.7503C33.5163 21.4391 33.517 20.9333 33.8281 20.623L34.985 19.4687C35.1403 19.3138 35.3442 19.2363 35.548 19.2363C35.7526 19.2363 35.9569 19.3143 36.1124 19.4701C36.4229 19.7812 36.4224 20.287 36.1111 20.5975L34.9542 21.7516C34.6431 22.062 34.1374 22.0614 33.8268 21.7503ZM35.7526 24.0668C35.6022 23.9161 35.5196 23.7158 35.5198 23.5028C35.52 23.2899 35.6031 23.0899 35.754 22.9394L37.1039 21.5927C37.2544 21.4424 37.4543 21.3598 37.6669 21.3598C37.6673 21.3598 37.6677 21.3598 37.6678 21.3598C37.8808 21.36 38.0809 21.4433 38.2312 21.594C38.3818 21.7447 38.4643 21.945 38.4642 22.1579C38.464 22.3709 38.3808 22.571 38.23 22.7213L36.8799 24.0683C36.5688 24.3786 36.0631 24.3781 35.7526 24.0668ZM38.999 26.1919C38.6877 26.5025 38.182 26.5019 37.8714 26.1906C37.5611 25.8795 37.5616 25.3738 37.8729 25.0633L39.2228 23.7163C39.534 23.406 40.0398 23.4065 40.3501 23.7178C40.6607 24.0289 40.6601 24.5346 40.3489 24.8452L38.999 26.1919ZM42.4678 26.969L41.8183 27.617C41.507 27.9276 41.0013 27.927 40.6909 27.6157C40.5404 27.465 40.4578 27.2647 40.458 27.0518C40.4582 26.8388 40.5415 26.6387 40.6922 26.4884L41.3417 25.8404C41.4969 25.6853 41.7009 25.6078 41.9047 25.6078C42.109 25.6078 42.3136 25.6858 42.469 25.8416C42.6194 25.9923 42.7021 26.1926 42.7019 26.4056C42.7018 26.6185 42.6186 26.8187 42.4678 26.969ZM53.6209 21.264C53.4601 21.4251 53.2462 21.5139 53.0186 21.5141C53.0185 21.5141 53.0181 21.5141 53.0177 21.5141C52.7905 21.5141 52.5768 21.4257 52.416 21.2653L49.0213 17.8777L48.0283 18.8727L51.7955 22.632C52.128 22.9638 52.1286 23.5043 51.7968 23.8368C51.6362 23.9979 51.4223 24.0868 51.1947 24.0869C51.1944 24.0869 51.194 24.0869 51.1938 24.0869C50.9666 24.0869 50.7529 23.9987 50.5919 23.8381L50.1095 23.3567C50.1095 23.3565 50.1095 23.3565 50.1095 23.3565L46.8247 20.0788L45.8318 21.0738L49.1167 24.3519C49.449 24.6837 49.4496 25.224 49.1178 25.5564C48.786 25.8889 48.2455 25.8894 47.9129 25.5576L44.6282 22.2799L43.6352 23.2749L46.2088 25.8431C46.5415 26.1749 46.5418 26.7154 46.2101 27.0479C46.0495 27.2091 45.8356 27.2979 45.608 27.2981C45.6076 27.2981 45.6073 27.2981 45.6071 27.2981C45.3799 27.2981 45.1662 27.2096 45.0054 27.0492L44.9902 27.034L44.1014 26.2494C44.065 25.7204 43.8423 25.2277 43.464 24.8487C43.0671 24.4508 42.5447 24.2239 41.9858 24.2038C41.9671 23.6663 41.754 23.1346 41.3451 22.7248C40.9363 22.3148 40.4045 22.1004 39.8669 22.0808C39.8484 21.5432 39.6353 21.011 39.2262 20.601C38.8293 20.2031 38.3069 19.976 37.7479 19.9559C37.7292 19.4187 37.516 18.8868 37.1074 18.4771C36.7313 18.1001 36.2513 17.8883 35.7586 17.8412L33.7781 14.5375L39.4938 8.98718L40.529 9.76629L38.5845 11.727C37.6728 12.6463 37.673 14.1418 38.585 15.061C39.0329 15.5121 39.6293 15.7604 40.2648 15.7604C40.2668 15.7604 40.269 15.7604 40.2712 15.7604C40.9092 15.7588 41.5066 15.5072 41.9536 15.052L44.0104 12.9576H46.5102L53.6196 20.0592C53.9521 20.391 53.9527 20.9315 53.6209 21.264Z" fill="#6FB9FE"/>
</g>
<path d="M67.408 24V12.72H68.736V17.84H68.768L74.176 12.72H75.872L69.648 18.544L69.664 17.872L76.32 24H74.576L68.768 18.688H68.736V24H67.408ZM80.9406 24.144C80.226 24.144 79.602 23.9787 79.0686 23.648C78.5353 23.3067 78.1193 22.8267 77.8206 22.208C77.5326 21.5893 77.3886 20.848 77.3886 19.984C77.3886 19.1093 77.5326 18.3627 77.8206 17.744C78.1193 17.1253 78.5353 16.6507 79.0686 16.32C79.602 15.9893 80.226 15.824 80.9406 15.824C81.666 15.824 82.29 16.0107 82.8126 16.384C83.346 16.7467 83.698 17.2427 83.8686 17.872H83.6766L83.8526 15.968H85.1006C85.0686 16.2773 85.0366 16.592 85.0046 16.912C84.9833 17.2213 84.9726 17.5253 84.9726 17.824V24H83.6766V22.112H83.8526C83.682 22.7413 83.33 23.2373 82.7966 23.6C82.2633 23.9627 81.6446 24.144 80.9406 24.144ZM81.1966 23.088C81.9646 23.088 82.5726 22.8267 83.0206 22.304C83.4686 21.7707 83.6926 20.9973 83.6926 19.984C83.6926 18.96 83.4686 18.1867 83.0206 17.664C82.5726 17.1307 81.9646 16.864 81.1966 16.864C80.4393 16.864 79.8313 17.1307 79.3726 17.664C78.9246 18.1867 78.7006 18.96 78.7006 19.984C78.7006 20.9973 78.9246 21.7707 79.3726 22.304C79.8313 22.8267 80.4393 23.088 81.1966 23.088ZM87.9264 24V17.904C87.9264 17.584 87.9157 17.2587 87.8944 16.928C87.8837 16.5973 87.8624 16.2773 87.8304 15.968H89.0784L89.2384 17.92L89.0144 17.936C89.121 17.456 89.3077 17.0613 89.5744 16.752C89.841 16.4427 90.1557 16.2133 90.5184 16.064C90.881 15.904 91.2597 15.824 91.6544 15.824C91.8144 15.824 91.953 15.8293 92.0704 15.84C92.1984 15.8507 92.3157 15.8773 92.4224 15.92L92.4064 17.072C92.2464 17.0187 92.097 16.9867 91.9584 16.976C91.8304 16.9547 91.681 16.944 91.5104 16.944C91.041 16.944 90.6304 17.056 90.2784 17.28C89.937 17.504 89.6757 17.792 89.4944 18.144C89.3237 18.496 89.2384 18.8693 89.2384 19.264V24H87.9264ZM94.2189 24V17.904C94.2189 17.584 94.2082 17.2587 94.1869 16.928C94.1762 16.5973 94.1549 16.2773 94.1229 15.968H95.3709L95.5309 17.92L95.3069 17.936C95.4135 17.456 95.6002 17.0613 95.8669 16.752C96.1335 16.4427 96.4482 16.2133 96.8109 16.064C97.1735 15.904 97.5522 15.824 97.9469 15.824C98.1069 15.824 98.2455 15.8293 98.3629 15.84C98.4909 15.8507 98.6082 15.8773 98.7149 15.92L98.6989 17.072C98.5389 17.0187 98.3895 16.9867 98.2509 16.976C98.1229 16.9547 97.9735 16.944 97.8029 16.944C97.3335 16.944 96.9229 17.056 96.5709 17.28C96.2295 17.504 95.9682 17.792 95.7869 18.144C95.6162 18.496 95.5309 18.8693 95.5309 19.264V24H94.2189ZM100.543 24V15.968H101.839V24H100.543ZM100.383 14.144V12.688H101.983V14.144H100.383ZM108.404 24.144C107.145 24.144 106.153 23.7813 105.428 23.056C104.703 22.32 104.34 21.3013 104.34 20C104.34 19.1573 104.5 18.4267 104.82 17.808C105.14 17.1787 105.588 16.6933 106.164 16.352C106.74 16 107.401 15.824 108.148 15.824C108.884 15.824 109.503 15.9787 110.004 16.288C110.505 16.5973 110.889 17.04 111.156 17.616C111.423 18.1813 111.556 18.8533 111.556 19.632V20.112H105.332V19.296H110.708L110.436 19.504C110.436 18.6507 110.244 17.984 109.86 17.504C109.476 17.024 108.905 16.784 108.148 16.784C107.348 16.784 106.724 17.0667 106.276 17.632C105.828 18.1867 105.604 18.9387 105.604 19.888V20.032C105.604 21.0347 105.849 21.7973 106.34 22.32C106.841 22.832 107.54 23.088 108.436 23.088C108.916 23.088 109.364 23.0187 109.78 22.88C110.207 22.7307 110.612 22.4907 110.996 22.16L111.444 23.072C111.092 23.4133 110.644 23.68 110.1 23.872C109.567 24.0533 109.001 24.144 108.404 24.144ZM113.987 24V17.904C113.987 17.584 113.976 17.2587 113.955 16.928C113.944 16.5973 113.923 16.2773 113.891 15.968H115.139L115.299 17.92L115.075 17.936C115.182 17.456 115.368 17.0613 115.635 16.752C115.902 16.4427 116.216 16.2133 116.579 16.064C116.942 15.904 117.32 15.824 117.715 15.824C117.875 15.824 118.014 15.8293 118.131 15.84C118.259 15.8507 118.376 15.8773 118.483 15.92L118.467 17.072C118.307 17.0187 118.158 16.9867 118.019 16.976C117.891 16.9547 117.742 16.944 117.571 16.944C117.102 16.944 116.691 17.056 116.339 17.28C115.998 17.504 115.736 17.792 115.555 18.144C115.384 18.496 115.299 18.8693 115.299 19.264V24H113.987ZM123.786 24.144C122.527 24.144 121.535 23.7813 120.81 23.056C120.084 22.32 119.722 21.3013 119.722 20C119.722 19.1573 119.882 18.4267 120.202 17.808C120.522 17.1787 120.97 16.6933 121.546 16.352C122.122 16 122.783 15.824 123.53 15.824C124.266 15.824 124.884 15.9787 125.386 16.288C125.887 16.5973 126.271 17.04 126.538 17.616C126.804 18.1813 126.938 18.8533 126.938 19.632V20.112H120.714V19.296H126.09L125.818 19.504C125.818 18.6507 125.626 17.984 125.242 17.504C124.858 17.024 124.287 16.784 123.53 16.784C122.73 16.784 122.106 17.0667 121.658 17.632C121.21 18.1867 120.986 18.9387 120.986 19.888V20.032C120.986 21.0347 121.231 21.7973 121.722 22.32C122.223 22.832 122.922 23.088 123.818 23.088C124.298 23.088 124.746 23.0187 125.162 22.88C125.588 22.7307 125.994 22.4907 126.378 22.16L126.826 23.072C126.474 23.4133 126.026 23.68 125.482 23.872C124.948 24.0533 124.383 24.144 123.786 24.144ZM138.085 24.144C137.359 24.144 136.735 23.9627 136.213 23.6C135.69 23.2267 135.338 22.72 135.157 22.08H135.333V24H134.053V12.224H135.349V17.84H135.157C135.338 17.2213 135.69 16.7307 136.213 16.368C136.735 16.0053 137.359 15.824 138.085 15.824C138.81 15.824 139.434 15.9947 139.957 16.336C140.49 16.6667 140.901 17.1413 141.189 17.76C141.487 18.3787 141.637 19.12 141.637 19.984C141.637 20.848 141.487 21.5893 141.189 22.208C140.89 22.8267 140.474 23.3067 139.941 23.648C139.418 23.9787 138.799 24.144 138.085 24.144ZM137.813 23.088C138.57 23.088 139.178 22.8267 139.637 22.304C140.095 21.7813 140.325 21.008 140.325 19.984C140.325 18.96 140.095 18.1867 139.637 17.664C139.178 17.1307 138.57 16.864 137.813 16.864C137.055 16.864 136.447 17.1307 135.989 17.664C135.541 18.1867 135.317 18.96 135.317 19.984C135.317 20.9973 135.541 21.7707 135.989 22.304C136.447 22.8267 137.055 23.088 137.813 23.088ZM147.695 24.144C146.436 24.144 145.444 23.7813 144.719 23.056C143.993 22.32 143.631 21.3013 143.631 20C143.631 19.1573 143.791 18.4267 144.111 17.808C144.431 17.1787 144.879 16.6933 145.455 16.352C146.031 16 146.692 15.824 147.439 15.824C148.175 15.824 148.793 15.9787 149.295 16.288C149.796 16.5973 150.18 17.04 150.447 17.616C150.713 18.1813 150.847 18.8533 150.847 19.632V20.112H144.623V19.296H149.999L149.727 19.504C149.727 18.6507 149.535 17.984 149.151 17.504C148.767 17.024 148.196 16.784 147.439 16.784C146.639 16.784 146.015 17.0667 145.567 17.632C145.119 18.1867 144.895 18.9387 144.895 19.888V20.032C144.895 21.0347 145.14 21.7973 145.631 22.32C146.132 22.832 146.831 23.088 147.727 23.088C148.207 23.088 148.655 23.0187 149.071 22.88C149.497 22.7307 149.903 22.4907 150.287 22.16L150.735 23.072C150.383 23.4133 149.935 23.68 149.391 23.872C148.857 24.0533 148.292 24.144 147.695 24.144ZM153.31 24V15.968H154.606V24H153.31ZM153.15 14.144V12.688H154.75V14.144H153.15ZM162.398 24V12.72H163.726V24H162.398ZM166.875 24V17.824C166.875 17.5253 166.859 17.2213 166.827 16.912C166.805 16.592 166.779 16.2773 166.747 15.968H167.995L168.155 17.728H167.963C168.197 17.1093 168.571 16.64 169.083 16.32C169.605 15.9893 170.208 15.824 170.891 15.824C171.84 15.824 172.555 16.08 173.035 16.592C173.525 17.0933 173.771 17.888 173.771 18.976V24H172.475V19.056C172.475 18.2987 172.32 17.7493 172.011 17.408C171.712 17.056 171.243 16.88 170.603 16.88C169.856 16.88 169.264 17.1093 168.827 17.568C168.389 18.0267 168.171 18.64 168.171 19.408V24H166.875ZM179.019 24L175.579 15.968H176.987L179.867 23.04H179.435L182.347 15.968H183.691L180.251 24H179.019ZM185.632 24V17.824C185.632 17.5253 185.616 17.2213 185.584 16.912C185.562 16.592 185.536 16.2773 185.504 15.968H186.752L186.912 17.728H186.72C186.954 17.1093 187.328 16.64 187.84 16.32C188.362 15.9893 188.965 15.824 189.648 15.824C190.597 15.824 191.312 16.08 191.792 16.592C192.282 17.0933 192.528 17.888 192.528 18.976V24H191.232V19.056C191.232 18.2987 191.077 17.7493 190.768 17.408C190.469 17.056 190 16.88 189.36 16.88C188.613 16.88 188.021 17.1093 187.584 17.568C187.146 18.0267 186.928 18.64 186.928 19.408V24H185.632ZM195.487 24V15.968H196.783V24H195.487ZM195.327 14.144V12.688H196.927V14.144H195.327ZM203.155 24.144C202.366 24.144 201.678 23.9733 201.091 23.632C200.515 23.2907 200.067 22.8053 199.747 22.176C199.438 21.5467 199.283 20.8 199.283 19.936C199.283 19.0613 199.443 18.32 199.763 17.712C200.083 17.0933 200.531 16.624 201.107 16.304C201.694 15.984 202.376 15.824 203.155 15.824C203.667 15.824 204.163 15.9147 204.643 16.096C205.134 16.2773 205.539 16.5333 205.859 16.864L205.395 17.792C205.075 17.4827 204.723 17.2533 204.339 17.104C203.966 16.9547 203.598 16.88 203.235 16.88C202.403 16.88 201.758 17.1413 201.299 17.664C200.84 18.1867 200.611 18.9493 200.611 19.952C200.611 20.944 200.84 21.712 201.299 22.256C201.758 22.8 202.403 23.072 203.235 23.072C203.587 23.072 203.95 23.0027 204.323 22.864C204.707 22.7253 205.064 22.496 205.395 22.176L205.859 23.088C205.528 23.4293 205.118 23.6907 204.627 23.872C204.136 24.0533 203.646 24.144 203.155 24.144ZM211.013 24.144C210.064 24.144 209.344 23.8827 208.853 23.36C208.373 22.8373 208.133 22.0373 208.133 20.96V15.968H209.429V20.928C209.429 21.664 209.578 22.208 209.877 22.56C210.176 22.9013 210.64 23.072 211.269 23.072C211.973 23.072 212.538 22.8427 212.965 22.384C213.392 21.9253 213.605 21.312 213.605 20.544V15.968H214.901V24H213.637V22.192H213.845C213.621 22.8107 213.258 23.2907 212.757 23.632C212.266 23.9733 211.685 24.144 211.013 24.144ZM220.567 24.144C219.927 24.144 219.33 24.0587 218.775 23.888C218.221 23.7067 217.762 23.456 217.399 23.136L217.847 22.224C218.242 22.5333 218.669 22.7627 219.127 22.912C219.597 23.0613 220.082 23.136 220.583 23.136C221.223 23.136 221.703 23.024 222.023 22.8C222.354 22.5653 222.519 22.2453 222.519 21.84C222.519 21.5307 222.413 21.2853 222.199 21.104C221.997 20.912 221.661 20.7627 221.191 20.656L219.703 20.352C219.021 20.2027 218.509 19.952 218.167 19.6C217.826 19.2373 217.655 18.7787 217.655 18.224C217.655 17.7547 217.778 17.344 218.023 16.992C218.269 16.6293 218.626 16.3467 219.095 16.144C219.565 15.9307 220.114 15.824 220.743 15.824C221.33 15.824 221.869 15.9147 222.359 16.096C222.861 16.2667 223.277 16.5173 223.607 16.848L223.143 17.744C222.823 17.4347 222.455 17.2053 222.039 17.056C221.634 16.896 221.213 16.816 220.775 16.816C220.146 16.816 219.671 16.944 219.351 17.2C219.042 17.4453 218.887 17.7707 218.887 18.176C218.887 18.4853 218.983 18.7413 219.175 18.944C219.378 19.136 219.687 19.28 220.103 19.376L221.591 19.68C222.317 19.84 222.855 20.0907 223.207 20.432C223.57 20.7627 223.751 21.2107 223.751 21.776C223.751 22.256 223.618 22.6773 223.351 23.04C223.085 23.392 222.711 23.664 222.231 23.856C221.762 24.048 221.207 24.144 220.567 24.144Z" fill="#6FB9FE"/>
<defs>
<clipPath id="clip0_631_408">
<rect width="24" height="24" fill="white" transform="translate(32 6)"/>
</clipPath>
</defs>
</svg>
