<svg width="208" height="36" viewBox="0 0 208 36" fill="none" xmlns="http://www.w3.org/2000/svg">
<rect width="208" height="36" rx="18" fill="#C5E3FF" fill-opacity="0.4"/>
<g clip-path="url(#clip0_761_1454)">
<path d="M53.0254 17.4803L56 14.7204L48.1471 6.70312L46.5111 8.33184H43.2262C42.6472 8.33184 42.0783 8.50103 41.5923 8.80719L39.3777 7.14038L32 14.3051L34.3324 18.1957C34.2123 18.2754 34.098 18.3678 33.9922 18.4735L32.8353 19.6278C31.9755 20.4856 31.9738 21.8831 32.8317 22.7431C33.1829 23.0951 33.6324 23.3131 34.1182 23.3728C34.1158 23.4155 34.1141 23.4582 34.1141 23.5012C34.1134 24.0897 34.3419 24.6432 34.7574 25.0596C35.1664 25.4696 35.6982 25.684 36.2358 25.7038C36.2543 26.2414 36.4674 26.7735 36.8763 27.1834C37.306 27.6141 37.8709 27.8294 38.4358 27.8294C38.6782 27.8294 38.9205 27.7895 39.1521 27.7104C39.2565 28.0457 39.4407 28.3529 39.6957 28.6085C40.1253 29.0392 40.6902 29.2545 41.2552 29.2545C41.8185 29.2545 42.3817 29.0405 42.8111 28.6122L43.4605 27.9642C43.5331 27.8919 43.5995 27.8151 43.6605 27.7351L44.0291 28.0607C44.4535 28.4756 45.0127 28.7038 45.6071 28.7038C45.608 28.7038 45.6087 28.7038 45.6097 28.7038C46.2126 28.703 46.7793 28.4675 47.2054 28.0407C47.4751 27.7705 47.6676 27.4438 47.7727 27.0877C48.0081 27.1693 48.2581 27.2122 48.5148 27.2122C48.5155 27.2122 48.5164 27.2122 48.5172 27.2122C49.1203 27.2116 49.6869 26.9762 50.1129 26.5493C50.4275 26.234 50.6287 25.848 50.7179 25.4421C50.8726 25.4752 51.0318 25.4926 51.1938 25.4926C51.1945 25.4926 51.1955 25.4926 51.1962 25.4926C51.7992 25.4919 52.366 25.2566 52.792 24.8296C53.3206 24.3001 53.5302 23.5713 53.4226 22.8832C53.8723 22.8021 54.2863 22.5871 54.6159 22.2568C55.4951 21.3757 55.4937 19.9435 54.6126 19.064L53.0254 17.4803ZM42.0525 10.2264C42.3606 9.9157 42.7884 9.73754 43.226 9.73754H47.0915L48.1345 8.69915L53.9851 14.6724L52.0295 16.4866L47.0924 11.5519H43.4208L40.9507 14.0671C40.7693 14.2518 40.5267 14.354 40.2676 14.3547C40.0076 14.3567 39.7653 14.2546 39.5829 14.0707C39.2125 13.6974 39.2125 13.0902 39.5826 12.7168L42.0525 10.2264ZM33.8268 21.7503C33.5163 21.4391 33.517 20.9333 33.8281 20.623L34.985 19.4687C35.1403 19.3138 35.3442 19.2363 35.548 19.2363C35.7526 19.2363 35.9569 19.3143 36.1124 19.4701C36.4229 19.7812 36.4224 20.287 36.1111 20.5975L34.9542 21.7516C34.6431 22.062 34.1374 22.0614 33.8268 21.7503ZM35.7526 24.0668C35.6022 23.9161 35.5196 23.7158 35.5198 23.5028C35.52 23.2899 35.6031 23.0899 35.754 22.9394L37.1039 21.5927C37.2544 21.4424 37.4543 21.3598 37.6669 21.3598C37.6673 21.3598 37.6677 21.3598 37.6678 21.3598C37.8808 21.36 38.0809 21.4433 38.2312 21.594C38.3818 21.7447 38.4643 21.945 38.4642 22.1579C38.464 22.3709 38.3808 22.571 38.23 22.7213L36.8799 24.0683C36.5688 24.3786 36.0631 24.3781 35.7526 24.0668ZM38.999 26.1919C38.6877 26.5025 38.182 26.5019 37.8714 26.1906C37.5611 25.8795 37.5616 25.3738 37.8729 25.0633L39.2228 23.7163C39.534 23.406 40.0398 23.4065 40.3501 23.7178C40.6607 24.0289 40.6601 24.5346 40.3489 24.8452L38.999 26.1919ZM42.4678 26.969L41.8183 27.617C41.507 27.9276 41.0013 27.927 40.6909 27.6157C40.5404 27.465 40.4578 27.2647 40.458 27.0518C40.4582 26.8388 40.5415 26.6387 40.6922 26.4884L41.3417 25.8404C41.4969 25.6853 41.7009 25.6078 41.9047 25.6078C42.109 25.6078 42.3136 25.6858 42.469 25.8416C42.6194 25.9923 42.7021 26.1926 42.7019 26.4056C42.7018 26.6185 42.6186 26.8187 42.4678 26.969ZM53.6209 21.264C53.4601 21.4251 53.2462 21.5139 53.0186 21.5141C53.0185 21.5141 53.0181 21.5141 53.0177 21.5141C52.7905 21.5141 52.5768 21.4257 52.416 21.2653L49.0213 17.8777L48.0283 18.8727L51.7955 22.632C52.128 22.9638 52.1286 23.5043 51.7968 23.8368C51.6362 23.9979 51.4223 24.0868 51.1947 24.0869C51.1944 24.0869 51.194 24.0869 51.1938 24.0869C50.9666 24.0869 50.7529 23.9987 50.5919 23.8381L50.1095 23.3567C50.1095 23.3565 50.1095 23.3565 50.1095 23.3565L46.8247 20.0788L45.8318 21.0738L49.1167 24.3519C49.449 24.6837 49.4496 25.224 49.1178 25.5564C48.786 25.8889 48.2455 25.8894 47.9129 25.5576L44.6282 22.2799L43.6352 23.2749L46.2088 25.8431C46.5415 26.1749 46.5418 26.7154 46.2101 27.0479C46.0495 27.2091 45.8356 27.2979 45.608 27.2981C45.6076 27.2981 45.6073 27.2981 45.6071 27.2981C45.3799 27.2981 45.1662 27.2096 45.0054 27.0492L44.9902 27.034L44.1014 26.2494C44.065 25.7204 43.8423 25.2277 43.464 24.8487C43.0671 24.4508 42.5447 24.2239 41.9858 24.2038C41.9671 23.6663 41.754 23.1346 41.3451 22.7248C40.9363 22.3148 40.4045 22.1004 39.8669 22.0808C39.8484 21.5432 39.6353 21.011 39.2262 20.601C38.8293 20.2031 38.3069 19.976 37.7479 19.9559C37.7292 19.4187 37.516 18.8868 37.1074 18.4771C36.7313 18.1001 36.2513 17.8883 35.7586 17.8412L33.7781 14.5375L39.4938 8.98718L40.529 9.76629L38.5845 11.727C37.6728 12.6463 37.673 14.1418 38.585 15.061C39.0329 15.5121 39.6293 15.7604 40.2648 15.7604C40.2668 15.7604 40.269 15.7604 40.2712 15.7604C40.9092 15.7588 41.5066 15.5072 41.9536 15.052L44.0104 12.9576H46.5102L53.6196 20.0592C53.9521 20.391 53.9527 20.9315 53.6209 21.264Z" fill="#6FB9FE"/>
</g>
<path d="M67.1142 18.352C67.1142 17.1573 67.3169 16.1333 67.7222 15.28C68.1382 14.416 68.7302 13.7493 69.4982 13.28C70.2769 12.8107 71.2102 12.576 72.2982 12.576C73.3542 12.576 74.2715 12.8107 75.0502 13.28C75.8289 13.7493 76.4262 14.416 76.8422 15.28C77.2689 16.1333 77.4822 17.152 77.4822 18.336C77.4822 19.5307 77.2689 20.56 76.8422 21.424C76.4155 22.288 75.8129 22.96 75.0342 23.44C74.2662 23.9093 73.3542 24.144 72.2982 24.144C71.2102 24.144 70.2822 23.9093 69.5142 23.44C68.7462 22.96 68.1542 22.288 67.7382 21.424C67.3222 20.56 67.1142 19.536 67.1142 18.352ZM68.5062 18.352C68.5062 19.8027 68.8262 20.9387 69.4662 21.76C70.1062 22.5707 71.0502 22.976 72.2982 22.976C73.4929 22.976 74.4209 22.5707 75.0822 21.76C75.7542 20.9387 76.0902 19.8027 76.0902 18.352C76.0902 16.8907 75.7595 15.76 75.0982 14.96C74.4369 14.1493 73.5035 13.744 72.2982 13.744C71.0502 13.744 70.1062 14.1493 69.4662 14.96C68.8262 15.76 68.5062 16.8907 68.5062 18.352ZM80.6416 24V16.976H79.0736V15.968H80.9936L80.6416 16.304V14.96C80.6416 14.0533 80.8709 13.36 81.3296 12.88C81.7882 12.4 82.4442 12.16 83.2976 12.16C83.5109 12.16 83.7296 12.1813 83.9536 12.224C84.1882 12.256 84.3802 12.304 84.5296 12.368V13.44C84.4016 13.3867 84.2416 13.344 84.0496 13.312C83.8682 13.2693 83.6816 13.248 83.4896 13.248C83.1589 13.248 82.8762 13.3173 82.6416 13.456C82.4069 13.584 82.2309 13.7813 82.1136 14.048C81.9962 14.3147 81.9376 14.656 81.9376 15.072V16.24L81.7296 15.968H84.1776V16.976H81.9376V24H80.6416ZM86.2778 24V16.976H84.7098V15.968H86.6298L86.2778 16.304V14.96C86.2778 14.0533 86.5071 13.36 86.9658 12.88C87.4245 12.4 88.0805 12.16 88.9338 12.16C89.1471 12.16 89.3658 12.1813 89.5898 12.224C89.8245 12.256 90.0165 12.304 90.1658 12.368V13.44C90.0378 13.3867 89.8778 13.344 89.6858 13.312C89.5045 13.2693 89.3178 13.248 89.1258 13.248C88.7951 13.248 88.5125 13.3173 88.2778 13.456C88.0431 13.584 87.8671 13.7813 87.7498 14.048C87.6325 14.3147 87.5738 14.656 87.5738 15.072V16.24L87.3658 15.968H89.8138V16.976H87.5738V24H86.2778ZM95.0973 24.144C93.8386 24.144 92.8466 23.7813 92.1213 23.056C91.396 22.32 91.0333 21.3013 91.0333 20C91.0333 19.1573 91.1933 18.4267 91.5133 17.808C91.8333 17.1787 92.2813 16.6933 92.8573 16.352C93.4333 16 94.0946 15.824 94.8413 15.824C95.5773 15.824 96.196 15.9787 96.6973 16.288C97.1986 16.5973 97.5826 17.04 97.8493 17.616C98.116 18.1813 98.2493 18.8533 98.2493 19.632V20.112H92.0253V19.296H97.4013L97.1293 19.504C97.1293 18.6507 96.9373 17.984 96.5533 17.504C96.1693 17.024 95.5986 16.784 94.8413 16.784C94.0413 16.784 93.4173 17.0667 92.9693 17.632C92.5213 18.1867 92.2973 18.9387 92.2973 19.888V20.032C92.2973 21.0347 92.5426 21.7973 93.0333 22.32C93.5346 22.832 94.2333 23.088 95.1293 23.088C95.6093 23.088 96.0573 23.0187 96.4733 22.88C96.9 22.7307 97.3053 22.4907 97.6893 22.16L98.1373 23.072C97.7853 23.4133 97.3373 23.68 96.7933 23.872C96.26 24.0533 95.6946 24.144 95.0973 24.144ZM100.712 24V17.824C100.712 17.5253 100.696 17.2213 100.664 16.912C100.643 16.592 100.616 16.2773 100.584 15.968H101.832L101.992 17.728H101.8C102.035 17.1093 102.408 16.64 102.92 16.32C103.443 15.9893 104.046 15.824 104.728 15.824C105.678 15.824 106.392 16.08 106.872 16.592C107.363 17.0933 107.608 17.888 107.608 18.976V24H106.312V19.056C106.312 18.2987 106.158 17.7493 105.848 17.408C105.55 17.056 105.08 16.88 104.44 16.88C103.694 16.88 103.102 17.1093 102.664 17.568C102.227 18.0267 102.008 18.64 102.008 19.408V24H100.712ZM114.135 24.144C112.877 24.144 111.885 23.7813 111.159 23.056C110.434 22.32 110.071 21.3013 110.071 20C110.071 19.1573 110.231 18.4267 110.551 17.808C110.871 17.1787 111.319 16.6933 111.895 16.352C112.471 16 113.133 15.824 113.879 15.824C114.615 15.824 115.234 15.9787 115.735 16.288C116.237 16.5973 116.621 17.04 116.887 17.616C117.154 18.1813 117.287 18.8533 117.287 19.632V20.112H111.063V19.296H116.439L116.167 19.504C116.167 18.6507 115.975 17.984 115.591 17.504C115.207 17.024 114.637 16.784 113.879 16.784C113.079 16.784 112.455 17.0667 112.007 17.632C111.559 18.1867 111.335 18.9387 111.335 19.888V20.032C111.335 21.0347 111.581 21.7973 112.071 22.32C112.573 22.832 113.271 23.088 114.167 23.088C114.647 23.088 115.095 23.0187 115.511 22.88C115.938 22.7307 116.343 22.4907 116.727 22.16L117.175 23.072C116.823 23.4133 116.375 23.68 115.831 23.872C115.298 24.0533 114.733 24.144 114.135 24.144ZM128.226 24.144C127.32 24.144 126.509 24.0267 125.794 23.792C125.08 23.5573 124.456 23.2213 123.922 22.784L124.402 21.728C124.776 22.0053 125.149 22.24 125.522 22.432C125.906 22.6133 126.317 22.752 126.754 22.848C127.192 22.9333 127.682 22.976 128.226 22.976C129.176 22.976 129.88 22.8 130.338 22.448C130.797 22.096 131.026 21.6267 131.026 21.04C131.026 20.5387 130.866 20.1547 130.546 19.888C130.226 19.6213 129.666 19.408 128.866 19.248L127.186 18.912C126.152 18.6987 125.378 18.352 124.866 17.872C124.365 17.392 124.114 16.7413 124.114 15.92C124.114 15.248 124.285 14.6613 124.626 14.16C124.978 13.6587 125.469 13.2693 126.098 12.992C126.728 12.7147 127.458 12.576 128.29 12.576C129.09 12.576 129.821 12.6987 130.482 12.944C131.144 13.1787 131.709 13.5253 132.178 13.984L131.714 15.008C131.213 14.56 130.685 14.24 130.13 14.048C129.586 13.8453 128.968 13.744 128.274 13.744C127.4 13.744 126.706 13.936 126.194 14.32C125.693 14.6933 125.442 15.2053 125.442 15.856C125.442 16.3787 125.602 16.7893 125.922 17.088C126.242 17.376 126.77 17.5947 127.506 17.744L129.202 18.08C130.29 18.304 131.09 18.64 131.602 19.088C132.114 19.536 132.37 20.1653 132.37 20.976C132.37 21.5947 132.2 22.144 131.858 22.624C131.528 23.104 131.053 23.4773 130.434 23.744C129.816 24.0107 129.08 24.144 128.226 24.144ZM137.668 24.144C136.879 24.144 136.276 23.92 135.86 23.472C135.444 23.0133 135.236 22.3253 135.236 21.408V16.976H133.668V15.968H135.236V13.776L136.532 13.408V15.968H138.836V16.976H136.532V21.264C136.532 21.904 136.639 22.3627 136.852 22.64C137.076 22.9067 137.407 23.04 137.844 23.04C138.047 23.04 138.228 23.024 138.388 22.992C138.548 22.9493 138.692 22.9013 138.82 22.848V23.936C138.671 24 138.489 24.048 138.276 24.08C138.073 24.1227 137.871 24.144 137.668 24.144ZM144.384 24.144C143.125 24.144 142.133 23.7813 141.408 23.056C140.682 22.32 140.32 21.3013 140.32 20C140.32 19.1573 140.48 18.4267 140.8 17.808C141.12 17.1787 141.568 16.6933 142.144 16.352C142.72 16 143.381 15.824 144.128 15.824C144.864 15.824 145.482 15.9787 145.984 16.288C146.485 16.5973 146.869 17.04 147.136 17.616C147.402 18.1813 147.536 18.8533 147.536 19.632V20.112H141.312V19.296H146.688L146.416 19.504C146.416 18.6507 146.224 17.984 145.84 17.504C145.456 17.024 144.885 16.784 144.128 16.784C143.328 16.784 142.704 17.0667 142.256 17.632C141.808 18.1867 141.584 18.9387 141.584 19.888V20.032C141.584 21.0347 141.829 21.7973 142.32 22.32C142.821 22.832 143.52 23.088 144.416 23.088C144.896 23.088 145.344 23.0187 145.76 22.88C146.186 22.7307 146.592 22.4907 146.976 22.16L147.424 23.072C147.072 23.4133 146.624 23.68 146.08 23.872C145.546 24.0533 144.981 24.144 144.384 24.144ZM149.999 24V12.224H151.295V24H149.999ZM154.291 24V12.224H155.587V24H154.291ZM162.152 24.144C160.893 24.144 159.901 23.7813 159.176 23.056C158.45 22.32 158.088 21.3013 158.088 20C158.088 19.1573 158.248 18.4267 158.568 17.808C158.888 17.1787 159.336 16.6933 159.912 16.352C160.488 16 161.149 15.824 161.896 15.824C162.632 15.824 163.25 15.9787 163.752 16.288C164.253 16.5973 164.637 17.04 164.904 17.616C165.17 18.1813 165.304 18.8533 165.304 19.632V20.112H159.08V19.296H164.456L164.184 19.504C164.184 18.6507 163.992 17.984 163.608 17.504C163.224 17.024 162.653 16.784 161.896 16.784C161.096 16.784 160.472 17.0667 160.024 17.632C159.576 18.1867 159.352 18.9387 159.352 19.888V20.032C159.352 21.0347 159.597 21.7973 160.088 22.32C160.589 22.832 161.288 23.088 162.184 23.088C162.664 23.088 163.112 23.0187 163.528 22.88C163.954 22.7307 164.36 22.4907 164.744 22.16L165.192 23.072C164.84 23.4133 164.392 23.68 163.848 23.872C163.314 24.0533 162.749 24.144 162.152 24.144ZM167.767 24V17.824C167.767 17.5253 167.751 17.2213 167.719 16.912C167.697 16.592 167.671 16.2773 167.639 15.968H168.887L169.047 17.728H168.855C169.089 17.1093 169.463 16.64 169.975 16.32C170.497 15.9893 171.1 15.824 171.783 15.824C172.732 15.824 173.447 16.08 173.927 16.592C174.417 17.0933 174.663 17.888 174.663 18.976V24H173.367V19.056C173.367 18.2987 173.212 17.7493 172.903 17.408C172.604 17.056 172.135 16.88 171.495 16.88C170.748 16.88 170.156 17.1093 169.719 17.568C169.281 18.0267 169.063 18.64 169.063 19.408V24H167.767Z" fill="#6FB9FE"/>
<defs>
<clipPath id="clip0_761_1454">
<rect width="24" height="24" fill="white" transform="translate(32 6)"/>
</clipPath>
</defs>
</svg>
