<svg width="23" height="24" viewBox="0 0 23 24" fill="none" xmlns="http://www.w3.org/2000/svg">
<path d="M4.65132 15.3155C6.92381 18.032 9.65938 20.1708 12.7817 21.6842C13.9704 22.2475 15.5602 22.9159 17.3314 23.0305C17.4412 23.0352 17.5463 23.04 17.6561 23.04C18.8448 23.04 19.7997 22.6294 20.5778 21.7844C20.5826 21.7796 20.5921 21.7701 20.5969 21.7605C20.8738 21.4263 21.189 21.1256 21.5184 20.8057C21.7427 20.5908 21.9719 20.3665 22.1915 20.1373C23.2084 19.0775 23.2084 17.7312 22.182 16.7047L19.3127 13.8354C18.8257 13.3294 18.2433 13.062 17.6322 13.062C17.0211 13.062 16.4339 13.3294 15.9326 13.8307L14.2235 15.5398C14.066 15.4491 13.9036 15.368 13.7508 15.2916C13.5599 15.1961 13.3832 15.1054 13.2257 15.0051C11.6693 14.0169 10.2561 12.7279 8.90508 11.0712C8.22237 10.2071 7.76406 9.48144 7.4442 8.74145C7.89296 8.33565 8.31308 7.91075 8.71888 7.4954C8.86211 7.3474 9.01011 7.1994 9.1581 7.0514C9.67368 6.5358 9.95064 5.93903 9.95064 5.33271C9.95064 4.7264 9.67848 4.12963 9.1581 3.61403L7.73541 2.19133C7.56832 2.02424 7.41077 1.86191 7.24845 1.69482C6.93336 1.37018 6.60395 1.03598 6.2793 0.735216C5.78756 0.253029 5.20989 0 4.5988 0C3.99249 0 3.41005 0.253029 2.89921 0.739987L1.11368 2.52552C0.464399 3.17481 0.0967909 3.96253 0.0204043 4.8744C-0.0703044 6.01542 0.139758 7.22805 0.684009 8.69371C1.51949 10.9615 2.77985 13.0668 4.65132 15.3155ZM1.18529 4.97465C1.24259 4.33969 1.48606 3.80976 1.94438 3.35145L3.72037 1.57547C3.99726 1.30812 4.30281 1.16966 4.5988 1.16966C4.89003 1.16966 5.18603 1.30812 5.45815 1.58502C5.77802 1.88101 6.07879 2.19133 6.40343 2.52075C6.56575 2.68784 6.73284 2.85493 6.89994 3.0268L8.32263 4.44949C8.61863 4.74549 8.77141 5.04627 8.77141 5.34227C8.77141 5.63826 8.61863 5.93903 8.32263 6.23503C8.17463 6.38302 8.02664 6.53579 7.87863 6.6838C7.43464 7.13257 7.01929 7.55747 6.56098 7.96327C6.55142 7.97281 6.54665 7.97759 6.5371 7.98713C6.14085 8.38339 6.20292 8.76055 6.2984 9.04699C6.30317 9.06132 6.30795 9.07087 6.31272 9.08519C6.68033 9.96845 7.19116 10.8086 7.98844 11.8113C9.42068 13.5777 10.9294 14.9479 12.5907 16.0029C12.796 16.1366 13.0156 16.2417 13.2209 16.3467C13.4118 16.4421 13.5885 16.5328 13.7461 16.6331C13.7651 16.6427 13.7795 16.6522 13.7986 16.6618C13.9561 16.7429 14.1089 16.7811 14.2616 16.7811C14.6436 16.7811 14.8919 16.5376 14.973 16.4564L16.7586 14.6709C17.0354 14.394 17.3362 14.246 17.6322 14.246C17.9951 14.246 18.291 14.4705 18.4773 14.6709L21.356 17.545C21.9289 18.1179 21.9241 18.7385 21.3417 19.3449C21.1412 19.5596 20.9311 19.765 20.7068 19.9798C20.3726 20.3044 20.024 20.6387 19.7089 21.0157C19.1599 21.6078 18.5059 21.8846 17.6609 21.8846C17.5797 21.8846 17.4937 21.8798 17.4126 21.8751C15.8467 21.7748 14.3905 21.1638 13.2973 20.6434C10.3277 19.2063 7.72109 17.1678 5.55841 14.5802C3.77765 12.4366 2.57935 10.4411 1.78684 8.30223C1.2951 6.98934 1.10891 5.93426 1.18529 4.97465Z" fill="#0069D1"/>
</svg>
