<svg width="48" height="48" viewBox="0 0 48 48" fill="none" xmlns="http://www.w3.org/2000/svg">
<g clip-path="url(#clip0_248_435)">
<g clip-path="url(#clip1_248_435)">
<path opacity="0.4" d="M21.1312 3.60716C21.9632 2.97222 22.8776 2.5 24 2.5C25.1224 2.5 26.0368 2.97222 26.8688 3.60716C27.6482 4.20178 28.5078 5.0615 29.5136 6.06736L29.5844 6.13808C30.6134 7.16722 31.5106 7.57252 32.8958 7.57252C33.069 7.57252 33.2884 7.5663 33.5364 7.55928C34.166 7.54144 34.98 7.51838 35.6912 7.57842C36.7344 7.6665 38.041 7.94678 39.0374 8.93494C40.0414 9.93066 40.3286 11.2426 40.4194 12.2923C40.4814 13.0099 40.4584 13.8301 40.4406 14.4642C40.4336 14.7113 40.4274 14.9307 40.4274 15.1041C40.4274 16.0058 40.5276 16.5094 40.7014 16.9071C40.8798 17.3156 41.1946 17.7483 41.862 18.4157L41.9328 18.4864C42.9386 19.4921 43.7982 20.3518 44.3928 21.131C45.0278 21.9632 45.5 22.8776 45.5 24C45.5 25.1222 45.0278 26.0366 44.3928 26.8688C43.7982 27.6484 42.9382 28.5082 41.9322 29.5142L41.8618 29.5844C41.1946 30.2516 40.8798 30.6844 40.7014 31.0928C40.5276 31.4906 40.4274 31.9942 40.4274 32.8958C40.4274 33.0692 40.4336 33.288 40.4406 33.5352C40.4584 34.1692 40.4814 34.99 40.4194 35.7078C40.3286 36.7574 40.0414 38.0694 39.0372 39.0652C38.0408 40.0532 36.7342 40.3334 35.6912 40.4214C34.98 40.4816 34.166 40.4584 33.5364 40.4406C33.2884 40.4336 33.069 40.4274 32.8958 40.4274C32.0134 40.4274 31.5174 40.5162 31.127 40.6772C30.737 40.8382 30.3198 41.1264 29.6916 41.7546C29.5574 41.889 29.3804 42.0784 29.1764 42.2972C28.7166 42.7902 28.1186 43.431 27.5602 43.9192C26.7126 44.66 25.497 45.5 24 45.5C22.5032 45.5 21.2874 44.66 20.44 43.9192C19.8814 43.431 19.2835 42.7902 18.8236 42.2972C18.6196 42.0784 18.4427 41.889 18.3085 41.7548C17.6801 41.1264 17.2629 40.8382 16.8729 40.6772C16.4825 40.5162 15.9866 40.4274 15.1041 40.4274C14.931 40.4274 14.7116 40.4336 14.4636 40.4406C13.8341 40.4584 13.0199 40.4816 12.3089 40.4214C11.2657 40.3334 9.95922 40.0532 8.96278 39.0652C7.95866 38.0694 7.67138 36.7574 7.58058 35.7078C7.51852 34.99 7.5416 34.1698 7.55944 33.5358C7.5664 33.2884 7.57256 33.0694 7.57256 32.8958C7.57256 31.9942 7.47238 31.4906 7.29864 31.0928C7.12022 30.6844 6.80544 30.2516 6.13812 29.5844L6.0679 29.5142C5.06182 28.5082 4.2019 27.6484 3.60716 26.8688C2.97226 26.0366 2.50002 25.1222 2.5 24C2.50002 22.8776 2.97224 21.9632 3.60716 21.131C4.20178 20.3518 5.0615 19.4921 6.06734 18.4864L6.13804 18.4157C7.16742 17.3863 7.57256 16.489 7.57256 15.1041C7.57256 14.931 7.56634 14.7116 7.55932 14.4636C7.5415 13.8341 7.51844 13.0199 7.57846 12.3088C7.66654 11.2656 7.9468 9.9591 8.9349 8.96268C9.93064 7.95858 11.2426 7.67132 12.2923 7.58054C13.0099 7.51848 13.8302 7.54156 14.4642 7.5594C14.7116 7.56636 14.9306 7.57252 15.1042 7.57252C16.489 7.57252 17.3863 7.1674 18.4156 6.13808L18.4864 6.06734C19.4921 5.0615 20.3518 4.20178 21.1312 3.60716Z" fill="#0069D1"/>
<path fill-rule="evenodd" clip-rule="evenodd" d="M31.2864 17.4686C32.1322 18.1791 32.2418 19.4407 31.5314 20.2864L23.1314 30.2864C22.7836 30.7006 22.2826 30.9562 21.7432 30.995C21.2036 31.0336 20.6714 30.8522 20.268 30.492L16.668 27.2776C15.844 26.542 15.7725 25.2776 16.5081 24.4538C17.2438 23.6298 18.5081 23.5582 19.3321 24.2938L21.3944 26.1352L28.4686 17.7137C29.179 16.8679 30.4406 16.7582 31.2864 17.4686Z" fill="#0069D1"/>
</g>
</g>
<defs>
<clipPath id="clip0_248_435">
<rect width="48" height="48" fill="white"/>
</clipPath>
<clipPath id="clip1_248_435">
<rect width="48" height="48" fill="white"/>
</clipPath>
</defs>
</svg>
