<svg width="48" height="48" viewBox="0 0 48 48" fill="none" xmlns="http://www.w3.org/2000/svg">
<rect width="48" height="48" rx="24" fill="#294062"/>
<path d="M33.14 20.3462C31.8992 20.3448 30.7097 19.8702 29.8323 19.0266C28.955 18.183 28.4614 17.0392 28.46 15.8462C28.46 15.7543 28.4221 15.6663 28.3546 15.6014C28.287 15.5365 28.1955 15.5 28.1 15.5H24.5C24.4045 15.5 24.313 15.5365 24.2454 15.6014C24.1779 15.6663 24.14 15.7543 24.14 15.8462V27.2692C24.14 27.6409 24.0362 28.0058 23.8395 28.3258C23.6428 28.6458 23.3604 28.9091 23.0217 29.0884C22.6831 29.2676 22.3006 29.3562 21.9143 29.3449C21.5279 29.3336 21.1517 29.2228 20.8251 29.0241C20.4984 28.8253 20.2332 28.5459 20.0571 28.215C19.881 27.8842 19.8005 27.5139 19.824 27.1429C19.8475 26.7719 19.974 26.4137 20.1905 26.1058C20.407 25.7978 20.7055 25.5514 21.0548 25.3922C21.1163 25.364 21.1683 25.3196 21.2046 25.2642C21.2409 25.2087 21.2601 25.1445 21.26 25.0789V21.3846C21.26 21.334 21.2485 21.284 21.2263 21.2382C21.204 21.1923 21.1716 21.1517 21.1313 21.1192C21.0909 21.0867 21.0437 21.0631 20.9929 21.05C20.942 21.037 20.8888 21.0348 20.837 21.0437C17.7941 21.5646 15.5 24.2404 15.5 27.2692C15.5 28.9217 16.1827 30.5066 17.3979 31.6751C18.6132 32.8435 20.2614 33.5 21.98 33.5C23.6986 33.5 25.3468 32.8435 26.5621 31.6751C27.7773 30.5066 28.46 28.9217 28.46 27.2692V23.24C29.8689 24.0678 31.4889 24.5039 33.14 24.5C33.2355 24.5 33.327 24.4635 33.3946 24.3986C33.4621 24.3337 33.5 24.2457 33.5 24.1538V20.6923C33.5 20.6005 33.4621 20.5125 33.3946 20.4475C33.327 20.3826 33.2355 20.3462 33.14 20.3462ZM32.78 23.8008C31.1709 23.737 29.6167 23.2201 28.3106 22.314C28.2567 22.2767 28.1932 22.2544 28.127 22.2496C28.0607 22.2448 27.9944 22.2577 27.9354 22.2869C27.8763 22.3161 27.8268 22.3605 27.7923 22.415C27.7578 22.4696 27.7397 22.5323 27.74 22.5962V27.2692C27.74 28.7381 27.1331 30.1469 26.0529 31.1855C24.9727 32.2242 23.5076 32.8077 21.98 32.8077C20.4524 32.8077 18.9873 32.2242 17.9071 31.1855C16.8269 30.1469 16.22 28.7381 16.22 27.2692C16.22 24.7146 18.0488 22.4413 20.54 21.8173V24.873C20.1021 25.1161 19.7385 25.4657 19.4857 25.8868C19.2329 26.3079 19.0999 26.7855 19.1 27.2717C19.1001 27.7579 19.2333 28.2355 19.4862 28.6565C19.7392 29.0774 20.1029 29.427 20.5409 29.6699C20.9789 29.9129 21.4757 30.0407 21.9813 30.0404C22.4869 30.0402 22.9836 29.912 23.4213 29.6687C23.8591 29.4254 24.2225 29.0755 24.4751 28.6543C24.7276 28.2331 24.8604 27.7554 24.86 27.2692V16.1923H27.7517C27.8409 17.4464 28.3993 18.6269 29.3236 19.5157C30.248 20.4046 31.4758 20.9415 32.78 21.0272V23.8008Z" fill="white"/>
</svg>
