<svg width="221" height="36" viewBox="0 0 221 36" fill="none" xmlns="http://www.w3.org/2000/svg">
<rect width="221" height="36" rx="18" fill="#03A8E2" fill-opacity="0.2"/>
<g clip-path="url(#clip0_229_3295)">
<path d="M52.6995 20.317C51.9076 20.0411 51.2814 19.4328 50.982 18.6487L50.8095 18.1967H48.8657C48.1224 16.3189 46.6173 14.8229 44.7341 14.092C45.868 13.2761 46.6074 11.9453 46.6074 10.4447C46.6074 7.9682 44.5925 5.95312 42.1158 5.95312C39.6392 5.95312 37.6243 7.9682 37.6243 10.4447C37.6243 11.9453 38.3636 13.2761 39.4976 14.0925C36.7864 15.1445 34.8594 17.7814 34.8594 20.8601V24.9976H43.3853C43.5761 25.5412 43.8239 26.0665 44.1267 26.5631C44.9205 27.8668 46.0565 28.9268 47.4125 29.6274L48.0424 29.9531L48.6721 29.6274C50.0278 28.9268 51.1644 27.8668 51.9576 26.5631C52.7515 25.2596 53.1708 23.7636 53.1708 22.2374V20.4814L52.6995 20.317ZM51.7651 22.2374C51.7651 24.8275 50.3391 27.1762 48.0424 28.3705C46.6056 27.6231 45.5095 26.4245 44.8901 24.9976C44.6956 24.5491 44.5479 24.0782 44.4519 23.5917C44.3642 23.1511 44.3193 22.6981 44.3193 22.2374V21.4479C45.1318 21.0504 45.7941 20.4047 46.2125 19.6024H49.8718C50.2904 20.4047 50.9529 21.0504 51.7651 21.4479V22.2374ZM39.03 10.4447C39.03 8.74329 40.4142 7.35901 42.1158 7.35901C43.8174 7.35901 45.2017 8.74329 45.2017 10.4447C45.2017 12.1463 43.8174 13.5306 42.1158 13.5306C40.4142 13.5306 39.03 12.1463 39.03 10.4447ZM36.2653 23.5917V20.8601C36.2653 17.6342 38.8899 15.0095 42.1158 15.0095C44.3831 15.0095 46.3535 16.3063 47.3239 18.1967H45.2751L45.1028 18.6487C44.8033 19.4328 44.1772 20.0411 43.3853 20.317L42.9135 20.4814V22.2374C42.9135 22.693 42.951 23.1456 43.025 23.5917H36.2653Z" fill="#6FB9FE"/>
<path d="M49.3723 21.7391L47.9664 23.0981L47.4979 23.551L46.3525 22.4694L45.3872 23.4913L45.4936 23.5916L46.9819 24.9975L47.509 25.4952L48.0241 24.9975L49.3723 23.6943L50.6286 22.4802L49.6516 21.4692L49.3723 21.7391Z" fill="#6FB9FE"/>
</g>
<path d="M67.4263 24V12.48H68.6023V17.672H74.9703V12.48H76.1383V24H74.9703V18.8H68.6023V24H67.4263ZM82.4674 24.24C81.6087 24.24 80.8754 24.0453 80.2674 23.656C79.6594 23.2667 79.1927 22.728 78.8674 22.04C78.542 21.352 78.3794 20.5627 78.3794 19.672C78.3794 18.7653 78.5447 17.9707 78.8754 17.288C79.206 16.6053 79.6754 16.0747 80.2834 15.696C80.8967 15.312 81.6247 15.12 82.4674 15.12C83.3314 15.12 84.0674 15.3147 84.6754 15.704C85.2887 16.088 85.7554 16.624 86.0754 17.312C86.4007 17.9947 86.5634 18.7813 86.5634 19.672C86.5634 20.5787 86.4007 21.376 86.0754 22.064C85.75 22.7467 85.2807 23.28 84.6674 23.664C84.054 24.048 83.3207 24.24 82.4674 24.24ZM82.4674 23.112C83.4274 23.112 84.142 22.7947 84.6114 22.16C85.0807 21.52 85.3154 20.6907 85.3154 19.672C85.3154 18.6267 85.078 17.7947 84.6034 17.176C84.134 16.5573 83.422 16.248 82.4674 16.248C81.822 16.248 81.2887 16.3947 80.8674 16.688C80.4514 16.976 80.1394 17.3787 79.9314 17.896C79.7287 18.408 79.6274 19 79.6274 19.672C79.6274 20.712 79.8674 21.5467 80.3474 22.176C80.8274 22.8 81.534 23.112 82.4674 23.112ZM90.3356 24L87.6956 15.352L88.8716 15.36L90.9196 22.072L92.9756 15.36H94.0476L96.1036 22.072L98.1676 15.36H99.3356L96.6956 24H95.6716L93.5116 17.12L91.3596 24H90.3356ZM105.1 13.72V12.4H106.276V13.72H105.1ZM105.1 24V15.36H106.276V24H105.1ZM113.858 24C113.373 24.1013 112.893 24.1413 112.418 24.12C111.949 24.0987 111.528 23.9973 111.154 23.816C110.786 23.6347 110.506 23.352 110.314 22.968C110.16 22.648 110.074 22.3253 110.058 22C110.048 21.6693 110.042 21.2933 110.042 20.872V12.96H111.21V20.824C111.21 21.1867 111.213 21.4907 111.218 21.736C111.229 21.976 111.285 22.1893 111.386 22.376C111.578 22.7333 111.882 22.9467 112.298 23.016C112.72 23.0853 113.24 23.0693 113.858 22.968V24ZM108.194 16.368V15.36H113.858V16.368H108.194ZM122.196 24.24C121.545 24.24 120.998 24.1227 120.556 23.888C120.118 23.6533 119.79 23.3413 119.572 22.952C119.353 22.5627 119.244 22.1387 119.244 21.68C119.244 21.2107 119.337 20.8107 119.524 20.48C119.716 20.144 119.974 19.8693 120.3 19.656C120.63 19.4427 121.012 19.28 121.444 19.168C121.881 19.0613 122.364 18.968 122.892 18.888C123.425 18.8027 123.945 18.7307 124.452 18.672C124.964 18.608 125.412 18.5467 125.796 18.488L125.38 18.744C125.396 17.8907 125.23 17.2587 124.884 16.848C124.537 16.4373 123.934 16.232 123.076 16.232C122.484 16.232 121.982 16.3653 121.572 16.632C121.166 16.8987 120.881 17.32 120.716 17.896L119.572 17.56C119.769 16.7867 120.166 16.1867 120.764 15.76C121.361 15.3333 122.137 15.12 123.092 15.12C123.881 15.12 124.55 15.2693 125.1 15.568C125.654 15.8613 126.046 16.288 126.276 16.848C126.382 17.0987 126.452 17.3787 126.484 17.688C126.516 17.9973 126.532 18.312 126.532 18.632V24H125.484V21.832L125.788 21.96C125.494 22.7013 125.038 23.2667 124.42 23.656C123.801 24.0453 123.06 24.24 122.196 24.24ZM122.332 23.224C122.881 23.224 123.361 23.1253 123.772 22.928C124.182 22.7307 124.513 22.4613 124.764 22.12C125.014 21.7733 125.177 21.384 125.252 20.952C125.316 20.6747 125.35 20.3707 125.356 20.04C125.361 19.704 125.364 19.4533 125.364 19.288L125.812 19.52C125.412 19.5733 124.977 19.6267 124.508 19.68C124.044 19.7333 123.585 19.7947 123.132 19.864C122.684 19.9333 122.278 20.016 121.916 20.112C121.67 20.1813 121.433 20.28 121.204 20.408C120.974 20.5307 120.785 20.696 120.636 20.904C120.492 21.112 120.42 21.3707 120.42 21.68C120.42 21.9307 120.481 22.1733 120.604 22.408C120.732 22.6427 120.934 22.8373 121.212 22.992C121.494 23.1467 121.868 23.224 122.332 23.224ZM129.254 24V12.24H130.43V24H129.254ZM133.469 24V12.24H134.645V24H133.469ZM145.086 24.24C144.292 24.24 143.62 24.04 143.07 23.64C142.521 23.2347 142.105 22.688 141.822 22C141.54 21.3067 141.398 20.5307 141.398 19.672C141.398 18.7973 141.54 18.0187 141.822 17.336C142.11 16.648 142.532 16.1067 143.086 15.712C143.641 15.3173 144.324 15.12 145.134 15.12C145.924 15.12 146.601 15.32 147.166 15.72C147.732 16.12 148.164 16.664 148.462 17.352C148.766 18.04 148.918 18.8133 148.918 19.672C148.918 20.536 148.766 21.312 148.462 22C148.158 22.688 147.721 23.2347 147.15 23.64C146.58 24.04 145.892 24.24 145.086 24.24ZM141.198 24V12.48H142.382V17.496H142.254V24H141.198ZM144.966 23.144C145.569 23.144 146.07 22.992 146.47 22.688C146.87 22.384 147.169 21.9707 147.366 21.448C147.569 20.92 147.67 20.328 147.67 19.672C147.67 19.0213 147.572 18.4347 147.374 17.912C147.177 17.3893 146.876 16.976 146.47 16.672C146.07 16.368 145.561 16.216 144.942 16.216C144.34 16.216 143.838 16.3627 143.438 16.656C143.044 16.9493 142.748 17.3573 142.55 17.88C142.353 18.3973 142.254 18.9947 142.254 19.672C142.254 20.3387 142.353 20.936 142.55 21.464C142.748 21.9867 143.046 22.3973 143.446 22.696C143.846 22.9947 144.353 23.144 144.966 23.144ZM154.811 24.24C153.968 24.24 153.238 24.0533 152.619 23.68C152.006 23.3067 151.528 22.7813 151.187 22.104C150.846 21.4267 150.675 20.632 150.675 19.72C150.675 18.776 150.843 17.96 151.179 17.272C151.515 16.584 151.987 16.0533 152.595 15.68C153.208 15.3067 153.931 15.12 154.763 15.12C155.616 15.12 156.344 15.3173 156.947 15.712C157.55 16.1013 158.006 16.6613 158.315 17.392C158.624 18.1227 158.766 18.9947 158.739 20.008H157.539V19.592C157.518 18.472 157.275 17.6267 156.811 17.056C156.352 16.4853 155.68 16.2 154.795 16.2C153.867 16.2 153.155 16.5013 152.659 17.104C152.168 17.7067 151.923 18.5653 151.923 19.68C151.923 20.768 152.168 21.6133 152.659 22.216C153.155 22.8133 153.856 23.112 154.763 23.112C155.382 23.112 155.92 22.9707 156.379 22.688C156.843 22.4 157.208 21.9867 157.475 21.448L158.571 21.872C158.23 22.624 157.726 23.208 157.059 23.624C156.398 24.0347 155.648 24.24 154.811 24.24ZM151.507 20.008V19.024H158.107V20.008H151.507ZM164.426 28.08C163.984 28.08 163.546 28.0133 163.114 27.88C162.688 27.752 162.293 27.5467 161.93 27.264C161.568 26.9867 161.264 26.624 161.018 26.176L162.082 25.584C162.322 26.064 162.658 26.408 163.09 26.616C163.528 26.8293 163.973 26.936 164.426 26.936C165.05 26.936 165.554 26.8187 165.938 26.584C166.328 26.3547 166.61 26.0133 166.786 25.56C166.962 25.1067 167.048 24.5413 167.042 23.864V21.56H167.178V15.36H168.226V23.88C168.226 24.1253 168.218 24.36 168.202 24.584C168.192 24.8133 168.168 25.0373 168.13 25.256C168.029 25.9013 167.818 26.432 167.498 26.848C167.184 27.264 166.768 27.5733 166.25 27.776C165.738 27.9787 165.13 28.08 164.426 28.08ZM164.346 24.24C163.541 24.24 162.853 24.04 162.282 23.64C161.712 23.2347 161.274 22.688 160.97 22C160.666 21.312 160.514 20.536 160.514 19.672C160.514 18.8133 160.664 18.04 160.962 17.352C161.266 16.664 161.701 16.12 162.266 15.72C162.832 15.32 163.509 15.12 164.298 15.12C165.109 15.12 165.792 15.3173 166.346 15.712C166.901 16.1067 167.32 16.648 167.602 17.336C167.89 18.0187 168.034 18.7973 168.034 19.672C168.034 20.5307 167.893 21.3067 167.61 22C167.328 22.688 166.912 23.2347 166.362 23.64C165.813 24.04 165.141 24.24 164.346 24.24ZM164.466 23.144C165.08 23.144 165.586 22.9947 165.986 22.696C166.386 22.3973 166.685 21.9867 166.882 21.464C167.08 20.936 167.178 20.3387 167.178 19.672C167.178 18.9947 167.08 18.3973 166.882 17.88C166.685 17.3573 166.386 16.9493 165.986 16.656C165.592 16.3627 165.093 16.216 164.49 16.216C163.872 16.216 163.36 16.368 162.954 16.672C162.549 16.976 162.248 17.3893 162.05 17.912C161.858 18.4347 161.762 19.0213 161.762 19.672C161.762 20.328 161.861 20.92 162.058 21.448C162.261 21.9707 162.562 22.384 162.962 22.688C163.362 22.992 163.864 23.144 164.466 23.144ZM173.415 24.24C172.764 24.24 172.218 24.1227 171.775 23.888C171.338 23.6533 171.01 23.3413 170.791 22.952C170.572 22.5627 170.463 22.1387 170.463 21.68C170.463 21.2107 170.556 20.8107 170.743 20.48C170.935 20.144 171.194 19.8693 171.519 19.656C171.85 19.4427 172.231 19.28 172.663 19.168C173.1 19.0613 173.583 18.968 174.111 18.888C174.644 18.8027 175.164 18.7307 175.671 18.672C176.183 18.608 176.631 18.5467 177.015 18.488L176.599 18.744C176.615 17.8907 176.45 17.2587 176.103 16.848C175.756 16.4373 175.154 16.232 174.295 16.232C173.703 16.232 173.202 16.3653 172.791 16.632C172.386 16.8987 172.1 17.32 171.935 17.896L170.791 17.56C170.988 16.7867 171.386 16.1867 171.983 15.76C172.58 15.3333 173.356 15.12 174.311 15.12C175.1 15.12 175.77 15.2693 176.319 15.568C176.874 15.8613 177.266 16.288 177.495 16.848C177.602 17.0987 177.671 17.3787 177.703 17.688C177.735 17.9973 177.751 18.312 177.751 18.632V24H176.703V21.832L177.007 21.96C176.714 22.7013 176.258 23.2667 175.639 23.656C175.02 24.0453 174.279 24.24 173.415 24.24ZM173.551 23.224C174.1 23.224 174.58 23.1253 174.991 22.928C175.402 22.7307 175.732 22.4613 175.983 22.12C176.234 21.7733 176.396 21.384 176.471 20.952C176.535 20.6747 176.57 20.3707 176.575 20.04C176.58 19.704 176.583 19.4533 176.583 19.288L177.031 19.52C176.631 19.5733 176.196 19.6267 175.727 19.68C175.263 19.7333 174.804 19.7947 174.351 19.864C173.903 19.9333 173.498 20.016 173.135 20.112C172.89 20.1813 172.652 20.28 172.423 20.408C172.194 20.5307 172.004 20.696 171.855 20.904C171.711 21.112 171.639 21.3707 171.639 21.68C171.639 21.9307 171.7 22.1733 171.823 22.408C171.951 22.6427 172.154 22.8373 172.431 22.992C172.714 23.1467 173.087 23.224 173.551 23.224ZM186.554 24V19.592C186.554 19.112 186.508 18.672 186.418 18.272C186.327 17.8667 186.18 17.5147 185.978 17.216C185.78 16.912 185.522 16.6773 185.202 16.512C184.887 16.3467 184.503 16.264 184.05 16.264C183.634 16.264 183.266 16.336 182.946 16.48C182.631 16.624 182.364 16.832 182.146 17.104C181.932 17.3707 181.77 17.696 181.658 18.08C181.546 18.464 181.49 18.9013 181.49 19.392L180.658 19.208C180.658 18.3227 180.812 17.5787 181.122 16.976C181.431 16.3733 181.858 15.9173 182.402 15.608C182.946 15.2987 183.57 15.144 184.274 15.144C184.791 15.144 185.242 15.224 185.626 15.384C186.015 15.544 186.343 15.76 186.61 16.032C186.882 16.304 187.1 16.616 187.266 16.968C187.431 17.3147 187.551 17.6853 187.626 18.08C187.7 18.4693 187.738 18.8587 187.738 19.248V24H186.554ZM180.306 24V15.36H181.37V17.488H181.49V24H180.306Z" fill="#0069D1"/>
<defs>
<clipPath id="clip0_229_3295">
<rect width="24" height="24" fill="white" transform="translate(32 6)"/>
</clipPath>
</defs>
</svg>
