<svg width="259" height="36" viewBox="0 0 259 36" fill="none" xmlns="http://www.w3.org/2000/svg">
<rect width="259" height="36" rx="18" fill="#03A8E2" fill-opacity="0.2"/>
<path d="M40.4307 26.7373H41.8466V28.1533H40.4307V26.7373Z" fill="#6FB9FE"/>
<path d="M53.9754 15.4435C52.8846 15.0634 52.0222 14.2256 51.6102 13.1457L51.4372 12.6932H48.6827V6H33.5938V30H48.6827V27.1912L48.7025 27.1809C50.4341 26.2861 51.8849 24.9327 52.8982 23.2683C53.9117 21.6033 54.4474 19.6932 54.4474 17.7446V15.6079L53.9754 15.4435ZM53.0412 17.7446C53.0412 20.9639 51.3885 23.903 48.6827 25.5764C48.4802 25.7025 48.2713 25.8212 48.0571 25.9318L47.9796 25.9715L47.9023 25.9318C47.8546 25.9069 47.8068 25.8816 47.759 25.8563C47.5949 25.7677 47.4336 25.6743 47.2765 25.5764C46.9377 25.3674 46.6157 25.1382 46.311 24.8906C44.1833 23.1628 42.9182 20.5607 42.9182 17.7446V16.5815C44.0291 16.0715 44.9267 15.1968 45.4663 14.0995H50.4931C51.0327 15.1968 51.9303 16.0715 53.0412 16.5815V17.7446ZM44.5222 12.6932L44.3492 13.1457C43.9372 14.2256 43.0748 15.0634 41.9838 15.4435L41.512 15.6079V17.7446C41.512 19.6932 42.0477 21.6033 43.061 23.2683C43.4146 23.8491 43.8215 24.3918 44.2752 24.8906H35V10.5469H47.2765V12.6932H44.5222ZM47.2765 7.40625V9.14062H35V7.40625H47.2765ZM47.2765 28.5938H35V26.2969H45.8347C46.2828 26.6277 46.7581 26.9236 47.2569 27.1809L47.2765 27.1912V28.5938Z" fill="#6FB9FE"/>
<path d="M48.6827 18.6805L47.5775 19.7487L47.2765 19.4647L45.9384 18.2006L44.9727 19.2228L47.2765 21.3989L47.5887 21.6937L48.6827 20.636L51.506 17.9076L50.5288 16.8965L48.6827 18.6805Z" fill="#6FB9FE"/>
<path d="M67.2788 24V12.48H68.4548V17.92L73.7108 12.48H75.2148L69.8468 18.04L75.6548 24H74.1188L68.4548 18.24V24H67.2788ZM80.2261 24.24C79.3675 24.24 78.6341 24.0453 78.0261 23.656C77.4181 23.2667 76.9515 22.728 76.6261 22.04C76.3008 21.352 76.1381 20.5627 76.1381 19.672C76.1381 18.7653 76.3035 17.9707 76.6341 17.288C76.9648 16.6053 77.4341 16.0747 78.0421 15.696C78.6555 15.312 79.3835 15.12 80.2261 15.12C81.0901 15.12 81.8261 15.3147 82.4341 15.704C83.0475 16.088 83.5141 16.624 83.8341 17.312C84.1595 17.9947 84.3221 18.7813 84.3221 19.672C84.3221 20.5787 84.1595 21.376 83.8341 22.064C83.5088 22.7467 83.0395 23.28 82.4261 23.664C81.8128 24.048 81.0795 24.24 80.2261 24.24ZM80.2261 23.112C81.1861 23.112 81.9008 22.7947 82.3701 22.16C82.8395 21.52 83.0741 20.6907 83.0741 19.672C83.0741 18.6267 82.8368 17.7947 82.3621 17.176C81.8928 16.5573 81.1808 16.248 80.2261 16.248C79.5808 16.248 79.0475 16.3947 78.6261 16.688C78.2101 16.976 77.8981 17.3787 77.6901 17.896C77.4875 18.408 77.3861 19 77.3861 19.672C77.3861 20.712 77.6261 21.5467 78.1061 22.176C78.5861 22.8 79.2928 23.112 80.2261 23.112ZM92.8069 24V19.592C92.8069 19.112 92.7615 18.672 92.6709 18.272C92.5802 17.8667 92.4335 17.5147 92.2309 17.216C92.0335 16.912 91.7749 16.6773 91.4549 16.512C91.1402 16.3467 90.7562 16.264 90.3029 16.264C89.8869 16.264 89.5189 16.336 89.1989 16.48C88.8842 16.624 88.6175 16.832 88.3989 17.104C88.1855 17.3707 88.0229 17.696 87.9109 18.08C87.7989 18.464 87.7429 18.9013 87.7429 19.392L86.9109 19.208C86.9109 18.3227 87.0655 17.5787 87.3749 16.976C87.6842 16.3733 88.1109 15.9173 88.6549 15.608C89.1989 15.2987 89.8229 15.144 90.5269 15.144C91.0442 15.144 91.4949 15.224 91.8789 15.384C92.2682 15.544 92.5962 15.76 92.8629 16.032C93.1349 16.304 93.3535 16.616 93.5189 16.968C93.6842 17.3147 93.8042 17.6853 93.8789 18.08C93.9535 18.4693 93.9909 18.8587 93.9909 19.248V24H92.8069ZM86.5589 24V15.36H87.6229V17.488H87.7429V24H86.5589ZM101.251 24C100.766 24.1013 100.286 24.1413 99.8109 24.12C99.3415 24.0987 98.9202 23.9973 98.5469 23.816C98.1789 23.6347 97.8989 23.352 97.7069 22.968C97.5522 22.648 97.4669 22.3253 97.4509 22C97.4402 21.6693 97.4349 21.2933 97.4349 20.872V12.96H98.6029V20.824C98.6029 21.1867 98.6055 21.4907 98.6109 21.736C98.6215 21.976 98.6775 22.1893 98.7789 22.376C98.9709 22.7333 99.2749 22.9467 99.6909 23.016C100.112 23.0853 100.632 23.0693 101.251 22.968V24ZM95.5869 16.368V15.36H101.251V16.368H95.5869ZM105.905 24.24C105.254 24.24 104.708 24.1227 104.265 23.888C103.828 23.6533 103.5 23.3413 103.281 22.952C103.062 22.5627 102.953 22.1387 102.953 21.68C102.953 21.2107 103.046 20.8107 103.233 20.48C103.425 20.144 103.684 19.8693 104.009 19.656C104.34 19.4427 104.721 19.28 105.153 19.168C105.59 19.0613 106.073 18.968 106.601 18.888C107.134 18.8027 107.654 18.7307 108.161 18.672C108.673 18.608 109.121 18.5467 109.505 18.488L109.089 18.744C109.105 17.8907 108.94 17.2587 108.593 16.848C108.246 16.4373 107.644 16.232 106.785 16.232C106.193 16.232 105.692 16.3653 105.281 16.632C104.876 16.8987 104.59 17.32 104.425 17.896L103.281 17.56C103.478 16.7867 103.876 16.1867 104.473 15.76C105.07 15.3333 105.846 15.12 106.801 15.12C107.59 15.12 108.26 15.2693 108.809 15.568C109.364 15.8613 109.756 16.288 109.985 16.848C110.092 17.0987 110.161 17.3787 110.193 17.688C110.225 17.9973 110.241 18.312 110.241 18.632V24H109.193V21.832L109.497 21.96C109.204 22.7013 108.748 23.2667 108.129 23.656C107.51 24.0453 106.769 24.24 105.905 24.24ZM106.041 23.224C106.59 23.224 107.07 23.1253 107.481 22.928C107.892 22.7307 108.222 22.4613 108.473 22.12C108.724 21.7733 108.886 21.384 108.961 20.952C109.025 20.6747 109.06 20.3707 109.065 20.04C109.07 19.704 109.073 19.4533 109.073 19.288L109.521 19.52C109.121 19.5733 108.686 19.6267 108.217 19.68C107.753 19.7333 107.294 19.7947 106.841 19.864C106.393 19.9333 105.988 20.016 105.625 20.112C105.38 20.1813 105.142 20.28 104.913 20.408C104.684 20.5307 104.494 20.696 104.345 20.904C104.201 21.112 104.129 21.3707 104.129 21.68C104.129 21.9307 104.19 22.1733 104.313 22.408C104.441 22.6427 104.644 22.8373 104.921 22.992C105.204 23.1467 105.577 23.224 106.041 23.224ZM112.796 24L112.804 12.48H113.988V19.52L117.844 15.36H119.412L115.364 19.68L119.94 24H118.228L113.988 19.84V24H112.796ZM125.925 24C125.44 24.1013 124.96 24.1413 124.485 24.12C124.016 24.0987 123.595 23.9973 123.221 23.816C122.853 23.6347 122.573 23.352 122.381 22.968C122.227 22.648 122.141 22.3253 122.125 22C122.115 21.6693 122.109 21.2933 122.109 20.872V12.96H123.277V20.824C123.277 21.1867 123.28 21.4907 123.285 21.736C123.296 21.976 123.352 22.1893 123.453 22.376C123.645 22.7333 123.949 22.9467 124.365 23.016C124.787 23.0853 125.307 23.0693 125.925 22.968V24ZM120.261 16.368V15.36H125.925V16.368H120.261ZM128.268 13.72V12.4H129.444V13.72H128.268ZM128.268 24V15.36H129.444V24H128.268ZM135.978 24.24C135.135 24.24 134.405 24.0533 133.786 23.68C133.173 23.3067 132.695 22.7813 132.354 22.104C132.013 21.4267 131.842 20.632 131.842 19.72C131.842 18.776 132.01 17.96 132.346 17.272C132.682 16.584 133.154 16.0533 133.762 15.68C134.375 15.3067 135.098 15.12 135.93 15.12C136.783 15.12 137.511 15.3173 138.114 15.712C138.717 16.1013 139.173 16.6613 139.482 17.392C139.791 18.1227 139.933 18.9947 139.906 20.008H138.706V19.592C138.685 18.472 138.442 17.6267 137.978 17.056C137.519 16.4853 136.847 16.2 135.962 16.2C135.034 16.2 134.322 16.5013 133.826 17.104C133.335 17.7067 133.09 18.5653 133.09 19.68C133.09 20.768 133.335 21.6133 133.826 22.216C134.322 22.8133 135.023 23.112 135.93 23.112C136.549 23.112 137.087 22.9707 137.546 22.688C138.01 22.4 138.375 21.9867 138.642 21.448L139.738 21.872C139.397 22.624 138.893 23.208 138.226 23.624C137.565 24.0347 136.815 24.24 135.978 24.24ZM132.674 20.008V19.024H139.274V20.008H132.674ZM142.161 24V15.36H143.217V17.44L143.009 17.168C143.105 16.912 143.231 16.6773 143.385 16.464C143.54 16.2453 143.708 16.0667 143.889 15.928C144.113 15.7307 144.375 15.5813 144.673 15.48C144.972 15.3733 145.273 15.312 145.577 15.296C145.881 15.2747 146.159 15.296 146.409 15.36V16.464C146.095 16.384 145.751 16.3653 145.377 16.408C145.004 16.4507 144.66 16.6 144.345 16.856C144.057 17.08 143.841 17.3493 143.697 17.664C143.553 17.9733 143.457 18.304 143.409 18.656C143.361 19.0027 143.337 19.3467 143.337 19.688V24H142.161ZM151.907 24.24C151.064 24.24 150.333 24.0533 149.715 23.68C149.101 23.3067 148.624 22.7813 148.283 22.104C147.941 21.4267 147.771 20.632 147.771 19.72C147.771 18.776 147.939 17.96 148.275 17.272C148.611 16.584 149.083 16.0533 149.691 15.68C150.304 15.3067 151.027 15.12 151.859 15.12C152.712 15.12 153.44 15.3173 154.043 15.712C154.645 16.1013 155.101 16.6613 155.411 17.392C155.72 18.1227 155.861 18.9947 155.835 20.008H154.635V19.592C154.613 18.472 154.371 17.6267 153.907 17.056C153.448 16.4853 152.776 16.2 151.891 16.2C150.963 16.2 150.251 16.5013 149.755 17.104C149.264 17.7067 149.019 18.5653 149.019 19.68C149.019 20.768 149.264 21.6133 149.755 22.216C150.251 22.8133 150.952 23.112 151.859 23.112C152.477 23.112 153.016 22.9707 153.475 22.688C153.939 22.4 154.304 21.9867 154.571 21.448L155.667 21.872C155.325 22.624 154.821 23.208 154.155 23.624C153.493 24.0347 152.744 24.24 151.907 24.24ZM148.603 20.008V19.024H155.203V20.008H148.603ZM164.096 24V19.592C164.096 19.112 164.05 18.672 163.96 18.272C163.869 17.8667 163.722 17.5147 163.52 17.216C163.322 16.912 163.064 16.6773 162.744 16.512C162.429 16.3467 162.045 16.264 161.592 16.264C161.176 16.264 160.808 16.336 160.488 16.48C160.173 16.624 159.906 16.832 159.688 17.104C159.474 17.3707 159.312 17.696 159.2 18.08C159.088 18.464 159.032 18.9013 159.032 19.392L158.2 19.208C158.2 18.3227 158.354 17.5787 158.664 16.976C158.973 16.3733 159.4 15.9173 159.944 15.608C160.488 15.2987 161.112 15.144 161.816 15.144C162.333 15.144 162.784 15.224 163.168 15.384C163.557 15.544 163.885 15.76 164.152 16.032C164.424 16.304 164.642 16.616 164.808 16.968C164.973 17.3147 165.093 17.6853 165.168 18.08C165.242 18.4693 165.28 18.8587 165.28 19.248V24H164.096ZM157.848 24V15.36H158.912V17.488H159.032V24H157.848ZM175.519 24.24C174.713 24.24 173.988 24.1067 173.343 23.84C172.703 23.568 172.172 23.184 171.751 22.688C171.335 22.192 171.063 21.6027 170.935 20.92L172.135 20.72C172.327 21.4667 172.732 22.0533 173.351 22.48C173.969 22.9013 174.708 23.112 175.567 23.112C176.132 23.112 176.639 23.024 177.087 22.848C177.535 22.6667 177.887 22.4107 178.143 22.08C178.399 21.7493 178.527 21.3573 178.527 20.904C178.527 20.6053 178.473 20.352 178.367 20.144C178.26 19.9307 178.119 19.7547 177.943 19.616C177.767 19.4773 177.575 19.3627 177.367 19.272C177.159 19.176 176.956 19.0987 176.759 19.04L173.839 18.168C173.487 18.0667 173.161 17.9387 172.863 17.784C172.564 17.624 172.303 17.4347 172.079 17.216C171.86 16.992 171.689 16.7307 171.567 16.432C171.444 16.1333 171.383 15.792 171.383 15.408C171.383 14.7573 171.553 14.1947 171.895 13.72C172.236 13.2453 172.703 12.88 173.295 12.624C173.887 12.368 174.561 12.2427 175.319 12.248C176.087 12.248 176.772 12.384 177.375 12.656C177.983 12.928 178.484 13.3173 178.879 13.824C179.273 14.3253 179.535 14.92 179.663 15.608L178.431 15.832C178.351 15.3307 178.167 14.896 177.879 14.528C177.591 14.16 177.223 13.8773 176.775 13.68C176.332 13.4773 175.844 13.3733 175.311 13.368C174.793 13.368 174.332 13.456 173.927 13.632C173.527 13.8027 173.209 14.0373 172.975 14.336C172.74 14.6347 172.623 14.976 172.623 15.36C172.623 15.7493 172.729 16.0613 172.943 16.296C173.161 16.5307 173.428 16.7147 173.743 16.848C174.063 16.9813 174.372 17.0907 174.671 17.176L176.927 17.84C177.161 17.904 177.436 17.9973 177.751 18.12C178.071 18.2373 178.38 18.408 178.679 18.632C178.983 18.8507 179.233 19.1387 179.431 19.496C179.628 19.8533 179.727 20.3067 179.727 20.856C179.727 21.3893 179.62 21.8667 179.407 22.288C179.199 22.7093 178.903 23.064 178.519 23.352C178.14 23.64 177.695 23.8587 177.183 24.008C176.676 24.1627 176.121 24.24 175.519 24.24ZM182.018 13.72V12.4H183.194V13.72H182.018ZM182.018 24V15.36H183.194V24H182.018ZM189.728 24.24C188.886 24.24 188.155 24.0533 187.536 23.68C186.923 23.3067 186.446 22.7813 186.104 22.104C185.763 21.4267 185.592 20.632 185.592 19.72C185.592 18.776 185.76 17.96 186.096 17.272C186.432 16.584 186.904 16.0533 187.512 15.68C188.126 15.3067 188.848 15.12 189.68 15.12C190.534 15.12 191.262 15.3173 191.864 15.712C192.467 16.1013 192.923 16.6613 193.233 17.392C193.542 18.1227 193.683 18.9947 193.656 20.008H192.456V19.592C192.435 18.472 192.192 17.6267 191.728 17.056C191.27 16.4853 190.598 16.2 189.712 16.2C188.784 16.2 188.072 16.5013 187.576 17.104C187.086 17.7067 186.84 18.5653 186.84 19.68C186.84 20.768 187.086 21.6133 187.576 22.216C188.072 22.8133 188.774 23.112 189.68 23.112C190.299 23.112 190.838 22.9707 191.296 22.688C191.76 22.4 192.126 21.9867 192.392 21.448L193.488 21.872C193.147 22.624 192.643 23.208 191.976 23.624C191.315 24.0347 190.566 24.24 189.728 24.24ZM186.424 20.008V19.024H193.024V20.008H186.424ZM202.899 24.216C202.382 24.216 201.928 24.136 201.539 23.976C201.155 23.816 200.827 23.6 200.555 23.328C200.288 23.056 200.072 22.7467 199.907 22.4C199.742 22.048 199.622 21.6773 199.547 21.288C199.472 20.8933 199.435 20.5013 199.435 20.112V15.36H200.619V19.768C200.619 20.2427 200.664 20.6827 200.755 21.088C200.846 21.4933 200.99 21.848 201.187 22.152C201.39 22.4507 201.648 22.6827 201.963 22.848C202.283 23.0133 202.67 23.096 203.123 23.096C203.539 23.096 203.904 23.024 204.219 22.88C204.539 22.736 204.806 22.5307 205.019 22.264C205.238 21.992 205.403 21.664 205.515 21.28C205.627 20.8907 205.683 20.4533 205.683 19.968L206.515 20.152C206.515 21.0373 206.36 21.7813 206.051 22.384C205.742 22.9867 205.315 23.4427 204.771 23.752C204.227 24.0613 203.603 24.216 202.899 24.216ZM205.803 24V21.872H205.683V15.36H206.859V24H205.803ZM215.815 24V19.592C215.815 19.112 215.77 18.672 215.679 18.272C215.588 17.8667 215.442 17.5147 215.239 17.216C215.042 16.912 214.783 16.6773 214.463 16.512C214.148 16.3467 213.764 16.264 213.311 16.264C212.895 16.264 212.527 16.336 212.207 16.48C211.892 16.624 211.626 16.832 211.407 17.104C211.194 17.3707 211.031 17.696 210.919 18.08C210.807 18.464 210.751 18.9013 210.751 19.392L209.919 19.208C209.919 18.3227 210.074 17.5787 210.383 16.976C210.692 16.3733 211.119 15.9173 211.663 15.608C212.207 15.2987 212.831 15.144 213.535 15.144C214.052 15.144 214.503 15.224 214.887 15.384C215.276 15.544 215.604 15.76 215.871 16.032C216.143 16.304 216.362 16.616 216.527 16.968C216.692 17.3147 216.812 17.6853 216.887 18.08C216.962 18.4693 216.999 18.8587 216.999 19.248V24H215.815ZM209.567 24V15.36H210.631V17.488H210.751V24H209.567ZM222.779 24.232C221.766 24.232 220.931 24.0133 220.275 23.576C219.624 23.1387 219.224 22.5307 219.075 21.752L220.275 21.552C220.403 22.0427 220.694 22.4347 221.147 22.728C221.606 23.016 222.171 23.16 222.843 23.16C223.499 23.16 224.016 23.024 224.395 22.752C224.774 22.4747 224.963 22.0987 224.963 21.624C224.963 21.3573 224.902 21.1413 224.779 20.976C224.662 20.8053 224.419 20.648 224.051 20.504C223.683 20.36 223.134 20.1893 222.403 19.992C221.619 19.7787 221.006 19.5653 220.563 19.352C220.12 19.1387 219.806 18.8933 219.619 18.616C219.432 18.3333 219.339 17.9893 219.339 17.584C219.339 17.0933 219.478 16.664 219.755 16.296C220.032 15.9227 220.416 15.6347 220.907 15.432C221.398 15.224 221.968 15.12 222.619 15.12C223.27 15.12 223.851 15.2267 224.363 15.44C224.88 15.648 225.296 15.9413 225.611 16.32C225.926 16.6987 226.112 17.1387 226.171 17.64L224.971 17.856C224.891 17.3493 224.638 16.9493 224.211 16.656C223.79 16.3573 223.254 16.2027 222.603 16.192C221.99 16.176 221.491 16.2933 221.107 16.544C220.723 16.7893 220.531 17.1173 220.531 17.528C220.531 17.7573 220.6 17.9547 220.739 18.12C220.878 18.28 221.128 18.432 221.491 18.576C221.859 18.72 222.382 18.8773 223.059 19.048C223.854 19.2507 224.478 19.464 224.931 19.688C225.384 19.912 225.707 20.176 225.899 20.48C226.091 20.784 226.187 21.16 226.187 21.608C226.187 22.424 225.883 23.0667 225.275 23.536C224.672 24 223.84 24.232 222.779 24.232Z" fill="#0069D1"/>
</svg>
