<svg width="169" height="36" viewBox="0 0 169 36" fill="none" xmlns="http://www.w3.org/2000/svg">
<rect width="169" height="36" rx="18" fill="#03A8E2" fill-opacity="0.2"/>
<path d="M53.9406 10.6051C51.9682 9.91736 50.4096 8.40326 49.6644 6.45062L49.4922 6H38.512L38.34 6.45062C37.5946 8.40326 36.036 9.91736 34.0638 10.6051L33.5938 10.7688V14.0229C33.5938 17.2165 34.4716 20.3463 36.132 23.074C37.7925 25.8019 40.1698 28.0188 43.0067 29.4855L44.0022 30L44.9976 29.4853C47.8344 28.0188 50.2117 25.8019 51.8723 23.074C53.5327 20.3463 54.4105 17.2165 54.4105 14.0229V10.7688L53.9406 10.6051ZM53.0093 14.0229C53.0093 20.033 49.6929 25.481 44.3541 28.2407L44.0022 28.4227L43.6501 28.2407C38.3113 25.481 34.9949 20.033 34.9949 14.0229V11.7486C36.9854 10.92 38.5788 9.36951 39.4619 7.40112H48.5421C49.4254 9.36951 51.0188 10.92 53.0093 11.7486V14.0229Z" fill="#6FB9FE"/>
<path d="M47.3711 9.13086L47.4297 9.22852C47.8947 10.0071 48.3296 10.6427 48.9014 11.2012C49.4757 11.7621 50.1674 12.2256 51.126 12.6943L51.2373 12.749V14.8965C51.108 17.1389 50.4587 19.3023 49.3643 21.1533C48.2161 23.0953 46.5661 24.7022 44.5928 25.7998L44.582 25.8057L44.002 26.1055L43.4111 25.7998C41.4378 24.7022 39.7878 23.0954 38.6396 21.1533C37.5452 19.3022 36.8949 17.1389 36.7656 14.8965V12.749L36.8779 12.6943C37.8364 12.2256 38.5282 11.7621 39.1025 11.2012C39.6744 10.6427 40.1093 10.0072 40.5742 9.22852L40.6328 9.13086H47.3711ZM50.8369 13.0029L50.5703 12.8623C48.9301 11.9965 48.1268 11.1129 47.2881 9.76758L47.1416 9.53223H40.8623L40.7148 9.76758C39.8764 11.1127 39.0738 11.9966 37.4336 12.8623L37.167 13.0029V14.8809C37.4295 19.3894 39.8264 23.3451 43.6016 25.4473L43.6084 25.4502L43.6152 25.4541L43.7725 25.5352L44.002 25.6543L44.2314 25.5352L44.3887 25.4541L44.3955 25.4502L44.4023 25.4473C48.1777 23.3451 50.5744 19.3894 50.8369 14.8809L50.8672 14.3516H50.8369V13.0029Z" fill="#6FB9FE" stroke="#6FB9FE"/>
<path d="M43.0502 17.9505L40.4532 15.498L39.4912 16.5166L43.0614 19.8883L48.5196 14.6127L47.5458 13.6052L43.0502 17.9505Z" fill="#6FB9FE"/>
<path d="M66.32 24L70.288 12.48H71.848L75.816 24H74.592L70.824 13.136H71.288L67.544 24H66.32ZM68.088 21.208V20.104H74.04V21.208H68.088ZM81.0446 24.216C80.5273 24.216 80.074 24.136 79.6846 23.976C79.3006 23.816 78.9726 23.6 78.7006 23.328C78.434 23.056 78.218 22.7467 78.0526 22.4C77.8873 22.048 77.7673 21.6773 77.6926 21.288C77.618 20.8933 77.5806 20.5013 77.5806 20.112V15.36H78.7646V19.768C78.7646 20.2427 78.81 20.6827 78.9006 21.088C78.9913 21.4933 79.1353 21.848 79.3326 22.152C79.5353 22.4507 79.794 22.6827 80.1086 22.848C80.4286 23.0133 80.8153 23.096 81.2686 23.096C81.6846 23.096 82.05 23.024 82.3646 22.88C82.6846 22.736 82.9513 22.5307 83.1646 22.264C83.3833 21.992 83.5486 21.664 83.6606 21.28C83.7726 20.8907 83.8286 20.4533 83.8286 19.968L84.6606 20.152C84.6606 21.0373 84.506 21.7813 84.1966 22.384C83.8873 22.9867 83.4606 23.4427 82.9166 23.752C82.3726 24.0613 81.7486 24.216 81.0446 24.216ZM83.9486 24V21.872H83.8286V15.36H85.0046V24H83.9486ZM90.9446 24.232C89.9313 24.232 89.0966 24.0133 88.4406 23.576C87.79 23.1387 87.39 22.5307 87.2406 21.752L88.4406 21.552C88.5686 22.0427 88.8593 22.4347 89.3126 22.728C89.7713 23.016 90.3366 23.16 91.0086 23.16C91.6646 23.16 92.182 23.024 92.5606 22.752C92.9393 22.4747 93.1286 22.0987 93.1286 21.624C93.1286 21.3573 93.0673 21.1413 92.9446 20.976C92.8273 20.8053 92.5846 20.648 92.2166 20.504C91.8486 20.36 91.2993 20.1893 90.5686 19.992C89.7846 19.7787 89.1713 19.5653 88.7286 19.352C88.286 19.1387 87.9713 18.8933 87.7846 18.616C87.598 18.3333 87.5046 17.9893 87.5046 17.584C87.5046 17.0933 87.6433 16.664 87.9206 16.296C88.198 15.9227 88.582 15.6347 89.0726 15.432C89.5633 15.224 90.134 15.12 90.7846 15.12C91.4353 15.12 92.0166 15.2267 92.5286 15.44C93.046 15.648 93.462 15.9413 93.7766 16.32C94.0913 16.6987 94.278 17.1387 94.3366 17.64L93.1366 17.856C93.0566 17.3493 92.8033 16.9493 92.3766 16.656C91.9553 16.3573 91.4193 16.2027 90.7686 16.192C90.1553 16.176 89.6566 16.2933 89.2726 16.544C88.8886 16.7893 88.6966 17.1173 88.6966 17.528C88.6966 17.7573 88.766 17.9547 88.9046 18.12C89.0433 18.28 89.294 18.432 89.6566 18.576C90.0246 18.72 90.5473 18.8773 91.2246 19.048C92.0193 19.2507 92.6433 19.464 93.0966 19.688C93.55 19.912 93.8726 20.176 94.0646 20.48C94.2566 20.784 94.3526 21.16 94.3526 21.608C94.3526 22.424 94.0486 23.0667 93.4406 23.536C92.838 24 92.006 24.232 90.9446 24.232ZM96.5989 24L96.6069 12.48H97.7909V19.52L101.647 15.36H103.215L99.1669 19.68L103.743 24H102.031L97.7909 19.84V24H96.5989ZM108.328 24.216C107.811 24.216 107.358 24.136 106.968 23.976C106.584 23.816 106.256 23.6 105.984 23.328C105.718 23.056 105.502 22.7467 105.336 22.4C105.171 22.048 105.051 21.6773 104.976 21.288C104.902 20.8933 104.864 20.5013 104.864 20.112V15.36H106.048V19.768C106.048 20.2427 106.094 20.6827 106.184 21.088C106.275 21.4933 106.419 21.848 106.616 22.152C106.819 22.4507 107.078 22.6827 107.392 22.848C107.712 23.0133 108.099 23.096 108.552 23.096C108.968 23.096 109.334 23.024 109.648 22.88C109.968 22.736 110.235 22.5307 110.448 22.264C110.667 21.992 110.832 21.664 110.944 21.28C111.056 20.8907 111.112 20.4533 111.112 19.968L111.944 20.152C111.944 21.0373 111.79 21.7813 111.48 22.384C111.171 22.9867 110.744 23.4427 110.2 23.752C109.656 24.0613 109.032 24.216 108.328 24.216ZM111.232 24V21.872H111.112V15.36H112.288V24H111.232ZM121.244 24V19.592C121.244 19.112 121.199 18.672 121.108 18.272C121.018 17.8667 120.871 17.5147 120.668 17.216C120.471 16.912 120.212 16.6773 119.892 16.512C119.578 16.3467 119.194 16.264 118.74 16.264C118.324 16.264 117.956 16.336 117.636 16.48C117.322 16.624 117.055 16.832 116.836 17.104C116.623 17.3707 116.46 17.696 116.348 18.08C116.236 18.464 116.18 18.9013 116.18 19.392L115.348 19.208C115.348 18.3227 115.503 17.5787 115.812 16.976C116.122 16.3733 116.548 15.9173 117.092 15.608C117.636 15.2987 118.26 15.144 118.964 15.144C119.482 15.144 119.932 15.224 120.316 15.384C120.706 15.544 121.034 15.76 121.3 16.032C121.572 16.304 121.791 16.616 121.956 16.968C122.122 17.3147 122.242 17.6853 122.316 18.08C122.391 18.4693 122.428 18.8587 122.428 19.248V24H121.244ZM114.996 24V15.36H116.06V17.488H116.18V24H114.996ZM125.84 24V14.72C125.84 14.496 125.851 14.2747 125.872 14.056C125.899 13.8373 125.95 13.6293 126.024 13.432C126.099 13.2293 126.216 13.0427 126.376 12.872C126.552 12.68 126.744 12.5413 126.952 12.456C127.16 12.3653 127.376 12.3067 127.6 12.28C127.83 12.2533 128.054 12.24 128.272 12.24H129.376V13.232H128.352C127.904 13.232 127.568 13.3413 127.344 13.56C127.126 13.7787 127.016 14.1227 127.016 14.592V24H125.84ZM124.344 16.368V15.36H129.376V16.368H124.344ZM135.84 24C135.355 24.1013 134.875 24.1413 134.4 24.12C133.931 24.0987 133.51 23.9973 133.136 23.816C132.768 23.6347 132.488 23.352 132.296 22.968C132.142 22.648 132.056 22.3253 132.04 22C132.03 21.6693 132.024 21.2933 132.024 20.872V12.96H133.192V20.824C133.192 21.1867 133.195 21.4907 133.2 21.736C133.211 21.976 133.267 22.1893 133.368 22.376C133.56 22.7333 133.864 22.9467 134.28 23.016C134.702 23.0853 135.222 23.0693 135.84 22.968V24ZM130.176 16.368V15.36H135.84V16.368H130.176Z" fill="#0069D1"/>
</svg>
