<svg width="174" height="36" viewBox="0 0 174 36" fill="none" xmlns="http://www.w3.org/2000/svg">
<rect width="174" height="36" rx="18" fill="#C5E3FF" fill-opacity="0.4"/>
<path d="M32.992 18.352C32.992 17.1573 33.1947 16.1333 33.6 15.28C34.016 14.416 34.608 13.7493 35.376 13.28C36.1547 12.8107 37.088 12.576 38.176 12.576C39.232 12.576 40.1493 12.8107 40.928 13.28C41.7067 13.7493 42.304 14.416 42.72 15.28C43.1467 16.1333 43.36 17.152 43.36 18.336C43.36 19.5307 43.1467 20.56 42.72 21.424C42.2933 22.288 41.6907 22.96 40.912 23.44C40.144 23.9093 39.232 24.144 38.176 24.144C37.088 24.144 36.16 23.9093 35.392 23.44C34.624 22.96 34.032 22.288 33.616 21.424C33.2 20.56 32.992 19.536 32.992 18.352ZM34.384 18.352C34.384 19.8027 34.704 20.9387 35.344 21.76C35.984 22.5707 36.928 22.976 38.176 22.976C39.3707 22.976 40.2987 22.5707 40.96 21.76C41.632 20.9387 41.968 19.8027 41.968 18.352C41.968 16.8907 41.6373 15.76 40.976 14.96C40.3147 14.1493 39.3813 13.744 38.176 13.744C36.928 13.744 35.984 14.1493 35.344 14.96C34.704 15.76 34.384 16.8907 34.384 18.352ZM46.5194 24V16.976H44.9514V15.968H46.8714L46.5194 16.304V14.96C46.5194 14.0533 46.7487 13.36 47.2074 12.88C47.666 12.4 48.322 12.16 49.1754 12.16C49.3887 12.16 49.6074 12.1813 49.8314 12.224C50.066 12.256 50.258 12.304 50.4074 12.368V13.44C50.2794 13.3867 50.1194 13.344 49.9274 13.312C49.746 13.2693 49.5594 13.248 49.3674 13.248C49.0367 13.248 48.754 13.3173 48.5194 13.456C48.2847 13.584 48.1087 13.7813 47.9914 14.048C47.874 14.3147 47.8154 14.656 47.8154 15.072V16.24L47.6074 15.968H50.0554V16.976H47.8154V24H46.5194ZM52.1556 24V16.976H50.5876V15.968H52.5076L52.1556 16.304V14.96C52.1556 14.0533 52.385 13.36 52.8436 12.88C53.3023 12.4 53.9583 12.16 54.8116 12.16C55.025 12.16 55.2436 12.1813 55.4676 12.224C55.7023 12.256 55.8943 12.304 56.0436 12.368V13.44C55.9156 13.3867 55.7556 13.344 55.5636 13.312C55.3823 13.2693 55.1956 13.248 55.0036 13.248C54.673 13.248 54.3903 13.3173 54.1556 13.456C53.921 13.584 53.745 13.7813 53.6276 14.048C53.5103 14.3147 53.4516 14.656 53.4516 15.072V16.24L53.2436 15.968H55.6916V16.976H53.4516V24H52.1556ZM60.9751 24.144C59.7165 24.144 58.7245 23.7813 57.9991 23.056C57.2738 22.32 56.9111 21.3013 56.9111 20C56.9111 19.1573 57.0711 18.4267 57.3911 17.808C57.7111 17.1787 58.1591 16.6933 58.7351 16.352C59.3111 16 59.9725 15.824 60.7191 15.824C61.4551 15.824 62.0738 15.9787 62.5751 16.288C63.0765 16.5973 63.4605 17.04 63.7271 17.616C63.9938 18.1813 64.1271 18.8533 64.1271 19.632V20.112H57.9031V19.296H63.2791L63.0071 19.504C63.0071 18.6507 62.8151 17.984 62.4311 17.504C62.0471 17.024 61.4765 16.784 60.7191 16.784C59.9191 16.784 59.2951 17.0667 58.8471 17.632C58.3991 18.1867 58.1751 18.9387 58.1751 19.888V20.032C58.1751 21.0347 58.4205 21.7973 58.9111 22.32C59.4125 22.832 60.1111 23.088 61.0071 23.088C61.4871 23.088 61.9351 23.0187 62.3511 22.88C62.7778 22.7307 63.1831 22.4907 63.5671 22.16L64.0151 23.072C63.6631 23.4133 63.2151 23.68 62.6711 23.872C62.1378 24.0533 61.5725 24.144 60.9751 24.144ZM66.5902 24V17.824C66.5902 17.5253 66.5742 17.2213 66.5422 16.912C66.5209 16.592 66.4942 16.2773 66.4622 15.968H67.7102L67.8702 17.728H67.6782C67.9129 17.1093 68.2862 16.64 68.7982 16.32C69.3209 15.9893 69.9236 15.824 70.6062 15.824C71.5556 15.824 72.2702 16.08 72.7502 16.592C73.2409 17.0933 73.4862 17.888 73.4862 18.976V24H72.1902V19.056C72.1902 18.2987 72.0356 17.7493 71.7262 17.408C71.4276 17.056 70.9582 16.88 70.3182 16.88C69.5716 16.88 68.9796 17.1093 68.5422 17.568C68.1049 18.0267 67.8862 18.64 67.8862 19.408V24H66.5902ZM80.0133 24.144C78.7546 24.144 77.7626 23.7813 77.0373 23.056C76.3119 22.32 75.9493 21.3013 75.9493 20C75.9493 19.1573 76.1093 18.4267 76.4293 17.808C76.7493 17.1787 77.1973 16.6933 77.7733 16.352C78.3493 16 79.0106 15.824 79.7573 15.824C80.4933 15.824 81.1119 15.9787 81.6133 16.288C82.1146 16.5973 82.4986 17.04 82.7653 17.616C83.0319 18.1813 83.1653 18.8533 83.1653 19.632V20.112H76.9413V19.296H82.3173L82.0453 19.504C82.0453 18.6507 81.8533 17.984 81.4693 17.504C81.0853 17.024 80.5146 16.784 79.7573 16.784C78.9573 16.784 78.3333 17.0667 77.8853 17.632C77.4373 18.1867 77.2133 18.9387 77.2133 19.888V20.032C77.2133 21.0347 77.4586 21.7973 77.9493 22.32C78.4506 22.832 79.1493 23.088 80.0453 23.088C80.5253 23.088 80.9733 23.0187 81.3893 22.88C81.8159 22.7307 82.2213 22.4907 82.6053 22.16L83.0533 23.072C82.7013 23.4133 82.2533 23.68 81.7093 23.872C81.1759 24.0533 80.6106 24.144 80.0133 24.144ZM94.1043 24.144C93.1976 24.144 92.3869 24.0267 91.6723 23.792C90.9576 23.5573 90.3336 23.2213 89.8003 22.784L90.2803 21.728C90.6536 22.0053 91.0269 22.24 91.4003 22.432C91.7843 22.6133 92.1949 22.752 92.6323 22.848C93.0696 22.9333 93.5603 22.976 94.1043 22.976C95.0536 22.976 95.7576 22.8 96.2163 22.448C96.6749 22.096 96.9043 21.6267 96.9043 21.04C96.9043 20.5387 96.7443 20.1547 96.4243 19.888C96.1043 19.6213 95.5443 19.408 94.7443 19.248L93.0643 18.912C92.0296 18.6987 91.2563 18.352 90.7443 17.872C90.2429 17.392 89.9923 16.7413 89.9923 15.92C89.9923 15.248 90.1629 14.6613 90.5043 14.16C90.8563 13.6587 91.3469 13.2693 91.9763 12.992C92.6056 12.7147 93.3363 12.576 94.1683 12.576C94.9683 12.576 95.6989 12.6987 96.3603 12.944C97.0216 13.1787 97.5869 13.5253 98.0563 13.984L97.5923 15.008C97.0909 14.56 96.5629 14.24 96.0083 14.048C95.4643 13.8453 94.8456 13.744 94.1523 13.744C93.2776 13.744 92.5843 13.936 92.0723 14.32C91.5709 14.6933 91.3203 15.2053 91.3203 15.856C91.3203 16.3787 91.4803 16.7893 91.8003 17.088C92.1203 17.376 92.6483 17.5947 93.3843 17.744L95.0803 18.08C96.1683 18.304 96.9683 18.64 97.4803 19.088C97.9923 19.536 98.2483 20.1653 98.2483 20.976C98.2483 21.5947 98.0776 22.144 97.7363 22.624C97.4056 23.104 96.9309 23.4773 96.3123 23.744C95.6936 24.0107 94.9576 24.144 94.1043 24.144ZM103.546 24.144C102.756 24.144 102.154 23.92 101.738 23.472C101.322 23.0133 101.114 22.3253 101.114 21.408V16.976H99.5457V15.968H101.114V13.776L102.41 13.408V15.968H104.714V16.976H102.41V21.264C102.41 21.904 102.516 22.3627 102.73 22.64C102.954 22.9067 103.284 23.04 103.722 23.04C103.924 23.04 104.106 23.024 104.266 22.992C104.426 22.9493 104.57 22.9013 104.698 22.848V23.936C104.548 24 104.367 24.048 104.154 24.08C103.951 24.1227 103.748 24.144 103.546 24.144ZM110.261 24.144C109.003 24.144 108.011 23.7813 107.285 23.056C106.56 22.32 106.197 21.3013 106.197 20C106.197 19.1573 106.357 18.4267 106.677 17.808C106.997 17.1787 107.445 16.6933 108.021 16.352C108.597 16 109.259 15.824 110.005 15.824C110.741 15.824 111.36 15.9787 111.861 16.288C112.363 16.5973 112.747 17.04 113.013 17.616C113.28 18.1813 113.413 18.8533 113.413 19.632V20.112H107.189V19.296H112.565L112.293 19.504C112.293 18.6507 112.101 17.984 111.717 17.504C111.333 17.024 110.763 16.784 110.005 16.784C109.205 16.784 108.581 17.0667 108.133 17.632C107.685 18.1867 107.461 18.9387 107.461 19.888V20.032C107.461 21.0347 107.707 21.7973 108.197 22.32C108.699 22.832 109.397 23.088 110.293 23.088C110.773 23.088 111.221 23.0187 111.637 22.88C112.064 22.7307 112.469 22.4907 112.853 22.16L113.301 23.072C112.949 23.4133 112.501 23.68 111.957 23.872C111.424 24.0533 110.859 24.144 110.261 24.144ZM115.877 24V12.224H117.173V24H115.877ZM120.169 24V12.224H121.465V24H120.169ZM128.03 24.144C126.771 24.144 125.779 23.7813 125.054 23.056C124.328 22.32 123.966 21.3013 123.966 20C123.966 19.1573 124.126 18.4267 124.446 17.808C124.766 17.1787 125.214 16.6933 125.79 16.352C126.366 16 127.027 15.824 127.774 15.824C128.51 15.824 129.128 15.9787 129.63 16.288C130.131 16.5973 130.515 17.04 130.782 17.616C131.048 18.1813 131.182 18.8533 131.182 19.632V20.112H124.958V19.296H130.334L130.062 19.504C130.062 18.6507 129.87 17.984 129.486 17.504C129.102 17.024 128.531 16.784 127.774 16.784C126.974 16.784 126.35 17.0667 125.902 17.632C125.454 18.1867 125.23 18.9387 125.23 19.888V20.032C125.23 21.0347 125.475 21.7973 125.966 22.32C126.467 22.832 127.166 23.088 128.062 23.088C128.542 23.088 128.99 23.0187 129.406 22.88C129.832 22.7307 130.238 22.4907 130.622 22.16L131.07 23.072C130.718 23.4133 130.27 23.68 129.726 23.872C129.192 24.0533 128.627 24.144 128.03 24.144ZM133.645 24V17.824C133.645 17.5253 133.629 17.2213 133.597 16.912C133.575 16.592 133.549 16.2773 133.517 15.968H134.765L134.925 17.728H134.733C134.967 17.1093 135.341 16.64 135.853 16.32C136.375 15.9893 136.978 15.824 137.661 15.824C138.61 15.824 139.325 16.08 139.805 16.592C140.295 17.0933 140.541 17.888 140.541 18.976V24H139.245V19.056C139.245 18.2987 139.09 17.7493 138.781 17.408C138.482 17.056 138.013 16.88 137.373 16.88C136.626 16.88 136.034 17.1093 135.597 17.568C135.159 18.0267 134.941 18.64 134.941 19.408V24H133.645Z" fill="#6FB9FE"/>
</svg>
