<svg width="160" height="36" viewBox="0 0 160 36" fill="none" xmlns="http://www.w3.org/2000/svg">
<rect width="160" height="36" rx="18" fill="#03A8E2" fill-opacity="0.2"/>
<g clip-path="url(#clip0_631_388)">
<path d="M52.6995 20.317C51.9076 20.0411 51.2814 19.4328 50.982 18.6487L50.8095 18.1967H48.8657C48.1224 16.3189 46.6173 14.8229 44.7341 14.092C45.868 13.2761 46.6074 11.9453 46.6074 10.4447C46.6074 7.9682 44.5925 5.95312 42.1158 5.95312C39.6392 5.95312 37.6243 7.9682 37.6243 10.4447C37.6243 11.9453 38.3636 13.2761 39.4976 14.0925C36.7864 15.1445 34.8594 17.7814 34.8594 20.8601V24.9976H43.3853C43.5761 25.5412 43.8239 26.0665 44.1267 26.5631C44.9205 27.8668 46.0565 28.9268 47.4125 29.6274L48.0424 29.9531L48.6721 29.6274C50.0278 28.9268 51.1644 27.8668 51.9576 26.5631C52.7515 25.2596 53.1708 23.7636 53.1708 22.2374V20.4814L52.6995 20.317ZM51.7651 22.2374C51.7651 24.8275 50.3391 27.1762 48.0424 28.3705C46.6056 27.6231 45.5095 26.4245 44.8901 24.9976C44.6956 24.5491 44.5479 24.0782 44.4519 23.5917C44.3642 23.1511 44.3193 22.6981 44.3193 22.2374V21.4479C45.1318 21.0504 45.7941 20.4047 46.2125 19.6024H49.8718C50.2904 20.4047 50.9529 21.0504 51.7651 21.4479V22.2374ZM39.03 10.4447C39.03 8.74329 40.4142 7.35901 42.1158 7.35901C43.8174 7.35901 45.2017 8.74329 45.2017 10.4447C45.2017 12.1463 43.8174 13.5306 42.1158 13.5306C40.4142 13.5306 39.03 12.1463 39.03 10.4447ZM36.2653 23.5917V20.8601C36.2653 17.6342 38.8899 15.0095 42.1158 15.0095C44.3831 15.0095 46.3535 16.3063 47.3239 18.1967H45.2751L45.1028 18.6487C44.8033 19.4328 44.1772 20.0411 43.3853 20.317L42.9135 20.4814V22.2374C42.9135 22.693 42.951 23.1456 43.025 23.5917H36.2653Z" fill="#6FB9FE"/>
<path d="M49.3718 21.7391L47.9659 23.0981L47.4974 23.551L46.3521 22.4694L45.3867 23.4913L45.4931 23.5916L46.9814 24.9975L47.5085 25.4952L48.0236 24.9975L49.3718 23.6943L50.6281 22.4802L49.6511 21.4692L49.3718 21.7391Z" fill="#6FB9FE"/>
</g>
<path d="M67.4478 24V12.48H68.6238V17.92L73.8798 12.48H75.3838L70.0158 18.04L75.8238 24H74.2878L68.6238 18.24V24H67.4478ZM79.8998 24.24C79.2491 24.24 78.7025 24.1227 78.2598 23.888C77.8225 23.6533 77.4945 23.3413 77.2758 22.952C77.0571 22.5627 76.9478 22.1387 76.9478 21.68C76.9478 21.2107 77.0411 20.8107 77.2278 20.48C77.4198 20.144 77.6785 19.8693 78.0038 19.656C78.3345 19.4427 78.7158 19.28 79.1478 19.168C79.5851 19.0613 80.0678 18.968 80.5958 18.888C81.1291 18.8027 81.6491 18.7307 82.1558 18.672C82.6678 18.608 83.1158 18.5467 83.4998 18.488L83.0838 18.744C83.0998 17.8907 82.9345 17.2587 82.5878 16.848C82.2411 16.4373 81.6385 16.232 80.7798 16.232C80.1878 16.232 79.6865 16.3653 79.2758 16.632C78.8705 16.8987 78.5851 17.32 78.4198 17.896L77.2758 17.56C77.4731 16.7867 77.8705 16.1867 78.4678 15.76C79.0651 15.3333 79.8411 15.12 80.7958 15.12C81.5851 15.12 82.2545 15.2693 82.8038 15.568C83.3585 15.8613 83.7505 16.288 83.9798 16.848C84.0865 17.0987 84.1558 17.3787 84.1878 17.688C84.2198 17.9973 84.2358 18.312 84.2358 18.632V24H83.1878V21.832L83.4918 21.96C83.1985 22.7013 82.7425 23.2667 82.1238 23.656C81.5051 24.0453 80.7638 24.24 79.8998 24.24ZM80.0358 23.224C80.5851 23.224 81.0651 23.1253 81.4758 22.928C81.8865 22.7307 82.2171 22.4613 82.4678 22.12C82.7185 21.7733 82.8811 21.384 82.9558 20.952C83.0198 20.6747 83.0545 20.3707 83.0598 20.04C83.0651 19.704 83.0678 19.4533 83.0678 19.288L83.5158 19.52C83.1158 19.5733 82.6811 19.6267 82.2118 19.68C81.7478 19.7333 81.2891 19.7947 80.8358 19.864C80.3878 19.9333 79.9825 20.016 79.6198 20.112C79.3745 20.1813 79.1371 20.28 78.9078 20.408C78.6785 20.5307 78.4891 20.696 78.3398 20.904C78.1958 21.112 78.1238 21.3707 78.1238 21.68C78.1238 21.9307 78.1851 22.1733 78.3078 22.408C78.4358 22.6427 78.6385 22.8373 78.9158 22.992C79.1985 23.1467 79.5718 23.224 80.0358 23.224ZM86.7984 24V15.36H87.8544V17.44L87.6464 17.168C87.7424 16.912 87.8678 16.6773 88.0224 16.464C88.1771 16.2453 88.3451 16.0667 88.5264 15.928C88.7504 15.7307 89.0118 15.5813 89.3104 15.48C89.6091 15.3733 89.9104 15.312 90.2144 15.296C90.5184 15.2747 90.7958 15.296 91.0464 15.36V16.464C90.7318 16.384 90.3878 16.3653 90.0144 16.408C89.6411 16.4507 89.2971 16.6 88.9824 16.856C88.6944 17.08 88.4784 17.3493 88.3344 17.664C88.1904 17.9733 88.0944 18.304 88.0464 18.656C87.9984 19.0027 87.9744 19.3467 87.9744 19.688V24H86.7984ZM93.0441 24V15.36H94.1001V17.44L93.8921 17.168C93.9881 16.912 94.1134 16.6773 94.2681 16.464C94.4227 16.2453 94.5907 16.0667 94.7721 15.928C94.9961 15.7307 95.2574 15.5813 95.5561 15.48C95.8547 15.3733 96.1561 15.312 96.4601 15.296C96.7641 15.2747 97.0414 15.296 97.2921 15.36V16.464C96.9774 16.384 96.6334 16.3653 96.2601 16.408C95.8867 16.4507 95.5427 16.6 95.2281 16.856C94.9401 17.08 94.7241 17.3493 94.5801 17.664C94.4361 17.9733 94.3401 18.304 94.2921 18.656C94.2441 19.0027 94.2201 19.3467 94.2201 19.688V24H93.0441ZM99.4497 13.72V12.4H100.626V13.72H99.4497ZM99.4497 24V15.36H100.626V24H99.4497ZM107.16 24.24C106.317 24.24 105.587 24.0533 104.968 23.68C104.355 23.3067 103.877 22.7813 103.536 22.104C103.195 21.4267 103.024 20.632 103.024 19.72C103.024 18.776 103.192 17.96 103.528 17.272C103.864 16.584 104.336 16.0533 104.944 15.68C105.557 15.3067 106.28 15.12 107.112 15.12C107.965 15.12 108.693 15.3173 109.296 15.712C109.899 16.1013 110.355 16.6613 110.664 17.392C110.973 18.1227 111.115 18.9947 111.088 20.008H109.888V19.592C109.867 18.472 109.624 17.6267 109.16 17.056C108.701 16.4853 108.029 16.2 107.144 16.2C106.216 16.2 105.504 16.5013 105.008 17.104C104.517 17.7067 104.272 18.5653 104.272 19.68C104.272 20.768 104.517 21.6133 105.008 22.216C105.504 22.8133 106.205 23.112 107.112 23.112C107.731 23.112 108.269 22.9707 108.728 22.688C109.192 22.4 109.557 21.9867 109.824 21.448L110.92 21.872C110.579 22.624 110.075 23.208 109.408 23.624C108.747 24.0347 107.997 24.24 107.16 24.24ZM103.856 20.008V19.024H110.456V20.008H103.856ZM113.343 24V15.36H114.399V17.44L114.191 17.168C114.287 16.912 114.413 16.6773 114.567 16.464C114.722 16.2453 114.89 16.0667 115.071 15.928C115.295 15.7307 115.557 15.5813 115.855 15.48C116.154 15.3733 116.455 15.312 116.759 15.296C117.063 15.2747 117.341 15.296 117.591 15.36V16.464C117.277 16.384 116.933 16.3653 116.559 16.408C116.186 16.4507 115.842 16.6 115.527 16.856C115.239 17.08 115.023 17.3493 114.879 17.664C114.735 17.9733 114.639 18.304 114.591 18.656C114.543 19.0027 114.519 19.3467 114.519 19.688V24H113.343ZM123.089 24.24C122.246 24.24 121.515 24.0533 120.897 23.68C120.283 23.3067 119.806 22.7813 119.465 22.104C119.123 21.4267 118.953 20.632 118.953 19.72C118.953 18.776 119.121 17.96 119.457 17.272C119.793 16.584 120.265 16.0533 120.873 15.68C121.486 15.3067 122.209 15.12 123.041 15.12C123.894 15.12 124.622 15.3173 125.225 15.712C125.827 16.1013 126.283 16.6613 126.593 17.392C126.902 18.1227 127.043 18.9947 127.017 20.008H125.817V19.592C125.795 18.472 125.553 17.6267 125.089 17.056C124.63 16.4853 123.958 16.2 123.073 16.2C122.145 16.2 121.433 16.5013 120.937 17.104C120.446 17.7067 120.201 18.5653 120.201 19.68C120.201 20.768 120.446 21.6133 120.937 22.216C121.433 22.8133 122.134 23.112 123.041 23.112C123.659 23.112 124.198 22.9707 124.657 22.688C125.121 22.4 125.486 21.9867 125.753 21.448L126.849 21.872C126.507 22.624 126.003 23.208 125.337 23.624C124.675 24.0347 123.926 24.24 123.089 24.24ZM119.785 20.008V19.024H126.385V20.008H119.785Z" fill="#0069D1"/>
<defs>
<clipPath id="clip0_631_388">
<rect width="24" height="24" fill="white" transform="translate(32 6)"/>
</clipPath>
</defs>
</svg>
