<svg width="233" height="36" viewBox="0 0 233 36" fill="none" xmlns="http://www.w3.org/2000/svg">
<rect width="233" height="36" rx="18" fill="#03A8E2" fill-opacity="0.2"/>
<path d="M53.9406 10.6051C51.9682 9.91736 50.4096 8.40326 49.6644 6.45062L49.4922 6H38.512L38.34 6.45062C37.5946 8.40326 36.036 9.91736 34.0638 10.6051L33.5938 10.7688V14.0229C33.5938 17.2165 34.4716 20.3463 36.132 23.074C37.7925 25.8019 40.1698 28.0188 43.0067 29.4855L44.0022 30L44.9976 29.4853C47.8344 28.0188 50.2117 25.8019 51.8723 23.074C53.5327 20.3463 54.4105 17.2165 54.4105 14.0229V10.7688L53.9406 10.6051ZM53.0093 14.0229C53.0093 20.033 49.6929 25.481 44.3541 28.2407L44.0022 28.4227L43.6501 28.2407C38.3113 25.481 34.9949 20.033 34.9949 14.0229V11.7486C36.9854 10.92 38.5788 9.36951 39.4619 7.40112H48.5421C49.4254 9.36951 51.0188 10.92 53.0093 11.7486V14.0229Z" fill="#6FB9FE"/>
<path d="M47.3711 9.13086L47.4297 9.22852C47.8947 10.0071 48.3296 10.6427 48.9014 11.2012C49.4757 11.7621 50.1674 12.2256 51.126 12.6943L51.2373 12.749V14.8965C51.108 17.1389 50.4587 19.3023 49.3643 21.1533C48.2161 23.0953 46.5661 24.7022 44.5928 25.7998L44.582 25.8057L44.002 26.1055L43.4111 25.7998C41.4378 24.7022 39.7878 23.0954 38.6396 21.1533C37.5452 19.3022 36.8949 17.1389 36.7656 14.8965V12.749L36.8779 12.6943C37.8364 12.2256 38.5282 11.7621 39.1025 11.2012C39.6744 10.6427 40.1093 10.0072 40.5742 9.22852L40.6328 9.13086H47.3711ZM50.8369 13.0029L50.5703 12.8623C48.9301 11.9965 48.1268 11.1129 47.2881 9.76758L47.1416 9.53223H40.8623L40.7148 9.76758C39.8764 11.1127 39.0738 11.9966 37.4336 12.8623L37.167 13.0029V14.8809C37.4295 19.3894 39.8264 23.3451 43.6016 25.4473L43.6084 25.4502L43.6152 25.4541L43.7725 25.5352L44.002 25.6543L44.2314 25.5352L44.3887 25.4541L44.3955 25.4502L44.4023 25.4473C48.1777 23.3451 50.5744 19.3894 50.8369 14.8809L50.8672 14.3516H50.8369V13.0029Z" fill="#6FB9FE" stroke="#6FB9FE"/>
<path d="M43.0497 17.9505L40.4528 15.498L39.4907 16.5166L43.0609 19.8883L48.5191 14.6127L47.5453 13.6052L43.0497 17.9505Z" fill="#6FB9FE"/>
<path d="M71.12 24.24C70.3147 24.24 69.5893 24.1067 68.944 23.84C68.304 23.568 67.7733 23.184 67.352 22.688C66.936 22.192 66.664 21.6027 66.536 20.92L67.736 20.72C67.928 21.4667 68.3333 22.0533 68.952 22.48C69.5707 22.9013 70.3093 23.112 71.168 23.112C71.7333 23.112 72.24 23.024 72.688 22.848C73.136 22.6667 73.488 22.4107 73.744 22.08C74 21.7493 74.128 21.3573 74.128 20.904C74.128 20.6053 74.0747 20.352 73.968 20.144C73.8613 19.9307 73.72 19.7547 73.544 19.616C73.368 19.4773 73.176 19.3627 72.968 19.272C72.76 19.176 72.5573 19.0987 72.36 19.04L69.44 18.168C69.088 18.0667 68.7627 17.9387 68.464 17.784C68.1653 17.624 67.904 17.4347 67.68 17.216C67.4613 16.992 67.2907 16.7307 67.168 16.432C67.0453 16.1333 66.984 15.792 66.984 15.408C66.984 14.7573 67.1547 14.1947 67.496 13.72C67.8373 13.2453 68.304 12.88 68.896 12.624C69.488 12.368 70.1627 12.2427 70.92 12.248C71.688 12.248 72.3733 12.384 72.976 12.656C73.584 12.928 74.0853 13.3173 74.48 13.824C74.8747 14.3253 75.136 14.92 75.264 15.608L74.032 15.832C73.952 15.3307 73.768 14.896 73.48 14.528C73.192 14.16 72.824 13.8773 72.376 13.68C71.9333 13.4773 71.4453 13.3733 70.912 13.368C70.3947 13.368 69.9333 13.456 69.528 13.632C69.128 13.8027 68.8107 14.0373 68.576 14.336C68.3413 14.6347 68.224 14.976 68.224 15.36C68.224 15.7493 68.3307 16.0613 68.544 16.296C68.7627 16.5307 69.0293 16.7147 69.344 16.848C69.664 16.9813 69.9733 17.0907 70.272 17.176L72.528 17.84C72.7627 17.904 73.0373 17.9973 73.352 18.12C73.672 18.2373 73.9813 18.408 74.28 18.632C74.584 18.8507 74.8347 19.1387 75.032 19.496C75.2293 19.8533 75.328 20.3067 75.328 20.856C75.328 21.3893 75.2213 21.8667 75.008 22.288C74.8 22.7093 74.504 23.064 74.12 23.352C73.7413 23.64 73.296 23.8587 72.784 24.008C72.2773 24.1627 71.7227 24.24 71.12 24.24ZM81.0434 24.24C80.174 24.24 79.438 24.0453 78.8354 23.656C78.2327 23.2667 77.774 22.7307 77.4594 22.048C77.15 21.36 76.99 20.5707 76.9794 19.68C76.99 18.7733 77.1554 17.9787 77.4754 17.296C77.7954 16.608 78.2567 16.0747 78.8594 15.696C79.462 15.312 80.1927 15.12 81.0514 15.12C81.926 15.12 82.686 15.3333 83.3314 15.76C83.982 16.1867 84.4274 16.7707 84.6674 17.512L83.5154 17.88C83.3127 17.3627 82.99 16.9627 82.5474 16.68C82.11 16.392 81.6087 16.248 81.0434 16.248C80.4087 16.248 79.8834 16.3947 79.4674 16.688C79.0514 16.976 78.742 17.3787 78.5394 17.896C78.3367 18.4133 78.2327 19.008 78.2274 19.68C78.238 20.7147 78.478 21.5467 78.9474 22.176C79.4167 22.8 80.1154 23.112 81.0434 23.112C81.63 23.112 82.1287 22.9787 82.5394 22.712C82.9554 22.44 83.27 22.0453 83.4834 21.528L84.6674 21.88C84.3474 22.648 83.878 23.2347 83.2594 23.64C82.6407 24.04 81.902 24.24 81.0434 24.24ZM93.0387 24V19.592C93.0387 19.112 92.9934 18.672 92.9027 18.272C92.8121 17.8667 92.6654 17.5147 92.4627 17.216C92.2654 16.912 92.0067 16.6773 91.6867 16.512C91.3721 16.3467 90.9881 16.264 90.5347 16.264C90.1187 16.264 89.7507 16.336 89.4307 16.48C89.1161 16.624 88.8494 16.832 88.6307 17.104C88.4174 17.3707 88.2547 17.696 88.1427 18.08C88.0307 18.464 87.9747 18.9013 87.9747 19.392L87.1427 19.208C87.1427 18.3227 87.2974 17.5787 87.6067 16.976C87.9161 16.3733 88.3427 15.9173 88.8867 15.608C89.4307 15.2987 90.0547 15.144 90.7587 15.144C91.2761 15.144 91.7267 15.224 92.1107 15.384C92.5001 15.544 92.8281 15.76 93.0947 16.032C93.3667 16.304 93.5854 16.616 93.7507 16.968C93.9161 17.3147 94.0361 17.6853 94.1107 18.08C94.1854 18.4693 94.2227 18.8587 94.2227 19.248V24H93.0387ZM86.7907 24V12.48H87.8547V18.984H87.9747V24H86.7907ZM96.7788 24V15.36H97.8348V17.44L97.6268 17.168C97.7228 16.912 97.8481 16.6773 98.0028 16.464C98.1574 16.2453 98.3254 16.0667 98.5068 15.928C98.7308 15.7307 98.9921 15.5813 99.2908 15.48C99.5894 15.3733 99.8908 15.312 100.195 15.296C100.499 15.2747 100.776 15.296 101.027 15.36V16.464C100.712 16.384 100.368 16.3653 99.9948 16.408C99.6214 16.4507 99.2774 16.6 98.9628 16.856C98.6748 17.08 98.4588 17.3493 98.3148 17.664C98.1708 17.9733 98.0748 18.304 98.0268 18.656C97.9788 19.0027 97.9548 19.3467 97.9548 19.688V24H96.7788ZM103.184 13.72V12.4H104.36V13.72H103.184ZM103.184 24V15.36H104.36V24H103.184ZM111.943 24C111.457 24.1013 110.977 24.1413 110.503 24.12C110.033 24.0987 109.612 23.9973 109.239 23.816C108.871 23.6347 108.591 23.352 108.399 22.968C108.244 22.648 108.159 22.3253 108.143 22C108.132 21.6693 108.127 21.2933 108.127 20.872V12.96H109.295V20.824C109.295 21.1867 109.297 21.4907 109.303 21.736C109.313 21.976 109.369 22.1893 109.471 22.376C109.663 22.7333 109.967 22.9467 110.383 23.016C110.804 23.0853 111.324 23.0693 111.943 22.968V24ZM106.279 16.368V15.36H111.943V16.368H106.279ZM117.391 24C116.905 24.1013 116.425 24.1413 115.951 24.12C115.481 24.0987 115.06 23.9973 114.687 23.816C114.319 23.6347 114.039 23.352 113.847 22.968C113.692 22.648 113.607 22.3253 113.591 22C113.58 21.6693 113.575 21.2933 113.575 20.872V12.96H114.743V20.824C114.743 21.1867 114.745 21.4907 114.751 21.736C114.761 21.976 114.817 22.1893 114.919 22.376C115.111 22.7333 115.415 22.9467 115.831 23.016C116.252 23.0853 116.772 23.0693 117.391 22.968V24ZM111.727 16.368V15.36H117.391V16.368H111.727ZM124.117 24V14.72C124.117 14.496 124.128 14.2747 124.149 14.056C124.176 13.8373 124.227 13.6293 124.301 13.432C124.376 13.2293 124.493 13.0427 124.653 12.872C124.829 12.68 125.021 12.5413 125.229 12.456C125.437 12.3653 125.653 12.3067 125.877 12.28C126.107 12.2533 126.331 12.24 126.549 12.24H127.653V13.232H126.629C126.181 13.232 125.845 13.3413 125.621 13.56C125.403 13.7787 125.293 14.1227 125.293 14.592V24H124.117ZM122.621 16.368V15.36H127.653V16.368H122.621ZM133.845 13.672V12.392H135.125V13.672H133.845ZM130.797 13.672V12.392H132.077V13.672H130.797ZM132.717 24.216C132.2 24.216 131.746 24.136 131.357 23.976C130.973 23.816 130.645 23.6 130.373 23.328C130.106 23.056 129.89 22.7467 129.725 22.4C129.56 22.048 129.44 21.6773 129.365 21.288C129.29 20.8933 129.253 20.5013 129.253 20.112V15.36H130.437V19.768C130.437 20.2427 130.482 20.6827 130.573 21.088C130.664 21.4933 130.808 21.848 131.005 22.152C131.208 22.4507 131.466 22.6827 131.781 22.848C132.101 23.0133 132.488 23.096 132.941 23.096C133.357 23.096 133.722 23.024 134.037 22.88C134.357 22.736 134.624 22.5307 134.837 22.264C135.056 21.992 135.221 21.664 135.333 21.28C135.445 20.8907 135.501 20.4533 135.501 19.968L136.333 20.152C136.333 21.0373 136.178 21.7813 135.869 22.384C135.56 22.9867 135.133 23.4427 134.589 23.752C134.045 24.0613 133.421 24.216 132.717 24.216ZM135.621 24V21.872H135.501V15.36H136.677V24H135.621ZM139.393 24V15.36H140.449V17.44L140.241 17.168C140.337 16.912 140.462 16.6773 140.617 16.464C140.772 16.2453 140.94 16.0667 141.121 15.928C141.345 15.7307 141.606 15.5813 141.905 15.48C142.204 15.3733 142.505 15.312 142.809 15.296C143.113 15.2747 143.39 15.296 143.641 15.36V16.464C143.326 16.384 142.982 16.3653 142.609 16.408C142.236 16.4507 141.892 16.6 141.577 16.856C141.289 17.08 141.073 17.3493 140.929 17.664C140.785 17.9733 140.689 18.304 140.641 18.656C140.593 19.0027 140.569 19.3467 140.569 19.688V24H139.393ZM153.322 24.24C152.517 24.24 151.791 24.1067 151.146 23.84C150.506 23.568 149.975 23.184 149.554 22.688C149.138 22.192 148.866 21.6027 148.738 20.92L149.938 20.72C150.13 21.4667 150.535 22.0533 151.154 22.48C151.773 22.9013 152.511 23.112 153.37 23.112C153.935 23.112 154.442 23.024 154.89 22.848C155.338 22.6667 155.69 22.4107 155.946 22.08C156.202 21.7493 156.33 21.3573 156.33 20.904C156.33 20.6053 156.277 20.352 156.17 20.144C156.063 19.9307 155.922 19.7547 155.746 19.616C155.57 19.4773 155.378 19.3627 155.17 19.272C154.962 19.176 154.759 19.0987 154.562 19.04L151.642 18.168C151.29 18.0667 150.965 17.9387 150.666 17.784C150.367 17.624 150.106 17.4347 149.882 17.216C149.663 16.992 149.493 16.7307 149.37 16.432C149.247 16.1333 149.186 15.792 149.186 15.408C149.186 14.7573 149.357 14.1947 149.698 13.72C150.039 13.2453 150.506 12.88 151.098 12.624C151.69 12.368 152.365 12.2427 153.122 12.248C153.89 12.248 154.575 12.384 155.178 12.656C155.786 12.928 156.287 13.3173 156.682 13.824C157.077 14.3253 157.338 14.92 157.466 15.608L156.234 15.832C156.154 15.3307 155.97 14.896 155.682 14.528C155.394 14.16 155.026 13.8773 154.578 13.68C154.135 13.4773 153.647 13.3733 153.114 13.368C152.597 13.368 152.135 13.456 151.73 13.632C151.33 13.8027 151.013 14.0373 150.778 14.336C150.543 14.6347 150.426 14.976 150.426 15.36C150.426 15.7493 150.533 16.0613 150.746 16.296C150.965 16.5307 151.231 16.7147 151.546 16.848C151.866 16.9813 152.175 17.0907 152.474 17.176L154.73 17.84C154.965 17.904 155.239 17.9973 155.554 18.12C155.874 18.2373 156.183 18.408 156.482 18.632C156.786 18.8507 157.037 19.1387 157.234 19.496C157.431 19.8533 157.53 20.3067 157.53 20.856C157.53 21.3893 157.423 21.8667 157.21 22.288C157.002 22.7093 156.706 23.064 156.322 23.352C155.943 23.64 155.498 23.8587 154.986 24.008C154.479 24.1627 153.925 24.24 153.322 24.24ZM163.245 24.24C162.376 24.24 161.64 24.0453 161.037 23.656C160.435 23.2667 159.976 22.7307 159.661 22.048C159.352 21.36 159.192 20.5707 159.181 19.68C159.192 18.7733 159.357 17.9787 159.677 17.296C159.997 16.608 160.459 16.0747 161.061 15.696C161.664 15.312 162.395 15.12 163.253 15.12C164.128 15.12 164.888 15.3333 165.533 15.76C166.184 16.1867 166.629 16.7707 166.869 17.512L165.717 17.88C165.515 17.3627 165.192 16.9627 164.749 16.68C164.312 16.392 163.811 16.248 163.245 16.248C162.611 16.248 162.085 16.3947 161.669 16.688C161.253 16.976 160.944 17.3787 160.741 17.896C160.539 18.4133 160.435 19.008 160.429 19.68C160.44 20.7147 160.68 21.5467 161.149 22.176C161.619 22.8 162.317 23.112 163.245 23.112C163.832 23.112 164.331 22.9787 164.741 22.712C165.157 22.44 165.472 22.0453 165.685 21.528L166.869 21.88C166.549 22.648 166.08 23.2347 165.461 23.64C164.843 24.04 164.104 24.24 163.245 24.24ZM175.241 24V19.592C175.241 19.112 175.195 18.672 175.105 18.272C175.014 17.8667 174.867 17.5147 174.665 17.216C174.467 16.912 174.209 16.6773 173.889 16.512C173.574 16.3467 173.19 16.264 172.737 16.264C172.321 16.264 171.953 16.336 171.633 16.48C171.318 16.624 171.051 16.832 170.833 17.104C170.619 17.3707 170.457 17.696 170.345 18.08C170.233 18.464 170.177 18.9013 170.177 19.392L169.345 19.208C169.345 18.3227 169.499 17.5787 169.809 16.976C170.118 16.3733 170.545 15.9173 171.089 15.608C171.633 15.2987 172.257 15.144 172.961 15.144C173.478 15.144 173.929 15.224 174.313 15.384C174.702 15.544 175.03 15.76 175.297 16.032C175.569 16.304 175.787 16.616 175.953 16.968C176.118 17.3147 176.238 17.6853 176.313 18.08C176.387 18.4693 176.425 18.8587 176.425 19.248V24H175.241ZM168.993 24V12.48H170.057V18.984H170.177V24H168.993ZM178.981 24V15.36H180.037V17.44L179.829 17.168C179.925 16.912 180.05 16.6773 180.205 16.464C180.359 16.2453 180.527 16.0667 180.709 15.928C180.933 15.7307 181.194 15.5813 181.493 15.48C181.791 15.3733 182.093 15.312 182.397 15.296C182.701 15.2747 182.978 15.296 183.229 15.36V16.464C182.914 16.384 182.57 16.3653 182.197 16.408C181.823 16.4507 181.479 16.6 181.165 16.856C180.877 17.08 180.661 17.3493 180.517 17.664C180.373 17.9733 180.277 18.304 180.229 18.656C180.181 19.0027 180.157 19.3467 180.157 19.688V24H178.981ZM185.386 13.72V12.4H186.562V13.72H185.386ZM185.386 24V15.36H186.562V24H185.386ZM194.145 24C193.659 24.1013 193.179 24.1413 192.705 24.12C192.235 24.0987 191.814 23.9973 191.441 23.816C191.073 23.6347 190.793 23.352 190.601 22.968C190.446 22.648 190.361 22.3253 190.345 22C190.334 21.6693 190.329 21.2933 190.329 20.872V12.96H191.497V20.824C191.497 21.1867 191.499 21.4907 191.505 21.736C191.515 21.976 191.571 22.1893 191.673 22.376C191.865 22.7333 192.169 22.9467 192.585 23.016C193.006 23.0853 193.526 23.0693 194.145 22.968V24ZM188.481 16.368V15.36H194.145V16.368H188.481ZM199.593 24C199.107 24.1013 198.627 24.1413 198.153 24.12C197.683 24.0987 197.262 23.9973 196.889 23.816C196.521 23.6347 196.241 23.352 196.049 22.968C195.894 22.648 195.809 22.3253 195.793 22C195.782 21.6693 195.777 21.2933 195.777 20.872V12.96H196.945V20.824C196.945 21.1867 196.947 21.4907 196.953 21.736C196.963 21.976 197.019 22.1893 197.121 22.376C197.313 22.7333 197.617 22.9467 198.033 23.016C198.454 23.0853 198.974 23.0693 199.593 22.968V24ZM193.929 16.368V15.36H199.593V16.368H193.929Z" fill="#0069D1"/>
</svg>
