<svg width="160" height="36" viewBox="0 0 160 36" fill="none" xmlns="http://www.w3.org/2000/svg">
<rect width="160" height="36" rx="18" fill="#03A8E2" fill-opacity="0.2"/>
<path d="M53.9406 10.6051C51.9682 9.91736 50.4096 8.40326 49.6644 6.45062L49.4922 6H38.512L38.34 6.45062C37.5946 8.40326 36.036 9.91736 34.0638 10.6051L33.5938 10.7688V14.0229C33.5938 17.2165 34.4716 20.3463 36.132 23.074C37.7925 25.8019 40.1698 28.0188 43.0067 29.4855L44.0022 30L44.9976 29.4853C47.8344 28.0188 50.2117 25.8019 51.8723 23.074C53.5327 20.3463 54.4105 17.2165 54.4105 14.0229V10.7688L53.9406 10.6051ZM53.0093 14.0229C53.0093 20.033 49.6929 25.481 44.3541 28.2407L44.0022 28.4227L43.6501 28.2407C38.3113 25.481 34.9949 20.033 34.9949 14.0229V11.7486C36.9854 10.92 38.5788 9.36951 39.4619 7.40112H48.5421C49.4254 9.36951 51.0188 10.92 53.0093 11.7486V14.0229Z" fill="#6FB9FE"/>
<path d="M47.3711 9.13086L47.4297 9.22852C47.8947 10.0071 48.3296 10.6427 48.9014 11.2012C49.4757 11.7621 50.1674 12.2256 51.126 12.6943L51.2373 12.749V14.8965C51.108 17.1389 50.4587 19.3023 49.3643 21.1533C48.2161 23.0953 46.5661 24.7022 44.5928 25.7998L44.582 25.8057L44.002 26.1055L43.4111 25.7998C41.4378 24.7022 39.7878 23.0954 38.6396 21.1533C37.5452 19.3022 36.8949 17.1389 36.7656 14.8965V12.749L36.8779 12.6943C37.8364 12.2256 38.5282 11.7621 39.1025 11.2012C39.6744 10.6427 40.1093 10.0072 40.5742 9.22852L40.6328 9.13086H47.3711ZM50.8369 13.0029L50.5703 12.8623C48.9301 11.9965 48.1268 11.1129 47.2881 9.76758L47.1416 9.53223H40.8623L40.7148 9.76758C39.8764 11.1127 39.0738 11.9966 37.4336 12.8623L37.167 13.0029V14.8809C37.4295 19.3894 39.8264 23.3451 43.6016 25.4473L43.6084 25.4502L43.6152 25.4541L43.7725 25.5352L44.002 25.6543L44.2314 25.5352L44.3887 25.4541L44.3955 25.4502L44.4023 25.4473C48.1777 23.3451 50.5744 19.3894 50.8369 14.8809L50.8672 14.3516H50.8369V13.0029Z" fill="#6FB9FE" stroke="#6FB9FE"/>
<path d="M43.0502 17.9505L40.4532 15.498L39.4912 16.5166L43.0614 19.8883L48.5196 14.6127L47.5458 13.6052L43.0502 17.9505Z" fill="#6FB9FE"/>
<path d="M67.12 24V12.48H68.296V17.92L73.552 12.48H75.056L69.688 18.04L75.496 24H73.96L68.296 18.24V24H67.12ZM79.572 24.24C78.9213 24.24 78.3747 24.1227 77.932 23.888C77.4947 23.6533 77.1667 23.3413 76.948 22.952C76.7293 22.5627 76.62 22.1387 76.62 21.68C76.62 21.2107 76.7133 20.8107 76.9 20.48C77.092 20.144 77.3507 19.8693 77.676 19.656C78.0067 19.4427 78.388 19.28 78.82 19.168C79.2573 19.0613 79.74 18.968 80.268 18.888C80.8013 18.8027 81.3213 18.7307 81.828 18.672C82.34 18.608 82.788 18.5467 83.172 18.488L82.756 18.744C82.772 17.8907 82.6067 17.2587 82.26 16.848C81.9133 16.4373 81.3107 16.232 80.452 16.232C79.86 16.232 79.3587 16.3653 78.948 16.632C78.5427 16.8987 78.2573 17.32 78.092 17.896L76.948 17.56C77.1453 16.7867 77.5427 16.1867 78.14 15.76C78.7373 15.3333 79.5133 15.12 80.468 15.12C81.2573 15.12 81.9267 15.2693 82.476 15.568C83.0307 15.8613 83.4227 16.288 83.652 16.848C83.7587 17.0987 83.828 17.3787 83.86 17.688C83.892 17.9973 83.908 18.312 83.908 18.632V24H82.86V21.832L83.164 21.96C82.8707 22.7013 82.4147 23.2667 81.796 23.656C81.1773 24.0453 80.436 24.24 79.572 24.24ZM79.708 23.224C80.2573 23.224 80.7373 23.1253 81.148 22.928C81.5587 22.7307 81.8893 22.4613 82.14 22.12C82.3907 21.7733 82.5533 21.384 82.628 20.952C82.692 20.6747 82.7267 20.3707 82.732 20.04C82.7373 19.704 82.74 19.4533 82.74 19.288L83.188 19.52C82.788 19.5733 82.3533 19.6267 81.884 19.68C81.42 19.7333 80.9613 19.7947 80.508 19.864C80.06 19.9333 79.6547 20.016 79.292 20.112C79.0467 20.1813 78.8093 20.28 78.58 20.408C78.3507 20.5307 78.1613 20.696 78.012 20.904C77.868 21.112 77.796 21.3707 77.796 21.68C77.796 21.9307 77.8573 22.1733 77.98 22.408C78.108 22.6427 78.3107 22.8373 78.588 22.992C78.8707 23.1467 79.244 23.224 79.708 23.224ZM86.4706 24V15.36H87.5266V17.44L87.3186 17.168C87.4146 16.912 87.54 16.6773 87.6946 16.464C87.8493 16.2453 88.0173 16.0667 88.1986 15.928C88.4226 15.7307 88.684 15.5813 88.9826 15.48C89.2813 15.3733 89.5826 15.312 89.8866 15.296C90.1906 15.2747 90.468 15.296 90.7186 15.36V16.464C90.404 16.384 90.06 16.3653 89.6866 16.408C89.3133 16.4507 88.9693 16.6 88.6546 16.856C88.3666 17.08 88.1506 17.3493 88.0066 17.664C87.8626 17.9733 87.7666 18.304 87.7186 18.656C87.6706 19.0027 87.6466 19.3467 87.6466 19.688V24H86.4706ZM92.7163 24V15.36H93.7723V17.44L93.5643 17.168C93.6603 16.912 93.7856 16.6773 93.9403 16.464C94.0949 16.2453 94.2629 16.0667 94.4443 15.928C94.6683 15.7307 94.9296 15.5813 95.2283 15.48C95.5269 15.3733 95.8283 15.312 96.1323 15.296C96.4363 15.2747 96.7136 15.296 96.9643 15.36V16.464C96.6496 16.384 96.3056 16.3653 95.9323 16.408C95.5589 16.4507 95.2149 16.6 94.9003 16.856C94.6123 17.08 94.3963 17.3493 94.2523 17.664C94.1083 17.9733 94.0123 18.304 93.9643 18.656C93.9163 19.0027 93.8923 19.3467 93.8923 19.688V24H92.7163ZM99.1219 13.72V12.4H100.298V13.72H99.1219ZM99.1219 24V15.36H100.298V24H99.1219ZM106.832 24.24C105.99 24.24 105.259 24.0533 104.64 23.68C104.027 23.3067 103.55 22.7813 103.208 22.104C102.867 21.4267 102.696 20.632 102.696 19.72C102.696 18.776 102.864 17.96 103.2 17.272C103.536 16.584 104.008 16.0533 104.616 15.68C105.23 15.3067 105.952 15.12 106.784 15.12C107.638 15.12 108.366 15.3173 108.968 15.712C109.571 16.1013 110.027 16.6613 110.336 17.392C110.646 18.1227 110.787 18.9947 110.76 20.008H109.56V19.592C109.539 18.472 109.296 17.6267 108.832 17.056C108.374 16.4853 107.702 16.2 106.816 16.2C105.888 16.2 105.176 16.5013 104.68 17.104C104.19 17.7067 103.944 18.5653 103.944 19.68C103.944 20.768 104.19 21.6133 104.68 22.216C105.176 22.8133 105.878 23.112 106.784 23.112C107.403 23.112 107.942 22.9707 108.4 22.688C108.864 22.4 109.23 21.9867 109.496 21.448L110.592 21.872C110.251 22.624 109.747 23.208 109.08 23.624C108.419 24.0347 107.67 24.24 106.832 24.24ZM103.528 20.008V19.024H110.128V20.008H103.528ZM113.016 24V15.36H114.072V17.44L113.864 17.168C113.96 16.912 114.085 16.6773 114.24 16.464C114.394 16.2453 114.562 16.0667 114.744 15.928C114.968 15.7307 115.229 15.5813 115.528 15.48C115.826 15.3733 116.128 15.312 116.432 15.296C116.736 15.2747 117.013 15.296 117.264 15.36V16.464C116.949 16.384 116.605 16.3653 116.232 16.408C115.858 16.4507 115.514 16.6 115.2 16.856C114.912 17.08 114.696 17.3493 114.552 17.664C114.408 17.9733 114.312 18.304 114.264 18.656C114.216 19.0027 114.192 19.3467 114.192 19.688V24H113.016ZM122.761 24.24C121.918 24.24 121.188 24.0533 120.569 23.68C119.956 23.3067 119.478 22.7813 119.137 22.104C118.796 21.4267 118.625 20.632 118.625 19.72C118.625 18.776 118.793 17.96 119.129 17.272C119.465 16.584 119.937 16.0533 120.545 15.68C121.158 15.3067 121.881 15.12 122.713 15.12C123.566 15.12 124.294 15.3173 124.897 15.712C125.5 16.1013 125.956 16.6613 126.265 17.392C126.574 18.1227 126.716 18.9947 126.689 20.008H125.489V19.592C125.468 18.472 125.225 17.6267 124.761 17.056C124.302 16.4853 123.63 16.2 122.745 16.2C121.817 16.2 121.105 16.5013 120.609 17.104C120.118 17.7067 119.873 18.5653 119.873 19.68C119.873 20.768 120.118 21.6133 120.609 22.216C121.105 22.8133 121.806 23.112 122.713 23.112C123.332 23.112 123.87 22.9707 124.329 22.688C124.793 22.4 125.158 21.9867 125.425 21.448L126.521 21.872C126.18 22.624 125.676 23.208 125.009 23.624C124.348 24.0347 123.598 24.24 122.761 24.24ZM119.457 20.008V19.024H126.057V20.008H119.457Z" fill="#0069D1"/>
</svg>
