<svg width="287" height="36" viewBox="0 0 287 36" fill="none" xmlns="http://www.w3.org/2000/svg">
<rect width="287" height="36" rx="18" fill="#03A8E2" fill-opacity="0.2"/>
<path d="M53.9406 10.6051C51.9682 9.91736 50.4096 8.40326 49.6644 6.45062L49.4922 6H38.512L38.34 6.45062C37.5946 8.40326 36.036 9.91736 34.0638 10.6051L33.5938 10.7688V14.0229C33.5938 17.2165 34.4716 20.3463 36.132 23.074C37.7925 25.8019 40.1698 28.0188 43.0067 29.4855L44.0022 30L44.9976 29.4853C47.8344 28.0188 50.2117 25.8019 51.8723 23.074C53.5327 20.3463 54.4105 17.2165 54.4105 14.0229V10.7688L53.9406 10.6051ZM53.0093 14.0229C53.0093 20.033 49.6929 25.481 44.3541 28.2407L44.0022 28.4227L43.6501 28.2407C38.3113 25.481 34.9949 20.033 34.9949 14.0229V11.7486C36.9854 10.92 38.5788 9.36951 39.4619 7.40112H48.5421C49.4254 9.36951 51.0188 10.92 53.0093 11.7486V14.0229Z" fill="#6FB9FE"/>
<path d="M47.3711 9.13086L47.4297 9.22852C47.8947 10.0071 48.3296 10.6427 48.9014 11.2012C49.4757 11.7621 50.1674 12.2256 51.126 12.6943L51.2373 12.749V14.8965C51.108 17.1389 50.4587 19.3023 49.3643 21.1533C48.2161 23.0953 46.5661 24.7022 44.5928 25.7998L44.582 25.8057L44.002 26.1055L43.4111 25.7998C41.4378 24.7022 39.7878 23.0954 38.6396 21.1533C37.5452 19.3022 36.8949 17.1389 36.7656 14.8965V12.749L36.8779 12.6943C37.8364 12.2256 38.5282 11.7621 39.1025 11.2012C39.6744 10.6427 40.1093 10.0072 40.5742 9.22852L40.6328 9.13086H47.3711ZM50.8369 13.0029L50.5703 12.8623C48.9301 11.9965 48.1268 11.1129 47.2881 9.76758L47.1416 9.53223H40.8623L40.7148 9.76758C39.8764 11.1127 39.0738 11.9966 37.4336 12.8623L37.167 13.0029V14.8809C37.4295 19.3894 39.8264 23.3451 43.6016 25.4473L43.6084 25.4502L43.6152 25.4541L43.7725 25.5352L44.002 25.6543L44.2314 25.5352L44.3887 25.4541L44.3955 25.4502L44.4023 25.4473C48.1777 23.3451 50.5744 19.3894 50.8369 14.8809L50.8672 14.3516H50.8369V13.0029Z" fill="#6FB9FE" stroke="#6FB9FE"/>
<path d="M43.0502 17.9505L40.4532 15.498L39.4912 16.5166L43.0614 19.8883L48.5196 14.6127L47.5458 13.6052L43.0502 17.9505Z" fill="#6FB9FE"/>
<path d="M69.456 24L66.32 15.36H67.512L70.064 22.464L72.6 15.36H73.808L70.672 24H69.456ZM79.0205 24.24C78.1618 24.24 77.4285 24.0453 76.8205 23.656C76.2125 23.2667 75.7458 22.728 75.4205 22.04C75.0952 21.352 74.9325 20.5627 74.9325 19.672C74.9325 18.7653 75.0978 17.9707 75.4285 17.288C75.7592 16.6053 76.2285 16.0747 76.8365 15.696C77.4498 15.312 78.1778 15.12 79.0205 15.12C79.8845 15.12 80.6205 15.3147 81.2285 15.704C81.8418 16.088 82.3085 16.624 82.6285 17.312C82.9538 17.9947 83.1165 18.7813 83.1165 19.672C83.1165 20.5787 82.9538 21.376 82.6285 22.064C82.3032 22.7467 81.8338 23.28 81.2205 23.664C80.6072 24.048 79.8738 24.24 79.0205 24.24ZM79.0205 23.112C79.9805 23.112 80.6952 22.7947 81.1645 22.16C81.6338 21.52 81.8685 20.6907 81.8685 19.672C81.8685 18.6267 81.6312 17.7947 81.1565 17.176C80.6872 16.5573 79.9752 16.248 79.0205 16.248C78.3752 16.248 77.8418 16.3947 77.4205 16.688C77.0045 16.976 76.6925 17.3787 76.4845 17.896C76.2818 18.408 76.1805 19 76.1805 19.672C76.1805 20.712 76.4205 21.5467 76.9005 22.176C77.3805 22.8 78.0872 23.112 79.0205 23.112ZM85.3612 24V15.36H86.4172V17.44L86.2092 17.168C86.3052 16.912 86.4306 16.6773 86.5852 16.464C86.7399 16.2453 86.9079 16.0667 87.0892 15.928C87.3132 15.7307 87.5746 15.5813 87.8732 15.48C88.1719 15.3733 88.4732 15.312 88.7772 15.296C89.0812 15.2747 89.3586 15.296 89.6092 15.36V16.464C89.2946 16.384 88.9506 16.3653 88.5772 16.408C88.2039 16.4507 87.8599 16.6 87.5452 16.856C87.2572 17.08 87.0412 17.3493 86.8972 17.664C86.7532 17.9733 86.6572 18.304 86.6092 18.656C86.5612 19.0027 86.5372 19.3467 86.5372 19.688V24H85.3612ZM99.954 24.24C98.8073 24.24 97.8393 23.9867 97.05 23.48C96.2607 22.968 95.6633 22.2613 95.258 21.36C94.8527 20.4587 94.65 19.4187 94.65 18.24C94.65 17.0613 94.8527 16.0213 95.258 15.12C95.6633 14.2187 96.2607 13.5147 97.05 13.008C97.8393 12.496 98.8073 12.24 99.954 12.24C101.106 12.24 102.074 12.496 102.858 13.008C103.647 13.5147 104.245 14.2187 104.65 15.12C105.061 16.0213 105.266 17.0613 105.266 18.24C105.266 19.4187 105.061 20.4587 104.65 21.36C104.245 22.2613 103.647 22.968 102.858 23.48C102.074 23.9867 101.106 24.24 99.954 24.24ZM99.954 23.112C100.855 23.112 101.607 22.9067 102.21 22.496C102.813 22.0853 103.263 21.5147 103.562 20.784C103.866 20.048 104.018 19.2 104.018 18.24C104.018 17.28 103.866 16.4347 103.562 15.704C103.263 14.9733 102.813 14.4027 102.21 13.992C101.607 13.5813 100.855 13.3733 99.954 13.368C99.0527 13.368 98.3033 13.5733 97.706 13.984C97.1087 14.3947 96.658 14.968 96.354 15.704C96.0553 16.4347 95.9033 17.28 95.898 18.24C95.8927 19.2 96.0393 20.0453 96.338 20.776C96.642 21.5013 97.0953 22.072 97.698 22.488C98.3007 22.8987 99.0527 23.1067 99.954 23.112ZM107.348 24V15.36H108.404V17.44L108.196 17.168C108.292 16.912 108.417 16.6773 108.572 16.464C108.727 16.2453 108.895 16.0667 109.076 15.928C109.3 15.7307 109.561 15.5813 109.86 15.48C110.159 15.3733 110.46 15.312 110.764 15.296C111.068 15.2747 111.345 15.296 111.596 15.36V16.464C111.281 16.384 110.937 16.3653 110.564 16.408C110.191 16.4507 109.847 16.6 109.532 16.856C109.244 17.08 109.028 17.3493 108.884 17.664C108.74 17.9733 108.644 18.304 108.596 18.656C108.548 19.0027 108.524 19.3467 108.524 19.688V24H107.348ZM118.298 24C117.812 24.1013 117.332 24.1413 116.858 24.12C116.388 24.0987 115.967 23.9973 115.594 23.816C115.226 23.6347 114.946 23.352 114.754 22.968C114.599 22.648 114.514 22.3253 114.498 22C114.487 21.6693 114.482 21.2933 114.482 20.872V12.96H115.65V20.824C115.65 21.1867 115.652 21.4907 115.658 21.736C115.668 21.976 115.724 22.1893 115.826 22.376C116.018 22.7333 116.322 22.9467 116.738 23.016C117.159 23.0853 117.679 23.0693 118.298 22.968V24ZM112.634 16.368V15.36H118.298V16.368H112.634ZM127.771 24.24C126.912 24.24 126.179 24.0453 125.571 23.656C124.963 23.2667 124.496 22.728 124.171 22.04C123.846 21.352 123.683 20.5627 123.683 19.672C123.683 18.7653 123.848 17.9707 124.179 17.288C124.51 16.6053 124.979 16.0747 125.587 15.696C126.2 15.312 126.928 15.12 127.771 15.12C128.635 15.12 129.371 15.3147 129.979 15.704C130.592 16.088 131.059 16.624 131.379 17.312C131.704 17.9947 131.867 18.7813 131.867 19.672C131.867 20.5787 131.704 21.376 131.379 22.064C131.054 22.7467 130.584 23.28 129.971 23.664C129.358 24.048 128.624 24.24 127.771 24.24ZM127.771 23.112C128.731 23.112 129.446 22.7947 129.915 22.16C130.384 21.52 130.619 20.6907 130.619 19.672C130.619 18.6267 130.382 17.7947 129.907 17.176C129.438 16.5573 128.726 16.248 127.771 16.248C127.126 16.248 126.592 16.3947 126.171 16.688C125.755 16.976 125.443 17.3787 125.235 17.896C125.032 18.408 124.931 19 124.931 19.672C124.931 20.712 125.171 21.5467 125.651 22.176C126.131 22.8 126.838 23.112 127.771 23.112ZM137.464 24.24C136.659 24.24 135.971 24.04 135.4 23.64C134.829 23.2347 134.392 22.688 134.088 22C133.784 21.312 133.632 20.536 133.632 19.672C133.632 18.8133 133.781 18.04 134.08 17.352C134.384 16.664 134.819 16.12 135.384 15.72C135.949 15.32 136.627 15.12 137.416 15.12C138.227 15.12 138.909 15.3173 139.464 15.712C140.019 16.1067 140.437 16.648 140.72 17.336C141.008 18.0187 141.152 18.7973 141.152 19.672C141.152 20.5307 141.011 21.3067 140.728 22C140.445 22.688 140.029 23.2347 139.48 23.64C138.931 24.04 138.259 24.24 137.464 24.24ZM137.584 23.144C138.197 23.144 138.704 22.9947 139.104 22.696C139.504 22.3973 139.803 21.9867 140 21.464C140.197 20.936 140.296 20.3387 140.296 19.672C140.296 18.9947 140.197 18.3973 140 17.88C139.803 17.3573 139.504 16.9493 139.104 16.656C138.709 16.3627 138.211 16.216 137.608 16.216C136.989 16.216 136.477 16.368 136.072 16.672C135.667 16.976 135.365 17.3893 135.168 17.912C134.976 18.4347 134.88 19.0213 134.88 19.672C134.88 20.328 134.979 20.92 135.176 21.448C135.379 21.9707 135.68 22.384 136.08 22.688C136.48 22.992 136.981 23.144 137.584 23.144ZM140.296 24V17.496H140.168V12.48H141.352V24H140.296ZM147.732 24.24C146.89 24.24 146.159 24.0533 145.54 23.68C144.927 23.3067 144.45 22.7813 144.108 22.104C143.767 21.4267 143.596 20.632 143.596 19.72C143.596 18.776 143.764 17.96 144.1 17.272C144.436 16.584 144.908 16.0533 145.516 15.68C146.13 15.3067 146.852 15.12 147.684 15.12C148.538 15.12 149.266 15.3173 149.868 15.712C150.471 16.1013 150.927 16.6613 151.236 17.392C151.546 18.1227 151.687 18.9947 151.66 20.008H150.46V19.592C150.439 18.472 150.196 17.6267 149.732 17.056C149.274 16.4853 148.602 16.2 147.716 16.2C146.788 16.2 146.076 16.5013 145.58 17.104C145.09 17.7067 144.844 18.5653 144.844 19.68C144.844 20.768 145.09 21.6133 145.58 22.216C146.076 22.8133 146.778 23.112 147.684 23.112C148.303 23.112 148.842 22.9707 149.3 22.688C149.764 22.4 150.13 21.9867 150.396 21.448L151.492 21.872C151.151 22.624 150.647 23.208 149.98 23.624C149.319 24.0347 148.57 24.24 147.732 24.24ZM144.428 20.008V19.024H151.028V20.008H144.428ZM153.916 24V15.36H154.972V17.44L154.764 17.168C154.86 16.912 154.985 16.6773 155.14 16.464C155.294 16.2453 155.462 16.0667 155.644 15.928C155.868 15.7307 156.129 15.5813 156.428 15.48C156.726 15.3733 157.028 15.312 157.332 15.296C157.636 15.2747 157.913 15.296 158.164 15.36V16.464C157.849 16.384 157.505 16.3653 157.132 16.408C156.758 16.4507 156.414 16.6 156.1 16.856C155.812 17.08 155.596 17.3493 155.452 17.664C155.308 17.9733 155.212 18.304 155.164 18.656C155.116 19.0027 155.092 19.3467 155.092 19.688V24H153.916ZM166.316 24.24C165.666 24.24 165.119 24.1227 164.676 23.888C164.239 23.6533 163.911 23.3413 163.692 22.952C163.474 22.5627 163.364 22.1387 163.364 21.68C163.364 21.2107 163.458 20.8107 163.644 20.48C163.836 20.144 164.095 19.8693 164.42 19.656C164.751 19.4427 165.132 19.28 165.564 19.168C166.002 19.0613 166.484 18.968 167.012 18.888C167.546 18.8027 168.066 18.7307 168.572 18.672C169.084 18.608 169.532 18.5467 169.916 18.488L169.5 18.744C169.516 17.8907 169.351 17.2587 169.004 16.848C168.658 16.4373 168.055 16.232 167.196 16.232C166.604 16.232 166.103 16.3653 165.692 16.632C165.287 16.8987 165.002 17.32 164.836 17.896L163.692 17.56C163.89 16.7867 164.287 16.1867 164.884 15.76C165.482 15.3333 166.258 15.12 167.212 15.12C168.002 15.12 168.671 15.2693 169.22 15.568C169.775 15.8613 170.167 16.288 170.396 16.848C170.503 17.0987 170.572 17.3787 170.604 17.688C170.636 17.9973 170.652 18.312 170.652 18.632V24H169.604V21.832L169.908 21.96C169.615 22.7013 169.159 23.2667 168.54 23.656C167.922 24.0453 167.18 24.24 166.316 24.24ZM166.452 23.224C167.002 23.224 167.482 23.1253 167.892 22.928C168.303 22.7307 168.634 22.4613 168.884 22.12C169.135 21.7733 169.298 21.384 169.372 20.952C169.436 20.6747 169.471 20.3707 169.476 20.04C169.482 19.704 169.484 19.4533 169.484 19.288L169.932 19.52C169.532 19.5733 169.098 19.6267 168.628 19.68C168.164 19.7333 167.706 19.7947 167.252 19.864C166.804 19.9333 166.399 20.016 166.036 20.112C165.791 20.1813 165.554 20.28 165.324 20.408C165.095 20.5307 164.906 20.696 164.756 20.904C164.612 21.112 164.54 21.3707 164.54 21.68C164.54 21.9307 164.602 22.1733 164.724 22.408C164.852 22.6427 165.055 22.8373 165.332 22.992C165.615 23.1467 165.988 23.224 166.452 23.224ZM176.519 24.216C176.002 24.216 175.548 24.136 175.159 23.976C174.775 23.816 174.447 23.6 174.175 23.328C173.908 23.056 173.692 22.7467 173.527 22.4C173.362 22.048 173.242 21.6773 173.167 21.288C173.092 20.8933 173.055 20.5013 173.055 20.112V15.36H174.239V19.768C174.239 20.2427 174.284 20.6827 174.375 21.088C174.466 21.4933 174.61 21.848 174.807 22.152C175.01 22.4507 175.268 22.6827 175.583 22.848C175.903 23.0133 176.29 23.096 176.743 23.096C177.159 23.096 177.524 23.024 177.839 22.88C178.159 22.736 178.426 22.5307 178.639 22.264C178.858 21.992 179.023 21.664 179.135 21.28C179.247 20.8907 179.303 20.4533 179.303 19.968L180.135 20.152C180.135 21.0373 179.98 21.7813 179.671 22.384C179.362 22.9867 178.935 23.4427 178.391 23.752C177.847 24.0613 177.223 24.216 176.519 24.216ZM179.423 24V21.872H179.303V15.36H180.479V24H179.423ZM186.779 24.24C185.91 24.24 185.174 24.0453 184.571 23.656C183.968 23.2667 183.51 22.7307 183.195 22.048C182.886 21.36 182.726 20.5707 182.715 19.68C182.726 18.7733 182.891 17.9787 183.211 17.296C183.531 16.608 183.992 16.0747 184.595 15.696C185.198 15.312 185.928 15.12 186.787 15.12C187.662 15.12 188.422 15.3333 189.067 15.76C189.718 16.1867 190.163 16.7707 190.403 17.512L189.251 17.88C189.048 17.3627 188.726 16.9627 188.283 16.68C187.846 16.392 187.344 16.248 186.779 16.248C186.144 16.248 185.619 16.3947 185.203 16.688C184.787 16.976 184.478 17.3787 184.275 17.896C184.072 18.4133 183.968 19.008 183.963 19.68C183.974 20.7147 184.214 21.5467 184.683 22.176C185.152 22.8 185.851 23.112 186.779 23.112C187.366 23.112 187.864 22.9787 188.275 22.712C188.691 22.44 189.006 22.0453 189.219 21.528L190.403 21.88C190.083 22.648 189.614 23.2347 188.995 23.64C188.376 24.04 187.638 24.24 186.779 24.24ZM198.774 24V19.592C198.774 19.112 198.729 18.672 198.638 18.272C198.548 17.8667 198.401 17.5147 198.198 17.216C198.001 16.912 197.742 16.6773 197.422 16.512C197.108 16.3467 196.724 16.264 196.27 16.264C195.854 16.264 195.486 16.336 195.166 16.48C194.852 16.624 194.585 16.832 194.366 17.104C194.153 17.3707 193.99 17.696 193.878 18.08C193.766 18.464 193.71 18.9013 193.71 19.392L192.878 19.208C192.878 18.3227 193.033 17.5787 193.342 16.976C193.652 16.3733 194.078 15.9173 194.622 15.608C195.166 15.2987 195.79 15.144 196.494 15.144C197.012 15.144 197.462 15.224 197.846 15.384C198.236 15.544 198.564 15.76 198.83 16.032C199.102 16.304 199.321 16.616 199.486 16.968C199.652 17.3147 199.772 17.6853 199.846 18.08C199.921 18.4693 199.958 18.8587 199.958 19.248V24H198.774ZM192.526 24V12.48H193.59V18.984H193.71V24H192.526ZM210.861 24.24C209.715 24.24 208.747 23.9867 207.957 23.48C207.168 22.968 206.571 22.2613 206.165 21.36C205.76 20.4587 205.557 19.4187 205.557 18.24C205.557 17.0613 205.76 16.0213 206.165 15.12C206.571 14.2187 207.168 13.5147 207.957 13.008C208.747 12.496 209.715 12.24 210.861 12.24C212.013 12.24 212.981 12.496 213.766 13.008C214.555 13.5147 215.152 14.2187 215.557 15.12C215.968 16.0213 216.174 17.0613 216.174 18.24C216.174 19.4187 215.968 20.4587 215.557 21.36C215.152 22.2613 214.555 22.968 213.766 23.48C212.981 23.9867 212.013 24.24 210.861 24.24ZM210.861 23.112C211.763 23.112 212.515 22.9067 213.117 22.496C213.72 22.0853 214.171 21.5147 214.469 20.784C214.773 20.048 214.925 19.2 214.925 18.24C214.925 17.28 214.773 16.4347 214.469 15.704C214.171 14.9733 213.72 14.4027 213.117 13.992C212.515 13.5813 211.763 13.3733 210.861 13.368C209.96 13.368 209.211 13.5733 208.613 13.984C208.016 14.3947 207.565 14.968 207.261 15.704C206.963 16.4347 206.811 17.28 206.805 18.24C206.8 19.2 206.947 20.0453 207.245 20.776C207.549 21.5013 208.003 22.072 208.605 22.488C209.208 22.8987 209.96 23.1067 210.861 23.112ZM224.496 24V19.592C224.496 19.112 224.45 18.672 224.36 18.272C224.269 17.8667 224.122 17.5147 223.92 17.216C223.722 16.912 223.464 16.6773 223.144 16.512C222.829 16.3467 222.445 16.264 221.992 16.264C221.576 16.264 221.208 16.336 220.888 16.48C220.573 16.624 220.306 16.832 220.088 17.104C219.874 17.3707 219.712 17.696 219.6 18.08C219.488 18.464 219.432 18.9013 219.432 19.392L218.6 19.208C218.6 18.3227 218.754 17.5787 219.064 16.976C219.373 16.3733 219.8 15.9173 220.344 15.608C220.888 15.2987 221.512 15.144 222.216 15.144C222.733 15.144 223.184 15.224 223.568 15.384C223.957 15.544 224.285 15.76 224.552 16.032C224.824 16.304 225.042 16.616 225.208 16.968C225.373 17.3147 225.493 17.6853 225.568 18.08C225.642 18.4693 225.68 18.8587 225.68 19.248V24H224.496ZM218.248 24V15.36H219.312V17.488H219.432V24H218.248ZM228.396 24V12.24H229.572V24H228.396ZM232.61 13.72V12.4H233.786V13.72H232.61ZM232.61 24V15.36H233.786V24H232.61ZM242.904 24V19.592C242.904 19.112 242.859 18.672 242.768 18.272C242.678 17.8667 242.531 17.5147 242.328 17.216C242.131 16.912 241.872 16.6773 241.552 16.512C241.238 16.3467 240.854 16.264 240.4 16.264C239.984 16.264 239.616 16.336 239.296 16.48C238.982 16.624 238.715 16.832 238.496 17.104C238.283 17.3707 238.12 17.696 238.008 18.08C237.896 18.464 237.84 18.9013 237.84 19.392L237.008 19.208C237.008 18.3227 237.163 17.5787 237.472 16.976C237.782 16.3733 238.208 15.9173 238.752 15.608C239.296 15.2987 239.92 15.144 240.624 15.144C241.142 15.144 241.592 15.224 241.976 15.384C242.366 15.544 242.694 15.76 242.96 16.032C243.232 16.304 243.451 16.616 243.616 16.968C243.782 17.3147 243.902 17.6853 243.976 18.08C244.051 18.4693 244.088 18.8587 244.088 19.248V24H242.904ZM236.656 24V15.36H237.72V17.488H237.84V24H236.656ZM250.253 24.24C249.411 24.24 248.68 24.0533 248.061 23.68C247.448 23.3067 246.971 22.7813 246.629 22.104C246.288 21.4267 246.117 20.632 246.117 19.72C246.117 18.776 246.285 17.96 246.621 17.272C246.957 16.584 247.429 16.0533 248.037 15.68C248.651 15.3067 249.373 15.12 250.205 15.12C251.059 15.12 251.787 15.3173 252.389 15.712C252.992 16.1013 253.448 16.6613 253.757 17.392C254.067 18.1227 254.208 18.9947 254.181 20.008H252.981V19.592C252.96 18.472 252.717 17.6267 252.253 17.056C251.795 16.4853 251.123 16.2 250.237 16.2C249.309 16.2 248.597 16.5013 248.101 17.104C247.611 17.7067 247.365 18.5653 247.365 19.68C247.365 20.768 247.611 21.6133 248.101 22.216C248.597 22.8133 249.299 23.112 250.205 23.112C250.824 23.112 251.363 22.9707 251.821 22.688C252.285 22.4 252.651 21.9867 252.917 21.448L254.013 21.872C253.672 22.624 253.168 23.208 252.501 23.624C251.84 24.0347 251.091 24.24 250.253 24.24ZM246.949 20.008V19.024H253.549V20.008H246.949Z" fill="#0069D1"/>
</svg>
