<svg width="32" height="32" viewBox="0 0 32 32" fill="none" xmlns="http://www.w3.org/2000/svg">
<path d="M9.94702 25.7866H7.38696C3.46696 25.5066 1.70703 22.4933 1.70703 19.8133C1.70703 17.1333 3.46698 14.1066 7.32031 13.84C7.86698 13.7866 8.34696 14.2133 8.38696 14.7733C8.42696 15.32 8.01369 15.8 7.45369 15.84C4.86703 16.0266 3.70703 17.9733 3.70703 19.8266C3.70703 21.6799 4.86703 23.6266 7.45369 23.8133H9.94702C10.4937 23.8133 10.947 24.2666 10.947 24.8133C10.947 25.36 10.4937 25.7866 9.94702 25.7866Z" fill="#292D32"/>
<path d="M22.2272 25.7865C22.2005 25.7865 22.1872 25.7865 22.1605 25.7865C21.6139 25.7865 21.1072 25.3332 21.1072 24.7865C21.1072 24.2132 21.5339 23.7865 22.0939 23.7865C23.7339 23.7865 25.2005 23.2132 26.3472 22.1865C28.4272 20.3732 28.5605 17.7598 28.0005 15.9198C27.4405 14.0932 25.8805 11.9998 23.1605 11.6665C22.7205 11.6132 22.3738 11.2798 22.2938 10.8398C21.7605 7.63985 20.0405 5.42651 17.4272 4.62651C14.7339 3.78651 11.5872 4.61317 9.62716 6.66651C7.7205 8.65317 7.28051 11.4398 8.38717 14.5065C8.57384 15.0265 8.30724 15.5998 7.78724 15.7865C7.26724 15.9732 6.69388 15.7065 6.50721 15.1865C5.16054 11.4265 5.77389 7.82651 8.18722 5.29317C10.6539 2.70651 14.6139 1.67983 18.0139 2.71983C21.1339 3.67983 23.3338 6.25317 24.1338 9.8265C26.8538 10.4398 29.0405 12.5065 29.9072 15.3598C30.8539 18.4665 30.0005 21.6665 27.6672 23.6932C26.1872 25.0265 24.2538 25.7865 22.2272 25.7865Z" fill="#292D32"/>
<path d="M15.9987 29.7069C13.3187 29.7069 10.8121 28.2802 9.43872 25.9735C9.29205 25.7469 9.14539 25.4802 9.02539 25.1869C8.57206 24.2402 8.33203 23.1602 8.33203 22.0402C8.33203 17.8135 11.772 14.3735 15.9987 14.3735C20.2254 14.3735 23.6654 17.8135 23.6654 22.0402C23.6654 23.1735 23.4254 24.2402 22.9454 25.2269C22.8387 25.4802 22.6921 25.7469 22.5321 26.0002C21.1854 28.2802 18.6787 29.7069 15.9987 29.7069ZM15.9987 16.3735C12.8787 16.3735 10.332 18.9202 10.332 22.0402C10.332 22.8669 10.5054 23.6402 10.8387 24.3469C10.9454 24.5735 11.0387 24.7602 11.1453 24.9335C12.1587 26.6535 14.012 27.7069 15.9854 27.7069C17.9587 27.7069 19.812 26.6535 20.812 24.9602C20.932 24.7602 21.0387 24.5735 21.1187 24.3869C21.4787 23.6535 21.652 22.8802 21.652 22.0535C21.6654 18.9202 19.1187 16.3735 15.9987 16.3735Z" fill="#292D32"/>
<path d="M15.2386 24.36C14.9852 24.36 14.7319 24.2666 14.5319 24.0666L13.2119 22.7466C12.8252 22.3599 12.8252 21.72 13.2119 21.3333C13.5985 20.9466 14.2385 20.9466 14.6252 21.3333L15.2653 21.9733L17.3986 20C17.8119 19.6266 18.4386 19.6533 18.8119 20.0533C19.1852 20.4533 19.1586 21.0933 18.7586 21.4666L15.9186 24.0933C15.7186 24.2666 15.4786 24.36 15.2386 24.36Z" fill="#292D32"/>
</svg>
