<svg width="6" height="11" viewBox="0 0 6 11" fill="none" xmlns="http://www.w3.org/2000/svg">
<path d="M0.140356 10.1403L4.78688 5.49384L0.140356 0.847356C0.0492769 0.753055 -0.00112031 0.626754 1.89013e-05 0.495655C0.00115811 0.364557 0.0537429 0.239151 0.146447 0.146447C0.239151 0.0537425 0.364557 0.00115811 0.495656 1.89013e-05C0.626754 -0.00112031 0.753056 0.0492769 0.847357 0.140356L5.84736 5.14036C5.89379 5.18677 5.93062 5.24188 5.95575 5.30254C5.98089 5.36319 5.99382 5.4282 5.99382 5.49386C5.99382 5.55951 5.98089 5.62452 5.95575 5.68518C5.93062 5.74583 5.89379 5.80094 5.84736 5.84736L0.847357 10.8474C0.753056 10.9384 0.626754 10.9888 0.495656 10.9877C0.364557 10.9866 0.239151 10.934 0.146447 10.8413C0.0537429 10.7486 0.00115811 10.6232 1.89013e-05 10.4921C-0.00112031 10.361 0.0492769 10.2346 0.140356 10.1403Z" fill="#B4C4D2"/>
</svg>
